<svg id="Layer_1" data-name="Layer 1" xmlns="http://www.w3.org/2000/svg" viewBox="0 0 515 320"><defs><style>.cls-1{fill:#004568;}.cls-2{opacity:0.25;}.cls-3{fill:#0aa;}.cls-4{fill:#cb4c45;}.cls-5{fill:#008488;}.cls-6{fill:#838383;}.cls-7{fill:#7da0b2;}.cls-8{fill:none;stroke:#838383;stroke-linecap:round;stroke-linejoin:round;stroke-width:5px;}.cls-9{fill:#fff;}</style></defs><title>About_02</title><path class="cls-1" d="M479.83,51.76A8.3,8.3,0,0,0,475,49.38a27.21,27.21,0,0,1,3.17,24.75,173.86,173.86,0,0,1,12.78,15.1c1.19,1.63,2.15,3.07,2.9,4.3-.47-.09-1-.2-1.45-.32a87,87,0,0,1-10.43-3.32c-1.49-.56-2.75-1.07-3.62-1.44l-1-.42-.31-.14a8.77,8.77,0,0,0-2.6-.68,8.25,8.25,0,0,0-1.65-.17h-4.5a27.15,27.15,0,0,1-31.51,0h-4.5a8.68,8.68,0,0,0-1.26.11,18.76,18.76,0,0,0-9.76,3.06c-6,3.8-12.06,11.37-16.53,25.41s-7.64,35.06-7.65,67.23a8.39,8.39,0,1,0,16.77,0c0-40.58,5.43-61.27,10.32-70.76V269.62a13,13,0,0,0,25.93,0V175h4.86v94.66a13,13,0,0,0,25.93,0V107.32c2.38.8,4.95,1.58,7.61,2.21a42.53,42.53,0,0,0,9.55,1.31,16.67,16.67,0,0,0,9-2.3,12,12,0,0,0,4.24-4.55,12.73,12.73,0,0,0,1.44-6,21.31,21.31,0,0,0-2.35-9.06C506.17,80.27,497.23,69.25,479.83,51.76Z"/><path class="cls-1" d="M465.53,45.14a23.49,23.49,0,0,0-8-3.39c.67,1.71,1.41,3.65,2.14,5.68A36.61,36.61,0,0,0,465.53,45.14Z"/><path class="cls-1" d="M455.17,48.63l.39-.1-.83-2.25c-.71-1.88-1.4-3.62-2-5.05h-.25a23.74,23.74,0,0,0-6.35.87c-.27,2.83-.51,5.75-.7,8.47C448.81,50,452.13,49.37,455.17,48.63Z"/><path class="cls-1" d="M441.21,51.21c.16-2.35.35-4.88.58-7.41a23.64,23.64,0,0,0-9.29,8.51C435.26,52,438.21,51.64,441.21,51.21Z"/><path class="cls-1" d="M440.6,61.37c0-1,.16-3.15.33-5.88l-2.1.28c-3,.39-5.86.72-8.5,1a23.49,23.49,0,0,0-1.3,5.71c2.21-.17,5-.42,8.22-.74Z"/><path class="cls-1" d="M458.78,58.58c-.45-1.8-1.09-3.9-1.82-6.07l-.81.2c-3.47.84-7.22,1.54-11,2.14-.17,2.58-.28,4.7-.34,6C449.44,60.26,454.28,59.51,458.78,58.58Z"/><path class="cls-1" d="M476.1,64.81a23.65,23.65,0,0,0-1.07-7,50.37,50.37,0,0,1-11.8,4.11A172.74,172.74,0,0,1,445.91,65c-6.7.87-12.89,1.42-16.92,1.73a23.59,23.59,0,0,0,47.11-1.87Z"/><path class="cls-1" d="M469,48a34.19,34.19,0,0,1-8,3.42c.73,2.19,1.39,4.35,1.87,6.26a43.09,43.09,0,0,0,10.53-3.76A23.66,23.66,0,0,0,469,48Z"/><g class="cls-2"><path class="cls-1" d="M151.27,34.7,123.16,84.87c44.77,25,10.5,64.23,18,104.37,5.57,29.79,56.48,79.67,133.11,76.91,69.64-32.12,92.66-99.63,84.18-128.73-11.42-39.2-59.73-58.78-31-101.26L279.6,4.1c-14.62,15-35.43,27-60,32.83s-48.52,4.58-68.35-2.23Zm80.38,57.58,22.64,37.19L296,116.9,267.62,150l24.83,35.8-40.17-16.71L225.9,203.67l3.54-43.34-41.18-14.44,42.43-10,1-43.59Z"/></g><path class="cls-3" d="M365.75,281.17c-.53.69-1.06,1.37-1.59,2,26.88,1.67,46.34,6.52,46.34,12.24,0,7.11-29.94,12.87-66.88,12.87s-66.89-5.76-66.89-12.87c0-5.72,19.44-10.56,46.3-12.24-.53-.66-1.06-1.34-1.59-2-32,2.24-55.42,9.19-55.42,17.42,0,10.05,34.74,18.19,77.6,18.19s77.6-8.14,77.6-18.19C421.22,290.35,397.81,283.4,365.75,281.17Z"/><path class="cls-4" d="M343.62,298.59S394,249.22,394,208a50.34,50.34,0,0,0-100.68.16C293.28,249.39,343.62,298.59,343.62,298.59Zm-24-90.48a24,24,0,1,1,24,24A23.91,23.91,0,0,1,319.66,208.11Z"/><path class="cls-5" d="M272.4,79.18l2.21,7.75a3.73,3.73,0,0,0,4.64,2.58l2.4-.68.46,1.6a4.62,4.62,0,0,0,5.67,3.15l25.8-7.35L317,91.48A9.68,9.68,0,0,0,328,95.84l9.09-2.59,6.13,21.52a6.46,6.46,0,0,0,7.9,4.4l13.64-3.89a6.44,6.44,0,0,0,4.07-3.47,6.76,6.76,0,0,0-.08-5.33C365.52,99.61,359.44,86.89,355,79c-1.71-3-2-5.64-1.19-7.75,1.47-3.46,6-4.76,6-4.76h0a1.46,1.46,0,0,0,1-1,1.49,1.49,0,0,0-.56-1.43c-4.6-3.46-6.18-7.49-4.93-12.76a1.27,1.27,0,0,0-.56-1.43,1.54,1.54,0,0,0-1.58,0L347,54,275,74.54A3.73,3.73,0,0,0,272.4,79.18Zm44.08,6.08L328,82c.4-.11.84-.09,1.24-.21a7.5,7.5,0,0,1-3,6.07,1.41,1.41,0,1,0,1.66,2.27A10.19,10.19,0,0,0,332,81.85a3,3,0,0,1,1.47.59,2.25,2.25,0,0,1,1,1.45l.08.27,1.82,6.42-9.09,2.59a7.13,7.13,0,0,1-8-3.08Z"/><path class="cls-6" d="M38.74,296.56a5,5,0,0,1-5-5l0-182.12a5,5,0,1,1,10,0V281.16a5,5,0,0,0,5,5H224.3a5,5,0,0,1,5,5v.4a5,5,0,0,1-5,5Z"/><rect class="cls-7" x="186.14" y="209.09" width="31.62" height="65.54" rx="5"/><rect class="cls-1" x="57.76" y="123.21" width="31.62" height="151.43" rx="5"/><rect class="cls-4" x="143.14" y="169.09" width="31.62" height="105.55" rx="5"/><rect class="cls-5" x="100.48" y="176.06" width="31.62" height="98.57" rx="5"/><polyline class="cls-8" points="77.79 103.11 104.43 122.78 120.92 159.57 158.99 143.08 197.13 181.7"/><polygon class="cls-6" points="185.69 187.86 209.73 194.46 203.43 170.34 185.69 187.86"/><circle class="cls-3" cx="33.95" cy="102.92" r="31.34"/><path class="cls-9" d="M35.32,115A20.85,20.85,0,0,1,25,114.8l0,7.35a24.51,24.51,0,0,0,10.51.07L37,127.85l5.74-1.45-1.54-6.12c6.37-2.78,8.8-8.17,7.48-13.45s-4.9-8-12.43-8.71c-5.45-.58-7.81-1.37-8.29-3.26-.42-1.66.36-3.7,4.13-4.65a18.28,18.28,0,0,1,8.88,0l.09-7.12a21.32,21.32,0,0,0-9,.19L30.77,78l-5.68,1.43,1.41,5.63c-5.91,2.74-8.48,7.73-7.15,13,1.44,5.75,6.43,7.64,13.17,8.21,4.73.38,6.95,1.34,7.52,3.58S38.69,114.13,35.32,115Z"/></svg>