<svg id="Layer_1" data-name="Layer 1" xmlns="http://www.w3.org/2000/svg" viewBox="0 0 430 295"><defs><style>.cls-1{fill:#004568;}.cls-10,.cls-2,.cls-5{fill:none;}.cls-10,.cls-2,.cls-5,.cls-6{stroke:#fff;}.cls-10,.cls-2{stroke-linecap:round;stroke-linejoin:round;}.cls-2,.cls-5{stroke-width:3px;}.cls-3{fill:#fff;}.cls-4,.cls-6{fill:#0aa;}.cls-5,.cls-6{stroke-miterlimit:10;}.cls-7,.cls-8{fill:#cb4c45;}.cls-7{fill-rule:evenodd;}.cls-9{fill:#404040;}.cls-10{stroke-width:1.85px;}</style></defs><title>About_05</title><circle class="cls-1" cx="288.35" cy="60.46" r="55.81"/><path class="cls-2" d="M268.91,23.11,257.43,35.56c11.12,10.2-1.38,19.11-2,31.12C255,75.6,266.2,93.36,288.34,97.81c22.14-4.45,33.34-22.21,32.9-31.13-.59-12-13.09-20.92-2-31.12L307.76,23.11a36.48,36.48,0,0,1-19.42,5.3,36.49,36.49,0,0,1-19.43-5.3Z"/><polygon class="cls-3" points="288 45.09 291.95 57.29 304.76 56.54 294.37 64.07 299.04 76.02 288.67 68.49 278.75 76.61 282.72 64.43 271.91 57.48 284.75 57.51 288 45.09 288 45.09"/><circle class="cls-4" cx="142.16" cy="60.46" r="55.81"/><path class="cls-5" d="M129.58,37h22.9a.94.94,0,0,0,.8-1.5l-3.3-8a1,1,0,0,0-.9-.7h-16.2a1,1,0,0,0-.9.6l-3.3,8.2A1,1,0,0,0,129.58,37Z"/><path class="cls-5" d="M160.38,30.9h-6.8l1.5,3.6a3,3,0,0,1-2.6,4.4h-22.9a3,3,0,0,1-2.8-4.1l1.6-3.9h-6.8a4.19,4.19,0,0,0-4.1,4.1V86.6a4.23,4.23,0,0,0,4.2,4.2h38.8a4.23,4.23,0,0,0,4.2-4.2V35A4.37,4.37,0,0,0,160.38,30.9Z"/><path class="cls-4" d="M129.58,37h22.9a.94.94,0,0,0,.8-1.5l-3.3-8a1,1,0,0,0-.9-.7h-16.2a1,1,0,0,0-.9.6l-3.3,8.2A1,1,0,0,0,129.58,37Z"/><path class="cls-4" d="M160.38,30.9h-6.8l1.5,3.6a3,3,0,0,1-2.6,4.4h-22.9a3,3,0,0,1-2.8-4.1l1.6-3.9h-6.8a4.19,4.19,0,0,0-4.1,4.1V86.6a4.23,4.23,0,0,0,4.2,4.2h38.8a4.23,4.23,0,0,0,4.2-4.2V35A4.37,4.37,0,0,0,160.38,30.9Z"/><circle class="cls-6" cx="129.28" cy="78.6" r="5.8"/><circle class="cls-6" cx="129.28" cy="63.7" r="5.8"/><circle class="cls-6" cx="129.28" cy="48.7" r="5.8"/><path class="cls-3" d="M157.58,82.2h-18.2a1,1,0,0,1,0-2h18.1a.94.94,0,0,1,1,1A.92.92,0,0,1,157.58,82.2Z"/><path class="cls-3" d="M157.58,77.2h-18.2a1,1,0,0,1,0-2h18.1a.94.94,0,0,1,1,1A.92.92,0,0,1,157.58,77.2Z"/><path class="cls-3" d="M157.58,67.2h-18.2a1,1,0,0,1,0-2h18.1a.94.94,0,0,1,1,1A.92.92,0,0,1,157.58,67.2Z"/><path class="cls-3" d="M157.58,62.2h-18.2a1,1,0,0,1,0-2h18.1a.94.94,0,0,1,1,1A.92.92,0,0,1,157.58,62.2Z"/><path class="cls-3" d="M157.58,52.2h-18.2a1,1,0,0,1,0-2h18.1a.94.94,0,0,1,1,1A.92.92,0,0,1,157.58,52.2Z"/><path class="cls-3" d="M157.58,47.2h-18.2a1,1,0,0,1,0-2h18.1a.94.94,0,0,1,1,1A.92.92,0,0,1,157.58,47.2Z"/><path class="cls-3" d="M142.57,59.12,153,61.86C140.05,66,129.52,82.57,129.52,82.57l-.27-.67c-2.65-4.32-7-7.19-9.8-8.65l4.42-5.51a26.15,26.15,0,0,1,5.45,6.91,192.81,192.81,0,0,1,13.25-15.53M142.25,58l-.4.43c-6.07,6.42-10.57,12-12.41,14.41a27.52,27.52,0,0,0-4.66-5.61l-.21-.21-.79-.76-.69.85-4.42,5.52-.76.94,1.07.57c2.39,1.26,6.77,4,9.38,8.21l.23.58.72,1.83,1.05-1.66c.11-.16,10.5-16.36,22.93-20.28l3.3-1-3.34-.88-10.42-2.75-.58-.15Z"/><path class="cls-7" d="M129.32,74.65a26.15,26.15,0,0,0-5.45-6.91l-4.42,5.51c2.75,1.46,7.15,4.33,9.8,8.65l.27.67S140.05,66,153,61.86l-10.42-2.74A192.81,192.81,0,0,0,129.32,74.65Z"/><circle class="cls-1" cx="215.25" cy="114.81" r="16.17"/><path class="cls-1" d="M187.64,203.83H188a5.75,5.75,0,0,0,5.43-6.06c-.28-5-.4-9.62-.4-13.77,0-13,1.25-21.79,2.82-27.48v95a8.89,8.89,0,0,0,17.78,0V195.22h3.33v56.29a8.89,8.89,0,1,0,17.78,0v-95c1.58,5.69,2.82,14.45,2.82,27.48,0,4.15-.13,8.73-.4,13.77a5.75,5.75,0,0,0,5.43,6.06h.32a5.76,5.76,0,0,0,5.74-5.44c.28-5.24.41-10,.41-14.4,0-21.33-3-33-7.08-40.1a19.19,19.19,0,0,0-6.85-7.22,12.41,12.41,0,0,0-4.69-1.59,5.22,5.22,0,0,0-1.25-.15H201.36a5.22,5.22,0,0,0-1.25.15,12.41,12.41,0,0,0-4.69,1.59c-3.61,2.06-7.17,6.23-9.68,13.48S181.49,168,181.48,184c0,4.37.13,9.16.42,14.4A5.76,5.76,0,0,0,187.64,203.83Z"/><path class="cls-8" d="M25.58,191.07v19h3.64v-9.28a1.86,1.86,0,0,1,1.86-1.86H41.79a1.86,1.86,0,0,1,1.86,1.86h0V210H47.9v-19l-11.16-6.78Z"/><path class="cls-8" d="M59.07,120.73a55.81,55.81,0,1,0,55.8,55.8A55.8,55.8,0,0,0,59.07,120.73ZM21.86,159.88A1.86,1.86,0,0,1,23.72,158H39.94l-.2-24.26a1.86,1.86,0,0,1,1.85-1.87H79.53a1.86,1.86,0,0,1,1.86,1.86h0v39.06a1.86,1.86,0,1,1-3.72,0v-37.2H43.48l.19,24.26a1.84,1.84,0,0,1-1.84,1.87H25.58v20.37a1.86,1.86,0,0,1-3.72,0Zm50.23-9.39H64.65a1.86,1.86,0,0,1-1.86-1.86h0v-7.44a1.86,1.86,0,0,1,1.86-1.86h7.44A1.86,1.86,0,0,1,74,141.19h0v7.44a1.86,1.86,0,0,1-1.86,1.86Zm1.86,9.3v7.44a1.86,1.86,0,0,1-1.86,1.86H64.65a1.86,1.86,0,0,1-1.86-1.86h0v-7.44a1.86,1.86,0,0,1,1.86-1.86h7.44A1.86,1.86,0,0,1,74,159.79Zm-16.74-9.3H49.77a1.87,1.87,0,0,1-1.87-1.86h0v-7.44a1.86,1.86,0,0,1,1.86-1.86h7.45a1.86,1.86,0,0,1,1.86,1.86h0v7.44a1.86,1.86,0,0,1-1.86,1.86Zm1.86,9.3v7.44a1.86,1.86,0,0,1-1.86,1.86H49.77a1.87,1.87,0,0,1-1.87-1.86h0v-7.44a1.86,1.86,0,0,1,1.86-1.86h7.45a1.86,1.86,0,0,1,1.86,1.86Zm-18.61,7.44v7.44a1.86,1.86,0,0,1-1.86,1.86H31.16a1.86,1.86,0,0,1-1.86-1.86h0v-7.44a1.86,1.86,0,0,1,1.86-1.86H38.6a1.86,1.86,0,0,1,1.86,1.86Zm11.17,44.65a1.87,1.87,0,0,1-1.86,1.86h-8a1.86,1.86,0,0,1-1.86-1.86h0V202.6h-7v9.28a1.87,1.87,0,0,1-1.86,1.86H23.72a1.86,1.86,0,0,1-1.86-1.86h0V190a1.86,1.86,0,0,1,.9-1.59l13-7.92a1.86,1.86,0,0,1,1.93,0l13,7.92a1.86,1.86,0,0,1,.9,1.59Zm45.73,0a1.87,1.87,0,0,1-1.86,1.86H84.72a1.86,1.86,0,0,1-1.86-1.86h0v-8H71.29l-.17,8a1.86,1.86,0,0,1-1.86,1.82H58.9A1.86,1.86,0,0,1,57,211.88h0V195.74a1.86,1.86,0,1,1,3.72,0V210h6.68l.17-8a1.86,1.86,0,0,1,1.86-1.82H84.72A1.86,1.86,0,0,1,86.58,202h0v8h7.06V195.74a1.86,1.86,0,1,1,3.72,0Zm2.78-20.43-2.55,1.27a13.14,13.14,0,0,1-11.37.07l-2-1L81.69,193a12.93,12.93,0,0,1-4.82,1.09,1.86,1.86,0,0,1-.57-.07,1.75,1.75,0,0,1-.51.07h-.12a12.82,12.82,0,0,1-5.24-1.47l-1.38-.71-1.23.63a13.09,13.09,0,0,1-11.76.07l-2.24-1.14a1.86,1.86,0,0,1-.81-2.5,1.68,1.68,0,0,1,.33-.46l11.21-11.39a1.85,1.85,0,0,1,1.33-.56H87.67a1.86,1.86,0,0,1,1.3.53l11.64,11.39a1.87,1.87,0,0,1-.47,3Z"/><path class="cls-8" d="M66.66,180.25l-8.89,9a9.34,9.34,0,0,0,8.34-.06l2.09-1.08a1.85,1.85,0,0,1,1.71,0l2.24,1.17a9.44,9.44,0,0,0,3.74,1,1.41,1.41,0,0,1,.41.07,2,2,0,0,1,.48-.08,8.89,8.89,0,0,0,3.41-.78l3.34-1.48a1.87,1.87,0,0,1,1.57,0l2.74,1.32a9.35,9.35,0,0,0,8.1,0l.2-.11-9.23-9Z"/><circle class="cls-9" cx="371.44" cy="176.53" r="55.81"/><path class="cls-10" d="M347.68,170.1h47.56a.53.53,0,0,0,.55-.54v-3.18a.53.53,0,0,0-.55-.54h-4.1a20,20,0,0,0-14.33-15.57v-1a.53.53,0,0,0-.55-.54h-2.94v-1.16a.53.53,0,0,0-.54-.55h-.7v-5.65h6a.73.73,0,0,0,.78-.78v-3.87a.73.73,0,0,0-.78-.77h-6v-.78a.49.49,0,0,0-.46-.46h-.47a.49.49,0,0,0-.46.46V147h-.78a.53.53,0,0,0-.54.55v1.16h-2.94a.53.53,0,0,0-.55.54v1a20.14,20.14,0,0,0-14.33,15.57h-4.1a.53.53,0,0,0-.55.54v3.18C347.14,169.87,347.37,170.1,347.68,170.1Z"/><path class="cls-10" d="M401.36,204.11h-2.48v-3.72a.53.53,0,0,0-.54-.54h-2.55V172.5a.53.53,0,0,0-.55-.54H347.68a.53.53,0,0,0-.54.54v27.35h-2.56a.53.53,0,0,0-.54.54v3.72h-2.48a.53.53,0,0,0-.54.54v3.18a.53.53,0,0,0,.54.54h59.8a.53.53,0,0,0,.55-.54v-3.18A.53.53,0,0,0,401.36,204.11Zm-19-28h4.88v23.71h-4.88Zm-8.44,23.71h-4.88V176.14h4.88Zm-18.28-23.71h4.88v23.71h-4.88Z"/><path class="cls-8" d="M307.72,289.13c-2.09-14.1-43.87-25.36-95.11-25.36s-93,11.26-95.12,25.36c12.09-9,50.09-15.63,95.12-15.63S295.63,280.09,307.72,289.13Z"/></svg>