<svg id="Layer_1" data-name="Layer 1" xmlns="http://www.w3.org/2000/svg" viewBox="0 0 330 310"><defs><style>.cls-1{fill:#bfe0e1;}.cls-2{fill:none;stroke:#fff;stroke-miterlimit:10;stroke-width:12.69px;}.cls-3{fill:#008289;}.cls-4{fill:#00467f;}</style></defs><title>About_thumbs_icon</title><ellipse class="cls-1" cx="164.88" cy="153.71" rx="144.42" ry="143.81"/><path class="cls-2" d="M283.71,231.1H315a5.2,5.2,0,0,0,5.22-5.3V141a5.2,5.2,0,0,0-5.22-5.3H283.71a5.2,5.2,0,0,0-5.21,5.3V225.8A5.2,5.2,0,0,0,283.71,231.1Z"/><path class="cls-2" d="M132.85,221.05c0,8.64,5.83,17.39,17,17.39h50.51C193.13,251.57,191,270,196,283.54c3.69,9.94,10.73,15.74,19.84,16.33H216a11,11,0,0,0,11.56-10.17c1.29-13.4,7.07-37.1,15.34-45.52,7-7.08,12.93-10.05,22.82-15,1.43-.71,3-1.48,4.65-2.32,0-.37-.05-.73-.05-1.1v-84l-3.53-1.23c-16.31-5.72-30.41-10.65-52-10.65H174c-11.14,0-17,8.75-17,17.38a19,19,0,0,0,1.52,7.49,16.09,16.09,0,0,0-9.37,5.28,18,18,0,0,0-4.24,11.81,19,19,0,0,0,1.52,7.48c-8.94,1.57-13.6,9.38-13.6,17.1a18.15,18.15,0,0,0,4.63,12.29A18.15,18.15,0,0,0,132.85,221.05Z"/><path class="cls-3" d="M283.71,231.1H315a5.2,5.2,0,0,0,5.22-5.3V141a5.2,5.2,0,0,0-5.22-5.3H283.71a5.2,5.2,0,0,0-5.21,5.3V225.8A5.2,5.2,0,0,0,283.71,231.1Z"/><path class="cls-3" d="M132.85,221.05c0,8.64,5.83,17.39,17,17.39h50.51C193.13,251.57,191,270,196,283.54c3.69,9.94,10.73,15.74,19.84,16.33H216a11,11,0,0,0,11.56-10.17c1.29-13.4,7.07-37.1,15.34-45.52,7-7.08,12.93-10.05,22.82-15,1.43-.71,3-1.48,4.65-2.32,0-.37-.05-.73-.05-1.1v-84l-3.53-1.23c-16.31-5.72-30.41-10.65-52-10.65H174c-11.14,0-17,8.75-17,17.38a19,19,0,0,0,1.52,7.49,16.09,16.09,0,0,0-9.37,5.28,18,18,0,0,0-4.24,11.81,19,19,0,0,0,1.52,7.48c-8.94,1.57-13.6,9.38-13.6,17.1a18.15,18.15,0,0,0,4.63,12.29A18.15,18.15,0,0,0,132.85,221.05Z"/><path class="cls-2" d="M46.71,78.81H15.42a5.2,5.2,0,0,0-5.21,5.3V169a5.2,5.2,0,0,0,5.21,5.3H46.71a5.2,5.2,0,0,0,5.21-5.3V84.11A5.2,5.2,0,0,0,46.71,78.81Z"/><path class="cls-2" d="M197.57,88.86c0-8.65-5.84-17.39-17-17.39H130.08c7.21-13.13,9.33-31.6,4.32-45.11-3.69-9.94-10.73-15.73-19.84-16.32l-.15,0a11,11,0,0,0-11.56,10.17c-1.3,13.4-7.07,37.11-15.35,45.52-7,7.09-12.93,10.06-22.81,15-1.43.71-3,1.49-4.65,2.33,0,.36.05.73.05,1.1v84l3.53,1.23C79.93,175,94,180,115.58,180h40.85c11.14,0,17-8.75,17-17.39a19.1,19.1,0,0,0-1.52-7.49,16.07,16.07,0,0,0,9.37-5.27A18,18,0,0,0,185.49,138a19,19,0,0,0-1.52-7.47c8.94-1.57,13.6-9.38,13.6-17.1a18.15,18.15,0,0,0-4.63-12.29A18.18,18.18,0,0,0,197.57,88.86Z"/><path class="cls-4" d="M46.71,78.81H15.42a5.2,5.2,0,0,0-5.21,5.3V169a5.2,5.2,0,0,0,5.21,5.3H46.71a5.2,5.2,0,0,0,5.21-5.3V84.11A5.2,5.2,0,0,0,46.71,78.81Z"/><path class="cls-4" d="M197.57,88.86c0-8.65-5.84-17.39-17-17.39H130.08c7.21-13.13,9.33-31.6,4.32-45.11-3.69-9.94-10.73-15.73-19.84-16.32l-.15,0a11,11,0,0,0-11.56,10.17c-1.3,13.4-7.07,37.11-15.35,45.52-7,7.09-12.93,10.06-22.81,15-1.43.71-3,1.49-4.65,2.33,0,.36.05.73.05,1.1v84l3.53,1.23C79.93,175,94,180,115.58,180h40.85c11.14,0,17-8.75,17-17.39a19.1,19.1,0,0,0-1.52-7.49,16.07,16.07,0,0,0,9.37-5.27A18,18,0,0,0,185.49,138a19,19,0,0,0-1.52-7.47c8.94-1.57,13.6-9.38,13.6-17.1a18.15,18.15,0,0,0-4.63-12.29A18.18,18.18,0,0,0,197.57,88.86Z"/></svg>