<svg id="Layer_1" data-name="Layer 1" xmlns="http://www.w3.org/2000/svg" viewBox="0 0 480 315"><defs><style>.cls-1{fill:#cb4c45;}.cls-2{fill:none;stroke:#f2f2f2;stroke-miterlimit:10;stroke-width:8px;}.cls-3{fill:#004568;}.cls-4{fill:#0aa;}.cls-5{fill:#666;}</style></defs><title>About_04</title><rect class="cls-1" x="77.42" y="176.69" width="17.35" height="16.97"/><path class="cls-1" d="M220.71,2c.15.11-6.4,1.84-6.86,11.33a18.88,18.88,0,0,0,2.61,9.08,2.09,2.09,0,0,1,.16.29c1.55,3,2.79,4.93,3.26,7.21,1.44,5.33-1.17,10.19-.25,10.7,0,0,5.72-2.48,5-11.44a24.63,24.63,0,0,0-3.29-9s-.15-.3-.13-.27c-1.34-2.64-2.34-4.65-2.46-6.7C218,7.46,221.59,2.6,220.71,2ZM176.3,26.7h-.54a6.5,6.5,0,0,0-4.38,1.64l-34,35.75L103.47,99.83a2.21,2.21,0,0,0,0,3.28,6.56,6.56,0,0,0,4.67,1.64h16.8v61c-31.18,5.25-52.46,15-57.15,26.08,10.34-6.28,25.9-11.55,45-15.22A341.76,341.76,0,0,1,176.05,171a341.45,341.45,0,0,1,63.25,5.61c19.08,3.67,34.64,8.93,45,15.2-4.74-11.09-26-20.78-57.14-26v-61H244a6.56,6.56,0,0,0,4.67-1.64,2.23,2.23,0,0,0,0-3.28L227.82,77.92V43.81H208.16V57.22L180.73,28.34a6.44,6.44,0,0,0-4.42-1.64Zm8,96h10.85V133.5H184.26Zm14,0h10.85V133.5H198.23Zm-55.49.09H172.4v39c-10.08.1-20.06.65-29.66,1.62Zm41.52,13.33h10.85v10.85H184.26Zm14,0h10.85v10.85H198.23Z"/><path class="cls-2" d="M85.11,139a13.71,13.71,0,1,0-13.7-13.71A13.71,13.71,0,0,0,85.11,139Z"/><path class="cls-2" d="M66.65,167.61c5.28,1.94,9,6.59,9,16.91l0,17.63c0,4.18-1.38,7.45-4.93,9l0,26.15a7.2,7.2,0,0,0,6.47,4.13c4.29,0,7.29-3.47,7.29-7.76,0,4.29,2.85,7.76,7.14,7.76,3.7,0,6.23-2.58,7-6V215.79a16.34,16.34,0,0,1-2.72-1.11c-1.67-.89-2.73-2.26-2.59-5.7a88.37,88.37,0,0,1,1.59-9.08C91.34,198,87,193.33,87,189.37c.1-.68,2.92-18.57,6.79-31.67,2.09-7.09,4.25-10.73,7.76-12.65-2.94-1.73-6.76-2.49-11.45-2.49H79.29C73,142.56,69,144,65.9,147.24a15.55,15.55,0,0,1,.75,20.37Z"/><path class="cls-2" d="M47.8,183.42a10.66,10.66,0,0,1-6.74,2.36,11.46,11.46,0,0,1-3.83-.72l0,17.09c0,2.83,2,5.08,5.74,5.08v28.48a5.71,5.71,0,0,0,11.42,0,5.71,5.71,0,0,0,11.41,0l0-28.48c3.84,0,5.77-2.25,5.77-5.08l0-17.65c0-9-3.86-12.71-11.14-13.25H50.81A10.64,10.64,0,0,1,47.8,183.42Z"/><path class="cls-2" d="M36.75,180.61a7,7,0,0,0,4.31,1.54,7.07,7.07,0,0,0,4.47-1.57c3-2.4,3-6.56,1.08-9.77a7.27,7.27,0,0,0-1.31-1.88,2.84,2.84,0,0,0-1.9-.79c-1.61,0-3.39,1.37-5.27,2.87-3,2.4-5.07,3.91-2.9,7.51A7.65,7.65,0,0,0,36.75,180.61Z"/><path class="cls-2" d="M54.46,168.62a10.78,10.78,0,1,0-10.77-10.77A10.77,10.77,0,0,0,54.46,168.62Z"/><path class="cls-2" d="M91.83,189.75c0,1.64,2.33,3.53,4.61,4.76.79-3.61,4.06-15.47,4.11-15.65a2,2,0,0,1,3.88,1.14,237.38,237.38,0,0,0-6,28.45,1.9,1.9,0,0,0,.92,2,15.65,15.65,0,0,0,4.42.62c0,10.37,0,23.23,0,23.23,0,4,2.24,7.18,6.2,7.18s6.52-3.21,6.52-7.18c0,4,2.24,7.18,6.2,7.18a6.15,6.15,0,0,0,5.38-3V216.11a8.77,8.77,0,0,1-4.85-8l0-14.92c0-8.36,3.44-12.51,7.62-14.48a13.88,13.88,0,0,1,1.06-16.35,10.33,10.33,0,0,1-6.82-14.49l-.81-.09h-14c-6.62.69-8.94,1.46-11.8,11.21A283.7,283.7,0,0,0,91.83,189.75Z"/><path class="cls-2" d="M137.47,182c-6.15.46-9.41,3.59-9.41,11.2l0,14.91c0,2.39,1.69,4.29,4.84,4.29v24.31a4.83,4.83,0,0,0,9.66,0,4.82,4.82,0,0,0,9.64,0l0-24.31c3.25,0,4.87-1.9,4.87-4.29l0-14.91c0-7.61-3.26-10.75-9.41-11.2Z"/><path class="cls-2" d="M130.09,157.45a7.21,7.21,0,0,0,4.61,1.67,6.6,6.6,0,0,0,4.17-1.44,7.52,7.52,0,0,0,1.57-2.05c2.25-3.55.22-5.11-2.72-7.57-1.87-1.57-3.64-3-5.27-3a2.69,2.69,0,0,0-1.85.75,7.22,7.22,0,0,0-1.36,1.85C127.2,150.82,127.15,155,130.09,157.45Z"/><circle class="cls-2" cx="142.62" cy="170.43" r="9.11"/><path class="cls-2" d="M116.79,144.64a12.72,12.72,0,1,0-12.71-12.72A12.71,12.71,0,0,0,116.79,144.64Z"/><path class="cls-3" d="M85.11,139a13.71,13.71,0,1,0-13.7-13.71A13.71,13.71,0,0,0,85.11,139Z"/><path class="cls-3" d="M66.65,167.61c5.28,1.94,9,6.59,9,16.91l0,17.63c0,4.18-1.38,7.45-4.93,9l0,26.15a7.2,7.2,0,0,0,6.47,4.13c4.29,0,7.29-3.47,7.29-7.76,0,4.29,2.85,7.76,7.14,7.76,3.7,0,6.23-2.58,7-6V215.79a16.34,16.34,0,0,1-2.72-1.11c-1.67-.89-2.73-2.26-2.59-5.7a88.37,88.37,0,0,1,1.59-9.08C91.34,198,87,193.33,87,189.37c.1-.68,2.92-18.57,6.79-31.67,2.09-7.09,4.25-10.73,7.76-12.65-2.94-1.73-6.76-2.49-11.45-2.49H79.29C73,142.56,69,144,65.9,147.24a15.55,15.55,0,0,1,.75,20.37Z"/><path class="cls-3" d="M47.8,183.42a10.66,10.66,0,0,1-6.74,2.36,11.46,11.46,0,0,1-3.83-.72l0,17.09c0,2.83,2,5.08,5.74,5.08v28.48a5.71,5.71,0,0,0,11.42,0,5.71,5.71,0,0,0,11.41,0l0-28.48c3.84,0,5.77-2.25,5.77-5.08l0-17.65c0-9-3.86-12.71-11.14-13.25H50.81A10.64,10.64,0,0,1,47.8,183.42Z"/><path class="cls-3" d="M36.75,180.61a7,7,0,0,0,4.31,1.54,7.07,7.07,0,0,0,4.47-1.57c3-2.4,3-6.56,1.08-9.77a7.27,7.27,0,0,0-1.31-1.88,2.84,2.84,0,0,0-1.9-.79c-1.61,0-3.39,1.37-5.27,2.87-3,2.4-5.07,3.91-2.9,7.51A7.65,7.65,0,0,0,36.75,180.61Z"/><path class="cls-3" d="M54.46,168.62a10.78,10.78,0,1,0-10.77-10.77A10.77,10.77,0,0,0,54.46,168.62Z"/><path class="cls-3" d="M91.83,189.75c0,1.64,2.33,3.53,4.61,4.76.79-3.61,4.06-15.47,4.11-15.65a2,2,0,0,1,3.88,1.14,237.38,237.38,0,0,0-6,28.45,1.9,1.9,0,0,0,.92,2,15.65,15.65,0,0,0,4.42.62c0,10.37,0,23.23,0,23.23,0,4,2.24,7.18,6.2,7.18s6.52-3.21,6.52-7.18c0,4,2.24,7.18,6.2,7.18a6.15,6.15,0,0,0,5.38-3V216.11a8.77,8.77,0,0,1-4.85-8l0-14.92c0-8.36,3.44-12.51,7.62-14.48a13.88,13.88,0,0,1,1.06-16.35,10.33,10.33,0,0,1-6.82-14.49l-.81-.09h-14c-6.62.69-8.94,1.46-11.8,11.21A283.7,283.7,0,0,0,91.83,189.75Z"/><path class="cls-3" d="M137.47,182c-6.15.46-9.41,3.59-9.41,11.2l0,14.91c0,2.39,1.69,4.29,4.84,4.29v24.31a4.83,4.83,0,0,0,9.66,0,4.82,4.82,0,0,0,9.64,0l0-24.31c3.25,0,4.87-1.9,4.87-4.29l0-14.91c0-7.61-3.26-10.75-9.41-11.2Z"/><path class="cls-3" d="M130.09,157.45a7.21,7.21,0,0,0,4.61,1.67,6.6,6.6,0,0,0,4.17-1.44,7.52,7.52,0,0,0,1.57-2.05c2.25-3.55.22-5.11-2.72-7.57-1.87-1.57-3.64-3-5.27-3a2.69,2.69,0,0,0-1.85.75,7.22,7.22,0,0,0-1.36,1.85C127.2,150.82,127.15,155,130.09,157.45Z"/><circle class="cls-3" cx="142.62" cy="170.43" r="9.11"/><path class="cls-3" d="M116.79,144.64a12.72,12.72,0,1,0-12.71-12.72A12.71,12.71,0,0,0,116.79,144.64Z"/><path class="cls-3" d="M412.31,144.91c0,10.09,7.57,17.89,17.66,17.89s17.9-7.57,17.9-17.66a17.78,17.78,0,1,0-35.56-.23Z"/><path class="cls-4" d="M419.65,284.85c-4.36,0-8.95-.23-13.08-.46s-7.8-.45-11.47-.45a8.26,8.26,0,0,1,0-16.52c4.13,0,8.26.23,12.39.46,8.95.46,18.35.91,25.92-.92,6.43-1.38,11.93-5.28,16.06-11,3.67-5,4.36-11,5.51-18.36.23-1.14.23-2.29.46-3.44l5.5-35.79a8.11,8.11,0,0,1,16.06,2.3l-5.5,35.79c-.23,1.14-.23,2.06-.46,3.21-1.15,8.49-2.53,17.2-8.26,25.46a43.24,43.24,0,0,1-25.7,17.44A58,58,0,0,1,419.65,284.85Z"/><path class="cls-3" d="M353.8,295.41c.92-5.05,2.07-10.1,3-15.15,2.29-11.92,4.59-23.85,6.65-35.78.92-5.74,4.13-8.95,9.87-9.64,5.27-.69,35.56-2.29,35.56-2.29L410,206.39c.23-1.37.23-3,.46-4.36.46-5.5.69-10.55,1.61-15.6a17.26,17.26,0,0,1,9.4-13.3,15.66,15.66,0,0,1,8.72-1.61h.46c9.64,1.15,16.06,9.41,15.6,19.27-.92,15.83-2.52,31.89-2.75,47.72-.23,14.91-8.26,21.57-22.94,21.57H382c-2.75,8.26-3.9,16.28-6,24.09-1.38,5.27-2.3,11-4.13,16.05-1.84,5.28-5.51,8.72-11.47,7.12C354.72,305.5,352.66,301.37,353.8,295.41Z"/><path class="cls-1" d="M388.45,160.74a4.71,4.71,0,0,0-2.3-3.21,5.69,5.69,0,0,0-3.9-.69,4.75,4.75,0,0,0-3.21,2.29l-17.89,29.14h-37.4a5,5,0,1,0,0,10.09h43.13l20.88-34A4.88,4.88,0,0,0,388.45,160.74Z"/><path class="cls-2" d="M254.93,137.34c0,10.32-7.58,17.89-17.67,17.89s-17.89-7.57-17.89-17.66c0-9.87,8-18.13,17.66-18.13A17.92,17.92,0,0,1,254.93,137.34Z"/><path class="cls-2" d="M314.8,295.41c-.91-5.05-2.06-10.1-3-15.15-2.29-11.92-4.59-23.85-6.65-36-.92-5.74-4.13-8.95-9.87-9.64-1.14-.23-3.21-.23-6-.46-10.56-.69-29.83-1.83-29.83-1.83v-.69l-2.29-32.81c-.23-1.38-.23-3-.46-4.36,0-.92-.23-1.83-.23-2.75l1.38.69c3.21,1.83,6.19,3.44,9.17,4.82a15.65,15.65,0,0,0,6,1.6c3.67,0,7.8.23,12.85.23h14c5.74,0,10.1-4.13,10.1-9.41s-4.36-9.4-10.33-9.4H277.41a10.43,10.43,0,0,1-4.59-1.15c-5.74-3.21-11.47-6.65-17.67-10.55-3.67-2.3-8.48-4.59-16.74-4.59h-2.07c-9.63,1.15-16.06,9.41-15.6,19.27.92,16.06,3.67,39,3.9,55.06.23,14.91,8.26,21.8,22.94,21.57,13.54-.23,25.24,0,38.55,0l.68,2.06c2.3,7.57,3.45,14.91,5.51,22.26,1.61,5.27,2.52,11,4.36,16.28s5.51,8.95,11.47,7.12C313.89,305.5,316,301.37,314.8,295.41Z"/><path class="cls-3" d="M254.93,137.34c0,10.32-7.58,17.89-17.67,17.89s-17.89-7.57-17.89-17.66c0-9.87,8-18.13,17.66-18.13A17.92,17.92,0,0,1,254.93,137.34Z"/><path class="cls-4" d="M248.73,284.85c4.36,0,9-.23,13.31-.46,4.13-.22,8-.45,11.7-.45a8.26,8.26,0,0,0,0-16.52c-4.13,0-8.26.23-12.39.46-9,.46-18.35.91-26.15-.92a26.12,26.12,0,0,1-16.06-11c-3.67-5-4.59-11-5.51-18.36-.23-1.14-.23-2.29-.46-3.44l-5.73-35.56a8.24,8.24,0,1,0-16.29,2.53l5.5,35.78c.23,1.15.23,2.07.46,3.22,1.15,8.49,2.53,17.2,8.49,25.46A43.72,43.72,0,0,0,231.52,283,73.6,73.6,0,0,0,248.73,284.85Z"/><path class="cls-3" d="M314.8,295.41c-.91-5.05-2.06-10.1-3-15.15-2.29-11.92-4.59-23.85-6.65-36-.92-5.74-4.13-8.95-9.87-9.64-1.14-.23-3.21-.23-6-.46-10.56-.69-29.83-1.83-29.83-1.83v-.69l-2.29-32.81c-.23-1.38-.23-3-.46-4.36,0-.92-.23-1.83-.23-2.75l1.38.69c3.21,1.83,6.19,3.44,9.17,4.82a15.65,15.65,0,0,0,6,1.6c3.67,0,7.8.23,12.85.23h14c5.74,0,10.1-4.13,10.1-9.41s-4.36-9.4-10.33-9.4H277.41a10.43,10.43,0,0,1-4.59-1.15c-5.74-3.21-11.47-6.65-17.67-10.55-3.67-2.3-8.48-4.59-16.74-4.59h-2.07c-9.63,1.15-16.06,9.41-15.6,19.27.92,16.06,3.67,39,3.9,55.06.23,14.91,8.26,21.8,22.94,21.57,13.54-.23,25.24,0,38.55,0l.68,2.06c2.3,7.57,3.45,14.91,5.51,22.26,1.61,5.27,2.52,11,4.36,16.28s5.51,8.95,11.47,7.12C313.89,305.5,316,301.37,314.8,295.41Z"/><path class="cls-4" d="M383.4,205.93H287c-3.9,0-7.57,3-7.8,6.89a7.54,7.54,0,0,0,7.57,8.25h39.24v74.11a3.53,3.53,0,0,0,3.44,3.44H341a3.53,3.53,0,0,0,3.44-3.44V220.85h38.77c3.9,0,7.57-3,7.8-6.89A7.47,7.47,0,0,0,383.4,205.93Z"/><path class="cls-5" d="M362.67,87,340,81.51A3.87,3.87,0,1,0,338.16,89l22.68,5.51A3.87,3.87,0,0,0,362.67,87Z"/><path class="cls-5" d="M358.21,105.38l-22.68-5.51a3.87,3.87,0,1,0-1.83,7.53l22.68,5.5a3.84,3.84,0,0,0,4.68-2.85A3.77,3.77,0,0,0,358.21,105.38Z"/><path class="cls-5" d="M353.78,123.63l-22.68-5.5a3.87,3.87,0,1,0-1.83,7.52L352,131.16a3.87,3.87,0,1,0,1.83-7.53Z"/><path class="cls-5" d="M313.29,74.68c-9.4-2.29-15.38,3.53-17.66,9.06a2.47,2.47,0,0,0,.1,2,2.42,2.42,0,0,0,1.66,1.34l3.32.81a2.37,2.37,0,0,0,2.81-1.43c1-2.22,3.14-4.74,7.79-3.62,3.54.86,4.63,3.12,4.91,4.36A4.89,4.89,0,0,1,314.71,92a9.94,9.94,0,0,1-3.91,2.1c-3.36,1.29-6.19,2.83-8.08,8.69a3.17,3.17,0,0,0,.2,2,2.69,2.69,0,0,0,1.59,1.2l3.32.81a2.59,2.59,0,0,0,3-1.63c.78-2.27,1.44-2.57,3.12-3.22a21.57,21.57,0,0,0,6.25-3.52,13.1,13.1,0,0,0,4.24-13.15C323.24,80,319.05,76.07,313.29,74.68Z"/><circle class="cls-5" cx="304.13" cy="114.86" r="5.01"/><path class="cls-5" d="M372.54,69.49,302,52.36a17.79,17.79,0,0,0-21.45,13.07L269,112.78a17.78,17.78,0,0,0,13.07,21.45l19.8,4.81,4,16A9.4,9.4,0,0,0,322,158.92l10.85-12.36,19.69,4.78A17.79,17.79,0,0,0,374,138.27L385.5,90.92A17.62,17.62,0,0,0,372.54,69.49Zm-5.94,67a10,10,0,0,1-12.1,7.37l-22-5.34a3.84,3.84,0,0,0-3.8,1.18l-12.44,14.09a1.63,1.63,0,0,1-1.65.53,1.67,1.67,0,0,1-1.23-1.23l-4.6-18.22a4,4,0,0,0-2.83-2.8l-22-5.34a10,10,0,0,1-7.37-12.1L288,67.26a10,10,0,0,1,12.1-7.38L370.72,77a10,10,0,0,1,7.37,12.1Z"/><path class="cls-1" d="M193.14,272.29c-2.1-14.1-43.88-25.36-95.12-25.36S5,258.19,2.9,272.29C15,263.25,53,256.65,98,256.65S181.05,263.25,193.14,272.29Z"/></svg>