<svg id="Layer_1" data-name="Layer 1" xmlns="http://www.w3.org/2000/svg" xmlns:xlink="http://www.w3.org/1999/xlink" viewBox="0 0 560 380"><defs><style>.cls-1{fill:#3bb;}.cls-2{fill:#0aa;}.cls-14,.cls-3{fill:#fff;}.cls-4{fill:url(#linear-gradient);}.cls-5{fill:url(#linear-gradient-2);}.cls-6{fill:url(#linear-gradient-3);}.cls-7{fill:url(#linear-gradient-4);}.cls-15,.cls-8{fill:#cb4c45;}.cls-11,.cls-13,.cls-9{fill:none;}.cls-9{stroke:#fff;stroke-width:4.35px;}.cls-13,.cls-14,.cls-9{stroke-miterlimit:10;}.cls-10{fill:#5c5c5c;}.cls-12{fill:#004568;}.cls-13,.cls-14{stroke:#004568;}.cls-13{stroke-width:7.6px;}.cls-14{stroke-width:2.53px;}.cls-15{fill-rule:evenodd;}</style><linearGradient id="linear-gradient" x1="279.68" y1="-1893.7" x2="282.42" y2="-1843.18" gradientTransform="matrix(1, 0, 0.21, -1, 209.18, -1772.37)" gradientUnits="userSpaceOnUse"><stop offset="0" stop-color="#3bb"/><stop offset="0.22" stop-color="#2fb6b7"/><stop offset="0.5" stop-color="#23a6ab"/><stop offset="0.81" stop-color="#0f8c97"/><stop offset="1" stop-color="#007888"/></linearGradient><linearGradient id="linear-gradient-2" x1="340.99" y1="-1892.6" x2="343.63" y2="-1844.02" xlink:href="#linear-gradient"/><linearGradient id="linear-gradient-3" x1="398.3" y1="-1892.63" x2="400.99" y2="-1842.99" xlink:href="#linear-gradient"/><linearGradient id="linear-gradient-4" x1="453.09" y1="-1892.58" x2="455.72" y2="-1843.98" xlink:href="#linear-gradient"/></defs><title>About_01</title><path class="cls-1" d="M473.81,367.71a6.43,6.43,0,0,1-4.06-1.43c-25.6-20.63-28.17-34.69-29.87-44-.76-4.13-1.14-5.68-2.47-6.95-4.49-4.27-14.42-4.5-27-4.8-5.95-.14-12.71-.29-19.88-.93-1.26-.11-2.44-.16-3.52-.16-4.67,0-6.27,1-6.43,1.31a4.49,4.49,0,0,0,.28,2.47,6.49,6.49,0,0,1-5.69,9.5,4.79,4.79,0,0,1-.85-.06c-13.34-1.66-23.51-2.46-31.1-2.46-13.12,0-16.61,2.26-21.9,5.68a64.86,64.86,0,0,1-16.81,8.16c-5.71,1.83-9.42,4.67-11.35,8.68-3.12,6.49-.75,14.34-.22,15.91a6.25,6.25,0,0,1,.55,2.6,6.48,6.48,0,0,1-6.48,6.47h-.32c-22.73-1-29.64-16.51-36.32-31.46a156.67,156.67,0,0,0-7.49-15.19c-2.38-4.07-4.43-5.51-5.47-5.51-2.39,0-6.42,4.71-8.15,8a6.47,6.47,0,0,1-9,2.57l-.59-.35c-8.85-5.1-9.62-6.46-18.89-23.16l-1.57-2.82c-3.5-6.29-8.42-9.34-15.07-9.34a24.59,24.59,0,0,0-8.66,1.64,6.49,6.49,0,0,1-4.32.33c-60-16.22-104.39-46.88-125.11-86.34-13.26-25.23-15.93-52.22-7.53-76,17-48.18,20.16-83.94,20.19-84.29a6.48,6.48,0,0,1,9.63-5.11l7.88,4.44,0-.53a6.47,6.47,0,0,1,8.51-6.73c82.85,27.86,184,30,213,30,4.89,0,7.63-.06,7.66-.06a6.47,6.47,0,0,1,3.63,1c7.14,4.55,29.46,7.86,41.86,8.89a6.47,6.47,0,0,1,4.8,2.77c3.23,4.67.6,9.62-2.68,13.49,1.73-.38,3.48-.8,5.2-1.21,5.46-1.3,10.62-2.54,15.15-2.54,9.56,0,12.7,5.72,13.73,9.12,1.45,4.8.8,11.66-.78,21.71.21-.53.42-1,.64-1.57,4-9.21,11.67-14.08,22.09-14.08a18.75,18.75,0,0,1,14.72,6.74c8,9.37,8.25,26.84,7.47,37.89,14.26-6.06,17.43-20.69,17.48-20.86a6.47,6.47,0,0,1,5.83-5.16c17.15-1.33,21-18.69,21.12-19.43a6.51,6.51,0,0,1,5.11-5.07c20.88-4.07,33.7-13.64,33.7-18.7,0-22.17,11.62-28.07,18.5-28.07a12.15,12.15,0,0,1,8.82,3.61,11.56,11.56,0,0,1,3.24,8.5c-.33,10.89,3.63,15.25,6.53,18.43,2,2.18,4.45,4.9,4.12,8.93a9.94,9.94,0,0,1-4.15,7c-20.47,16.37-12.79,30.43-11.72,32.18a6.34,6.34,0,0,1,.66,6,6.45,6.45,0,0,1-4.72,3.89c-9.64,2.08-19.87,10.49-26.06,21.43-5.64,10-7.17,20.64-4.21,29.29,7.84,22.93-1.4,46.89-26.72,69.31-17.22,15.24-22.94,24.38-5.41,47.91,23.46,31.45,6.4,54.92,5.67,55.9a6.5,6.5,0,0,1-4.38,2.55Z"/><circle class="cls-2" cx="276.53" cy="189.11" r="44.72"/><path class="cls-3" d="M274.23,206.27a29.78,29.78,0,0,1-14.18-3.83l-2.52,10.19a35.17,35.17,0,0,0,14.52,3.75v8.28h8.45v-9c9.78-1.63,15-8.25,15-16,0-7.92-4-12.72-14.17-16.38-7.34-2.7-10.33-4.62-10.33-7.4,0-2.44,1.79-5,7.34-5a26.08,26.08,0,0,1,12.3,3l2.6-9.81a30.34,30.34,0,0,0-12.47-2.87v-7.68h-8.37v8.28c-9.14,1.74-14.43,7.75-14.43,15.51,0,8.45,6.24,12.81,15.37,15.94,6.41,2.18,9.16,4.27,9.16,7.58S279.18,206.27,274.23,206.27Z"/><g id="NSCS"><path class="cls-4" d="M99.2,119.88,78.55,89.34,70.4,119.88H57.57L70.28,72.26H82.51l20.72,30.61,8.17-30.61h12.74l-12.71,47.62Z"/><path class="cls-5" d="M184,79.81l-9.85,7.62a18.12,18.12,0,0,0-13.81-6.19c-10.2,0-19.79,6.33-22,14.63s4,14.69,14.17,14.69c5.35,0,11.8-2.17,17-5.58l6.07,6.87c-7.67,5.17-17.65,8.51-26.31,8.51-17.76,0-28.37-10.55-24.68-24.36s20.1-24.08,38.12-24.08C171.21,71.92,179.39,75,184,79.81Z"/><path class="cls-6" d="M196,119.88,185.38,72.26h14.44l6.64,35.92,25.9-35.92h13.85l-36.33,47.62Z"/><path class="cls-7" d="M293.71,77l-7.56,8.91c-5.48-3-12.45-4.9-17.21-4.9-4.5,0-7.91,1.29-8.6,3.88-2.34,8.77,30.66,3.87,26,21-2.49,9.32-13.94,14.35-27.11,14.35-9.77,0-18.74-3-24.24-7.55l7.7-8.77A31.52,31.52,0,0,0,261.85,111c5.52,0,9.27-1.63,10-4.56,2.4-9-30.69-3.74-26.19-20.61,2.31-8.64,13-14.09,26.79-14.09C280.82,71.78,288.6,73.83,293.71,77Z"/><g id="NSCS-2" data-name="NSCS"><path class="cls-8" d="M111.91,72.35,83.11,34.2V72.35H70.28V12.88H82.51L111.4,51.11V12.88h12.74V72.35Z"/><path class="cls-8" d="M181.56,18.74l-5.18,11.13c-6.28-3.74-13.76-6.12-18.52-6.12-4.5,0-7.56,1.62-7.56,4.84,0,11,31.69,4.85,31.6,26.26,0,11.63-10.11,17.92-23.27,17.92a41.81,41.81,0,0,1-26.26-9.43l5.36-11c6.11,5.44,14.78,8.92,21.07,8.92,5.52,0,8.83-2,8.83-5.69,0-11.21-31.69-4.67-31.69-25.74,0-10.79,9.26-17.59,23-17.59A42.46,42.46,0,0,1,181.56,18.74Z"/><path class="cls-8" d="M242.22,22.31l-7.82,9.51c-4.08-4.67-9.94-7.73-15.46-7.73a17.88,17.88,0,0,0-18.1,18.27,18,18,0,0,0,18.1,18.35c5.35,0,11.21-2.72,15.46-7l7.9,8.58c-6.28,6.46-15.37,10.62-24,10.62-17.76,0-31.18-13.17-31.18-30.41s13.68-30.08,31.69-30.08A33.86,33.86,0,0,1,242.22,22.31Z"/><path class="cls-8" d="M294.63,18.74l-5.18,11.13c-6.29-3.74-13.77-6.12-18.52-6.12-4.51,0-7.57,1.62-7.57,4.84,0,11,31.69,4.85,31.61,26.26,0,11.63-10.11,17.92-23.28,17.92a41.76,41.76,0,0,1-26.25-9.43l5.35-11c6.12,5.44,14.78,8.92,21.07,8.92,5.52,0,8.84-2,8.84-5.69C280.7,44.4,249,50.94,249,29.87c0-10.79,9.26-17.59,23-17.59A42.49,42.49,0,0,1,294.63,18.74Z"/></g></g><g id="Eagle"><path class="cls-3" d="M131.59,204c2.52,2-4.43,4.59-7,2.58-1.29,2.75-5.17,4.18-8.2,1-3.89,3.66-8,3.42-7.76-.54l.94-6.28c1.41.3,2.24.17,2.57-1.07.13-1.38-.66-2.11-3.15-2.77a9.39,9.39,0,0,1,.48-3.65c.82-2.51,2.81-4,6.15-4.5C130.18,186.65,126,199.56,131.59,204Z"/><path class="cls-9" d="M212.85,143.05c9.94-7.63,8.89-15.83-.11-12.1l-48.17,20c-20.47,9-18.46,28.19-10.41,43.18,6.64,7.88-3.26,11.24-13.47,14.82a23.69,23.69,0,0,0-6.81-4.44l-.86,0c-6.21-5-1.51-19.22-17.53-16.82-3.67.55-6,2.26-6.93,5-5.84.88-9.69,2.48-9.18,8.2.06.34.15,1,.27.64,1.32-2.58,5.83-2.07,9.09-.85l-1,7.31,0,.33-1,.32a19.94,19.94,0,0,0-5.06,6.05c-10.65-.45-20.43-.87-16.54-10.15,3.3-16.69-.38-35.59-22.61-38.23l-51.92-5c-9.69-.94-8.3,7.21,3.44,11.59.53.09.55.26-.11.36-10.13,1.86-.76,8.64,5,10.84.39.29.39.29-.09.53-2.83,1.62,1.26,6.12,5,6.93.55.26.57.42.12.84-2,2.35,1.78,5,4.95,5.73.53.1.53.1.27.65-.75,1.81,2.7,4.36,5.11,4.51.5-.07.53.1.41.45,0,1.37,2.73,4.54,4.47,4.79.53.1.55.26.6.6.11,1.86,4,5,5.91,5.25.33-.05.36.12.38.29.08,1.69,3.61,4.74,5.86,4.92.16,0,.19.14.38.28.34,1.15,3.41,3.41,4.89,3a.37.37,0,0,1,.38.29c.2,1.33,3,2.62,4.67,2.71a.45.45,0,0,1,.58.42,7.59,7.59,0,0,0,5.27,3.31c.17,0,.36.11.55.26.89,1.4,5.08,3.16,6.72,2.74.14-.19.34,0,.53.09.81.9,4.59,1,6.23.6.14-.19.33,0,.52.1,1,.7,3,1.43,3.87.78a.61.61,0,0,1,.53.09c.6.59,2.67.79,4.24-.12a.32.32,0,0,1,.5-.08c1,1.21,4,.43,4.89-.39.14-.19.29-.38.45-.41,1-.31,2-.13,4.08-.1,1.54,5.74,4,13.05,7.24,22.11-4,2-11.43,7.21-10.3,12.52l-3.91,3.09.62,3,4.85-3.21c3.78,3.52,11.85-1.66,17.42-5.25l1.11,1.71.65.93-13.59,7.15c-2.22,1.19-.42,5.18,1.08,5-.68,1.13,2.25,4.78,3.51,4.08-.3,1.41,3.44,3.58,4.37,2.93.17,1.16,3.28,2.57,4.21,1.92.2,1.34,3.59,2.36,4.16,1.59.15,1,4.69,1.69,5.52.37.7,1.26,4,1.45,5-.58,1,1.73,4,.59,4.32-.82,1.17,1,5.31-1,5.16-2,.77.57,3.71-1.4,3.51-2.74,1.08.35,3.64-1.91,3.47-3.07,1.07.35,4-2.82,3.31-4.08,1.41.3,3.14-4.06,2.16-4.93,1.5-.23,2.05-4.57-.42-5.06l-15.09-2.86.35-1.07.56-2c6.13,1.72,14.91,4.19,17.87.39l6.52,1.92-.28-3-5.24-2c.06-5.76-9-8.68-13.54-9.48a229.65,229.65,0,0,0,.3-23.07c2.59-.9,3.87-1.43,4.9-1.41a.87.87,0,0,1,.55.26c1.1.52,4.16.4,4.79-1.06a.31.31,0,0,1,.5-.07c1.77.41,3.69-.39,4.1-1.13a.59.59,0,0,1,.47-.24c1.08.35,2.76-.93,3.47-1.89.14-.19.28-.38.47-.24,1.7-.08,5.27-1.3,5.79-2.4.14-.19.28-.38.47-.24,1.69-.08,5.18-3,5.62-4.59.14-.2.29-.39.45-.42a7.53,7.53,0,0,0,4.07-4.7.45.45,0,0,1,.43-.58c1.62-.58,3.87-2.62,3.67-4a.37.37,0,0,1,.28-.38c1.53-.06,3.8-3.13,3.79-4.32.14-.19.12-.36.29-.38,2.09-.83,4.57-4.78,4.15-6.43,0-.16,0-.33.29-.38,1.76-.77,4.54-4.95,4.1-6.75-.05-.34-.07-.51.4-.75,1.59-.75,3.24-4.58,2.87-5.89-.22-.31-.24-.47.26-.55,2.26-.85,4.81-4.3,3.56-5.82-.41-.45-.41-.45.07-.69,2.83-1.62,5.69-5.29,3.05-6.94-.55-.26-.57-.42-.12-.83,3.3-1.86,5.89-7.36,2.71-8.09-.52-.08-.52-.08-.24-.47,4.89-3.8,11.86-13,1.64-11.84C212.4,143.46,212.37,143.29,212.85,143.05ZM111.38,193.22l3.34-.5c.5-.08.63.76.12.83l-3.81.74Zm-3.8,1.94a.55.55,0,0,0,.42-.58.44.44,0,0,0-.57-.43.45.45,0,0,0-.43.58A.55.55,0,0,0,107.58,195.16Zm3.45-.87c.47-1.43,3.16-1.66,2.58.13C113.19,196.19,110.64,196.23,111,194.29Zm6.11,76h0M131.59,204c2.52,2-4.43,4.59-7,2.58-1.29,2.75-5.17,4.18-8.2,1-3.89,3.66-8,3.42-7.76-.54l.94-6.28c1.41.3,2.24.17,2.57-1.07.13-1.38-.66-2.11-3.15-2.77a9.39,9.39,0,0,1,.48-3.65c.82-2.51,2.81-4,6.15-4.5C130.18,186.65,126,199.56,131.59,204Zm39.83,54.06,2.34.85,3.09-5.58,3.52,1.86,1.54-11.32-6.29,4.7,7.93-13.13,3.16,1.74,1.88-11.37-9.33,7.2,3.16,1.74-9,15.17,2-20.61,4,.27-3.37-11.1-5.46,10.2,3.79.29-2.46,23.39-2.88,4.7,1.1.51,1.63-2.8Zm-.34,13.7-2.79-.43-3.5,12,4.05-1.46.83-.13,4.19,1.76Zm-8.54,6.74,1.71-4.52,1.64-3.83-.35-.11-1.27-.5-1.81,5.05-1.55,3.3-.74-.4-7.92,9.71,4,.27,1.13.68.19.14-.8,2.68-.74-.4-8.11,9.57,4.15.4,1.24.33,2.86,3.15,2.23-12.44-.52-.09.7-2.16,1.64,1.81Zm11.29-27.11,2.06,1.23-3.4,5.79.66-5.89ZM86.31,270.66l.69-1.13a29,29,0,0,0-5-2.66l.09-.53c.9-.81,1.87-7.95,2-10.86.19-6.68-.21-5.94-2.65-.63a12.79,12.79,0,0,0-1.48,3.81,19.07,19.07,0,0,0-3.75-4.56c-4.47-4.79-5.15-5.88-2.33,1.54,1,2.93,3.76,9.16,5.2,10.82a16,16,0,0,0-3.84-.62,10.25,10.25,0,0,1-4.4-.88c.33-4.65.33-4.65-4.93-10.17-4-3.67-4.4-4.29-1.81,1.64a28.89,28.89,0,0,0,4.12,8.08c-5.41-1.92-8.82-5.33-11.57-10,1.87-2.32,3.4-4.6,3.25-9,.09-5.13-.06-6.13-2.46-.49-.39,1.94-1.51,5.86-1.85,8.13a56.22,56.22,0,0,1-3.2-7.71c.11-1.55-1.19-6.81-1.85-8.93-2.52-5.43-2.45-4.93-2.34.35a9.18,9.18,0,0,0,1.24,5.95,19.45,19.45,0,0,0-3.79-2.5c-4.67-2.71-5.8-3.4-1.59,1.94A80.43,80.43,0,0,0,51.33,249c.76,1.59,1.53,3.35,2.45,4.92a18.85,18.85,0,0,0-5.2-2.8c-5.48-2.42-5.09-2.14-2.07,1-2.91-.08-2.88.09,1,2.23,2,.9,6.61,3.11,7.75,2.77l.47-.24a25.43,25.43,0,0,0,8.81,7.54,71.12,71.12,0,0,0-8.87,0c-8.09.7-6.82,1.19-.58,3a10.62,10.62,0,0,0,6.09.79c-.85,1.15-2.09,2-3.22,3.55-3.62,4.3-4.19,5.06,2,1.92,2.71-1.26,8.46-5,8.57-6.57l.23-.72,0-.16a25.31,25.31,0,0,0,6.49,1.24,13.19,13.19,0,0,1,3.8.29c-2.62.73-8.16,3.61-10.37,4.79-7,4.29-5.86,4.12.64,3.14,7-1,9.43-3.12,12.6-7A23.55,23.55,0,0,1,86.31,270.66Zm8.81,11-1.26.7a17.68,17.68,0,0,1,3.43,16l1.76.42C100.69,293.75,99,286.84,95.12,281.62Zm-5.93-2c-.93.65.67,3.31,1.74,2.47l6.14-4.51c1-.48-.61-3-1.71-2.3Zm-2.38-3.4c-.93.66.81,3.12,1.73,2.47L93,275.45c-1.31.37-2.22,0-2.81-1.62Zm3.42-7.84,1.24,5.95c.15,1,2.89,1.1,2.64-.57l-1.06-6C92.9,266.77,89.87,267.06,90.23,268.37Zm-6,4.47c-.78.46,1,2.93,1.88,2.28l4.47-3.23L89.65,269Zm88-4.82-7.17-2.34c-1.24-.33-2,2.52-1,2.7l7.2,2.51C172.56,271.38,173.3,268.37,172.22,268Zm1.29-3.95-3.94-1.28c-.09,1.71-.85,2.34-2.21,2.37l5.21,1.78C173.65,267.29,174.58,264.42,173.51,264.07Zm-5.58-6.5c0-1.36-3-.74-2.86.26l.73,6c.25,1.67,2.84.77,2.69-.23Zm7,2.53L168.67,258l0,3.08,5.22,1.78C174.91,263.18,175.84,260.31,175,260.1Z"/><path class="cls-10" d="M212.85,143.05c9.94-7.63,8.89-15.83-.11-12.1l-48.17,20c-20.47,9-18.46,28.19-10.41,43.18,6.64,7.88-3.26,11.24-13.47,14.82a23.69,23.69,0,0,0-6.81-4.44l-.86,0c-6.21-5-1.51-19.22-17.53-16.82-3.67.55-6,2.26-6.93,5-5.84.88-9.69,2.48-9.18,8.2.06.34.15,1,.27.64,1.32-2.58,5.83-2.07,9.09-.85l-1,7.31,0,.33-1,.32a19.94,19.94,0,0,0-5.06,6.05c-10.65-.45-20.43-.87-16.54-10.15,3.3-16.69-.38-35.59-22.61-38.23l-51.92-5c-9.69-.94-8.3,7.21,3.44,11.59.53.09.55.26-.11.36-10.13,1.86-.76,8.64,5,10.84.39.29.39.29-.09.53-2.83,1.62,1.26,6.12,5,6.93.55.26.57.42.12.84-2,2.35,1.78,5,4.95,5.73.53.1.53.1.27.65-.75,1.81,2.7,4.36,5.11,4.51.5-.07.53.1.41.45,0,1.37,2.73,4.54,4.47,4.79.53.1.55.26.6.6.11,1.86,4,5,5.91,5.25.33-.05.36.12.38.29.08,1.69,3.61,4.74,5.86,4.92.16,0,.19.14.38.28.34,1.15,3.41,3.41,4.89,3a.37.37,0,0,1,.38.29c.2,1.33,3,2.62,4.67,2.71a.45.45,0,0,1,.58.42,7.59,7.59,0,0,0,5.27,3.31c.17,0,.36.11.55.26.89,1.4,5.08,3.16,6.72,2.74.14-.19.34,0,.53.09.81.9,4.59,1,6.23.6.14-.19.33,0,.52.1,1,.7,3,1.43,3.87.78a.61.61,0,0,1,.53.09c.6.59,2.67.79,4.24-.12a.32.32,0,0,1,.5-.08c1,1.21,4,.43,4.89-.39.14-.19.29-.38.45-.41,1-.31,2-.13,4.08-.1,1.54,5.74,4,13.05,7.24,22.11-4,2-11.43,7.21-10.3,12.52l-3.91,3.09.62,3,4.85-3.21c3.78,3.52,11.85-1.66,17.42-5.25l1.11,1.71.65.93-13.59,7.15c-2.22,1.19-.42,5.18,1.08,5-.68,1.13,2.25,4.78,3.51,4.08-.3,1.41,3.44,3.58,4.37,2.93.17,1.16,3.28,2.57,4.21,1.92.2,1.34,3.59,2.36,4.16,1.59.15,1,4.69,1.69,5.52.37.7,1.26,4,1.45,5-.58,1,1.73,4,.59,4.32-.82,1.17,1,5.31-1,5.16-2,.77.57,3.71-1.4,3.51-2.74,1.08.35,3.64-1.91,3.47-3.07,1.07.35,4-2.82,3.31-4.08,1.41.3,3.14-4.06,2.16-4.93,1.5-.23,2.05-4.57-.42-5.06l-15.09-2.86.35-1.07.56-2c6.13,1.72,14.91,4.19,17.87.39l6.52,1.92-.28-3-5.24-2c.06-5.76-9-8.68-13.54-9.48a229.65,229.65,0,0,0,.3-23.07c2.59-.9,3.87-1.43,4.9-1.41a.87.87,0,0,1,.55.26c1.1.52,4.16.4,4.79-1.06a.31.31,0,0,1,.5-.07c1.77.41,3.69-.39,4.1-1.13a.59.59,0,0,1,.47-.24c1.08.35,2.76-.93,3.47-1.89.14-.19.28-.38.47-.24,1.7-.08,5.27-1.3,5.79-2.4.14-.19.28-.38.47-.24,1.69-.08,5.18-3,5.62-4.59.14-.2.29-.39.45-.42a7.53,7.53,0,0,0,4.07-4.7.45.45,0,0,1,.43-.58c1.62-.58,3.87-2.62,3.67-4a.37.37,0,0,1,.28-.38c1.53-.06,3.8-3.13,3.79-4.32.14-.19.12-.36.29-.38,2.09-.83,4.57-4.78,4.15-6.43,0-.16,0-.33.29-.38,1.76-.77,4.54-4.95,4.1-6.75-.05-.34-.07-.51.4-.75,1.59-.75,3.24-4.58,2.87-5.89-.22-.31-.24-.47.26-.55,2.26-.85,4.81-4.3,3.56-5.82-.41-.45-.41-.45.07-.69,2.83-1.62,5.69-5.29,3.05-6.94-.55-.26-.57-.42-.12-.83,3.3-1.86,5.89-7.36,2.71-8.09-.52-.08-.52-.08-.24-.47,4.89-3.8,11.86-13,1.64-11.84C212.4,143.46,212.37,143.29,212.85,143.05ZM111.38,193.22l3.34-.5c.5-.08.63.76.12.83l-3.81.74Zm-3.8,1.94a.55.55,0,0,0,.42-.58.44.44,0,0,0-.57-.43.45.45,0,0,0-.43.58A.55.55,0,0,0,107.58,195.16Zm3.45-.87c.47-1.43,3.16-1.66,2.58.13C113.19,196.19,110.64,196.23,111,194.29Zm6.11,76h0M131.59,204c2.52,2-4.43,4.59-7,2.58-1.29,2.75-5.17,4.18-8.2,1-3.89,3.66-8,3.42-7.76-.54l.94-6.28c1.41.3,2.24.17,2.57-1.07.13-1.38-.66-2.11-3.15-2.77a9.39,9.39,0,0,1,.48-3.65c.82-2.51,2.81-4,6.15-4.5C130.18,186.65,126,199.56,131.59,204Zm39.83,54.06,2.34.85,3.09-5.58,3.52,1.86,1.54-11.32-6.29,4.7,7.93-13.13,3.16,1.74,1.88-11.37-9.33,7.2,3.16,1.74-9,15.17,2-20.61,4,.27-3.37-11.1-5.46,10.2,3.79.29-2.46,23.39-2.88,4.7,1.1.51,1.63-2.8Zm-.34,13.7-2.79-.43-3.5,12,4.05-1.46.83-.13,4.19,1.76Zm-8.54,6.74,1.71-4.52,1.64-3.83-.35-.11-1.27-.5-1.81,5.05-1.55,3.3-.74-.4-7.92,9.71,4,.27,1.13.68.19.14-.8,2.68-.74-.4-8.11,9.57,4.15.4,1.24.33,2.86,3.15,2.23-12.44-.52-.09.7-2.16,1.64,1.81Zm11.29-27.11,2.06,1.23-3.4,5.79.66-5.89ZM86.31,270.66l.69-1.13a29,29,0,0,0-5-2.66l.09-.53c.9-.81,1.87-7.95,2-10.86.19-6.68-.21-5.94-2.65-.63a12.79,12.79,0,0,0-1.48,3.81,19.07,19.07,0,0,0-3.75-4.56c-4.47-4.79-5.15-5.88-2.33,1.54,1,2.93,3.76,9.16,5.2,10.82a16,16,0,0,0-3.84-.62,10.25,10.25,0,0,1-4.4-.88c.33-4.65.33-4.65-4.93-10.17-4-3.67-4.4-4.29-1.81,1.64a28.89,28.89,0,0,0,4.12,8.08c-5.41-1.92-8.82-5.33-11.57-10,1.87-2.32,3.4-4.6,3.25-9,.09-5.13-.06-6.13-2.46-.49-.39,1.94-1.51,5.86-1.85,8.13a56.22,56.22,0,0,1-3.2-7.71c.11-1.55-1.19-6.81-1.85-8.93-2.52-5.43-2.45-4.93-2.34.35a9.18,9.18,0,0,0,1.24,5.95,19.45,19.45,0,0,0-3.79-2.5c-4.67-2.71-5.8-3.4-1.59,1.94A80.43,80.43,0,0,0,51.33,249c.76,1.59,1.53,3.35,2.45,4.92a18.85,18.85,0,0,0-5.2-2.8c-5.48-2.42-5.09-2.14-2.07,1-2.91-.08-2.88.09,1,2.23,2,.9,6.61,3.11,7.75,2.77l.47-.24a25.43,25.43,0,0,0,8.81,7.54,71.12,71.12,0,0,0-8.87,0c-8.09.7-6.82,1.19-.58,3a10.62,10.62,0,0,0,6.09.79c-.85,1.15-2.09,2-3.22,3.55-3.62,4.3-4.19,5.06,2,1.92,2.71-1.26,8.46-5,8.57-6.57l.23-.72,0-.16a25.31,25.31,0,0,0,6.49,1.24,13.19,13.19,0,0,1,3.8.29c-2.62.73-8.16,3.61-10.37,4.79-7,4.29-5.86,4.12.64,3.14,7-1,9.43-3.12,12.6-7A23.55,23.55,0,0,1,86.31,270.66Zm8.81,11-1.26.7a17.68,17.68,0,0,1,3.43,16l1.76.42C100.69,293.75,99,286.84,95.12,281.62Zm-5.93-2c-.93.65.67,3.31,1.74,2.47l6.14-4.51c1-.48-.61-3-1.71-2.3Zm-2.38-3.4c-.93.66.81,3.12,1.73,2.47L93,275.45c-1.31.37-2.22,0-2.81-1.62Zm3.42-7.84,1.24,5.95c.15,1,2.89,1.1,2.64-.57l-1.06-6C92.9,266.77,89.87,267.06,90.23,268.37Zm-6,4.47c-.78.46,1,2.93,1.88,2.28l4.47-3.23L89.65,269Zm88-4.82-7.17-2.34c-1.24-.33-2,2.52-1,2.7l7.2,2.51C172.56,271.38,173.3,268.37,172.22,268Zm1.29-3.95-3.94-1.28c-.09,1.71-.85,2.34-2.21,2.37l5.21,1.78C173.65,267.29,174.58,264.42,173.51,264.07Zm-5.58-6.5c0-1.36-3-.74-2.86.26l.73,6c.25,1.67,2.84.77,2.69-.23Zm7,2.53L168.67,258l0,3.08,5.22,1.78C174.91,263.18,175.84,260.31,175,260.1Z"/></g><g id="Siren"><path class="cls-11" d="M338.86,187.29A55.87,55.87,0,0,0,295.6,133a56.88,56.88,0,0,0-25.92.25A55.7,55.7,0,0,0,233,163.19a57.14,57.14,0,0,0-5.48,24.12v37.35a6.15,6.15,0,0,0,6.07,6.07h86.94c4,0,8,.08,12,0h.18a6.15,6.15,0,0,0,6.07-6.07v-36.9C338.85,187.61,338.86,187.45,338.86,187.29Z"/><path d="M248.7,160.68l-.13.18.14-.19Z"/><path d="M310.13,153c-.12-.08-.22-.17-.32-.25l-.35-.25C309.65,152.71,310.54,153.33,310.13,153Z"/><path d="M248.71,160.67a2.49,2.49,0,0,0,.23-.31C249.14,160.08,248.93,160.37,248.71,160.67Z"/><path class="cls-8" d="M338.86,187.29A55.87,55.87,0,0,0,295.6,133a56.88,56.88,0,0,0-25.92.25A55.7,55.7,0,0,0,233,163.19a57.14,57.14,0,0,0-5.48,24.12v37.35a6.15,6.15,0,0,0,6.07,6.07h86.94c4,0,8,.08,12,0h.18a6.15,6.15,0,0,0,6.07-6.07v-36.9C338.85,187.61,338.86,187.45,338.86,187.29Zm-39.59,31.32H245.85c-2,0-4.09,0-6.13,0V189.66a75,75,0,0,1,.37-8.48,49.91,49.91,0,0,1,2.9-10.61,50.76,50.76,0,0,1,3.12-6c.65-1.05,1.34-2.09,2-3.1l.41-.57c-.1.15-.18.25-.17.21.14-.49.91-1.15,1.25-1.54a49.68,49.68,0,0,1,5.08-5.18q.65-.57,1.32-1.11l.61-.5c.93-.69,1.9-1.36,2.87-2a42.17,42.17,0,0,1,17.55-6.61A43.66,43.66,0,0,1,300,147.07a52.72,52.72,0,0,1,6,3.11c1.05.65,2.09,1.34,3.1,2.07l.4.29s-.06,0,0,0c.45.1,1.18.95,1.54,1.25a52,52,0,0,1,5.18,5.1q.57.65,1.11,1.32l.5.61c.69.93,1.36,1.9,2,2.87a42.38,42.38,0,0,1,6.61,17.67,53.93,53.93,0,0,1,.37,6v31.32H299.27Zm0,0H245.85c-2,0-4.09,0-6.13,0V189.66a75,75,0,0,1,.37-8.48,49.91,49.91,0,0,1,2.9-10.61,50.76,50.76,0,0,1,3.12-6c.65-1.05,1.34-2.09,2-3.1l.41-.57c-.1.15-.18.25-.17.21.14-.49.91-1.15,1.25-1.54a49.68,49.68,0,0,1,5.08-5.18q.65-.57,1.32-1.11l.61-.5c.93-.69,1.9-1.36,2.87-2a42.17,42.17,0,0,1,17.55-6.61A43.66,43.66,0,0,1,300,147.07a52.72,52.72,0,0,1,6,3.11c1.05.65,2.09,1.34,3.1,2.07l.4.29s-.06,0,0,0c.45.1,1.18.95,1.54,1.25a52,52,0,0,1,5.18,5.1q.57.65,1.11,1.32l.5.61c.69.93,1.36,1.9,2,2.87a42.38,42.38,0,0,1,6.61,17.67,53.93,53.93,0,0,1,.37,6v31.32H299.27Z"/><path class="cls-3" d="M260.5,184.5a27.89,27.89,0,0,1,.24-3.66c-.08.54-.14,1.07-.22,1.62a27.94,27.94,0,0,1,1.92-7.11l-.61,1.46a28.48,28.48,0,0,1,2.53-4.71c.22-.33.47-.65.69-1,.59-.85-.36.34-.38.48,0-.16.32-.4.42-.53.57-.68,1.15-1.33,1.78-2s1.22-1.17,1.86-1.7l.51-.42c.52-.47-1.26.93-.49.38.37-.26.71-.52,1.1-.77a29.09,29.09,0,0,1,4.69-2.55l-1.46.61a27.94,27.94,0,0,1,7.11-1.92l-1.62.22a28,28,0,0,1,3.66-.24,6.07,6.07,0,0,0,0-12.14,33.39,33.39,0,0,0-19.08,5.91,35.24,35.24,0,0,0-12.81,16.63,33.17,33.17,0,0,0-2,11.37,6.06,6.06,0,1,0,12.12,0Z"/><path class="cls-12" d="M289.29,118.74V100.13a6.07,6.07,0,1,0-12.14,0v18.61a6.07,6.07,0,1,0,12.14,0Z"/><path class="cls-12" d="M322.51,129.26q4.35-6.85,8.7-13.72l1.28-2a6.11,6.11,0,0,0-2.19-8.3,6.19,6.19,0,0,0-8.29,2.19q-4.35,6.85-8.7,13.72l-1.28,2a6.12,6.12,0,0,0,2.19,8.3,6.2,6.2,0,0,0,8.29-2.19Z"/><path class="cls-12" d="M254.39,123.13q-4.35-6.85-8.7-13.72l-1.28-2c-1.7-2.67-5.48-4-8.29-2.19s-4,5.45-2.19,8.3c2.89,4.57,5.81,9.15,8.7,13.72l1.28,2c1.7,2.67,5.48,4,8.29,2.19s4-5.43,2.19-8.3Z"/><path class="cls-11" d="M349.77,273c-.3-5.44-.61-10.9-.91-16.35q-.74-13-1.46-26c-.12-2-.22-4-.34-6a6.19,6.19,0,0,0-6.07-6.07H239.7c-4.68,0-9.37-.08-14,0h-.21a6.2,6.2,0,0,0-6.07,6.07c-.3,5.45-.6,10.91-.91,16.35q-.72,13-1.45,26c-.13,2-.23,4-.35,6-.18,3.28,2.94,6.07,6.07,6.07H328.83c4.81,0,9.64.08,14.47,0a2.67,2.67,0,0,0,.4,0,6.3,6.3,0,0,0,4.48-2A5.4,5.4,0,0,0,349.77,273Z"/><path class="cls-12" d="M349.77,273c-.3-5.44-.61-10.9-.91-16.35q-.74-13-1.46-26c-.12-2-.22-4-.34-6a6.19,6.19,0,0,0-6.07-6.07H239.7c-4.68,0-9.37-.08-14,0h-.21a6.2,6.2,0,0,0-6.07,6.07c-.3,5.45-.6,10.91-.91,16.35q-.72,13-1.45,26c-.13,2-.23,4-.35,6-.18,3.28,2.94,6.07,6.07,6.07H328.83c4.81,0,9.64.08,14.47,0a2.67,2.67,0,0,0,.4,0,6.3,6.3,0,0,0,4.48-2A5.4,5.4,0,0,0,349.77,273Z"/></g><g id="clip_board" data-name="clip board"><path class="cls-13" d="M528.69,180,512.92,173l-.19,9.88a7.55,7.55,0,0,1-10.52,7.55l-53.13-23.35a7.65,7.65,0,0,1-2.31-12.36l7.69-7.42-15.78-6.93A10.59,10.59,0,0,0,425,145.74l-52.62,119.7a10.72,10.72,0,0,0,5.46,14l90,39.56a10.7,10.7,0,0,0,14-5.46l52.62-119.7A11.07,11.07,0,0,0,528.69,180Z"/><path class="cls-12" d="M452.05,162.71l51.4,22.6h0a2.31,2.31,0,0,0,3.28-2.58l.49-21.22a2.38,2.38,0,0,0-1.33-2.46l-36.37-16a2.46,2.46,0,0,0-2.61.46l-15.5,15.15A2.48,2.48,0,0,0,452.05,162.71Z"/><path class="cls-3" d="M528.69,180,512.92,173l-.19,9.88a7.55,7.55,0,0,1-10.52,7.55l-53.13-23.35a7.65,7.65,0,0,1-2.31-12.36l7.69-7.42-15.78-6.93A10.59,10.59,0,0,0,425,145.74l-52.62,119.7a10.72,10.72,0,0,0,5.46,14l90,39.56a10.7,10.7,0,0,0,14-5.46l52.62-119.7A11.07,11.07,0,0,0,528.69,180Z"/><circle class="cls-14" cx="407.91" cy="258.91" r="14.7"/><circle class="cls-14" cx="423.1" cy="224.35" r="14.7"/><circle class="cls-14" cx="438.39" cy="189.55" r="14.7"/><path class="cls-12" d="M469.89,296.12l-42.22-18.55a2.53,2.53,0,1,1,2-4.64l42,18.45a2.38,2.38,0,0,1,1.3,3.34A2.33,2.33,0,0,1,469.89,296.12Z"/><path class="cls-12" d="M475,284.52,432.76,266a2.53,2.53,0,1,1,2-4.64l42,18.45a2.4,2.4,0,0,1,1.3,3.34A2.34,2.34,0,0,1,475,284.52Z"/><path class="cls-12" d="M485.18,261.33,443,242.77a2.53,2.53,0,1,1,2-4.64l42,18.45a2.4,2.4,0,0,1,1.3,3.34A2.34,2.34,0,0,1,485.18,261.33Z"/><path class="cls-12" d="M490.28,249.73l-42.22-18.56a2.53,2.53,0,1,1,2-4.64l42,18.46a2.39,2.39,0,0,1,1.3,3.33A2.34,2.34,0,0,1,490.28,249.73Z"/><path class="cls-12" d="M500.48,226.53,458.26,208a2.53,2.53,0,0,1,2-4.64l42,18.46a2.38,2.38,0,0,1,1.3,3.34A2.33,2.33,0,0,1,500.48,226.53Z"/><path class="cls-12" d="M505.58,214.93l-42.23-18.56a2.53,2.53,0,0,1,2-4.64l42,18.46a2.4,2.4,0,0,1,1.3,3.34A2.33,2.33,0,0,1,505.58,214.93Z"/><path class="cls-3" d="M463,222.94l24.67,19.62a69,69,0,0,0-7.5-.4c-37.75,0-79.72,28.2-79.72,28.2l.08-2.1c-2-14.69-10.42-27.53-16.08-34.69L402.8,224c2.15,5.29,5.57,13.2,6.45,24.9a562.73,562.73,0,0,1,53.77-26m0-2.92a2.87,2.87,0,0,0-1.14.23c-23.79,10.05-42.44,19.8-50.18,24a80,80,0,0,0-5.86-20.5l-.33-.8a2.92,2.92,0,0,0-2.71-1.83,2.93,2.93,0,0,0-1.35.33L383.12,231a2.92,2.92,0,0,0-.94,4.41c4.9,6.2,13.4,18.7,15.44,33l-.07,1.84a2.91,2.91,0,0,0,1.49,2.67,3,3,0,0,0,1.43.37,2.92,2.92,0,0,0,1.63-.5,207.54,207.54,0,0,1,25.4-13.92c13.58-6.29,33.76-13.78,52.69-13.78a66.84,66.84,0,0,1,7.18.37l.32,0a2.92,2.92,0,0,0,1.82-5.21l-24.67-19.62A3,3,0,0,0,463,220Z"/><path class="cls-15" d="M409.25,248.92c-.88-11.7-4.3-19.61-6.45-24.9l-18.33,9.55c5.66,7.16,14.07,20,16.08,34.69l-.08,2.1s47.77-32.09,87.22-27.8L463,222.94A562.73,562.73,0,0,0,409.25,248.92Z"/></g><g id="Burglar"><path class="cls-12" d="M429.27,69A12.23,12.23,0,1,0,415,59.38,12.2,12.2,0,0,0,429.27,69"/><path class="cls-12" d="M358.47,58.78c-16,5.23-22.54,16-19.38,25.73s14.46,13.42,30.48,8.18S405.93,69.17,404.23,64C402.35,58.22,374.49,53.54,358.47,58.78Z"/><path class="cls-12" d="M415.41,176.34a7.81,7.81,0,0,0,1.51-.12c4.48-.86,5.73-4.5,5.17-9.1l-4.26-29.32c-.17-2.07-.71-5.52-2.21-7.65,0,0-10-13-13.58-17.37l12.86-13,1.66,9a6,6,0,0,0,5,4.85,6.36,6.36,0,0,0,.87.06,6,6,0,0,0,5.32-3.26L438.3,90a6,6,0,0,0-10.66-5.46l-2.49,4.86-2.75-15a11.39,11.39,0,0,0-1.85-3.39,8.43,8.43,0,0,0-6.39-2.73,8.21,8.21,0,0,0-6.2,2.73L381.51,97.21c-1.1,1.11-8.78,7.7-10,15.17l-4.19,24.79L344.41,134c-3.73-.41-7.62,1.3-8.14,4.9-1,7,7.46,8,7.46,8s25.32,4.06,31.5,4.06c4.84-.28,7.33-4.46,7.85-6.79,1.61-7.28,4.92-20.91,4.92-20.91s10.92,10.91,15.05,16.43l5.47,29.79a10.77,10.77,0,0,0,.62,2.09C410.94,176.7,415.41,176.34,415.41,176.34Z"/></g><path id="leg" class="cls-12" d="M388,123.25s10.92,10.91,15.05,16.43l5.47,29.79a10.77,10.77,0,0,0,.62,2.09c1.8,5.14,6.27,4.78,6.27,4.78a7.81,7.81,0,0,0,1.51-.12c4.48-.86,5.73-4.5,5.17-9.1l-4.26-29.32c-.17-2.07-.71-5.52-2.21-7.65,0,0-10-13-13.58-17.37"/></svg>