<svg id="Layer_1" data-name="Layer 1" xmlns="http://www.w3.org/2000/svg" viewBox="0 0 500 255"><defs><style>.cls-1{fill:#004568;}.cls-2{fill:#a6beca;}.cls-3{fill:#0aa;}.cls-4{fill:#cb4c45;}.cls-5{opacity:0.9;}.cls-6,.cls-8{fill:none;}.cls-6{stroke:#f2f2f2;stroke-linecap:round;stroke-linejoin:round;stroke-width:8px;}.cls-7{fill:#fff;}</style></defs><title>About_03</title><path class="cls-1" d="M407,36.33h-2.12a82.52,82.52,0,0,0-40.55,154.38L407,116.81Z"/><path class="cls-2" d="M410.25,121.26l-41.46,71.81a82.57,82.57,0,0,0,94.4-15.88l1.48-1.5Z"/><path class="cls-3" d="M411.19,23.63v87.45l63.47-60.24L473.2,49.3a81.85,81.85,0,0,0-59.89-25.67Z"/><path class="cls-4" d="M473.79,58.35,412.4,116.72l59.87,59.88,1.5-1.48a82.51,82.51,0,0,0,1.46-115.2Z"/><path class="cls-1" d="M23.59,118H177.74a1.72,1.72,0,0,0,1.76-1.76V105.92a1.73,1.73,0,0,0-1.76-1.76H164.43A64.94,64.94,0,0,0,118,53.7V50.44a1.72,1.72,0,0,0-1.76-1.76h-9.54V44.91a1.71,1.71,0,0,0-1.76-1.75h-2.26V24.83h19.59a2.37,2.37,0,0,0,2.51-2.51V9.77a2.37,2.37,0,0,0-2.51-2.51H102.67V4.74a1.61,1.61,0,0,0-1.5-1.5H99.66a1.62,1.62,0,0,0-1.51,1.5V43.16H95.64a1.71,1.71,0,0,0-1.75,1.75v3.77H84.35a1.71,1.71,0,0,0-1.76,1.76V53.7a65.34,65.34,0,0,0-46.45,50.46H22.84a1.72,1.72,0,0,0-1.76,1.76v10.29C21.83,117.22,22.59,118,23.59,118Z"/><path class="cls-1" d="M197.57,228.19h-8V216.14a1.71,1.71,0,0,0-1.76-1.76H179.5V125.75a1.72,1.72,0,0,0-1.76-1.75H23.59a1.72,1.72,0,0,0-1.76,1.75v88.63H13.55a1.71,1.71,0,0,0-1.76,1.76v12.05h-8A1.71,1.71,0,0,0,2,229.94v10.3A1.71,1.71,0,0,0,3.76,242H197.57a1.71,1.71,0,0,0,1.76-1.75v-10.3A1.71,1.71,0,0,0,197.57,228.19Zm-61.51-90.64h15.82v76.83H136.06ZM108.7,214.38H92.88V137.55H108.7ZM49.45,137.55H65.27v76.83H49.45Z"/><g class="cls-5"><path class="cls-6" d="M207.18,159.72a29.89,29.89,0,0,0,8.28-3.82,9.81,9.81,0,0,1-3.82-4.46,9.06,9.06,0,0,1,.85-8.7H196.35v-17c-14.22,9.77-22.93,22.72-22.93,36.95,0,10.19,4.46,19.74,12.1,27.81C186.37,179.05,191.47,164.61,207.18,159.72Z"/><path class="cls-6" d="M309.32,151.44a8.21,8.21,0,0,1-1.91,2.76A27.32,27.32,0,0,0,318,159.51c16.56,5.1,21.24,20.6,21.45,32.07,8.49-8.5,13.38-18.48,13.38-29.09,0-14.44-8.92-27.4-23.36-37.16v17.83H308.68A9.46,9.46,0,0,1,309.32,151.44Z"/><path class="cls-6" d="M250.71,96a8.89,8.89,0,0,1,1.7-9.34l.42-.42,2.34-1.49L231.6,70.12,197.2,92.2a2.52,2.52,0,0,0,1.7,4.25h4.25v39.49h18l35.67-22.72V101.33A8.63,8.63,0,0,1,250.71,96Z"/><path class="cls-6" d="M330.13,91.56,292.75,68.21,256.44,91.56A2.62,2.62,0,0,0,258.35,96h4.25v17l40.13,25.06H324V96h4.24A2.62,2.62,0,0,0,330.13,91.56Z"/><path class="cls-6" d="M302.52,144.44l-42.47-26.55-41.4,26.55a3,3,0,0,0,2.12,5.09h4.88v41h69.86v-41h4.89C303,149.53,304.43,146.13,302.52,144.44Zm-30.15,31.21H247.53V150.81h24.84Z"/><path class="cls-6" d="M256.87,196.46h-38V161.85a38.35,38.35,0,0,1-9.77,4.46c-17.41,5.31-17,25.05-16.56,30.57,15.08,11.9,38.22,20.18,64.34,21.24Z"/><path class="cls-6" d="M316.11,166.09c-6.16-1.91-10.62-4.45-13.8-7.43v37.8h-38v21.87c27.39-.21,52-8.07,68.16-20.17C332.89,195.82,335.43,172,316.11,166.09Z"/></g><path class="cls-3" d="M207.18,159.72a29.89,29.89,0,0,0,8.28-3.82,9.81,9.81,0,0,1-3.82-4.46,9.06,9.06,0,0,1,.85-8.7H196.35v-17c-14.22,9.77-22.93,22.72-22.93,36.95,0,10.19,4.46,19.74,12.1,27.81C186.37,179.05,191.47,164.61,207.18,159.72Z"/><path class="cls-3" d="M309.32,151.44a8.21,8.21,0,0,1-1.91,2.76A27.32,27.32,0,0,0,318,159.51c16.56,5.1,21.24,20.6,21.45,32.07,8.49-8.5,13.38-18.48,13.38-29.09,0-14.44-8.92-27.4-23.36-37.16v17.83H308.68A9.46,9.46,0,0,1,309.32,151.44Z"/><path class="cls-4" d="M250.71,96a8.89,8.89,0,0,1,1.7-9.34l.42-.42,2.34-1.49L231.6,70.12,197.2,92.2a2.52,2.52,0,0,0,1.7,4.25h4.25v39.49h18l35.67-22.72V101.33A8.63,8.63,0,0,1,250.71,96Z"/><path class="cls-4" d="M330.13,91.56,292.75,68.21,256.44,91.56A2.62,2.62,0,0,0,258.35,96h4.25v17l40.13,25.06H324V96h4.24A2.62,2.62,0,0,0,330.13,91.56Z"/><path class="cls-4" d="M302.52,144.44l-42.47-26.55-41.4,26.55a3,3,0,0,0,2.12,5.09h4.88v41h69.86v-41h4.89C303,149.53,304.43,146.13,302.52,144.44Zm-30.15,31.21H247.53V150.81h24.84Z"/><path class="cls-3" d="M256.87,196.46h-38V161.85a38.35,38.35,0,0,1-9.77,4.46c-17.41,5.31-17,25.05-16.56,30.57,15.08,11.9,38.22,20.18,64.34,21.24Z"/><path class="cls-3" d="M316.11,166.09c-6.16-1.91-10.62-4.45-13.8-7.43v37.8h-38v21.87c27.39-.21,52-8.07,68.16-20.17C332.89,195.82,335.43,172,316.11,166.09Z"/><rect class="cls-7" x="223.96" y="97.08" width="15.5" height="15.5"/><polygon class="cls-7" points="301.25 112.58 285.96 112.58 285.96 97.08 301.46 97.08 301.46 112.58 301.25 112.58"/><rect class="cls-7" x="223.96" y="97.08" width="15.5" height="15.5"/><polygon class="cls-7" points="301.25 112.58 285.96 112.58 285.96 97.08 301.46 97.08 301.46 112.58 301.25 112.58"/><rect class="cls-7" x="247.53" y="150.81" width="24.84" height="24.84"/><path class="cls-3" d="M233.65,40.58a3.75,3.75,0,0,0-3.74,3.74,3.7,3.7,0,0,0,.23,1.25l-30.28,24a3.69,3.69,0,0,0-2.05-.61,3.62,3.62,0,0,0-1.51.32l-29-32.87a3.73,3.73,0,1,0-7-1.88,3.78,3.78,0,0,0,.2,1.17l-10,7.45a3.67,3.67,0,0,0-2.16-.7,3.75,3.75,0,1,0,3.74,3.75,3.79,3.79,0,0,0-.2-1.18l10-7.45a3.72,3.72,0,0,0,3.66.39l29,32.87a3.73,3.73,0,1,0,7,1.87,3.77,3.77,0,0,0-.25-1.31l30.25-24a3.7,3.7,0,0,0,2.1.65,3.75,3.75,0,0,0,0-7.49Z"/><path class="cls-3" d="M233.63,22.33a3.74,3.74,0,0,0-3.75,3.73,3.58,3.58,0,0,0,.24,1.27l-30.29,23.9a3.71,3.71,0,0,0-3.56-.3L185.72,39a3.63,3.63,0,0,0,.52-1.87,3.74,3.74,0,1,0-7.26,1.2l-22.4,16.94a3.69,3.69,0,0,0-2.13-.67A3.81,3.81,0,1,0,158,57.12l22.39-16.94a3.74,3.74,0,0,0,3.64.37l10.55,12a3.74,3.74,0,1,0,6.72.55l30.26-23.88a3.77,3.77,0,0,0,2.1.64,3.74,3.74,0,0,0,0-7.48Z"/><path class="cls-1" d="M374.67,239.05h-7.24V215.92a10.85,10.85,0,0,1,8.07-10.56l8.3-19.81a7.35,7.35,0,0,1,7.36-4.86h39.47a7.46,7.46,0,0,1,7.35,4.86l8.31,19.81a11,11,0,0,1,5.75,3.86,10.38,10.38,0,0,1,2.32,6.7h-.12v23.13h-7.12v7.11a7.08,7.08,0,0,1-7.11,7.12,6.69,6.69,0,0,1-4.92-2.08,6.83,6.83,0,0,1-2.08-5v-7.11H388.79v7.11a7.1,7.1,0,0,1-7.12,7.12,6.69,6.69,0,0,1-4.92-2.08,6.83,6.83,0,0,1-2.08-5v-7.11Zm2.37-25a6.76,6.76,0,0,0-2.13,5,7.24,7.24,0,0,0,14.47,0,6.74,6.74,0,0,0-2.14-5,7.29,7.29,0,0,0-10.2,0Zm6.28-9.19h55.15l-7.12-16.27a2.14,2.14,0,0,0-2.13-1.54H392.45a2.08,2.08,0,0,0-2,1.54Zm60.9,9.19a6.9,6.9,0,0,0-5-2.08,7.07,7.07,0,0,0-5.1,2.08,6.77,6.77,0,0,0-2.14,5,7.31,7.31,0,0,0,7.24,7.24,6.8,6.8,0,0,0,5-2.14,7.06,7.06,0,0,0,2.07-5.1A6.86,6.86,0,0,0,444.22,214.08Z"/><path class="cls-8" d="M421.38,162.35a9.92,9.92,0,0,0-7.67-9.62,10.16,10.16,0,0,0-4.59,0,9.86,9.86,0,0,0-6.5,5.31,10.07,10.07,0,0,0-1,4.28V169a1.09,1.09,0,0,0,1.07,1.08H420.3a1.1,1.1,0,0,0,1.08-1.08v-6.63Z"/><path d="M405.4,157.64l0,0,0,0Z"/><path d="M416.29,156.28s0,0-.06,0l-.06-.05S416.36,156.33,416.29,156.28Z"/><path d="M405.4,157.64l0-.06Z"/><path class="cls-4" d="M421.38,162.35a9.92,9.92,0,0,0-7.67-9.62,10.16,10.16,0,0,0-4.59,0,9.86,9.86,0,0,0-6.5,5.31,10.07,10.07,0,0,0-1,4.28V169a1.09,1.09,0,0,0,1.07,1.08H420.3a1.1,1.1,0,0,0,1.08-1.08v-6.63Zm-7,5.56H403.8v-5.13a12.55,12.55,0,0,1,.07-1.5,8.87,8.87,0,0,1,.51-1.88,9.08,9.08,0,0,1,.56-1.07,6.49,6.49,0,0,1,.36-.55l.07-.1,0,0a1,1,0,0,1,.23-.28,7.73,7.73,0,0,1,.9-.91l.23-.2.11-.09c.16-.12.33-.24.51-.35a8.23,8.23,0,0,1,1.24-.67,8.63,8.63,0,0,1,1.87-.51,9.57,9.57,0,0,1,2.14,0,9.11,9.11,0,0,1,1.92.53,7.62,7.62,0,0,1,1.06.55c.18.11.37.23.55.36a.18.18,0,0,0,.07.05h0c.08,0,.21.16.27.22a8.7,8.7,0,0,1,.92.9c.07.08.13.16.2.23l.09.11.35.51a9.82,9.82,0,0,1,.66,1.24,8.8,8.8,0,0,1,.51,1.89c0,.35.06.71.07,1.06v5.56h-4.87Zm0,0H403.8v-5.13a12.55,12.55,0,0,1,.07-1.5,8.87,8.87,0,0,1,.51-1.88,9.08,9.08,0,0,1,.56-1.07,6.49,6.49,0,0,1,.36-.55l.07-.1,0,0a1,1,0,0,1,.23-.28,7.73,7.73,0,0,1,.9-.91l.23-.2.11-.09c.16-.12.33-.24.51-.35a8.23,8.23,0,0,1,1.24-.67,8.63,8.63,0,0,1,1.87-.51,9.57,9.57,0,0,1,2.14,0,9.11,9.11,0,0,1,1.92.53,7.62,7.62,0,0,1,1.06.55c.18.11.37.23.55.36a.18.18,0,0,0,.07.05h0c.08,0,.21.16.27.22a8.7,8.7,0,0,1,.92.9c.07.08.13.16.2.23l.09.11.35.51a9.82,9.82,0,0,1,.66,1.24,8.8,8.8,0,0,1,.51,1.89c0,.35.06.71.07,1.06v5.56h-4.87Z"/><path class="cls-7" d="M407.49,161.86a4.73,4.73,0,0,1,0-.65,2.89,2.89,0,0,1,0,.29,4.89,4.89,0,0,1,.34-1.26l-.11.26a6.78,6.78,0,0,1,.45-.84,1.77,1.77,0,0,0,.12-.17c.11-.15-.06.06-.06.08s0-.07.07-.09.21-.23.32-.35l.33-.3.09-.07c.09-.09-.23.16-.09.07l.19-.14a4.87,4.87,0,0,1,.84-.45l-.26.1A5.33,5.33,0,0,1,411,158l-.29,0a4.73,4.73,0,0,1,.65,0,1.08,1.08,0,1,0,0-2.15A5.9,5.9,0,0,0,408,156.9a6.22,6.22,0,0,0-2.27,2.94,5.8,5.8,0,0,0-.35,2,1.08,1.08,0,1,0,2.15,0Z"/><path class="cls-1" d="M412.59,150.2v-3.3a1.08,1.08,0,0,0-2.15,0v3.3a1.08,1.08,0,1,0,2.15,0Z"/><path class="cls-1" d="M418.48,152.07l1.54-2.43.23-.36a1.08,1.08,0,0,0-.39-1.47,1.1,1.1,0,0,0-1.47.39l-1.54,2.43-.23.35a1.08,1.08,0,1,0,1.86,1.09Z"/><path class="cls-1" d="M406.4,151c-.51-.81-1-1.62-1.54-2.43l-.22-.36a1.08,1.08,0,0,0-1.86,1.09l1.54,2.43.23.35A1.07,1.07,0,1,0,406.4,151Z"/><path class="cls-8" d="M423.31,177.55c-.05-1-.11-1.93-.16-2.9-.09-1.54-.17-3.07-.26-4.61l-.06-1.06a1.09,1.09,0,0,0-1.07-1.08h-18c-.83,0-1.66,0-2.49,0h0A1.1,1.1,0,0,0,400.2,169c-.05,1-.11,1.93-.16,2.9-.09,1.54-.17,3.07-.26,4.61l-.06,1.06a1.09,1.09,0,0,0,1.07,1.08h21.45a1.1,1.1,0,0,0,.79-.36A.93.93,0,0,0,423.31,177.55Z"/><path class="cls-1" d="M423.31,177.55c-.05-1-.11-1.93-.16-2.9-.09-1.54-.17-3.07-.26-4.61l-.06-1.06a1.09,1.09,0,0,0-1.07-1.08h-18c-.83,0-1.66,0-2.49,0h0A1.1,1.1,0,0,0,400.2,169c-.05,1-.11,1.93-.16,2.9-.09,1.54-.17,3.07-.26,4.61l-.06,1.06a1.09,1.09,0,0,0,1.07,1.08h21.45a1.1,1.1,0,0,0,.79-.36A.93.93,0,0,0,423.31,177.55Z"/></svg>