<svg id="Layer_1" data-name="Layer 1" xmlns="http://www.w3.org/2000/svg" viewBox="0 0 101 73"><defs><style>.cls-1{fill:#008289;fill-rule:evenodd;}.cls-2{fill:#fff;}</style></defs><title>Checkmark_icon</title><path class="cls-1" d="M30,64.09C22.73,53.74,11.16,47.38,4.9,44.5L3,43.64,15.62,26l2,1.72a67.23,67.23,0,0,1,13,14.24C34.41,36.39,45.23,21,60.32,3L61,2.24,94.3,9l-5.51,2.09C57.84,22.87,34,65.28,33.73,65.71L32.1,68.65Z"/><path class="cls-2" d="M61.63,4.11,88.19,9.5C56.29,21.63,32.24,64.88,32.24,64.88l-.75-1.64C24.2,52.77,12.74,46.22,5.61,43L15.92,28.47A65.42,65.42,0,0,1,30.59,45a486.3,486.3,0,0,1,31-40.91M60.32.37,59,1.92C45.45,18,35.31,32.16,30.62,38.92a70,70,0,0,0-11.9-12.54l-.56-.49-2.84-2.45-2.18,3L2.83,41,.44,44.33l3.75,1.72C10.27,48.84,21.47,55,28.52,65l.62,1.36L32,72.41l3.26-5.87c.24-.42,23.84-42.31,54.18-53.85l11-4.19L88.87,6.15,62.31.77l-2-.4Z"/></svg>