<svg id="Layer_1" data-name="Layer 1" xmlns="http://www.w3.org/2000/svg" viewBox="0 0 26 30"><defs><style>.cls-1{fill:#fff;fill-rule:evenodd;}</style></defs><title>comment_button-01</title><path class="cls-1" d="M25.5,13.05A12.65,12.65,0,0,0,12.94.37,12.62,12.62,0,0,0,.5,13.05,12.5,12.5,0,0,0,15.38,25.49l7.44,4.14-1.59-7.07A12.47,12.47,0,0,0,25.5,13.05ZM7.36,15.13a2.08,2.08,0,1,1,2.08-2.08A2.08,2.08,0,0,1,7.36,15.13Zm5.64,0a2.08,2.08,0,1,1,2.08-2.08A2.08,2.08,0,0,1,13,15.13Zm5.64,0a2.08,2.08,0,1,1,2.08-2.08A2.08,2.08,0,0,1,18.64,15.13Z"/></svg>