<svg id="Layer_2" data-name="Layer 2" xmlns="http://www.w3.org/2000/svg" xmlns:xlink="http://www.w3.org/1999/xlink" viewBox="0 0 50.39 205.55"><defs><style>.cls-1{fill:url(#linear-gradient);}.cls-2{fill:#fff;}</style><linearGradient id="linear-gradient" x1="2.06" y1="105.15" x2="52.45" y2="105.15" gradientUnits="userSpaceOnUse"><stop offset="0" stop-color="#0aa"/><stop offset="0.12" stop-color="#009fa0"/><stop offset="0.35" stop-color="#009093"/><stop offset="0.61" stop-color="#00878b"/><stop offset="1" stop-color="#008488"/></linearGradient></defs><title>Contact_tab_OFF</title><path class="cls-1" d="M52.45,2.37H2.06v172a6.74,6.74,0,0,0,4.85,6.21L40.3,193.32c7.56,3.13,12.15,13.23,12.15,14.6Z" transform="translate(-2.06 -2.37)"/><path class="cls-2" d="M28.36,158.38c-5,0-8.59-3.79-8.59-8.9a8.28,8.28,0,0,1,2.62-6.38l1.51,1.56a6.21,6.21,0,0,0-2,4.72,6.46,6.46,0,1,0,12.92,0,6.23,6.23,0,0,0-2-4.72l1.51-1.56A8.31,8.31,0,0,1,37,149.5C37,154.59,33.33,158.38,28.36,158.38Z" transform="translate(-2.06 -2.37)"/><path class="cls-2" d="M30.4,141.71a6.62,6.62,0,0,1,0-13.23,6.62,6.62,0,0,1,0,13.23Zm0-10.9a4.29,4.29,0,1,0,0,8.57,4.29,4.29,0,1,0,0-8.57Z" transform="translate(-2.06 -2.37)"/><path class="cls-2" d="M29.44,113.22h7.32v2.3h-7c-2.5,0-3.73,1.25-3.73,3.43,0,2.45,1.47,4,4.23,4h6.55v2.3H24v-2.21H26a5.47,5.47,0,0,1-2-4.58C23.92,115.4,25.7,113.22,29.44,113.22Z" transform="translate(-2.06 -2.37)"/><path class="cls-2" d="M36,101.79a4.38,4.38,0,0,1,.89,2.79c0,2.57-1.42,4-4,4h-7v2.16H24v-2.16H21.26v-2.3H24v-3.65h1.9v3.65h6.89a1.88,1.88,0,0,0,2.13-2,2.87,2.87,0,0,0-.6-1.8Z" transform="translate(-2.06 -2.37)"/><path class="cls-2" d="M29.08,88.93h7.68v2.18H35.08a4.74,4.74,0,0,1,1.83,4.18c0,2.88-1.54,4.71-3.75,4.71-2,0-3.72-1.32-3.72-5.12V91.23H29c-1.95,0-3.08,1.13-3.08,3.41a6.47,6.47,0,0,0,1.37,4l-1.73,1a8.54,8.54,0,0,1-1.63-5.26C23.92,90.9,25.6,88.93,29.08,88.93Zm3.79,2.3H31.1v3.56c0,2.28.89,2.92,2,2.92,1.27,0,2.06-1,2.06-2.8A3.7,3.7,0,0,0,32.87,91.23Z" transform="translate(-2.06 -2.37)"/><path class="cls-2" d="M30.4,85.76A6.35,6.35,0,0,1,23.92,79a5.68,5.68,0,0,1,2.71-5.18l1.13,1.75a4,4,0,0,0-1.82,3.46,4.22,4.22,0,0,0,4.46,4.37,4.22,4.22,0,0,0,4.49-4.37,4,4,0,0,0-1.82-3.46l1.1-1.75A5.68,5.68,0,0,1,36.91,79,6.38,6.38,0,0,1,30.4,85.76Z" transform="translate(-2.06 -2.37)"/><path class="cls-2" d="M36,63.56a4.38,4.38,0,0,1,.89,2.79c0,2.57-1.42,4-4,4h-7v2.16H24V70.38H21.26v-2.3H24V64.43h1.9v3.65h6.89a1.88,1.88,0,0,0,2.13-2,2.87,2.87,0,0,0-.6-1.8Z" transform="translate(-2.06 -2.37)"/><path class="cls-2" d="M22.51,25.77a1.63,1.63,0,0,1,.49-1.2,1.61,1.61,0,0,1,1.19-.49H34.32a1.59,1.59,0,0,1,1.19.49,1.64,1.64,0,0,1,.5,1.2V40.39a1.69,1.69,0,0,1-1.69,1.69H24.19A1.65,1.65,0,0,1,23,41.59a1.63,1.63,0,0,1-.49-1.2Zm1.68,0V40.39h1.44q1-1.23,3.73-4.74l.28-.32a8.63,8.63,0,0,0,.85-1.13,2.14,2.14,0,0,0,.45-1.12A2.17,2.17,0,0,0,30.49,32a9.42,9.42,0,0,0-.85-1.12l-.28-.32c-1.8-2.34-3.05-3.92-3.73-4.74ZM34.32,40.39V25.77H27.78L31,29.84a9.58,9.58,0,0,1,1.06,1.45,3.57,3.57,0,0,1,.56,1.79,3.8,3.8,0,0,1-.56,1.83A13.09,13.09,0,0,1,31,36.35l-3.23,4Z" transform="translate(-2.06 -2.37)"/></svg>