<svg id="Layer_1" data-name="Layer 1" xmlns="http://www.w3.org/2000/svg" xmlns:xlink="http://www.w3.org/1999/xlink" viewBox="0 0 87 87"><defs><style>.cls-1,.cls-10,.cls-13,.cls-15,.cls-17,.cls-18,.cls-21,.cls-22,.cls-24,.cls-25,.cls-26,.cls-27,.cls-28,.cls-29,.cls-31,.cls-32,.cls-4,.cls-5,.cls-6,.cls-8{fill:none;}.cls-2{clip-path:url(#clip-path);}.cls-3{fill:#faaa24;}.cls-10,.cls-17,.cls-22,.cls-29,.cls-32,.cls-4,.cls-5,.cls-6,.cls-8{stroke:#8f4f1d;}.cls-10,.cls-13,.cls-15,.cls-17,.cls-18,.cls-21,.cls-22,.cls-24,.cls-25,.cls-26,.cls-27,.cls-28,.cls-29,.cls-31,.cls-32,.cls-4,.cls-5,.cls-6,.cls-8{stroke-linecap:round;stroke-linejoin:round;}.cls-4{stroke-width:0.15px;}.cls-5{stroke-width:0.15px;}.cls-6{stroke-width:0.24px;}.cls-7{fill:#003a5d;}.cls-26,.cls-27,.cls-8{stroke-width:0.08px;}.cls-9{fill:#ffe2bb;}.cls-10,.cls-21{stroke-width:0.1px;}.cls-11{fill:#8b9ba1;}.cls-12{fill:#fff;}.cls-13{stroke:#788086;}.cls-13,.cls-15{stroke-width:0.14px;}.cls-14{fill:#ee3746;}.cls-15{stroke:#6c7a7f;}.cls-16{fill:#bc7e57;}.cls-17,.cls-18,.cls-24{stroke-width:0.1px;}.cls-18{stroke:#8598a1;}.cls-19{fill:#8598a1;}.cls-20{fill:#00876f;}.cls-21{stroke:#00614b;}.cls-22{stroke-width:0.08px;}.cls-23{fill:#8f4f1d;}.cls-24,.cls-26,.cls-31{stroke:#232528;}.cls-25,.cls-27,.cls-28{stroke:#5c696d;}.cls-25{stroke-width:0.12px;}.cls-28,.cls-29{stroke-width:0.12px;}.cls-30{fill:#232528;}.cls-31{stroke-width:0.08px;}.cls-32{stroke-width:0.13px;}</style><clipPath id="clip-path"><rect class="cls-1" x="1" y="1" width="85" height="85"/></clipPath></defs><title>DOJ_logo</title><g class="cls-2"><path class="cls-3" d="M43.53,2.74A40.72,40.72,0,1,1,2.8,43.48,40.82,40.82,0,0,1,43.53,2.74"/><path class="cls-3" d="M39.72,1.53c2.12.75,2.59,3.18,6.4,2.18-2-2-2.78-3.25-6.4-2.18"/><path class="cls-4" d="M39.72,1.53c2.12.75,2.59,3.18,6.4,2.18C44.15,1.74,43.34.46,39.72,1.53Z"/><path class="cls-3" d="M36.07,2c2.19.56,2.87,3,6.59,1.65C40.53,1.84,39.6.62,36.07,2"/><path class="cls-4" d="M36.07,2c2.19.56,2.87,3,6.59,1.65C40.53,1.84,39.6.62,36.07,2Z"/><path class="cls-3" d="M32.48,2.84c2.22.34,3.12,2.68,6.68,1-2.25-1.59-3.27-2.72-6.68-1"/><path class="cls-4" d="M32.48,2.84c2.22.34,3.12,2.68,6.68,1C36.91,2.28,35.89,1.15,32.48,2.84Z"/><path class="cls-3" d="M29,3.93c2.24.19,3.34,2.4,6.74.47C33.32,3,32.23,2,29,3.93"/><path class="cls-4" d="M29,3.93c2.24.19,3.34,2.4,6.74.47C33.32,3,32.23,2,29,3.93Z"/><path class="cls-3" d="M25.58,5.37c2.25,0,3.53,2.09,6.78-.13-2.53-1.22-3.72-2.12-6.78.13"/><path class="cls-4" d="M25.58,5.37c2.25,0,3.53,2.09,6.78-.13C29.83,4,28.64,3.12,25.58,5.37Z"/><path class="cls-3" d="M22.31,7.08c2.24-.25,3.71,1.78,6.74-.72-2.59-1-3.87-1.8-6.74.72"/><path class="cls-4" d="M22.31,7.08c2.24-.25,3.71,1.78,6.74-.72C26.46,5.4,25.18,4.56,22.31,7.08Z"/><path class="cls-3" d="M19.22,9.05c2.21-.44,3.84,1.47,6.64-1.31-2.68-.72-4-1.44-6.64,1.31"/><path class="cls-4" d="M19.22,9.05c2.21-.44,3.84,1.47,6.64-1.31C23.18,7,21.84,6.3,19.22,9.05Z"/><path class="cls-3" d="M16.31,11.3c2.19-.63,4,1.12,6.53-1.88-2.75-.5-4.15-1.09-6.53,1.88"/><path class="cls-4" d="M16.31,11.3c2.19-.63,4,1.12,6.53-1.88C20.09,8.92,18.69,8.33,16.31,11.3Z"/><path class="cls-3" d="M13.6,13.79c2.12-.81,4.06.78,6.34-2.43-2.78-.28-4.22-.72-6.34,2.43"/><path class="cls-4" d="M13.6,13.79c2.12-.81,4.06.78,6.34-2.43C17.16,11.08,15.72,10.64,13.6,13.79Z"/><path class="cls-3" d="M11.13,16.51c2-1,4.09.4,6.09-3-2.78,0-4.25-.34-6.09,3"/><path class="cls-4" d="M11.13,16.51c2-1,4.09.4,6.09-3C14.44,13.51,13,13.2,11.13,16.51Z"/><path class="cls-3" d="M8.89,19.44c2-1.15,4.11.06,5.8-3.49-2.78.22-4.24,0-5.8,3.49"/><path class="cls-4" d="M8.89,19.44c2-1.15,4.11.06,5.8-3.49C11.91,16.17,10.45,16,8.89,19.44Z"/><path class="cls-3" d="M7,22.53c1.81-1.31,4.09-.28,5.46-4-2.75.46-4.24.4-5.46,4"/><path class="cls-4" d="M7,22.53c1.81-1.31,4.09-.28,5.46-4C9.66,19,8.17,18.94,7,22.53Z"/><path class="cls-3" d="M5.23,25.81c1.72-1.5,4.09-.66,5.12-4.46-2.68.71-4.21.78-5.12,4.46"/><path class="cls-4" d="M5.23,25.81c1.72-1.5,4.09-.66,5.12-4.46C7.67,22.06,6.14,22.13,5.23,25.81Z"/><path class="cls-3" d="M3.86,29.21c1.56-1.62,4-1,4.68-4.87-2.62.94-4.12,1.13-4.68,4.87"/><path class="cls-4" d="M3.86,29.21c1.56-1.62,4-1,4.68-4.87C5.92,25.28,4.42,25.47,3.86,29.21Z"/><path class="cls-3" d="M2.77,32.71C4.17,31,6.64,31.36,7,27.43c-2.53,1.19-4,1.5-4.24,5.28"/><path class="cls-4" d="M2.77,32.71C4.17,31,6.64,31.36,7,27.43,4.48,28.62,3,28.93,2.77,32.71Z"/><path class="cls-3" d="M2,36.33c1.24-1.87,3.74-1.69,3.78-5.65C3.33,32.08,1.89,32.52,2,36.33"/><path class="cls-4" d="M2,36.33c1.24-1.87,3.74-1.69,3.78-5.65C3.33,32.08,1.89,32.52,2,36.33Z"/><path class="cls-3" d="M1.49,40C2.61,38,5.11,38,4.77,34,2.49,35.61,1.08,36.17,1.49,40"/><path class="cls-4" d="M1.49,40C2.61,38,5.11,38,4.77,34,2.49,35.61,1.08,36.17,1.49,40Z"/><path class="cls-3" d="M1.36,43.63c.94-2.06,3.41-2.31,2.75-6.21C2,39.2.61,39.89,1.36,43.63"/><path class="cls-4" d="M1.36,43.63c.94-2.06,3.41-2.31,2.75-6.21C2,39.2.61,39.89,1.36,43.63Z"/><path class="cls-3" d="M1.52,47.28c.75-2.12,3.18-2.59,2.22-6.4-2,1.94-3.28,2.75-2.22,6.4"/><path class="cls-4" d="M1.52,47.28c.75-2.12,3.18-2.59,2.22-6.4C1.74,42.82.46,43.63,1.52,47.28Z"/><path class="cls-3" d="M2,50.93c.53-2.18,2.93-2.87,1.62-6.58-1.81,2.12-3,3-1.62,6.58"/><path class="cls-4" d="M2,50.93c.53-2.18,2.93-2.87,1.62-6.58C1.83,46.47.64,47.38,2,50.93Z"/><path class="cls-3" d="M2.83,54.52c.38-2.24,2.68-3.12,1.06-6.71-1.62,2.28-2.75,3.31-1.06,6.71"/><path class="cls-4" d="M2.83,54.52c.38-2.24,2.68-3.12,1.06-6.71C2.27,50.09,1.14,51.12,2.83,54.52Z"/><path class="cls-3" d="M5.36,61.42c0-2.28,2.12-3.53-.13-6.77-1.18,2.49-2.12,3.71.13,6.77"/><path class="cls-4" d="M5.36,61.42c0-2.28,2.12-3.53-.13-6.77C4.05,57.14,3.11,58.36,5.36,61.42Z"/><path class="cls-3" d="M7.08,64.67c-.22-2.25,1.77-3.68-.72-6.74-1,2.62-1.78,3.9.72,6.74"/><path class="cls-4" d="M7.08,64.67c-.22-2.25,1.77-3.68-.72-6.74C5.39,60.55,4.58,61.83,7.08,64.67Z"/><path class="cls-3" d="M9,67.79c-.4-2.22,1.47-3.87-1.28-6.65C7,63.82,6.3,65.14,9,67.79"/><path class="cls-4" d="M9,67.79c-.4-2.22,1.47-3.87-1.28-6.65C7,63.82,6.3,65.14,9,67.79Z"/><path class="cls-3" d="M11.29,70.69c-.62-2.18,1.12-4-1.87-6.52-.5,2.74-1.1,4.15,1.87,6.52"/><path class="cls-4" d="M11.29,70.69c-.62-2.18,1.12-4-1.87-6.52C8.92,66.91,8.32,68.32,11.29,70.69Z"/><path class="cls-3" d="M13.79,73.38c-.82-2.1.78-4-2.44-6.31-.25,2.78-.72,4.21,2.44,6.31"/><path class="cls-4" d="M13.79,73.38c-.82-2.1.78-4-2.44-6.31C11.1,69.85,10.63,71.28,13.79,73.38Z"/><path class="cls-3" d="M16.53,75.87c-1-2.06.41-4.12-3-6.08,0,2.77-.35,4.24,3,6.08"/><path class="cls-4" d="M16.53,75.87c-1-2.06.41-4.12-3-6.08C13.5,72.56,13.19,74,16.53,75.87Z"/><path class="cls-3" d="M19.44,78.09c-1.16-1.94.06-4.12-3.5-5.81.22,2.78,0,4.28,3.5,5.81"/><path class="cls-4" d="M19.44,78.09c-1.16-1.94.06-4.12-3.5-5.81C16.16,75.06,16,76.56,19.44,78.09Z"/><path class="cls-3" d="M22.56,80.06c-1.35-1.81-.31-4.09-4-5.47.47,2.75.38,4.25,4,5.47"/><path class="cls-4" d="M22.56,80.06c-1.35-1.81-.31-4.09-4-5.47C19,77.34,18.94,78.84,22.56,80.06Z"/><path class="cls-3" d="M25.8,81.74c-1.46-1.69-.65-4.06-4.46-5.09.72,2.69.78,4.19,4.46,5.09"/><path class="cls-4" d="M25.8,81.74c-1.46-1.69-.65-4.06-4.46-5.09C22.06,79.34,22.12,80.84,25.8,81.74Z"/><path class="cls-3" d="M29.2,83.14c-1.62-1.55-1-4-4.86-4.68.93,2.63,1.12,4.12,4.86,4.68"/><path class="cls-4" d="M29.2,83.14c-1.62-1.55-1-4-4.86-4.68C25.27,81.09,25.46,82.58,29.2,83.14Z"/><path class="cls-3" d="M32.73,84.24C31,82.83,31.36,80.37,27.46,80c1.15,2.53,1.46,4,5.27,4.25"/><path class="cls-4" d="M32.73,84.24C31,82.83,31.36,80.37,27.46,80,28.61,82.52,28.92,84,32.73,84.24Z"/><path class="cls-3" d="M36.32,85c-1.87-1.25-1.68-3.75-5.62-3.78,1.37,2.44,1.81,3.87,5.62,3.78"/><path class="cls-4" d="M36.32,85c-1.87-1.25-1.68-3.75-5.62-3.78C32.07,83.68,32.51,85.11,36.32,85Z"/><path class="cls-3" d="M40,85.49c-2-1.1-2-3.59-5.93-3.28,1.56,2.31,2.16,3.68,5.93,3.28"/><path class="cls-4" d="M40,85.49c-2-1.1-2-3.59-5.93-3.28C35.6,84.52,36.2,85.89,40,85.49Z"/><path class="cls-3" d="M43.62,85.64c-2.06-.93-2.31-3.4-6.21-2.75,1.78,2.13,2.5,3.47,6.21,2.75"/><path class="cls-4" d="M43.62,85.64c-2.06-.93-2.31-3.4-6.21-2.75C39.19,85,39.91,86.36,43.62,85.64Z"/><path class="cls-3" d="M47.28,85.49c-2.13-.75-2.6-3.22-6.4-2.22,2,2,2.77,3.25,6.4,2.22"/><path class="cls-4" d="M47.28,85.49c-2.13-.75-2.6-3.22-6.4-2.22C42.84,85.27,43.65,86.52,47.28,85.49Z"/><path class="cls-3" d="M50.93,85c-2.19-.56-2.88-3-6.59-1.63,2.12,1.81,3.06,3,6.59,1.63"/><path class="cls-4" d="M50.93,85c-2.19-.56-2.88-3-6.59-1.63C46.46,85.17,47.4,86.36,50.93,85Z"/><path class="cls-3" d="M54.52,84.17c-2.22-.37-3.12-2.68-6.68-1,2.28,1.62,3.28,2.71,6.68,1"/><path class="cls-4" d="M54.52,84.17c-2.22-.37-3.12-2.68-6.68-1C50.12,84.74,51.12,85.83,54.52,84.17Z"/><path class="cls-3" d="M58,83.05c-2.27-.16-3.34-2.4-6.77-.47,2.4,1.41,3.5,2.44,6.77.47"/><path class="cls-4" d="M58,83.05c-2.27-.16-3.34-2.4-6.77-.47C53.67,84,54.77,85,58,83.05Z"/><path class="cls-3" d="M61.41,81.65c-2.24,0-3.52-2.13-6.77.12,2.53,1.19,3.72,2.13,6.77-.12"/><path class="cls-4" d="M61.41,81.65c-2.24,0-3.52-2.13-6.77.12C57.17,83,58.36,83.9,61.41,81.65Z"/><path class="cls-3" d="M64.69,79.93c-2.24.22-3.71-1.81-6.74.72,2.59,1,3.87,1.78,6.74-.72"/><path class="cls-4" d="M64.69,79.93c-2.24.22-3.71-1.81-6.74.72C60.54,81.62,61.82,82.43,64.69,79.93Z"/><path class="cls-3" d="M67.78,77.93c-2.22.44-3.84-1.43-6.65,1.31,2.69.75,4,1.44,6.65-1.31"/><path class="cls-4" d="M67.78,77.93c-2.22.44-3.84-1.43-6.65,1.31C63.82,80,65.16,80.68,67.78,77.93Z"/><path class="cls-3" d="M70.69,75.72c-2.19.59-4-1.13-6.53,1.87,2.75.5,4.15,1.06,6.53-1.87"/><path class="cls-4" d="M70.69,75.72c-2.19.59-4-1.13-6.53,1.87C66.91,78.09,68.31,78.65,70.69,75.72Z"/><path class="cls-3" d="M73.4,73.22c-2.12.78-4.06-.78-6.33,2.43,2.77.26,4.21.72,6.33-2.43"/><path class="cls-4" d="M73.4,73.22c-2.12.78-4.06-.78-6.33,2.43C69.84,75.91,71.28,76.37,73.4,73.22Z"/><path class="cls-3" d="M75.87,70.47c-2,1-4.09-.4-6.09,3,2.78,0,4.25.34,6.09-3"/><path class="cls-4" d="M75.87,70.47c-2,1-4.09-.4-6.09,3C72.56,73.47,74,73.81,75.87,70.47Z"/><path class="cls-3" d="M78.11,67.57c-2,1.16-4.12-.06-5.8,3.5,2.78-.22,4.27,0,5.8-3.5"/><path class="cls-4" d="M78.11,67.57c-2,1.16-4.12-.06-5.8,3.5C75.09,70.85,76.58,71,78.11,67.57Z"/><path class="cls-3" d="M80.08,64.45c-1.84,1.34-4.12.31-5.49,4,2.74-.46,4.24-.4,5.49-4"/><path class="cls-4" d="M80.08,64.45c-1.84,1.34-4.12.31-5.49,4C77.33,68,78.83,68,80.08,64.45Z"/><path class="cls-3" d="M81.76,61.2c-1.71,1.47-4.08.66-5.11,4.44,2.68-.69,4.21-.75,5.11-4.44"/><path class="cls-4" d="M81.76,61.2c-1.71,1.47-4.08.66-5.11,4.44C79.33,65,80.86,64.89,81.76,61.2Z"/><path class="cls-3" d="M83.17,57.77c-1.59,1.62-4,1-4.72,4.9,2.63-.94,4.12-1.12,4.72-4.9"/><path class="cls-4" d="M83.17,57.77c-1.59,1.62-4,1-4.72,4.9C81.08,61.73,82.57,61.55,83.17,57.77Z"/><path class="cls-3" d="M84.26,54.27C82.83,56,80.36,55.62,80,59.55c2.52-1.16,4-1.5,4.27-5.28"/><path class="cls-4" d="M84.26,54.27C82.83,56,80.36,55.62,80,59.55,82.51,58.39,84,58.05,84.26,54.27Z"/><path class="cls-3" d="M85,50.68c-1.28,1.88-3.77,1.69-3.81,5.62,2.44-1.37,3.87-1.84,3.81-5.62"/><path class="cls-4" d="M85,50.68c-1.28,1.88-3.77,1.69-3.81,5.62C83.67,54.93,85.1,54.46,85,50.68Z"/><path class="cls-3" d="M85.51,47c-1.13,2-3.59,2-3.28,5.93,2.28-1.59,3.68-2.15,3.28-5.93"/><path class="cls-4" d="M85.51,47c-1.13,2-3.59,2-3.28,5.93C84.51,51.37,85.91,50.81,85.51,47Z"/><path class="cls-3" d="M85.63,43.38c-.9,2.06-3.4,2.31-2.74,6.18,2.15-1.78,3.49-2.46,2.74-6.18"/><path class="cls-4" d="M85.63,43.38c-.9,2.06-3.4,2.31-2.74,6.18C85,47.78,86.38,47.1,85.63,43.38Z"/><path class="cls-3" d="M85.48,39.7c-.75,2.15-3.19,2.62-2.19,6.43,2-2,3.25-2.78,2.19-6.43"/><path class="cls-4" d="M85.48,39.7c-.75,2.15-3.19,2.62-2.19,6.43C85.26,44.16,86.54,43.35,85.48,39.7Z"/><path class="cls-3" d="M85,36.08C84.45,38.26,82,39,83.36,42.63c1.81-2.12,3-3,1.62-6.55"/><path class="cls-4" d="M85,36.08C84.45,38.26,82,39,83.36,42.63,85.17,40.51,86.35,39.61,85,36.08Z"/><path class="cls-3" d="M84.17,32.46c-.34,2.24-2.69,3.12-1.06,6.71,1.62-2.28,2.74-3.28,1.06-6.71"/><path class="cls-4" d="M84.17,32.46c-.34,2.24-2.69,3.12-1.06,6.71C84.73,36.89,85.85,35.89,84.17,32.46Z"/><path class="cls-3" d="M83,29c-.15,2.28-2.4,3.34-.43,6.78C84,33.33,85,32.21,83,29"/><path class="cls-4" d="M83,29c-.15,2.28-2.4,3.34-.43,6.78C84,33.33,85,32.21,83,29Z"/><path class="cls-3" d="M81.64,25.56c0,2.28-2.09,3.56.12,6.8,1.19-2.53,2.13-3.71-.12-6.8"/><path class="cls-4" d="M81.64,25.56c0,2.28-2.09,3.56.12,6.8C83,29.83,83.89,28.65,81.64,25.56Z"/><path class="cls-3" d="M79.93,22.31c.24,2.25-1.78,3.72.71,6.75,1-2.63,1.78-3.87-.71-6.75"/><path class="cls-4" d="M79.93,22.31c.24,2.25-1.78,3.72.71,6.75C81.61,26.43,82.42,25.19,79.93,22.31Z"/><path class="cls-3" d="M78,19.22c.4,2.22-1.47,3.84,1.31,6.65.72-2.68,1.43-4-1.31-6.65"/><path class="cls-4" d="M78,19.22c.4,2.22-1.47,3.84,1.31,6.65C80,23.19,80.7,21.84,78,19.22Z"/><path class="cls-3" d="M75.71,16.32c.63,2.16-1.13,4,1.88,6.49.49-2.75,1.08-4.12-1.88-6.49"/><path class="cls-4" d="M75.71,16.32c.63,2.16-1.13,4,1.88,6.49C78.08,20.06,78.67,18.69,75.71,16.32Z"/><path class="cls-3" d="M73.21,13.61c.82,2.12-.78,4.05,2.44,6.33.25-2.78.72-4.21-2.44-6.33"/><path class="cls-4" d="M73.21,13.61c.82,2.12-.78,4.05,2.44,6.33C75.9,17.16,76.37,15.73,73.21,13.61Z"/><path class="cls-3" d="M70.5,11.14c1,2-.44,4.09,3,6.09,0-2.78.35-4.28-3-6.09"/><path class="cls-4" d="M70.5,11.14c1,2-.44,4.09,3,6.09C73.49,14.45,73.81,13,70.5,11.14Z"/><path class="cls-3" d="M67.56,8.89c1.16,1.94-.06,4.12,3.5,5.81-.22-2.78,0-4.28-3.5-5.81"/><path class="cls-4" d="M67.56,8.89c1.16,1.94-.06,4.12,3.5,5.81C70.84,11.92,71,10.42,67.56,8.89Z"/><path class="cls-3" d="M64.44,6.93c1.35,1.84.31,4.12,4,5.49-.47-2.75-.38-4.28-4-5.49"/><path class="cls-4" d="M64.44,6.93c1.35,1.84.31,4.12,4,5.49C68,9.67,68.06,8.14,64.44,6.93Z"/><path class="cls-3" d="M61.2,5.24c1.46,1.72.65,4.06,4.46,5.12-.72-2.72-.78-4.21-4.46-5.12"/><path class="cls-4" d="M61.2,5.24c1.46,1.72.65,4.06,4.46,5.12C64.94,7.64,64.88,6.15,61.2,5.24Z"/><path class="cls-3" d="M57.79,3.84c1.63,1.59,1,4,4.87,4.71-.93-2.62-1.12-4.12-4.87-4.71"/><path class="cls-4" d="M57.79,3.84c1.63,1.59,1,4,4.87,4.71C61.73,5.93,61.54,4.43,57.79,3.84Z"/><path class="cls-3" d="M54.27,2.74C56,4.18,55.64,6.65,59.54,7c-1.15-2.56-1.47-4-5.27-4.28"/><path class="cls-4" d="M54.27,2.74C56,4.18,55.64,6.65,59.54,7,58.39,4.46,58.07,3,54.27,2.74Z"/><path class="cls-3" d="M50.68,2c1.87,1.28,1.68,3.78,5.62,3.78C54.92,3.34,54.48,1.9,50.68,2"/><path class="cls-4" d="M50.68,2c1.87,1.28,1.68,3.78,5.62,3.78C54.92,3.34,54.48,1.9,50.68,2Z"/><path class="cls-3" d="M47,1.5c2,1.09,2,3.58,6,3.27C51.4,2.49,50.8,1.09,47,1.5"/><path class="cls-4" d="M47,1.5c2,1.09,2,3.58,6,3.27C51.4,2.49,50.8,1.09,47,1.5Z"/><path class="cls-3" d="M43.38,1.37c2,.9,2.3,3.4,6.2,2.75C47.81,2,47.09.62,43.38,1.37"/><path class="cls-4" d="M43.38,1.37c2,.9,2.3,3.4,6.2,2.75C47.81,2,47.09.62,43.38,1.37Z"/><path class="cls-3" d="M4,58c.16-2.25,2.41-3.34.44-6.77C3,53.68,2,54.77,4,58"/><path class="cls-5" d="M4,58c.16-2.25,2.41-3.34.44-6.77C3,53.68,2,54.77,4,58Z"/><path class="cls-6" d="M43.53,5A38.46,38.46,0,1,1,5.06,43.47,38.54,38.54,0,0,1,43.53,5Z"/><path class="cls-7" d="M43.5,6.18A37.33,37.33,0,1,1,6.14,43.51,37.41,37.41,0,0,1,43.5,6.18"/><path class="cls-3" d="M43.53,15.2A28.34,28.34,0,1,1,15.19,43.54,28.39,28.39,0,0,1,43.53,15.2"/><path class="cls-3" d="M71.2,31l.22-.08a.17.17,0,0,1,.12,0,.21.21,0,0,1,.1.06l.07.08a.28.28,0,0,0,.11.07.22.22,0,0,0,.15,0l3.1-1.25a.29.29,0,0,0,.13-.09.21.21,0,0,0,0-.12v-.11a.18.18,0,0,1,0-.11.2.2,0,0,1,.1-.08l.21-.08,1,2.38a1.73,1.73,0,0,0,.12.26c0,.11.1.23.17.36l-1.06.43-.06-.15a.36.36,0,0,1,0-.16.28.28,0,0,1,.1-.14.76.76,0,0,0,.21-.36.72.72,0,0,0-.08-.43l-.32-.81-1.44.58.16.39a.49.49,0,0,0,.1.16.2.2,0,0,0,.12.08l.14,0h0c.1,0,.16.07.18.13l.08.19-1.19.48-.08-.19a.31.31,0,0,1,0-.23v0l.09-.13a.22.22,0,0,0,0-.14.42.42,0,0,0,0-.18l-.16-.39L72.16,32l.45,1.13a.64.64,0,0,0,.22.27.59.59,0,0,0,.33.11h.11c.16,0,.26,0,.3.14l.08.19-1.12.44Z"/><path class="cls-3" d="M72.06,29.93,72,30.2s0,0,0,0a.08.08,0,0,1,0,0,.31.31,0,0,1-.17,0,1.68,1.68,0,0,1-.33-.09,2.12,2.12,0,0,1-.7-.37,2.28,2.28,0,0,1-.5-.6,1.92,1.92,0,0,1-.26-.75,1.73,1.73,0,0,1,0-.75,2.39,2.39,0,0,1,.44-.87,2.64,2.64,0,0,1,.76-.64,2.69,2.69,0,0,1,.89-.34,2.59,2.59,0,0,1,.92,0,2.12,2.12,0,0,1,.84.31,1.64,1.64,0,0,1,.57.6,1.91,1.91,0,0,1,.25.95.53.53,0,0,0,0,.18l0,0,0,0,.07.06h0a.36.36,0,0,1,.11.12l.08.14-1.07.62-.1-.17c0-.08,0-.18.05-.31l0-.07a1.43,1.43,0,0,0,.23-.63.94.94,0,0,0-.11-.55,1.09,1.09,0,0,0-.92-.51,2.54,2.54,0,0,0-1.39.4,2.28,2.28,0,0,0-1,1,1.18,1.18,0,0,0,0,1.08,1.78,1.78,0,0,0,.47.48,2.89,2.89,0,0,0,.8.32"/><path class="cls-3" d="M68,25.5l.19-.14a.17.17,0,0,1,.11,0,.14.14,0,0,1,.11,0l.09,0a.2.2,0,0,0,.13.05.35.35,0,0,0,.14-.07l2.7-2a.4.4,0,0,0,.11-.12.2.2,0,0,0,0-.13l0-.09a.28.28,0,0,1,0-.13.22.22,0,0,1,.08-.09l.19-.14,1,1.36-.19.13a.17.17,0,0,1-.11,0,.19.19,0,0,1-.12,0l-.08-.05a.3.3,0,0,0-.13,0,.24.24,0,0,0-.14.06l-2.71,2a.32.32,0,0,0-.1.11.32.32,0,0,0,0,.14l0,.09a.28.28,0,0,1,0,.13.18.18,0,0,1-.07.09l-.19.14Z"/><path class="cls-3" d="M66,23.12l.17-.15a.21.21,0,0,1,.11,0,.18.18,0,0,1,.12,0l.1.05a.17.17,0,0,0,.13,0,.24.24,0,0,0,.13-.07l2.67-2.31-.26-.3a.85.85,0,0,0-.32-.25.55.55,0,0,0-.34,0l-.11,0a.25.25,0,0,1-.28-.05L68,19.91l.86-.74.24.32.18.22L71,21.65l.19.21c.09.08.18.18.28.28l-.86.75-.12-.14a.33.33,0,0,1-.07-.13.54.54,0,0,1,0-.16.68.68,0,0,0,.09-.41.81.81,0,0,0-.21-.38l-.26-.31-2.67,2.31a.29.29,0,0,0-.09.12.23.23,0,0,0,0,.14l0,.11a.25.25,0,0,1,0,.12.24.24,0,0,1-.08.1l-.17.15Z"/><path class="cls-3" d="M63,20.14l.89-.95.12.11a.43.43,0,0,1,.07.39.83.83,0,0,0,0,.13,1.67,1.67,0,0,0,0,.6,1,1,0,0,0,.3.45.85.85,0,0,0,.62.26.79.79,0,0,0,.59-.26c.19-.21.15-.57-.12-1.09l-.09-.16a2.55,2.55,0,0,1-.34-1.14,1.22,1.22,0,0,1,.36-.83,1.38,1.38,0,0,1,.93-.46,1.27,1.27,0,0,1,1,.38,1.51,1.51,0,0,1,.32.42l.15.26,0,0h0l.07,0,.09,0,.07.05.09.09-.85.91-.12-.11a.36.36,0,0,1,0-.36.59.59,0,0,0,0-.08,1.18,1.18,0,0,0,0-.52A.75.75,0,0,0,67,18a.67.67,0,0,0-.47-.21.5.5,0,0,0-.42.18c-.18.18-.14.5.1.95,0,0,0,0,0,0l0,.07a3.38,3.38,0,0,1,.4,1,1.33,1.33,0,0,1-.4,1.21,1.49,1.49,0,0,1-2.19.08,1.86,1.86,0,0,1-.37-.51,2.21,2.21,0,0,0-.17-.34l0,0h-.13a.33.33,0,0,1-.1,0l-.08-.05Z"/><path class="cls-3" d="M62,13.66l1.31.91-.13.19a.38.38,0,0,1-.09.09H63l-.1,0h-.12a.33.33,0,0,0-.12.12l-1.17,1.67a3.32,3.32,0,0,0-.32.53,1.28,1.28,0,0,0-.11.35.83.83,0,0,0,.1.51,1.08,1.08,0,0,0,.37.43,1.26,1.26,0,0,0,.48.2,1.11,1.11,0,0,0,.48,0,.93.93,0,0,0,.38-.24,3.62,3.62,0,0,0,.47-.57l1.12-1.6a.59.59,0,0,0,.07-.14.24.24,0,0,0,0-.13l0-.07a.19.19,0,0,1,0-.11.21.21,0,0,1,0-.12l.13-.19,1,.68-.13.19-.09.09a.2.2,0,0,1-.11,0H65a.26.26,0,0,0-.11.12L63.67,18.2a2.81,2.81,0,0,1-.6.68,1.37,1.37,0,0,1-.62.29,1.42,1.42,0,0,1-.71,0,2.12,2.12,0,0,1-.72-.33,1.76,1.76,0,0,1-.83-1.24A2.36,2.36,0,0,1,60.72,16l1.13-1.61a.3.3,0,0,0,.06-.14.18.18,0,0,0,0-.12l-.05-.08s0-.07,0-.11a.19.19,0,0,1,0-.12Z"/><path class="cls-3" d="M57.47,15.81l.08.12a.41.41,0,0,0,.11.07.42.42,0,0,0,.43,0,1.12,1.12,0,0,0,.39-.45l1.37-2.47a.29.29,0,0,0,0-.15.17.17,0,0,0-.06-.12l-.06-.08a.22.22,0,0,1-.05-.11.27.27,0,0,1,0-.12l.11-.2,1.4.77-.12.2a.21.21,0,0,1-.08.1.15.15,0,0,1-.1,0h-.09a.13.13,0,0,0-.11,0s-.06.06-.1.12l-1.1,2a4.3,4.3,0,0,1-.42.66,1.57,1.57,0,0,1-.38.31,1.33,1.33,0,0,1-.64.17,1.43,1.43,0,0,1-.65-.19,1.29,1.29,0,0,1-.59-.59.74.74,0,0,1,0-.68.49.49,0,0,1,.29-.26.46.46,0,0,1,.36,0,.44.44,0,0,1,.22.27.4.4,0,0,1,0,.35.33.33,0,0,1-.11.13.59.59,0,0,1-.16.07"/><path class="cls-3" d="M52.4,14.47l.07-.22a.2.2,0,0,1,.07-.1.15.15,0,0,1,.11,0h.1a.23.23,0,0,0,.13,0,.43.43,0,0,0,.08-.14L54,10.77a.28.28,0,0,0,0-.16.13.13,0,0,0-.06-.09l-.07-.07a.24.24,0,0,1-.06-.09.32.32,0,0,1,0-.13L54,10l2.57.87.29.09.37.09-.37,1.09-.14-.05c-.08,0-.13,0-.15-.09a.31.31,0,0,1-.05-.17.7.7,0,0,0-.14-.4.86.86,0,0,0-.36-.22l-1-.34-.5,1.47.53.19a.4.4,0,0,0,.18,0,.21.21,0,0,0,.14,0l.13-.08,0,0a.23.23,0,0,1,.21-.06l.2.07-.41,1.21-.21-.07c-.05,0-.09-.08-.13-.18s0,0,0,0l0-.14a.27.27,0,0,0-.09-.12.39.39,0,0,0-.17-.09l-.52-.18-.48,1.39a.3.3,0,0,0,0,.15.35.35,0,0,0,.08.12l.07.06a.17.17,0,0,1,.07.1.17.17,0,0,1,0,.12L54,15Z"/><path class="cls-3" d="M48.29,11a2.52,2.52,0,0,1,1-1.59,2.19,2.19,0,0,1,3.11.66,2.5,2.5,0,0,1,.23,1.85,2.52,2.52,0,0,1-1,1.59,2.19,2.19,0,0,1-3.11-.66A2.5,2.5,0,0,1,48.29,11m1,.2a2.83,2.83,0,0,0,0,1.51,1.1,1.1,0,0,0,1.79.38,2.87,2.87,0,0,0,.6-1.38,2.9,2.9,0,0,0,0-1.5,1,1,0,0,0-.79-.67,1,1,0,0,0-1,.29,2.82,2.82,0,0,0-.61,1.37"/><path class="cls-3" d="M43.69,13.1v-.23a.18.18,0,0,1,0-.13.15.15,0,0,1,.09-.06l.11,0a.23.23,0,0,0,.11-.07.25.25,0,0,0,0-.16l.06-3.52h-.4a.9.9,0,0,0-.4.07.59.59,0,0,0-.23.24.54.54,0,0,0-.06.11.25.25,0,0,1-.22.17h-.19V8.32l.4,0h.29l2.56.05h.29l.4,0,0,1.14h-.19a.49.49,0,0,1-.14,0,.94.94,0,0,1-.08-.15A.8.8,0,0,0,45.9,9a.86.86,0,0,0-.42-.1h-.4L45,12.43a.28.28,0,0,0,0,.15.19.19,0,0,0,.11.08l.1,0a.16.16,0,0,1,.1.08.18.18,0,0,1,0,.11v.23Z"/><path class="cls-3" d="M38.44,13.5l0-.23a.22.22,0,0,1,0-.12.14.14,0,0,1,.09-.08l.09-.05c.05,0,.09,0,.1-.08a.26.26,0,0,0,0-.16l-.3-3.33a.3.3,0,0,0,0-.15.14.14,0,0,0-.1-.06l-.08,0a.26.26,0,0,1-.1-.07.3.3,0,0,1,0-.12l0-.22,1.29-.12,2.14,2.73a.78.78,0,0,1,0-.16c0-.07,0-.16,0-.28l-.17-1.78a.39.39,0,0,0,0-.15A.22.22,0,0,0,41.11,9L41,9a.3.3,0,0,1-.11-.07.28.28,0,0,1,0-.11l0-.23,1.29-.12,0,.23a.23.23,0,0,1,0,.12.18.18,0,0,1-.09.08L42,8.9a.15.15,0,0,0-.1.09.22.22,0,0,0,0,.15l.37,4-.44,0L39,9.64c0,.13,0,.24.06.3s0,.11,0,.15l.24,2.64a.39.39,0,0,0,0,.15.17.17,0,0,0,.12.06l.09,0a.29.29,0,0,1,.11.06.34.34,0,0,1,0,.12l0,.23Z"/><path class="cls-3" d="M34.69,14.37l0-.23a.13.13,0,0,1,0-.12.13.13,0,0,1,.07-.09l.09-.07a.22.22,0,0,0,.08-.09.47.47,0,0,0,0-.16L34,10.38a.57.57,0,0,0-.06-.15l-.12,0h-.11a.19.19,0,0,1-.11,0s0-.06-.06-.11L33.5,9.8,36,9.15l.28-.08.38-.13.28,1.11-.16,0a.25.25,0,0,1-.15,0,.26.26,0,0,1-.14-.11.66.66,0,0,0-.32-.25.75.75,0,0,0-.44,0l-.84.21.4,1.51.39-.11a.49.49,0,0,0,.18-.08.24.24,0,0,0,.09-.11L36,11l0,0c0-.1.08-.15.14-.17l.21-.05L36.68,12l-.21.05a.24.24,0,0,1-.21-.07l0,0-.11-.1a.24.24,0,0,0-.14-.05.43.43,0,0,0-.19,0l-.4.1.42,1.6L37,13.24a.59.59,0,0,0,.29-.18.5.5,0,0,0,.14-.31.27.27,0,0,0,0-.11c0-.16.09-.26.19-.28l.19,0,.3,1.16Z"/><path class="cls-3" d="M29.41,16.47l-.09-.21a.27.27,0,0,1,0-.12.21.21,0,0,1,.06-.1l.08-.08a.19.19,0,0,0,.07-.11.41.41,0,0,0,0-.15l-1.3-3.07a.39.39,0,0,0-.08-.14.2.2,0,0,0-.11,0h-.1l-.1,0a.2.2,0,0,1-.07-.1l-.09-.21L29,11.53l2.2,2.5L31,10.68l1.33-.56.09.21a.3.3,0,0,1,0,.12l-.05.1-.06.06a.19.19,0,0,0-.05.1.26.26,0,0,0,0,.16l1.3,3.07a.29.29,0,0,0,.09.13.23.23,0,0,0,.13,0h.1a.2.2,0,0,1,.11,0,.15.15,0,0,1,.07.1l.1.21-1.45.61-.09-.21a.3.3,0,0,1,0-.12.23.23,0,0,1,.07-.1l.07-.08a.23.23,0,0,0,.07-.11.37.37,0,0,0,0-.15l-1.12-2.66a1.54,1.54,0,0,1-.09-.24l-.12-.32s0,.16,0,.31,0,.28,0,.37l.23,3.73-.3.12L29,12.73l-.18-.24-.12-.15.14.27.06.13L30,15.47a.29.29,0,0,0,.08.13.23.23,0,0,0,.13,0h.1a.25.25,0,0,1,.12,0,.18.18,0,0,1,.07.1l.09.21Z"/><path class="cls-3" d="M27,17.9l-.13-.2a.15.15,0,0,1,0-.11.28.28,0,0,1,0-.12l.07-.08a.22.22,0,0,0,.06-.13.39.39,0,0,0-.05-.14l-1.87-3-.34.21a.89.89,0,0,0-.3.27.87.87,0,0,0-.05.45.24.24,0,0,1-.1.26l-.16.1-.6-1,.35-.19.25-.15,2.18-1.35.23-.16.33-.23.6,1-.16.09a.21.21,0,0,1-.13.05.4.4,0,0,1-.16-.07.71.71,0,0,0-.39-.15.8.8,0,0,0-.41.15l-.34.21,1.86,3c0,.06.07.1.11.11a.21.21,0,0,0,.14,0l.11,0h.12a.25.25,0,0,1,.09.09l.12.19Z"/><path class="cls-3" d="M23.21,20.86l-.15-.17a.41.41,0,0,1-.06-.11.27.27,0,0,1,0-.12l0-.09a.21.21,0,0,0,0-.13.24.24,0,0,0-.08-.13L20.8,17.62a.64.64,0,0,0-.13-.1h-.11l-.08,0a.2.2,0,0,1-.11,0,.17.17,0,0,1-.1-.07l-.15-.17,1.33-1.19a2.27,2.27,0,0,1,1.21-.65,1.14,1.14,0,0,1,1,.43,1.12,1.12,0,0,1,.32.83,1.23,1.23,0,0,1-.42.83,1.1,1.1,0,0,1,.73,0h.06l1,.28a.89.89,0,0,0,.29.07.48.48,0,0,0,.17,0l.14,0a.31.31,0,0,1,.13,0,.19.19,0,0,1,.09.05l.15.17-.83.74-1.28-.38a4.69,4.69,0,0,0-1-.22.48.48,0,0,0-.37.11s0,0,0,0l0,0,.95,1.06a.21.21,0,0,0,.26.08l.09,0a.17.17,0,0,1,.12,0,.17.17,0,0,1,.1.07l.16.17Zm-.77-2.8.21-.19a1.45,1.45,0,0,0,.49-.69.68.68,0,0,0-.2-.62.77.77,0,0,0-.61-.3,1.24,1.24,0,0,0-.72.38l-.25.21Z"/><path class="cls-3" d="M19.78,24.2,19.61,24a.11.11,0,0,1-.06-.09.14.14,0,0,1,0-.09l.06-.15a.44.44,0,0,0,0-.23,1.88,1.88,0,0,0-.12-.36l-1.21-2.87-.4-.13h0l0,0s0-.09,0-.19a1.24,1.24,0,0,0,0-.16l0-.16v-.18a.18.18,0,0,1,0-.14s.06,0,.11,0h0l4.16,1.54.14,0a.16.16,0,0,0,.1,0l.1,0h0a.16.16,0,0,1,.18,0l.19.19-1.15,1.19L21.58,22a.35.35,0,0,1,0-.08.17.17,0,0,1,0-.1l0-.16s0,0,0-.06a.09.09,0,0,0,0-.06l-.06,0-.08-.05L21,21.28l-1.2,1.25.17.4A.39.39,0,0,0,20,23l0,.05a.2.2,0,0,0,.08,0h.08l.1,0h0c.08,0,.14,0,.18,0l.2.19ZM19.57,22l.91-.94-1.58-.61Z"/><path class="cls-3" d="M18.44,26.5l-.2-.13a.14.14,0,0,1-.08-.09.14.14,0,0,1,0-.11l0-.1a.21.21,0,0,0,0-.14.22.22,0,0,0-.11-.1L15.23,24a.37.37,0,0,0-.15-.06A.21.21,0,0,0,15,24l-.09.06a.16.16,0,0,1-.11.05.19.19,0,0,1-.11,0l-.2-.12,1-1.54a2.34,2.34,0,0,1,1-1,1.11,1.11,0,0,1,1.06.14,1.15,1.15,0,0,1,.6.9,2.16,2.16,0,0,1-.42,1.28l-.3.48,1.2.76a.34.34,0,0,0,.14.05.31.31,0,0,0,.13-.05l.07-.05a.21.21,0,0,1,.12,0,.19.19,0,0,1,.12,0l.19.12ZM16.93,24l.14-.22a1.43,1.43,0,0,0,.28-.8.68.68,0,0,0-.36-.53.75.75,0,0,0-.67-.13,1.29,1.29,0,0,0-.6.56l-.16.26Z"/><path class="cls-3" d="M16.19,30.17l-.2-.12A.26.26,0,0,1,15.9,30a.2.2,0,0,1,0-.11l0-.11a.22.22,0,0,0,0-.12s-.05-.07-.12-.11l-2.89-1.67a.37.37,0,0,0-.15-.05.17.17,0,0,0-.11.06l-.09.06a.24.24,0,0,1-.1.05.24.24,0,0,1-.13,0l-.19-.11,1.28-2.23.14-.25L13.7,25l1,.57-.08.14a.33.33,0,0,1-.11.12.22.22,0,0,1-.17,0,.65.65,0,0,0-.71.38l-.43.75,1.34.78.21-.36a.45.45,0,0,0,.07-.18.32.32,0,0,0,0-.14l-.06-.14v0c0-.1-.05-.17,0-.22l.11-.18,1.11.64-.11.18a.29.29,0,0,1-.2.1h-.18a.27.27,0,0,0-.14.07.4.4,0,0,0-.11.14L15,28l1.42.82L17,27.73a.62.62,0,0,0,.08-.33.66.66,0,0,0-.12-.32L16.9,27c-.1-.13-.12-.24-.07-.33l.1-.17,1,.6Z"/><path class="cls-3" d="M14.48,34.41l-.22-.08a.2.2,0,0,1-.13-.19V34a.23.23,0,0,0,0-.13.32.32,0,0,0-.13-.08l-3.1-1.25a.41.41,0,0,0-.16,0,.28.28,0,0,0-.11.07l-.07.08a.21.21,0,0,1-.1.06.18.18,0,0,1-.12,0l-.22-.08.55-1.34a4.32,4.32,0,0,1,.44-.89,2.25,2.25,0,0,1,.46-.54,2.16,2.16,0,0,1,1.09-.45,2.49,2.49,0,0,1,1.25.19,2.32,2.32,0,0,1,.89.61,2,2,0,0,1,.51.9,2.13,2.13,0,0,1,.06.84A4.92,4.92,0,0,1,15,33Zm0-1.38a.43.43,0,0,0,0-.07l.05-.13a1.7,1.7,0,0,0,.06-1.39,2,2,0,0,0-1.14-.93,2,2,0,0,0-1.43-.12,1.55,1.55,0,0,0-.9.95l-.07.19a.83.83,0,0,1,0,.12Z"/><path class="cls-3" d="M52.46,77.5l-.07-.22s0-.09,0-.12a.17.17,0,0,1,.07-.1l.08-.06a.26.26,0,0,0,.08-.11.5.5,0,0,0,0-.15l-1-3.19a.22.22,0,0,0-.08-.14s-.06,0-.12,0h-.1a.17.17,0,0,1-.12,0,.54.54,0,0,1-.06-.11L51.07,73l2.46-.75.27-.1a3.44,3.44,0,0,0,.37-.14l.34,1.09-.16,0a.3.3,0,0,1-.16,0,.27.27,0,0,1-.13-.1.68.68,0,0,0-.34-.25,1,1,0,0,0-.44,0l-.82.26.45,1.48.4-.12a.35.35,0,0,0,.16-.09.19.19,0,0,0,.09-.11l0-.14s0,0,0,0a.27.27,0,0,1,.13-.17l.2-.06.38,1.22-.2.06a.26.26,0,0,1-.22-.06l0,0L53.78,75a.24.24,0,0,0-.14,0l-.18,0-.4.12.48,1.57,1.17-.35a.64.64,0,0,0,.29-.19.7.7,0,0,0,.13-.32s0-.06,0-.11.07-.27.17-.29l.19-.06.35,1.14Z"/><path class="cls-3" d="M51.09,76.54l.23.16,0,0a.14.14,0,0,1,0,.07.23.23,0,0,1,0,.16,1.34,1.34,0,0,1-.19.29,2,2,0,0,1-.58.54,2.07,2.07,0,0,1-.72.27,2,2,0,0,1-.8,0,1.86,1.86,0,0,1-.7-.29,2.35,2.35,0,0,1-.67-.7,2.51,2.51,0,0,1-.36-.93,2.53,2.53,0,0,1,0-1,2.45,2.45,0,0,1,.28-.88,2,2,0,0,1,.56-.69,1.77,1.77,0,0,1,.76-.35,1.93,1.93,0,0,1,1,.08l.19,0h0l0,0,.07,0h0a.37.37,0,0,1,.15-.06l.16,0,.23,1.22-.19,0a.3.3,0,0,1-.27-.15l-.05-.07a1.8,1.8,0,0,0-.52-.43,1,1,0,0,0-.57-.07,1.05,1.05,0,0,0-.77.71,2.53,2.53,0,0,0-.08,1.44,2.21,2.21,0,0,0,.61,1.24,1.11,1.11,0,0,0,1,.31,1.34,1.34,0,0,0,.6-.29,2.63,2.63,0,0,0,.57-.64"/><path class="cls-3" d="M45.18,78.56l0-.23a.28.28,0,0,1,0-.13.22.22,0,0,1,.09-.07l.09,0a.3.3,0,0,0,.1-.09.32.32,0,0,0,0-.15l-.26-3.34a.46.46,0,0,0,0-.15.44.44,0,0,0-.12-.06l-.09,0a.2.2,0,0,1-.1-.07.22.22,0,0,1-.05-.11v-.23l1.66-.13,0,.23a.5.5,0,0,1,0,.12.39.39,0,0,1-.1.08l-.09,0a.45.45,0,0,0-.1.09.3.3,0,0,0,0,.15l.26,3.33a.39.39,0,0,0,0,.15.22.22,0,0,0,.12.07l.09,0a.2.2,0,0,1,.11.06.21.21,0,0,1,0,.12l0,.23Z"/><path class="cls-3" d="M41.15,78.49v-.23a.16.16,0,0,1,0-.12.26.26,0,0,1,.1-.07l.11,0a.18.18,0,0,0,.11-.07.27.27,0,0,0,0-.15l.18-3.52-.41,0a.9.9,0,0,0-.39,0,.57.57,0,0,0-.25.24l0,.1a.26.26,0,0,1-.23.16h-.2l.06-1.14.4,0,.29,0,2.56.12h.68L44.14,75H44a.33.33,0,0,1-.13,0s0-.07-.08-.15a.78.78,0,0,0-.24-.34.8.8,0,0,0-.42-.12l-.4,0-.18,3.53a.31.31,0,0,0,0,.15s0,.06.11.09l.1,0s.08,0,.09.07a.21.21,0,0,1,0,.12v.23Z"/><path class="cls-3" d="M36.24,77.79l.26-1.29.16,0c.11,0,.2.12.27.29s0,.09,0,.12a1.51,1.51,0,0,0,.34.5,1.06,1.06,0,0,0,.49.23.84.84,0,0,0,.66-.11.74.74,0,0,0,.36-.52c.06-.28-.17-.57-.67-.87L38,76.09a2.75,2.75,0,0,1-.89-.79,1.23,1.23,0,0,1-.12-.9,1.34,1.34,0,0,1,.55-.88,1.29,1.29,0,0,1,1-.17,1.72,1.72,0,0,1,.49.18,2,2,0,0,0,.26.15h.15l.1,0h.09l.13,0-.25,1.22-.16,0c-.11,0-.18-.12-.22-.29a.15.15,0,0,0,0-.08,1,1,0,0,0-.23-.47.83.83,0,0,0-.91-.15.56.56,0,0,0-.27.38c-.05.25.15.5.6.76h0l.07,0a3.42,3.42,0,0,1,.85.63,1.21,1.21,0,0,1,.3.57,1.53,1.53,0,0,1-1.82,1.89,1.83,1.83,0,0,1-.59-.25,2.33,2.33,0,0,0-.32-.19s0,0-.06,0l-.05,0-.06,0a.19.19,0,0,1-.09,0h-.09Z"/><path class="cls-3" d="M32.51,72l1.53.46-.07.22a.23.23,0,0,1-.06.12.17.17,0,0,1-.1,0h-.1a.33.33,0,0,0-.12.05.35.35,0,0,0-.07.14L32.93,75a3.43,3.43,0,0,0-.14.61,1.13,1.13,0,0,0,0,.37.91.91,0,0,0,.25.46,1.24,1.24,0,0,0,.49.28,1.27,1.27,0,0,0,.51,0,1,1,0,0,0,.45-.18,1,1,0,0,0,.29-.34,4,4,0,0,0,.27-.69l.56-1.88a.28.28,0,0,0,0-.15.15.15,0,0,0-.07-.1l-.07-.06a.15.15,0,0,1-.06-.1.24.24,0,0,1,0-.12l.07-.22,1.13.34-.06.22a.36.36,0,0,1-.06.11.14.14,0,0,1-.11,0h-.09a.19.19,0,0,0-.11,0,.35.35,0,0,0-.07.14l-.59,2a3.08,3.08,0,0,1-.36.84,1.47,1.47,0,0,1-.5.46,1.61,1.61,0,0,1-.69.23,2.08,2.08,0,0,1-.77-.09A1.78,1.78,0,0,1,32,76.29a2.39,2.39,0,0,1,0-1.67l.56-1.88a.36.36,0,0,0,0-.16.35.35,0,0,0-.08-.1l-.07-.06a.18.18,0,0,1-.06-.09.28.28,0,0,1,0-.13Z"/><path class="cls-3" d="M28.29,74.63l.09.11.11.08a.44.44,0,0,0,.43,0,1.07,1.07,0,0,0,.36-.48l1.21-2.56a.18.18,0,0,0,0-.14.17.17,0,0,0-.06-.12l-.07-.07a.18.18,0,0,1,0-.11.17.17,0,0,1,0-.12l.1-.21,1.43.68-.09.21a.2.2,0,0,1-.19.13h-.08c-.05,0-.08,0-.11,0a.29.29,0,0,0-.09.13l-1,2a4.19,4.19,0,0,1-.38.69,1.28,1.28,0,0,1-.37.33,1.15,1.15,0,0,1-.62.21,1.33,1.33,0,0,1-.66-.15,1.28,1.28,0,0,1-.63-.55.8.8,0,0,1,0-.69.56.56,0,0,1,.28-.27.48.48,0,0,1,.35,0,.43.43,0,0,1,.25.26.44.44,0,0,1,0,.35.45.45,0,0,1-.1.13.8.8,0,0,1-.16.08"/><path class="cls-3" d="M22.63,71.63l.14-.19a.19.19,0,0,1,.1-.08.2.2,0,0,1,.11,0l.1,0a.28.28,0,0,0,.13,0,.37.37,0,0,0,.11-.11l2-2.7a.35.35,0,0,0,.07-.14.23.23,0,0,0,0-.11l0-.08a.15.15,0,0,1,0-.11.21.21,0,0,1,0-.11l.13-.19,2.19,1.59.26.17.32.2-.67.93-.13-.09a.24.24,0,0,1-.11-.12.53.53,0,0,1,0-.18.65.65,0,0,0,0-.42A.73.73,0,0,0,27,69.6L26.15,69l-.91,1.26.45.32a.4.4,0,0,0,.17.09.2.2,0,0,0,.15,0l.14,0,0,0a.33.33,0,0,1,.23,0l.17.12-.76,1-.17-.12a.25.25,0,0,1-.07-.21,0,0,0,0,0,0,0v-.16a.21.21,0,0,0,0-.13A.55.55,0,0,0,25.4,71L25,70.64l-.87,1.19A.3.3,0,0,0,24,72a.18.18,0,0,0,0,.13l.05.08a.28.28,0,0,1,0,.12.16.16,0,0,1,0,.11L24,72.6Z"/><path class="cls-3" d="M20.19,66.32a2.5,2.5,0,0,1,1.66-.84,2.2,2.2,0,0,1,2.29,2.2,2.47,2.47,0,0,1-.79,1.69,2.51,2.51,0,0,1-1.66.85,2.07,2.07,0,0,1-1.62-.62A2,2,0,0,1,19.4,68a2.54,2.54,0,0,1,.79-1.69m.71.68a2.87,2.87,0,0,0-.81,1.27,1.09,1.09,0,0,0,1.31,1.27,2.92,2.92,0,0,0,1.25-.85,2.92,2.92,0,0,0,.8-1.27,1.09,1.09,0,0,0-1.32-1.26A2.84,2.84,0,0,0,20.9,67"/><path class="cls-3" d="M14.72,63.49l.19-.14A.21.21,0,0,1,15,63.3a.28.28,0,0,1,.12,0l.08.06a.24.24,0,0,0,.12,0,.33.33,0,0,0,.15-.07l2.7-2a.37.37,0,0,0,.11-.11.28.28,0,0,0,0-.13l0-.11a.21.21,0,0,1,0-.11.17.17,0,0,1,.08-.09l.19-.14,1.51,2.07a2.15,2.15,0,0,0,.18.23c.07.1.16.2.25.31l-.92.67-.1-.13a.26.26,0,0,1-.06-.15.54.54,0,0,1,.05-.16.68.68,0,0,0,.12-.4.71.71,0,0,0-.17-.4l-.51-.7L17.63,63l.25.33a.4.4,0,0,0,.13.13.27.27,0,0,0,.14,0h.18c.11,0,.18,0,.21.07l.13.17-1,.76-.12-.17a.25.25,0,0,1,0-.23v0l0-.15a.19.19,0,0,0,0-.15.4.4,0,0,0-.08-.16l-.24-.34-1.34,1,.72,1a.6.6,0,0,0,.28.21.64.64,0,0,0,.34,0l.11,0c.16,0,.27,0,.33.07l.11.16-1,.71Z"/><path class="cls-3" d="M15.13,61.93,15,62.2l0,0,0,0a.31.31,0,0,1-.17,0l-.33-.09a2.12,2.12,0,0,1-.7-.37,2.28,2.28,0,0,1-.5-.6,2,2,0,0,1-.26-.75,1.78,1.78,0,0,1,.05-.76,2.42,2.42,0,0,1,.44-.86,2.67,2.67,0,0,1,.76-.65,2.9,2.9,0,0,1,.89-.33,2.85,2.85,0,0,1,.92,0,2.17,2.17,0,0,1,.83.31,1.75,1.75,0,0,1,.58.6,2,2,0,0,1,.25,1,.53.53,0,0,0,0,.18l0,0,0,0,.07.06h0a.36.36,0,0,1,.11.12l.08.14L17,60.92l-.1-.17a.31.31,0,0,1,.05-.31l0-.07a1.32,1.32,0,0,0,.23-.63.94.94,0,0,0-.11-.55,1.05,1.05,0,0,0-.92-.51,2.61,2.61,0,0,0-1.39.39,2.22,2.22,0,0,0-1,1,1.1,1.1,0,0,0,0,1.07,1.32,1.32,0,0,0,.46.48,2.88,2.88,0,0,0,.8.33"/><path class="cls-3" d="M11.17,57l.21-.09a.32.32,0,0,1,.13,0,.27.27,0,0,1,.1.06l.07.07a.28.28,0,0,0,.11.07.34.34,0,0,0,.15,0L15,55.7a.2.2,0,0,0,.16-.22v-.09a.16.16,0,0,1,0-.12.21.21,0,0,1,.1-.08l.21-.09.68,1.52-.21.1a.26.26,0,0,1-.12,0,.17.17,0,0,1-.11-.06l-.07-.07a.25.25,0,0,0-.12-.07.37.37,0,0,0-.15,0l-3.05,1.36a.29.29,0,0,0-.13.09.24.24,0,0,0,0,.13v.1a.21.21,0,0,1-.12.2l-.21.09Z"/><path class="cls-3" d="M9.7,53l.22-.07a.2.2,0,0,1,.13,0,.15.15,0,0,1,.09.06l.07.08a.19.19,0,0,0,.11.08.3.3,0,0,0,.15,0L13.63,52l.14-.07a.15.15,0,0,0,0-.11v-.09a.18.18,0,0,1,0-.11s.05,0,.1-.06l.22-.07L15.06,54c0,.09.07.19.11.29l.15.35L14.24,55l-.05-.14a.29.29,0,0,1,0-.17.42.42,0,0,1,.11-.14.79.79,0,0,0,.24-.35.9.9,0,0,0-.06-.43l-.34-1-1.47.51.18.53a1.31,1.31,0,0,0,.09.17.28.28,0,0,0,.12.08l.14,0,0,0c.1,0,.15.07.17.13l.07.2-1.21.41-.06-.2c0-.05,0-.13.05-.22l0,0,.09-.12a.33.33,0,0,0,0-.14.68.68,0,0,0,0-.19l-.18-.53L10.78,54a.43.43,0,0,0-.14.08.21.21,0,0,0,0,.13v.09a.21.21,0,0,1,0,.12.15.15,0,0,1-.1.07l-.22.08Z"/><path class="cls-3" d="M8.75,48.54l.22,0a.19.19,0,0,1,.13,0l.08.08.06.09a.13.13,0,0,0,.09.09h.16l3.28-.58a.37.37,0,0,0,.16,0A.19.19,0,0,0,13,48L13,48a.21.21,0,0,1,.06-.1.23.23,0,0,1,.11,0l.23,0,.47,2.66.06.31c0,.11.06.23.1.36l-1.13.21,0-.15a.46.46,0,0,1,0-.17.39.39,0,0,1,.13-.13.7.7,0,0,0,.29-.31.86.86,0,0,0,0-.43l-.18-1-1.53.27.1.55a.48.48,0,0,0,.06.18.24.24,0,0,0,.1.1l.14.07,0,0a.29.29,0,0,1,.16.15l0,.21L11,50.85l0-.21a.27.27,0,0,1,.09-.2l0,0,.11-.11a.26.26,0,0,0,.06-.13.41.41,0,0,0,0-.19l-.1-.55-1.44.25a.36.36,0,0,0-.15.06.33.33,0,0,0-.06.12l0,.09a.22.22,0,0,1-.05.12l-.11.05-.23,0Z"/><path class="cls-3" d="M10.83,43a2.49,2.49,0,0,1,1.77.58,2,2,0,0,1,.71,1.57,2.05,2.05,0,0,1-.65,1.6,2.5,2.5,0,0,1-1.75.65,2.54,2.54,0,0,1-1.77-.58,2.06,2.06,0,0,1-.71-1.58,2,2,0,0,1,.65-1.6A2.51,2.51,0,0,1,10.83,43m0,1a2.79,2.79,0,0,0-1.46.33,1,1,0,0,0-.48.92,1,1,0,0,0,.51.9,2.83,2.83,0,0,0,1.47.28,2.85,2.85,0,0,0,1.47-.33,1,1,0,0,0,.47-.92,1,1,0,0,0-.51-.9A2.91,2.91,0,0,0,10.85,44"/><path class="cls-3" d="M77.45,52.63l-.23,0a.13.13,0,0,1-.11-.05.17.17,0,0,1-.06-.1l0-.11a.23.23,0,0,0,0-.11.36.36,0,0,0-.15-.06l-3.28-.58h-.17a.22.22,0,0,0-.09.08l-.05.07a.13.13,0,0,1-.08.07H73l-.23-.05.26-1.45,3.3-.5-2.92-1.65.25-1.43.23,0a.21.21,0,0,1,.11,0,.35.35,0,0,1,.06.09l0,.09a.19.19,0,0,0,0,.1.37.37,0,0,0,.16,0l3.29.58a.19.19,0,0,0,.15,0,.26.26,0,0,0,.1-.09l0-.09a.14.14,0,0,1,.08-.07.17.17,0,0,1,.12,0l.23,0L78.08,49l-.23,0a.17.17,0,0,1-.16-.16l0-.1a.2.2,0,0,0-.06-.12.28.28,0,0,0-.15,0l-2.84-.51-.25,0L74,47.93l.27.15.33.18,3.25,1.83,0,.32L74.06,51l-.3,0h-.19l.3,0,.15,0,2.92.51a.37.37,0,0,0,.15,0,.25.25,0,0,0,.09-.09l.06-.09a.15.15,0,0,1,.08-.08.19.19,0,0,1,.13,0l.22,0Z"/><path class="cls-3" d="M72.92,62.31a9.27,9.27,0,0,1-.46,1.07,4.35,4.35,0,0,1-.48.76,3.29,3.29,0,0,1-.69.63,2.26,2.26,0,0,1-.76.29,2.47,2.47,0,0,1-1-.07,2.73,2.73,0,0,1-1-.53,2.63,2.63,0,0,1-.59-.69,3,3,0,0,1-.32-.86,2.21,2.21,0,0,1,0-.89,2.29,2.29,0,0,1,.42-.78,1.72,1.72,0,0,1,.6-.48l.34-.17,0,0a0,0,0,0,1,0,0l0-.09a.43.43,0,0,1,0-.11.11.11,0,0,1,0-.05l.08-.1,1,.79-.12.14c-.06.08-.15.1-.29.08h0a1.88,1.88,0,0,0-.75,0,.88.88,0,0,0-.51.33,1,1,0,0,0-.19,1,2.46,2.46,0,0,0,.87,1.14,2.43,2.43,0,0,0,1.36.63,1.2,1.2,0,0,0,1.07-.45.82.82,0,0,0,.23-.58.75.75,0,0,0-.29-.51l-.11-.08a.37.37,0,0,0-.14-.07l-.16,0-.11.05a.22.22,0,0,1-.13,0,.34.34,0,0,1-.12-.06l-.18-.14.84-1a1.75,1.75,0,0,0,.23.24,1,1,0,0,0,.22.2,1.24,1.24,0,0,0,.37.25.34.34,0,0,0,.26,0l.1,0,.09,0,.09,0Z"/><path class="cls-3" d="M65.1,68.1a2.51,2.51,0,0,1-.86-1.64,2,2,0,0,1,.58-1.63,2.07,2.07,0,0,1,1.58-.7,2.47,2.47,0,0,1,1.7.76A2.51,2.51,0,0,1,69,66.54a2.2,2.2,0,0,1-2.17,2.32,2.51,2.51,0,0,1-1.71-.76m.68-.72a2.7,2.7,0,0,0,1.28.78,1,1,0,0,0,1-.32,1,1,0,0,0,.26-1,2.91,2.91,0,0,0-.86-1.23,2.82,2.82,0,0,0-1.29-.77,1,1,0,0,0-1,.33,1,1,0,0,0-.26,1,2.81,2.81,0,0,0,.87,1.22"/><path class="cls-3" d="M63,72.72l-.13-.19a.21.21,0,0,1,0-.12.19.19,0,0,1,0-.11l0-.08a.24.24,0,0,0,0-.13.35.35,0,0,0-.07-.14l-2-2.68a.53.53,0,0,0-.11-.11.22.22,0,0,0-.12,0l-.08,0a.14.14,0,0,1-.11,0s-.06,0-.09-.08l-.14-.18,1.44-1.06A2.22,2.22,0,0,1,63,67.29a1.29,1.29,0,0,1,1.19,1.37,1.31,1.31,0,0,1-.5.79,1.24,1.24,0,0,1,.72.11l.06,0,.93.37.28.1h.17L66,70a.24.24,0,0,1,.12,0,.18.18,0,0,1,.09.06l.13.18-.9.66-1.23-.49a5,5,0,0,0-1-.32.52.52,0,0,0-.38.08l0,0,0,0,.85,1.15s.07.09.11.1a.28.28,0,0,0,.13,0l.1,0a.17.17,0,0,1,.12,0,.25.25,0,0,1,.1.08l.14.19Zm-.5-2.87.23-.17a1.39,1.39,0,0,0,.54-.64.67.67,0,0,0-.14-.63.79.79,0,0,0-.58-.36,1.35,1.35,0,0,0-.75.31l-.27.19Z"/><path class="cls-3" d="M59.14,75,59,74.81a.35.35,0,0,1,0-.13.21.21,0,0,1,0-.1l.07-.08a.28.28,0,0,0,0-.12.37.37,0,0,0,0-.15l-1.72-2.86a.33.33,0,0,0-.11-.12.18.18,0,0,0-.13,0l-.1,0a.24.24,0,0,1-.12,0,.38.38,0,0,1-.09-.09l-.12-.2L58.27,70a2.34,2.34,0,0,1,1.32-.41,1.1,1.1,0,0,1,.88.6,1.13,1.13,0,0,1,.13,1.07,2.19,2.19,0,0,1-.94,1l-.49.29.73,1.22a.22.22,0,0,0,.1.11.2.2,0,0,0,.14,0h.09a.16.16,0,0,1,.12,0,.18.18,0,0,1,.09.08l.12.2Zm-.23-2.9.22-.13a1.38,1.38,0,0,0,.61-.59.66.66,0,0,0-.08-.64.76.76,0,0,0-.54-.41,1.28,1.28,0,0,0-.79.24l-.25.15Z"/><path class="cls-3" d="M78.61,46.18l-1.3,0V46c0-.11.08-.21.24-.31l.11-.07a1.44,1.44,0,0,0,.43-.42,1,1,0,0,0,.14-.52A.91.91,0,0,0,78,44a.81.81,0,0,0-.59-.26c-.28,0-.52.27-.73.82,0,.08,0,.13-.06.17a2.48,2.48,0,0,1-.62,1,1.22,1.22,0,0,1-.86.28,1.31,1.31,0,0,1-1-.38,1.33,1.33,0,0,1-.36-1,1.84,1.84,0,0,1,.1-.51,1.84,1.84,0,0,0,.1-.29.09.09,0,0,0,0-.05,0,0,0,0,0,0,0l0-.07a.29.29,0,0,1,0-.09.28.28,0,0,1,0-.09v-.13l1.24,0v.16q0,.16-.24.27l-.07,0a1,1,0,0,0-.42.32.72.72,0,0,0-.14.44.67.67,0,0,0,.16.48.49.49,0,0,0,.41.19c.25,0,.47-.23.64-.71v0a.22.22,0,0,0,0-.08,3.48,3.48,0,0,1,.46-1,1.34,1.34,0,0,1,.51-.39,1.53,1.53,0,0,1,.66-.13,1.51,1.51,0,0,1,1.11.46,1.48,1.48,0,0,1,.42,1.12,1.67,1.67,0,0,1-.14.62l-.14.35s0,0,0,.06l0,0,.06,0a.16.16,0,0,1,0,.08.16.16,0,0,1,0,.09Z"/><path class="cls-3" d="M75.82,57.57l-.23-.07a.19.19,0,0,1-.09,0,.18.18,0,0,1,0-.09l0-.16a.37.37,0,0,0-.09-.21,1.7,1.7,0,0,0-.27-.27l-2.35-2-.41,0h-.07s-.07-.07-.09-.17a1.57,1.57,0,0,0,0-.16l-.06-.16a1.58,1.58,0,0,0-.07-.16c0-.06,0-.1,0-.13s0,0,.09-.06h0l4.41-.44.14,0a.2.2,0,0,0,.09-.06l.07-.08h0A.15.15,0,0,1,77,53.2l.25.09-.51,1.57-.23-.07a.15.15,0,0,1-.09-.06.2.2,0,0,1,0-.08l0-.17s0,0,0,0l-.05,0h-.08a.14.14,0,0,0-.09,0l-.44,0-.54,1.65.33.29.08.06,0,0h.08s.06,0,.07-.05l.08-.08h0a.16.16,0,0,1,.17-.06l.26.08ZM74.68,55.7l.41-1.24-1.7.14Z"/><path class="cls-3" d="M73.51,61.77l-.2-.11s-.08,0-.09-.09a.2.2,0,0,1,0-.11l0-.11a.18.18,0,0,0,0-.13s0-.06-.12-.1l-2.92-1.61-.15,0-.11,0-.07,0a.14.14,0,0,1-.1,0,.27.27,0,0,1-.12,0l-.2-.12.86-1.56a2.3,2.3,0,0,1,.94-1,1.15,1.15,0,0,1,1.07.09,1.11,1.11,0,0,1,.58.67,1.28,1.28,0,0,1-.12.92,1.17,1.17,0,0,1,.7-.2h.06l1,0a1.74,1.74,0,0,0,.3,0,.34.34,0,0,0,.15-.06l.13-.08a.31.31,0,0,1,.12-.05l.1,0,.19.11-.54,1-1.33.06a5.13,5.13,0,0,0-1,.11.54.54,0,0,0-.32.23l0,0v0l1.24.68a.33.33,0,0,0,.15.06.23.23,0,0,0,.12-.06l.08-.06a.2.2,0,0,1,.11-.06l.12,0,.2.11Zm-1.65-2.39.13-.25a1.42,1.42,0,0,0,.24-.81.7.7,0,0,0-.4-.52.79.79,0,0,0-.67-.08,1.24,1.24,0,0,0-.56.59l-.16.29Z"/><polygon class="cls-3" points="10.65 39.07 8.8 39.15 10.17 37.86 9.42 36.09 11.16 37.03 12.71 35.74 12.28 37.7 13.79 38.67 11.97 38.93 11.39 40.83 10.65 39.07"/><polygon class="cls-8" points="10.65 39.07 8.8 39.15 10.17 37.86 9.42 36.09 11.16 37.03 12.71 35.74 12.28 37.7 13.79 38.67 11.97 38.93 11.39 40.83 10.65 39.07"/><polygon class="cls-3" points="12.72 35.76 12.26 37.69 11.27 38.15 12.72 35.76"/><polygon class="cls-8" points="12.72 35.76 12.26 37.69 11.27 38.15 12.72 35.76"/><polygon class="cls-3" points="13.94 38.72 11.98 38.88 11.24 38.13 13.94 38.72"/><polygon class="cls-8" points="13.94 38.72 11.98 38.88 11.24 38.13 13.94 38.72"/><polygon class="cls-3" points="11.26 38.13 11.19 37.1 9.48 36.12 11.26 38.13"/><polygon class="cls-8" points="11.26 38.13 11.19 37.1 9.48 36.12 11.26 38.13"/><polygon class="cls-3" points="11.21 38.18 10.71 39.05 8.85 39.13 11.21 38.18"/><polygon class="cls-8" points="11.21 38.18 10.71 39.05 8.85 39.13 11.21 38.18"/><polygon class="cls-3" points="11.26 38.18 11.41 40.76 11.97 38.91 11.26 38.18"/><path class="cls-8" d="M10.1,37.88l1.2.25m0,0,.15,2.58L12,38.91Z"/><polygon class="cls-3" points="76.5 39.07 78.35 39.15 76.97 37.86 77.72 36.09 75.98 37.03 74.44 35.74 74.86 37.7 73.36 38.67 75.17 38.93 75.75 40.83 76.5 39.07"/><polygon class="cls-8" points="76.5 39.07 78.35 39.15 76.97 37.86 77.72 36.09 75.98 37.03 74.44 35.74 74.86 37.7 73.36 38.67 75.17 38.93 75.75 40.83 76.5 39.07"/><polygon class="cls-3" points="74.42 35.76 74.89 37.69 75.88 38.15 74.42 35.76"/><polygon class="cls-8" points="74.42 35.76 74.89 37.69 75.88 38.15 74.42 35.76"/><polygon class="cls-3" points="73.2 38.72 75.17 38.88 75.9 38.13 73.2 38.72"/><polygon class="cls-8" points="73.2 38.72 75.17 38.88 75.9 38.13 73.2 38.72"/><polygon class="cls-3" points="75.89 38.13 75.95 37.1 77.67 36.12 75.89 38.13"/><polygon class="cls-8" points="75.89 38.13 75.95 37.1 77.67 36.12 75.89 38.13"/><polygon class="cls-3" points="75.93 38.18 76.44 39.05 78.29 39.13 75.93 38.18"/><polygon class="cls-8" points="75.93 38.18 76.44 39.05 78.29 39.13 75.93 38.18"/><polygon class="cls-3" points="75.89 38.18 75.74 40.76 75.17 38.91 75.89 38.18"/><path class="cls-8" d="M77,37.88l-1.2.25m0,0-.15,2.58-.56-1.85Z"/><polygon class="cls-3" points="73.2 38.72 75.17 38.88 75.9 38.13 73.2 38.72"/><polygon class="cls-8" points="73.2 38.72 75.17 38.88 75.9 38.13 73.2 38.72"/><polygon class="cls-3" points="75.93 38.18 76.44 39.05 78.29 39.13 75.93 38.18"/><polygon class="cls-8" points="75.93 38.18 76.44 39.05 78.29 39.13 75.93 38.18"/><path class="cls-9" d="M43.56,16.57A27.06,27.06,0,1,1,16.5,43.63,27.11,27.11,0,0,1,43.56,16.57"/><path class="cls-10" d="M43.56,16.57A27.06,27.06,0,1,1,16.5,43.63,27.11,27.11,0,0,1,43.56,16.57Z"/><path class="cls-7" d="M58.14,62l.31.9.55-.47Zm.26,1.49-.69-2.11.21-.18,2.21,1.1a.21.21,0,0,0,.18,0,.62.62,0,0,0,.18-.11l.13.15-1,.83-.12-.15.08-.07c.08-.07.1-.13.07-.17a.18.18,0,0,0-.07-.05l-.4-.23-.7.61a1.2,1.2,0,0,0,.16.34c.11.11.25.1.43-.06l.12.15-.78.68-.12-.14a.62.62,0,0,0,.07-.62"/><path class="cls-7" d="M57.2,64.62l-1.11-1.53A.17.17,0,0,0,56,63a.33.33,0,0,0-.18.1l-.11.07L55.56,63l1.14-.83.12.17-.12.08a.45.45,0,0,0-.1.09.1.1,0,0,0,0,.08.16.16,0,0,0,0,.1l1.12,1.55s.07.07.11.06a.48.48,0,0,0,.19-.09l.1-.08.11.16-1.13.82L57,65l.11-.07c.08-.06.13-.11.14-.15a.14.14,0,0,0,0-.13"/><path class="cls-7" d="M54.15,64.16c0-.07-.09-.08-.17,0a.41.41,0,0,0-.22.26.92.92,0,0,0,0,.37,1.34,1.34,0,0,0,.08.37l-.15.07-.4-.89,2.13-1.08.49.85-.17.08a1.32,1.32,0,0,0-.25-.28.88.88,0,0,0-.32-.19.5.5,0,0,0-.34,0c-.08,0-.1.09-.07.16l.91,1.77a.08.08,0,0,0,.1.06.58.58,0,0,0,.22-.07l.1-.06.1.18-1.31.66-.09-.18L55,66.1a.19.19,0,0,0,.08-.08.16.16,0,0,0,0-.11Z"/><path class="cls-7" d="M52.79,67l-.7-1.76c0-.06-.06-.09-.1-.1a.42.42,0,0,0-.2.05l-.12,0L51.6,65l1.3-.52.08.18-.13,0a.32.32,0,0,0-.13.07l-.06.06a.18.18,0,0,0,0,.1l.71,1.78s0,.09.09.09a.35.35,0,0,0,.2,0l.12-.06.08.19-1.3.52-.08-.18.12,0a.31.31,0,0,0,.17-.12s0-.08,0-.13"/><path class="cls-7" d="M49.85,65.83c0-.08-.07-.1-.16-.07a.39.39,0,0,0-.26.21.76.76,0,0,0-.11.36,1.13,1.13,0,0,0,0,.37l-.17,0-.21-1,2.28-.65.32.93-.17.05a1.12,1.12,0,0,0-.2-.33.92.92,0,0,0-.28-.24.43.43,0,0,0-.33,0c-.09,0-.12.07-.1.14L51,67.57a.11.11,0,0,0,.08.08.84.84,0,0,0,.24,0l.11,0,.06.18-1.41.41L50.05,68l.25-.08a.21.21,0,0,0,.1-.07.2.2,0,0,0,0-.11Z"/><path class="cls-7" d="M46.67,67a.73.73,0,0,1,.06-.41.83.83,0,0,1,.29-.33,1,1,0,0,1,.42-.18,1.12,1.12,0,0,1,.68.07l.16-.2.15,0,.23.91-.18,0a1.62,1.62,0,0,0-.33-.39,1,1,0,0,0-.36-.19.79.79,0,0,0-.34,0,.53.53,0,0,0-.32.17.37.37,0,0,0-.1.29.39.39,0,0,0,.19.23.9.9,0,0,0,.42,0l.57,0a1,1,0,0,1,.45.17.73.73,0,0,1,.28.49.84.84,0,0,1,0,.1.68.68,0,0,1-.07.39.78.78,0,0,1-.28.32.89.89,0,0,1-.43.19,1.35,1.35,0,0,1-.78-.1l-.17.26-.16,0-.22-1,.17,0a1.35,1.35,0,0,0,.55.54,1,1,0,0,0,.59.11.55.55,0,0,0,.32-.19.4.4,0,0,0,.08-.32.29.29,0,0,0,0-.1c0-.1-.16-.16-.36-.17l-.62,0a1.31,1.31,0,0,1-.56-.17.73.73,0,0,1-.32-.53"/><path class="cls-7" d="M43.85,68.18l-.05-1.42a.29.29,0,0,0,0-.12.13.13,0,0,0-.09,0h-.26v-.19l1.38,0v.19h-.17a.32.32,0,0,0-.16,0s0,.07,0,.14l.05,1.35a1,1,0,0,0,.07.38.36.36,0,0,0,.21.21.91.91,0,0,0,.4.06.55.55,0,0,0,.46-.21.84.84,0,0,0,.14-.49l-.05-1.11a.75.75,0,0,0,0-.24.33.33,0,0,0-.14-.12.67.67,0,0,0-.23,0v-.19l1,0v.19a.51.51,0,0,0-.3.11A.49.49,0,0,0,46,67l0,1.12a.94.94,0,0,1-.1.48.81.81,0,0,1-.34.32A1.21,1.21,0,0,1,45,69a2,2,0,0,1-.62-.06.71.71,0,0,1-.41-.26.84.84,0,0,1-.16-.51"/><path class="cls-7" d="M42.11,66.62c0-.05,0-.09,0-.1a.25.25,0,0,0-.12,0h-.23v-.19l1.4,0v.18h-.3a.1.1,0,0,0-.07,0,.39.39,0,0,0,0,.13l0,1.31a1,1,0,0,1-.27.68,1.23,1.23,0,0,1-.89.24.93.93,0,0,1-.38-.1.84.84,0,0,1-.26-.23.61.61,0,0,1-.11-.3v-.08a.71.71,0,0,1,.11-.38.34.34,0,0,1,.3-.17.35.35,0,0,1,.39.38,1,1,0,0,1,0,.17.32.32,0,0,1-.11.12.24.24,0,0,1-.14.05.41.41,0,0,0-.16,0,.08.08,0,0,0-.08.07.34.34,0,0,0,.14.21.72.72,0,0,0,.26.08l.14,0a.43.43,0,0,0,.33-.17.8.8,0,0,0,.13-.47Z"/><path class="cls-7" d="M37.12,67.66l1.26-1.83.27.06.47,2.42a.3.3,0,0,0,.09.17.58.58,0,0,0,.19.07l0,.19-1.24-.25,0-.19.11,0c.11,0,.17,0,.18,0v-.08l-.07-.46-.9-.18a1.09,1.09,0,0,0-.18.33c0,.16.08.26.31.31l0,.19-1-.21,0-.19a.59.59,0,0,0,.53-.32m1-1.11-.53.8.71.14Z"/><path class="cls-7" d="M34.77,65.09a.43.43,0,0,0-.29-.32l.06-.18.85.31.77,2,.36-1c0-.15.06-.26,0-.33a.51.51,0,0,0-.25-.18l.06-.17,1,.34-.06.17a.5.5,0,0,0-.27,0,.24.24,0,0,0-.15.11.69.69,0,0,0-.1.21l-.67,1.87-.21-.08-.92-2.49-.47,1.31a.43.43,0,0,0,0,.35.52.52,0,0,0,.25.18l-.06.19-1-.35.07-.19a.68.68,0,0,0,.22.05.3.3,0,0,0,.15-.05.51.51,0,0,0,.13-.21Z"/><path class="cls-7" d="M32.38,66.06l.86-1.68c0-.06,0-.1,0-.13a.38.38,0,0,0-.16-.13L33,64.06l.09-.17,1.25.63-.08.18-.13-.06L34,64.58h-.09a.12.12,0,0,0-.07.07l-.87,1.71s0,.09,0,.12a.43.43,0,0,0,.17.13l.12,0-.09.18-1.25-.64L32,66l.11.07a.55.55,0,0,0,.19.06.17.17,0,0,0,.11-.1"/><path class="cls-7" d="M29,63.54l.92-1.36s0-.06,0-.08a.12.12,0,0,0-.06-.09l-.2-.15.11-.16,1,.66L30.29,64l1.34-1,1,.67-.11.15-.09-.06a.59.59,0,0,0-.19-.09.15.15,0,0,0-.12.07L31,65.28a.21.21,0,0,0-.05.13.47.47,0,0,0,.1.11l.16.1-.11.16L30,65l.11-.16.08.06a.45.45,0,0,0,.2.09s.08,0,.12-.09l1.12-1.65-2,1.5-.15-.1.64-2.41-1,1.43A.49.49,0,0,0,29,64c0,.09.07.18.2.27l-.11.16-.84-.57.11-.17a.47.47,0,0,0,.22.1.22.22,0,0,0,.17-.06.59.59,0,0,0,.17-.18"/><path class="cls-7" d="M28.55,60.75a1.29,1.29,0,0,1,.34.48,1.37,1.37,0,0,1,.1.52,1.35,1.35,0,0,1-.11.5,1.42,1.42,0,0,1-.29.43,1.19,1.19,0,0,1-.38.27,1.32,1.32,0,0,1-.49.14,1.39,1.39,0,0,1-.53-.07,1.36,1.36,0,0,1-.52-.32,1.41,1.41,0,0,1-.33-.49,1.54,1.54,0,0,1-.09-.52,1.36,1.36,0,0,1,.12-.49,1.13,1.13,0,0,1,.27-.41,1.33,1.33,0,0,1,.43-.3,1.28,1.28,0,0,1,.5-.13,1.54,1.54,0,0,1,.52.09,1.35,1.35,0,0,1,.46.3m-.11.15a.52.52,0,0,0-.37-.16.79.79,0,0,0-.44.13,3.93,3.93,0,0,0-.49.41,3.46,3.46,0,0,0-.37.48.9.9,0,0,0-.12.46.54.54,0,0,0,.18.39.43.43,0,0,0,.29.13.63.63,0,0,0,.32-.06,1.87,1.87,0,0,0,.32-.2c.1-.09.21-.18.32-.29a1.86,1.86,0,0,0,.49-.75.5.5,0,0,0-.13-.54"/><path class="cls-7" d="M24,59.29l1.41-1.17.1-.11a.08.08,0,0,0,0-.08.65.65,0,0,0-.11-.15l-.07-.08.16-.13.88,1a1.94,1.94,0,0,1,.34.57,1,1,0,0,1,.08.51,1.06,1.06,0,0,1-.16.45,1.71,1.71,0,0,1-.37.4,1.3,1.3,0,0,1-.65.33,1,1,0,0,1-.63-.07,1.56,1.56,0,0,1-.55-.43l-.94-1.13.15-.13.08.11.11.1a.08.08,0,0,0,.08,0s.06,0,.1-.06m.46.46q-.12.09-.12.15a.26.26,0,0,0,.06.16l.13.13a.54.54,0,0,0,.58.19,1.75,1.75,0,0,0,.71-.39,2.91,2.91,0,0,0,.39-.41.75.75,0,0,0,.16-.42.65.65,0,0,0-.17-.45l0,0c-.12-.13-.22-.17-.32-.09Z"/><path class="cls-7" d="M23.79,55a1.39,1.39,0,0,1,.19.55,1.16,1.16,0,0,1-.05.53,1.35,1.35,0,0,1-.24.46,1.55,1.55,0,0,1-.39.33,1.29,1.29,0,0,1-.44.16,1.75,1.75,0,0,1-.51,0,1.28,1.28,0,0,1-.5-.21,1.35,1.35,0,0,1-.4-.45,1.38,1.38,0,0,1-.19-.56,1.57,1.57,0,0,1,.06-.53,1.48,1.48,0,0,1,.25-.44,1.36,1.36,0,0,1,.37-.31,1.5,1.5,0,0,1,.5-.18,1.25,1.25,0,0,1,.51,0,1.33,1.33,0,0,1,.48.23,1.31,1.31,0,0,1,.36.41m-.15.11a.5.5,0,0,0-.31-.25.77.77,0,0,0-.45,0,2.42,2.42,0,0,0-.59.26,2.39,2.39,0,0,0-.49.36.89.89,0,0,0-.25.39.63.63,0,0,0,.07.44.42.42,0,0,0,.24.2.61.61,0,0,0,.33,0,1.61,1.61,0,0,0,.36-.1,3.6,3.6,0,0,0,.39-.2,1.85,1.85,0,0,0,.68-.58.5.5,0,0,0,0-.56"/><path class="cls-7" d="M20,52.23l1.74-.67a.14.14,0,0,0,.1-.08s0-.1,0-.19l-.06-.13.18-.07.62,1.59a1.12,1.12,0,0,1,.08.46.81.81,0,0,1-.12.36.54.54,0,0,1-.27.2.58.58,0,0,1-.32,0,.67.67,0,0,1-.32-.17,1.1,1.1,0,0,1-.25-.36.75.75,0,0,1,0,.37.74.74,0,0,1-.17.25,1.58,1.58,0,0,1-.27.2,1,1,0,0,0-.18.13.13.13,0,0,0-.06.07.1.1,0,0,0,.12.15.77.77,0,0,0,.26,0l.06.16a.63.63,0,0,1-.37.05.47.47,0,0,1-.28-.14.74.74,0,0,1-.17-.25.53.53,0,0,1,0-.46.56.56,0,0,1,.28-.24l.37-.17a.49.49,0,0,0,.23-.22.54.54,0,0,0,0-.4l-.06-.13-.85.33a.14.14,0,0,0-.1.08.63.63,0,0,0,0,.19.57.57,0,0,1,.06.15l-.18.07L19.52,52,19.7,52c0,.11.08.19.1.24a.17.17,0,0,0,.08.07.27.27,0,0,0,.14,0m1.21.22.14.33a.44.44,0,0,0,.65.27.48.48,0,0,0,.27-.2.38.38,0,0,0,0-.36.31.31,0,0,0,0-.08.22.22,0,0,0,0-.08.34.34,0,0,0-.1-.16.17.17,0,0,0-.17,0Z"/><path class="cls-7" d="M21.13,48.94a.08.08,0,0,0,.06-.08.53.53,0,0,0,0-.2l0-.11.19,0L21.67,50a1.23,1.23,0,0,1,0,.82.64.64,0,0,1-.47.35.86.86,0,0,1-.39,0,.65.65,0,0,1-.34-.29,2.29,2.29,0,0,1-.28-.72c0-.1,0-.2-.06-.32l-.8.19a.16.16,0,0,0-.08,0,.88.88,0,0,0,0,.14l.06.21-.2,0-.32-1.38.2,0a2.06,2.06,0,0,0,.07.26s0,.07.06.07a.31.31,0,0,0,.13,0Zm-.82.85.06.28a.58.58,0,0,0,.24.4.62.62,0,0,0,.43,0,.9.9,0,0,0,.34-.15.38.38,0,0,0,.1-.33V50a.51.51,0,0,0,0-.13c0-.19-.11-.27-.2-.25Z"/><path class="cls-7" d="M18.72,46.23l1.88-.13a.14.14,0,0,0,.13-.06.48.48,0,0,0,0-.2v-.13l.19,0L21,47.1h-.19l0-.14a.52.52,0,0,0,0-.14.08.08,0,0,0,0-.07.18.18,0,0,0-.11,0l-1.9.14c-.06,0-.1,0-.12,0a.48.48,0,0,0,0,.2s0,.08,0,.14h-.2l-.1-1.4.2,0a.52.52,0,0,1,0,.13.51.51,0,0,0,0,.2.15.15,0,0,0,.14,0"/><path class="cls-7" d="M19.11,42.85l1.41,0a.31.31,0,0,0,.13,0,.09.09,0,0,0,0-.08,1.83,1.83,0,0,0,0-.26h.18l0,1.37h-.2v-.16a.51.51,0,0,0,0-.16.16.16,0,0,0-.13-.05l-1.36,0a1,1,0,0,0-.38,0,.39.39,0,0,0-.23.19.86.86,0,0,0-.08.4.57.57,0,0,0,.17.47.79.79,0,0,0,.48.17l1.12,0a.45.45,0,0,0,.24,0,.23.23,0,0,0,.12-.12.61.61,0,0,0,0-.23h.19l0,1h-.19a.46.46,0,0,0-.09-.31.51.51,0,0,0-.34-.1l-1.12,0a.87.87,0,0,1-.47-.14.76.76,0,0,1-.31-.35,1.51,1.51,0,0,1-.09-.53,2.51,2.51,0,0,1,.1-.62.78.78,0,0,1,.29-.39.85.85,0,0,1,.53-.12"/><path class="cls-7" d="M21.21,41.14a1.45,1.45,0,0,1-.22.57,1.29,1.29,0,0,1-.87.56,1.74,1.74,0,0,1-.51,0,1.5,1.5,0,0,1-.42-.15,1.39,1.39,0,0,1-.35-.29,1.09,1.09,0,0,1-.23-.39,2,2,0,0,0-.41.1c-.09,0-.14.08-.15.13s.07.15.25.21l0,.19a.54.54,0,0,1-.31-.15.54.54,0,0,1-.16-.26.65.65,0,0,1,0-.31.66.66,0,0,1,.12-.27.41.41,0,0,1,.22-.17.54.54,0,0,1,.31,0l.09,0a2.08,2.08,0,0,1,0-.23,1.31,1.31,0,0,1,.32-.68,1.21,1.21,0,0,1,.58-.35,1.38,1.38,0,0,1,.67,0,1.64,1.64,0,0,1,.48.18,1.21,1.21,0,0,1,.38.33,1,1,0,0,1,.22.46,1.17,1.17,0,0,1,0,.56m-1.89-.88a.39.39,0,0,1,.2.13.68.68,0,0,1,.1.21,1,1,0,0,1,0,.25.66.66,0,0,1-.18.34.6.6,0,0,1-.36.16,4.67,4.67,0,0,0,.78.24,1.63,1.63,0,0,0,.8,0,.52.52,0,0,0,.36-.41.51.51,0,0,0-.07-.4.77.77,0,0,0-.33-.28,2.36,2.36,0,0,0-.53-.17,4,4,0,0,0-.77-.06m.12.53a.38.38,0,0,0-.05-.28.41.41,0,0,0-.24-.15H19c-.15,0-.24.14-.29.33a.73.73,0,0,0,0,.26l.13,0c.33.07.52,0,.57-.19"/><path class="cls-7" d="M63.48,54.57a1.52,1.52,0,0,1,.36-.49,1.22,1.22,0,0,1,.47-.26,1.27,1.27,0,0,1,.51,0,1.5,1.5,0,0,1,.5.14,1.78,1.78,0,0,1,.36.25,1.18,1.18,0,0,1,.26.37,1.25,1.25,0,0,1,.13.44,2,2,0,0,0,.41,0,.28.28,0,0,0,.19-.09q0-.11-.18-.27l.08-.17a.64.64,0,0,1,.26.22.53.53,0,0,1,.09.3.82.82,0,0,1-.07.3.71.71,0,0,1-.19.23.47.47,0,0,1-.26.11.59.59,0,0,1-.31-.06l-.07,0c0,.07-.06.13-.09.21a1.46,1.46,0,0,1-.49.57,1.17,1.17,0,0,1-.65.19,1.7,1.7,0,0,1-.66-.14,1.53,1.53,0,0,1-.41-.31,1.28,1.28,0,0,1-.29-.4,1.4,1.4,0,0,1-.09-.51,1.28,1.28,0,0,1,.14-.55m1.6,1.35a.46.46,0,0,1-.16-.18.61.61,0,0,1,0-.24.73.73,0,0,1,.07-.24A.55.55,0,0,1,65.2,55a.51.51,0,0,1,.39-.06,4,4,0,0,0-.69-.44,1.6,1.6,0,0,0-.77-.2.53.53,0,0,0-.46.3.54.54,0,0,0,0,.41.85.85,0,0,0,.24.35,2.13,2.13,0,0,0,.47.31,4.89,4.89,0,0,0,.73.26m0-.55a.33.33,0,0,0,0,.29.37.37,0,0,0,.19.2l.12,0c.15,0,.27-.06.37-.24a.9.9,0,0,0,.06-.25l-.12-.07c-.3-.14-.5-.13-.6,0"/><path class="cls-7" d="M63.3,59l-1.5-1.1-.11,0a.07.07,0,0,0-.07,0l-.08.08a1.42,1.42,0,0,0-.11.16L61.27,58l1.43-2,.78.54-.11.14-.32-.09a.89.89,0,0,0-.28,0,.85.85,0,0,0-.28.12,1.11,1.11,0,0,0-.28.29.49.49,0,0,0-.1.21.15.15,0,0,0,.08.16l.63.46,0-.06a.44.44,0,0,0,.08-.36.59.59,0,0,0-.21-.35l.11-.14,1,.73-.12.16a.64.64,0,0,0-.27-.12.51.51,0,0,0-.27,0A.59.59,0,0,0,63,58l.7.51a.24.24,0,0,0,.11.06.12.12,0,0,0,.09,0l.13-.16a1,1,0,0,0,.22-.45.58.58,0,0,0,0-.37,2.4,2.4,0,0,0-.24-.42l.12-.14.75.6-1.45,2-.16-.12.09-.11a.42.42,0,0,0,.08-.18A.17.17,0,0,0,63.3,59"/><path class="cls-7" d="M60.2,60.3a.75.75,0,0,1-.22-.36.94.94,0,0,1,0-.44,1,1,0,0,1,.22-.4,1.11,1.11,0,0,1,.57-.37v-.27l.1-.11.75.56-.11.14A1.48,1.48,0,0,0,61,59a1,1,0,0,0-.4.08.79.79,0,0,0-.27.2.59.59,0,0,0-.14.34.31.31,0,0,0,.4.35A1.13,1.13,0,0,0,61,59.7a2.82,2.82,0,0,1,.46-.34,1,1,0,0,1,.46-.15.75.75,0,0,1,.53.2l.07.07a.67.67,0,0,1,.19.34,1,1,0,0,1,0,.43,1.2,1.2,0,0,1-.89.82l0,.32-.11.12-.79-.62.11-.13a1.51,1.51,0,0,0,.77.07,1,1,0,0,0,.52-.29.51.51,0,0,0,.14-.34.37.37,0,0,0-.15-.31l-.08-.06c-.09,0-.23,0-.39.09l-.5.36a1.28,1.28,0,0,1-.54.23.72.72,0,0,1-.58-.21"/><path class="cls-7" d="M68.52,41.91,66.66,42c-.06,0-.1,0-.12.05a.35.35,0,0,0,0,.19v.15h-.19l-.13-1.7a1,1,0,0,1,.06-.46A.61.61,0,0,1,66.5,40a.52.52,0,0,1,.31-.12.49.49,0,0,1,.31.07.57.57,0,0,1,.26.25,1,1,0,0,1,.14.42.69.69,0,0,1,.13-.34.76.76,0,0,1,.24-.2,1.85,1.85,0,0,1,.31-.11l.22-.07a.13.13,0,0,0,.07,0,.11.11,0,0,0,0-.07s0-.08-.1-.11a.88.88,0,0,0-.26,0v-.17a.72.72,0,0,1,.37.06.45.45,0,0,1,.22.21.62.62,0,0,1,.09.3.49.49,0,0,1-.13.43.54.54,0,0,1-.34.15l-.4.07a.37.37,0,0,0-.28.13.5.5,0,0,0-.08.4s0,.07,0,.14l.91-.07a.12.12,0,0,0,.12,0,.47.47,0,0,0,0-.19s0-.09,0-.17h.2l.1,1.42h-.19c0-.12,0-.21,0-.26s0-.08-.06-.09a.27.27,0,0,0-.14,0m-1.08-.57,0-.35a.46.46,0,0,0-.55-.45.54.54,0,0,0-.32.12.38.38,0,0,0-.1.34v.17a.3.3,0,0,0,.06.18s.08,0,.16,0Z"/><path class="cls-7" d="M68.13,45.28l-1.42,0c-.06,0-.1,0-.12,0a.09.09,0,0,0,0,.08s0,.12,0,.26h-.19l0-1.37h.19v.16a.3.3,0,0,0,0,.16.14.14,0,0,0,.13.05l1.36,0a1.06,1.06,0,0,0,.38,0,.36.36,0,0,0,.22-.2.94.94,0,0,0,.09-.4.59.59,0,0,0-.18-.46.78.78,0,0,0-.49-.17l-1.11,0a.78.78,0,0,0-.24,0,.22.22,0,0,0-.12.13.61.61,0,0,0,0,.23h-.19l0-1h.19a.38.38,0,0,0,.1.3.45.45,0,0,0,.34.11l1.12,0a.9.9,0,0,1,.47.14.79.79,0,0,1,.3.35,1.25,1.25,0,0,1,.1.53,2.1,2.1,0,0,1-.1.61.76.76,0,0,1-.28.39.85.85,0,0,1-.53.13"/><path class="cls-7" d="M66.34,47.54a.11.11,0,0,0-.12.13.4.4,0,0,0,.09.33.87.87,0,0,0,.29.24,1.14,1.14,0,0,0,.35.13l0,.17-1-.17L66.25,46l1,.08,0,.18a1.22,1.22,0,0,0-.37.05.85.85,0,0,0-.33.16.46.46,0,0,0-.17.3c0,.08,0,.13.09.14l2,.24a.1.1,0,0,0,.11,0,.67.67,0,0,0,.06-.23.57.57,0,0,1,0-.12l.19,0-.17,1.45-.2,0a1.66,1.66,0,0,0,0-.27s0-.09,0-.11a.14.14,0,0,0-.11,0Z"/><path class="cls-7" d="M67.79,50.24l-1.85-.43c-.06,0-.1,0-.13,0a.34.34,0,0,0-.08.19l0,.12-.19,0,.31-1.37.2.05,0,.13a.5.5,0,0,0,0,.14.14.14,0,0,0,0,.09.13.13,0,0,0,.09,0l1.87.44a.16.16,0,0,0,.12,0,.43.43,0,0,0,.08-.2,1.05,1.05,0,0,1,0-.13l.2,0-.32,1.37-.19,0a.4.4,0,0,1,0-.12.47.47,0,0,0,0-.21.13.13,0,0,0-.11-.07"/><path class="cls-7" d="M66.16,53.42l-1.33-.51-.12,0a.12.12,0,0,0-.06.06,1.46,1.46,0,0,0-.11.24l-.18-.07.5-1.28.17.07,0,.16a.24.24,0,0,0,0,.15s0,.07.1.1l1.27.48a1,1,0,0,0,.38.09.4.4,0,0,0,.27-.11.87.87,0,0,0,.21-.35.58.58,0,0,0,0-.5.73.73,0,0,0-.4-.32l-1-.4a.56.56,0,0,0-.23-.05.23.23,0,0,0-.16.08.78.78,0,0,0-.12.19L65,51.36l.37-1,.18.07a.4.4,0,0,0,0,.32.5.5,0,0,0,.28.21l1,.4a.92.92,0,0,1,.4.29.82.82,0,0,1,.17.43,1.29,1.29,0,0,1-.09.53,1.89,1.89,0,0,1-.3.55.73.73,0,0,1-.39.27.8.8,0,0,1-.54,0"/><path class="cls-11" d="M25.06,52.52c.09.48.18,1,.32,1.5,11.42,7.12,25.14,2.41,30.29-.72a76.88,76.88,0,0,0,7.59-4.92,7.07,7.07,0,0,0-.06-1.13,61,61,0,0,1-8.59,5.21c-10.62,5.95-23.92,4.79-29.55.06"/><path class="cls-12" d="M43.45,44.82,54,52.65c-8.3,4.43-21.58,5.74-28.82-.13,1.19-6.93,4.75-11.42,10.24-13.73l.72.53"/><path class="cls-13" d="M43.45,44.82,54,52.65c-8.3,4.43-21.58,5.74-28.82-.13,1.19-6.93,4.75-11.42,10.24-13.73l.72.53"/><path class="cls-14" d="M38.19,56.49l11.93-6.58,2.09,1.52-8.27,4.65a39.12,39.12,0,0,1-5.75.41"/><path class="cls-14" d="M46.65,47.28l1.87,1.41L33.88,56.18a21,21,0,0,1-3.15-.75Z"/><path class="cls-14" d="M45.18,46.22l-8.61,4.09-8.36,4.12c-.82-.41-1.56-.84-2.16-1.22l17.38-8.27Z"/><path class="cls-14" d="M25.49,51.28,41.9,43.79,40.41,42.7,26.12,49a14.91,14.91,0,0,0-.63,2.28"/><path class="cls-14" d="M26.9,46.88,39.07,41.7l-1.28-1-9.58,3.9a12.49,12.49,0,0,0-1.31,2.25"/><path class="cls-14" d="M29.61,42.82l7.27-2.75-.9-.68-4.22,1.53a12.71,12.71,0,0,0-2.15,1.9"/><path class="cls-7" d="M35.32,38.85,54,52.8a63.51,63.51,0,0,0,9.17-5.55c-3.93-1-7.74-1.56-11.77-6.43C44.62,40,43,37.89,42.28,37Z"/><path class="cls-15" d="M43.46,44.77,54,52.61c-8.32,4.44-21.49,5.8-28.81-.14,1.18-6.93,4.74-11.37,10.24-13.64l.71.48"/><polygon class="cls-16" points="39.47 61.59 39.06 61.58 39.48 47.65 39.88 47.66 39.47 61.52 39.47 61.59"/><polygon class="cls-17" points="39.47 61.59 39.06 61.58 39.48 47.65 39.88 47.66 39.47 61.52 39.47 61.59"/><polygon class="cls-16" points="41.66 62.3 41.25 62.35 39.41 48.52 39.81 48.47 41.65 62.22 41.66 62.3"/><polygon class="cls-17" points="41.66 62.3 41.25 62.35 39.41 48.52 39.81 48.47 41.65 62.22 41.66 62.3"/><polygon class="cls-16" points="44.25 61.84 43.87 61.95 39.67 48.65 40.06 48.52 44.23 61.75 44.25 61.84"/><polygon class="cls-17" points="44.25 61.84 43.87 61.95 39.67 48.65 40.06 48.52 44.23 61.75 44.25 61.84"/><polygon class="cls-16" points="45.8 61.28 45.43 61.45 39.58 48.78 39.95 48.61 45.76 61.2 45.8 61.28"/><polygon class="cls-17" points="45.8 61.28 45.43 61.45 39.58 48.78 39.95 48.61 45.76 61.2 45.8 61.28"/><polygon class="cls-16" points="37.55 58.51 37.2 58.42 40.45 45.84 40.8 45.93 37.58 58.39 37.55 58.51"/><polygon class="cls-17" points="37.55 58.51 37.2 58.42 40.45 45.84 40.8 45.93 37.58 58.39 37.55 58.51"/><polygon class="cls-16" points="38.89 59.33 38.53 59.28 40.2 46.41 40.56 46.46 38.91 59.22 38.89 59.33"/><polygon class="cls-17" points="38.89 59.33 38.53 59.28 40.2 46.41 40.56 46.46 38.91 59.22 38.89 59.33"/><polygon class="cls-16" points="50.11 55.56 49.85 55.85 39.55 46.88 39.82 46.58 50.04 55.5 50.11 55.56"/><polygon class="cls-17" points="50.11 55.56 49.85 55.85 39.55 46.88 39.82 46.58 50.04 55.5 50.11 55.56"/><polygon class="cls-16" points="42.29 59.58 41.93 59.65 39.3 47.13 39.66 47.05 42.28 59.49 42.29 59.58"/><polygon class="cls-17" points="42.29 59.58 41.93 59.65 39.3 47.13 39.66 47.05 42.28 59.49 42.29 59.58"/><polygon class="cls-16" points="50.12 58.07 49.83 58.34 40.7 48.16 40.99 47.9 50.06 58 50.12 58.07"/><polygon class="cls-17" points="50.12 58.07 49.83 58.34 40.7 48.16 40.99 47.9 50.06 58 50.12 58.07"/><polygon class="cls-16" points="48.02 57.88 47.7 58.12 39.5 47.23 39.81 46.99 47.98 57.83 48.02 57.88"/><polygon class="cls-17" points="48.02 57.88 47.7 58.12 39.5 47.23 39.81 46.99 47.98 57.83 48.02 57.88"/><polygon class="cls-16" points="40.09 58.57 39.72 58.58 39.39 47.13 39.75 47.12 40.09 58.5 40.09 58.57"/><polygon class="cls-17" points="40.09 58.57 39.72 58.58 39.39 47.13 39.75 47.12 40.09 58.5 40.09 58.57"/><polygon class="cls-16" points="45.8 58.51 45.45 58.69 39.49 47.02 39.84 46.84 45.75 58.42 45.8 58.51"/><polygon class="cls-17" points="45.8 58.51 45.45 58.69 39.49 47.02 39.84 46.84 45.75 58.42 45.8 58.51"/><polygon class="cls-16" points="47.84 60.35 47.5 60.55 40.28 48.62 40.63 48.41 47.81 60.27 47.84 60.35"/><polygon class="cls-17" points="47.84 60.35 47.5 60.55 40.28 48.62 40.63 48.41 47.81 60.27 47.84 60.35"/><polygon class="cls-12" points="40.17 61.13 39.2 64.22 38.4 61.12 39.24 61.55 40.17 61.13"/><polygon class="cls-18" points="40.17 61.13 39.2 64.22 38.4 61.12 39.24 61.55 40.17 61.13"/><polygon class="cls-19" points="39.2 64.2 39.24 61.55 40.17 61.13 39.2 64.2"/><polygon class="cls-12" points="42.23 61.72 41.77 64.92 40.47 61.99 41.38 62.28 42.23 61.72"/><polygon class="cls-18" points="42.23 61.72 41.77 64.92 40.47 61.99 41.38 62.28 42.23 61.72"/><polygon class="cls-19" points="41.76 64.91 41.38 62.28 42.23 61.72 41.78 64.83 41.76 64.91"/><polygon class="cls-12" points="44.77 61.16 44.87 64.39 43.09 61.73 44.04 61.86 44.77 61.16"/><polygon class="cls-18" points="44.77 61.16 44.87 64.39 43.09 61.73 44.04 61.86 44.77 61.16"/><polygon class="cls-19" points="44.86 64.38 44.04 61.86 44.77 61.16 44.86 64.31 44.86 64.38"/><polygon class="cls-12" points="46.24 60.54 46.75 63.74 44.65 61.32 45.6 61.33 46.24 60.54"/><polygon class="cls-18" points="46.24 60.54 46.75 63.74 44.65 61.32 45.6 61.33 46.24 60.54"/><polygon class="cls-19" points="46.75 63.74 45.6 61.33 46.24 60.54 46.73 63.64 46.75 63.74"/><polygon class="cls-12" points="38.26 58.19 36.76 60.79 36.69 57.82 37.35 58.39 38.26 58.19"/><polygon class="cls-18" points="38.26 58.19 36.76 60.79 36.69 57.82 37.35 58.39 38.26 58.19"/><polygon class="cls-19" points="36.76 60.79 37.35 58.39 38.26 58.19 36.76 60.79"/><polygon class="cls-12" points="42.84 59 42.66 62 41.28 59.36 42.12 59.58 42.84 59"/><polygon class="cls-18" points="42.84 59 42.66 62 41.28 59.36 42.12 59.58 42.84 59"/><polygon class="cls-19" points="42.66 61.99 42.12 59.58 42.84 59 42.66 61.88 42.66 61.99"/><polygon class="cls-12" points="39.59 58.95 38.43 61.72 37.99 58.77 38.72 59.26 39.59 58.95"/><polygon class="cls-18" points="39.59 58.95 38.43 61.72 37.99 58.77 38.72 59.26 39.59 58.95"/><polygon class="cls-19" points="38.43 61.72 38.72 59.26 39.59 58.95 38.43 61.72"/><polygon class="cls-12" points="50.21 54.72 51.94 57.37 49.1 56.05 49.95 55.68 50.21 54.72"/><polygon class="cls-18" points="50.21 54.72 51.94 57.37 49.1 56.05 49.95 55.68 50.21 54.72"/><polygon class="cls-19" points="51.94 57.37 49.95 55.68 50.21 54.72 51.89 57.32 51.94 57.37"/><polygon class="cls-12" points="50.33 57.24 51.72 60.09 49.06 58.43 49.96 58.17 50.33 57.24"/><polygon class="cls-18" points="50.33 57.24 51.72 60.09 49.06 58.43 49.96 58.17 50.33 57.24"/><polygon class="cls-19" points="51.72 60.09 49.96 58.16 50.33 57.24 51.65 59.95 51.72 60.09"/><polygon class="cls-12" points="48.31 57.09 49.46 60.04 46.95 58.16 47.86 57.98 48.31 57.09"/><polygon class="cls-18" points="48.31 57.09 49.46 60.04 46.95 58.16 47.86 57.98 48.31 57.09"/><polygon class="cls-19" points="49.46 60.04 47.86 57.97 48.31 57.09 49.41 59.91 49.46 60.04"/><polygon class="cls-12" points="40.71 58.12 40 61.03 39.1 58.2 39.89 58.56 40.71 58.12"/><polygon class="cls-18" points="40.71 58.12 40 61.03 39.1 58.2 39.89 58.56 40.71 58.12"/><polygon class="cls-19" points="40 61.03 39.9 58.56 40.71 58.12 40 61.03"/><polygon class="cls-12" points="46.2 57.76 46.82 60.87 44.67 58.58 45.61 58.56 46.2 57.76"/><polygon class="cls-18" points="46.2 57.76 46.82 60.87 44.67 58.58 45.61 58.56 46.2 57.76"/><polygon class="cls-19" points="46.81 60.87 45.6 58.56 46.2 57.76 46.8 60.77 46.81 60.87"/><polygon class="cls-12" points="48.22 59.55 49.08 62.67 46.73 60.5 47.67 60.41 48.22 59.55"/><polygon class="cls-18" points="48.22 59.55 49.08 62.67 46.73 60.5 47.67 60.41 48.22 59.55"/><polygon class="cls-19" points="49.08 62.66 47.67 60.41 48.22 59.55 49.06 62.58 49.08 62.66"/><path class="cls-16" d="M25.36,40.45c.22.53.94,1.75,1.13,1.06-.09.37.53.84.9.9.13.13.6,1.41,1.38.82-.44.43-.1.59.43.84.72.44,2,.9,2.22.72.68.65,3.56,1.62,5.37,2.21.28.25.53.57.28.94-1.78-.72-3.56-1.41-5.34-2.12-.37-.16-.65,0-1-.19,1.13-.22-1.46-.56-1.71-.69-.41-.15,1.15-.22-.5-.59-.28-.19-1.16-.37-1.41-.56s1.44.31.16-.53c-.37-.54-.75-.38-1-.56.94-.23-.28-.57-.34-.75.62.06-.5-.44-.57-1.5"/><path class="cls-4" d="M25.36,40.45c.22.53.94,1.75,1.13,1.06-.09.37.53.84.9.9.13.13.6,1.41,1.38.82-.44.43-.1.59.43.84.72.44,2,.9,2.22.72.68.65,3.56,1.62,5.37,2.21.28.25.53.57.28.94-1.78-.72-3.56-1.41-5.34-2.12-.37-.16-.65,0-1-.19,1.13-.22-1.46-.56-1.71-.69-.41-.15,1.15-.22-.5-.59-.28-.19-1.16-.37-1.41-.56s1.44.31.16-.53c-.37-.54-.75-.38-1-.56.94-.23-.28-.57-.34-.75C26.55,42,25.43,41.51,25.36,40.45Z"/><path class="cls-20" d="M27.46,42.54c-1.16-.9.43-2.4.68-4.12.35-.06,1.44,3.59-.68,4.12"/><path class="cls-21" d="M27.46,42.54c-1.16-.9.43-2.4.68-4.12C28.49,38.36,29.58,42,27.46,42.54Z"/><path class="cls-20" d="M31.58,45.1c-1.56-.47.22-2.4,0-4.06.31-.12,1.81,3.31,0,4.06"/><path class="cls-21" d="M31.58,45.1c-1.56-.47.22-2.4,0-4.06C31.92,40.92,33.42,44.35,31.58,45.1Z"/><path class="cls-20" d="M25.36,40.57c-2.05-.43-1.09-2.37-1.3-4,.15-.1,2.21,2.46,1.3,4"/><path class="cls-21" d="M25.36,40.57c-2.05-.43-1.09-2.37-1.3-4C24.21,36.48,26.27,39,25.36,40.57Z"/><path class="cls-20" d="M25.68,41.29c-1-2.81-2.34-1.59-3.5-2.19a3.88,3.88,0,0,0,3.5,2.19"/><path class="cls-21" d="M25.68,41.29c-1-2.81-2.34-1.59-3.5-2.19A3.88,3.88,0,0,0,25.68,41.29Z"/><path class="cls-20" d="M26.93,43.1c-2.28-1.93-2.63.06-4.12-.06-.19.19,1.74,1.43,4.12.06"/><path class="cls-21" d="M26.93,43.1c-2.28-1.93-2.63.06-4.12-.06C22.62,43.23,24.55,44.47,26.93,43.1Z"/><path class="cls-20" d="M28.58,43.38c1.93-.84,1-2,1.5-3.15a2.43,2.43,0,0,0-1.5,3.15"/><path class="cls-21" d="M28.58,43.38c1.93-.84,1-2,1.5-3.15A2.43,2.43,0,0,0,28.58,43.38Z"/><path class="cls-20" d="M29.36,44.85c-3.46-.6-3.09,1.19-4.46,1.87,0,.25,3.4,0,4.46-1.87"/><path class="cls-21" d="M29.36,44.85c-3.46-.6-3.09,1.19-4.46,1.87C24.9,47,28.3,46.69,29.36,44.85Z"/><path class="cls-20" d="M31.14,45.6c-2.25-1.06-2.53.56-3.65,1-.19.12,1.71.84,3.65-1"/><path class="cls-21" d="M31.14,45.6c-2.25-1.06-2.53.56-3.65,1C27.3,46.69,29.2,47.41,31.14,45.6Z"/><path class="cls-20" d="M31.76,45.75c.31,1.75-1.21,1.72-2.46,2.16.37-.41.22-1.84,2.46-2.16"/><path class="cls-21" d="M31.76,45.75c.31,1.75-1.21,1.72-2.46,2.16C29.67,47.5,29.52,46.07,31.76,45.75Z"/><path class="cls-20" d="M30.23,44.51c-1.81-.72.1-2.47.57-4.06.18-.13,1.15,1.81-.57,4.06"/><path class="cls-21" d="M30.23,44.51c-1.81-.72.1-2.47.57-4.06C31,40.32,32,42.26,30.23,44.51Z"/><path class="cls-20" d="M28.52,44.29c-2.66-1.16-2.69.71-3.9,1.18-.16.22,2.06.88,3.9-1.18"/><path class="cls-21" d="M28.52,44.29c-2.66-1.16-2.69.71-3.9,1.18C24.46,45.69,26.68,46.35,28.52,44.29Z"/><path class="cls-20" d="M26.52,41.79c-1.19-.31-.22-3.78,0-4.28.25-.18,1.72,3.28,0,4.28"/><path class="cls-21" d="M26.52,41.79c-1.19-.31-.22-3.78,0-4.28C26.77,37.33,28.24,40.79,26.52,41.79Z"/><path class="cls-20" d="M26.18,42.07c-1.47-2.56-2.59-1.06-3.84-1.44.53.29,1.15,2,3.84,1.44"/><path class="cls-21" d="M30,47.28c.78-.22.38-1,1.66-1.46m-3.15.53c1.06-.22.87-1,2.59-.75m-4.87.53c1.56-.6.68-1.1,3-1.25M26,45.13c.78-.19.81-1.44,2.46-.78M24.3,43.13c.66.19,1.19-.9,2.53,0m-2.93-2c.65.34,1.53,0,2.18.84m-2.43-2.09c.13.43,1.65.56,1.81,1.18m-.91-3c.22,1.43.53.81.81,2.43m5.4,1.12c.13.72-1.12,1.91-.59,2.72m-.78-3a3.36,3.36,0,0,0-.78,2m-.4-3.37c-.63,1.71-.44,2-.78,2.49M26.65,39c.28.91-.51,2.15-.11,2.65m-.36.38c-1.47-2.56-2.59-1.06-3.84-1.44C22.87,40.92,23.49,42.6,26.18,42.07Z"/><path class="cls-20" d="M29.73,45.91c0-.22.22-.41.54-.44s.62.13.62.31-.22.41-.53.44-.59-.09-.63-.31"/><path class="cls-21" d="M29.73,45.91c0-.22.22-.41.54-.44s.62.13.62.31-.22.41-.53.44S29.77,46.13,29.73,45.91Z"/><path class="cls-20" d="M30,42.57c.19,0,.32.25.28.53s-.22.5-.4.47-.31-.25-.25-.53.19-.5.37-.47"/><path class="cls-21" d="M30,42.57c.19,0,.32.25.28.53s-.22.5-.4.47-.31-.25-.25-.53S29.77,42.54,30,42.57Z"/><path class="cls-20" d="M30.58,42.76c.18,0,.31.28.31.56s-.22.5-.41.47-.31-.25-.28-.53.19-.5.38-.5"/><path class="cls-21" d="M30.58,42.76c.18,0,.31.28.31.56s-.22.5-.41.47-.31-.25-.28-.53S30.39,42.76,30.58,42.76Z"/><path class="cls-20" d="M29.42,42.94c.19,0,.38.26.38.53s-.13.57-.32.6-.37-.25-.4-.53.12-.56.34-.6"/><path class="cls-21" d="M29.42,42.94c.19,0,.38.26.38.53s-.13.57-.32.6-.37-.25-.4-.53S29.2,43,29.42,42.94Z"/><path class="cls-20" d="M30.8,43.66a.57.57,0,0,1,.62.41c.12.31.06.65-.12.75a.59.59,0,0,1-.63-.41c-.12-.31-.06-.65.13-.75"/><path class="cls-21" d="M30.8,43.66a.57.57,0,0,1,.62.41c.12.31.06.65-.12.75a.59.59,0,0,1-.63-.41C30.55,44.1,30.61,43.76,30.8,43.66Z"/><path class="cls-20" d="M26,43.57c.06-.25.37-.37.72-.31s.62.31.56.53-.34.37-.69.31-.62-.31-.59-.53"/><path class="cls-21" d="M26,43.57c.06-.25.37-.37.72-.31s.62.31.56.53-.34.37-.69.31S26,43.79,26,43.57Z"/><path class="cls-20" d="M29.89,43.38c.19,0,.38.16.47.44s0,.53-.22.59-.37-.16-.47-.41,0-.56.22-.62"/><path class="cls-21" d="M29.89,43.38c.19,0,.38.16.47.44s0,.53-.22.59-.37-.16-.47-.41S29.7,43.44,29.89,43.38Z"/><path class="cls-20" d="M27.83,45.1c0-.22.25-.47.59-.5s.69.09.72.31-.25.47-.59.53-.69-.09-.72-.34"/><path class="cls-21" d="M27.83,45.1c0-.22.25-.47.59-.5s.69.09.72.31-.25.47-.59.53S27.86,45.35,27.83,45.1Z"/><path class="cls-20" d="M25.24,42.35c.06-.22.41-.31.75-.19s.56.41.47.66-.44.28-.75.15-.56-.4-.47-.62"/><path class="cls-21" d="M25.24,42.35c.06-.22.41-.31.75-.19s.56.41.47.66-.44.28-.75.15S25.15,42.57,25.24,42.35Z"/><path class="cls-20" d="M25.68,39.73c.18,0,.31.31.28.62s-.25.57-.47.53-.34-.31-.28-.62.25-.56.47-.53"/><path class="cls-21" d="M25.68,39.73c.18,0,.31.31.28.62s-.25.57-.47.53-.34-.31-.28-.62S25.46,39.7,25.68,39.73Z"/><path class="cls-20" d="M25.05,38.7c.22,0,.44.19.47.5s-.09.62-.31.66-.41-.22-.44-.54.07-.59.28-.62"/><path class="cls-21" d="M25.05,38.7c.22,0,.44.19.47.5s-.09.62-.31.66-.41-.22-.44-.54S24.84,38.73,25.05,38.7Z"/><path class="cls-20" d="M28.3,42.23c.25,0,.43.31.43.65s-.18.66-.43.66-.44-.28-.44-.66.22-.65.44-.65"/><path class="cls-21" d="M28.3,42.23c.25,0,.43.31.43.65s-.18.66-.43.66-.44-.28-.44-.66S28.08,42.23,28.3,42.23Z"/><path class="cls-20" d="M26.92,41c.25,0,.43.31.43.65s-.18.66-.43.66-.44-.28-.44-.66.22-.65.44-.65"/><path class="cls-21" d="M26.92,41c.25,0,.43.31.43.65s-.18.66-.43.66-.44-.28-.44-.66S26.7,41,26.92,41Z"/><path class="cls-22" d="M36.63,47a.68.68,0,0,0,.06.78"/><path class="cls-21" d="M31.83,42.29c.34.94-.66,2.18-.25,2.68"/><path class="cls-23" d="M49.68,30.87c.59-.38.81-1.63,1.65-2.56A27.31,27.31,0,0,0,56,31.08c-.57.5.71.72,1.12,1.09a2,2,0,0,1-2.47.23,3.36,3.36,0,0,1-2.25-.5c-1.49.15-1.93-.47-2.71-1"/><path class="cls-24" d="M49.68,30.87c.59-.38.81-1.63,1.65-2.56A27.31,27.31,0,0,0,56,31.08c-.57.5.71.72,1.12,1.09a2,2,0,0,1-2.47.23,3.36,3.36,0,0,1-2.25-.5C50.9,32.05,50.46,31.43,49.68,30.87Z"/><path class="cls-23" d="M30.58,36.42c1.12.56,2.28,1.16,3.46,1.72a8.41,8.41,0,0,0,4.56.62c.12.41.09.19.19.22,2.31.12,1.06-.53,2-.34.84,0,2.37-1,2.78-.07-.06.13,0,.22.15.38a13.54,13.54,0,0,0,3.75.81c-1.28-2.75-2.25-3.34-3.46-5-1.13.78-4.19-1.28-6.28-2a3.68,3.68,0,0,1-2-.53c-1.16-.47-.79-1.16.09-2.09a10.78,10.78,0,0,0-5.52,1.09c.87,1.16-1.22,5.68.31,5.21"/><path class="cls-24" d="M30.58,36.42c1.12.56,2.28,1.16,3.46,1.72a8.41,8.41,0,0,0,4.56.62c.12.41.09.19.19.22,2.31.12,1.06-.53,2-.34.84,0,2.37-1,2.78-.07-.06.13,0,.22.15.38a13.54,13.54,0,0,0,3.75.81c-1.28-2.75-2.25-3.34-3.46-5-1.13.78-4.19-1.28-6.28-2a3.68,3.68,0,0,1-2-.53c-1.16-.47-.79-1.16.09-2.09a10.78,10.78,0,0,0-5.52,1.09C31.14,32.37,29.05,36.89,30.58,36.42Z"/><path class="cls-12" d="M43.41,38.66c1.19,3.15,2.12,6.47,3.68,6.22.46.4.87.65,1.28.47,1.15.62,1.53.53,1.84.31.65.5,1.12.59,1.47.31.81.37,1.31.41,1.56.13,1,.59,1.5.47,1.93.22a36.45,36.45,0,0,1-7.83-7.22c-.12-1-1.11-1.29-1.27-.57.51,1.42-.88.67-1.17.11.24.68-.35.65-.74.09,0,.58-.65,0-.75-.07"/><path class="cls-25" d="M43.41,38.66c1.19,3.15,2.12,6.47,3.68,6.22.46.4.87.65,1.28.47,1.15.62,1.53.53,1.84.31.65.5,1.12.59,1.47.31.81.37,1.31.41,1.56.13,1,.59,1.5.47,1.93.22a36.45,36.45,0,0,1-7.83-7.22c-.12-1-1.11-1.29-1.27-.57.51,1.42-.88.67-1.17.11.24.68-.35.65-.74.09C44.15,39.31,43.51,38.73,43.41,38.66Z"/><path class="cls-12" d="M43.68,34.67a6.85,6.85,0,0,1,.66-1.59c4.9,3.62,4.59,10.08,13.83,12.83a2.8,2.8,0,0,1-3,.31c-2-.84-4.77-1.87-11.49-11.55"/><path class="cls-25" d="M43.68,34.67a6.85,6.85,0,0,1,.66-1.59c4.9,3.62,4.59,10.08,13.83,12.83a2.8,2.8,0,0,1-3,.31C53.17,45.38,50.4,44.35,43.68,34.67Z"/><path class="cls-23" d="M35.76,30c0-1.06-.19-2.53-3.12-3.43-1.63-.69-.91-3.4,1.77-3.81.26,1.53,3.63,3,1.35,7.24"/><path class="cls-24" d="M35.76,30c0-1.06-.19-2.53-3.12-3.43-1.63-.69-.91-3.4,1.77-3.81C34.67,24.25,38,25.75,35.76,30Z"/><path class="cls-26" d="M42,24.31a18.81,18.81,0,0,0,5.49-.72c4.34,2.75,3.12,1,4.28,1.56C54.2,26,57.11,28,59,27.53a43.23,43.23,0,0,0,6.52,3.34c-.43.9,1.16.9,1.75,1.37-.31.75-1.15.28-1.81.47.12.18-1.15.12-1.71-.16-1.35.19-2-.62-3.19-1.19-1.44.94-3.93-1.58-5.77-2.21-1.35-.56-1.66.59-3.37-.75a23,23,0,0,0-2.53,4.18,2.47,2.47,0,0,1,0,2.25c.06.72-.28,1.12-1.5.91-1.12-.91-2.22-1.82-3.31-2.75C44.4,30.18,42.87,26.93,42,24.31Z"/><path class="cls-23" d="M42,24.31a18.81,18.81,0,0,0,5.49-.72c4.34,2.75,3.12,1,4.28,1.56C54.2,26,57.11,28,59,27.53a43.23,43.23,0,0,0,6.52,3.34c-.43.9,1.16.9,1.75,1.37-.31.75-1.15.28-1.81.47.12.18-1.15.12-1.71-.16-1.35.19-2-.62-3.19-1.19-1.44.94-3.93-1.58-5.77-2.21-1.35-.56-1.66.59-3.37-.75a23,23,0,0,0-2.53,4.18,2.47,2.47,0,0,1,0,2.25c.06.72-.41,1.3-1.5.91-1.12-.91-2.22-1.82-3.31-2.75.31-2.81-1.22-6.06-2.12-8.68"/><path class="cls-24" d="M42,24.31a18.81,18.81,0,0,0,5.49-.72c4.34,2.75,3.12,1,4.28,1.56C54.2,26,57.11,28,59,27.53a43.23,43.23,0,0,0,6.52,3.34c-.43.9,1.16.9,1.75,1.37-.31.75-1.15.28-1.81.47.12.18-1.15.12-1.71-.16-1.35.19-2-.62-3.19-1.19-1.44.94-3.93-1.58-5.77-2.21-1.35-.56-1.66.59-3.37-.75a23,23,0,0,0-2.53,4.18,2.47,2.47,0,0,1,0,2.25c.06.72-.41,1.3-1.5.91-1.12-.91-2.22-1.82-3.31-2.75C44.4,30.18,42.87,26.93,42,24.31Z"/><path class="cls-23" d="M34.73,31.33c-.53.75,1.12,1.38,2.37,1.38.84-.07,2.07.82,2.61.92,1.25.62,2.23,1.39,4,1.39.79-.25.55-1.42.66-2,.13-2.12-1.47-5.9-2.31-8.55a2,2,0,0,0,2.68.18c.47,0,1.6.25,1.47-.59,1.19.07,1.5-.13,1.25-.41,1.37.47,3.19,2,4.09,1.44,2.56.62,5.9,3.5,7.65,2.22-5.5-3.22-12.39-6.51-17.67-7.7-3.16-.41-5.6-.11-6.53,1.21-.63,1.12-.93,2.18.1,3.11,1.06,1.85,2.81,3.44-.34,7.43"/><path class="cls-24" d="M34.73,31.33c-.53.75,1.12,1.38,2.37,1.38.84-.07,2.07.82,2.61.92,1.25.62,2.23,1.39,4,1.39.79-.25.55-1.42.66-2,.13-2.12-1.47-5.9-2.31-8.55a2,2,0,0,0,2.68.18c.47,0,1.6.25,1.47-.59,1.19.07,1.5-.13,1.25-.41,1.37.47,3.19,2,4.09,1.44,2.56.62,5.9,3.5,7.65,2.22-5.5-3.22-12.39-6.51-17.67-7.7-3.16-.41-5.6-.11-6.53,1.21-.63,1.12-.93,2.18.1,3.11C36.13,25.75,37.88,27.34,34.73,31.33Z"/><path class="cls-23" d="M45.15,20.69a52.09,52.09,0,0,1,8.77,2.59c.16.41-.25.5-.87.66-2.65-1.09-5.18-2.16-7.9-3.25"/><path class="cls-24" d="M45.15,20.69a52.09,52.09,0,0,1,8.77,2.59c.16.41-.25.5-.87.66C50.4,22.85,47.87,21.78,45.15,20.69Z"/><path class="cls-26" d="M50.18,30.3l2.27,1.57m-2-2.09,4.18,2.61m-9.11-7.7a68,68,0,0,0,5.8,3.68m-9-3.65c2.55,1.87,7,8.14,7.95,5.24m-7.77-4.18c2.4,1.68,6.28,8.14,7.46,4.77m-5.77,1.13c1.62,1.15,3.37,4.15,4.8,2.9M43.9,29.93c1.44,1.75,4.84,5.43,5.18,3.5m-5.55-4.78c1.84,1.4,4.68,6.06,5.52,3.56M43.12,27.4c2.09,1.5,5.37,6.87,6.34,4.06M43.81,25c2.22,2.22,6.52,6.59,6.77,4.38M44.37,24.9c2.22,1.53,6.06,5.84,6.62,3.94m-6.18-4.22c2.15,1.47,6.33,5.5,6.49,3.78M37.85,21.78c.9.22,3.47.78,2.31-.43m-2.72.9c1.56.56,4.14.64,3-.36m-2.76,1c1.6.5,4.81.38,3.13-.53m-2.88,1c1.63.6,4.25.69,3.19-.28m-2.88.88c1.6.53,4.24.64,3.08-.39m-2.73,1c1.56.31,4.46.67,3-.56m-2.38,1.72c1.66.37,4,1.18,3.1-.35m-3.25-.25c1.53.22,4.06,1.1,2.93-.46M39.6,26.34c1.56.47,4.18,1.34,2.93-.25m-2.68,1c1.59.44,4,1.28,3-.22m-2.68,1c1.59.25,3.74,1.22,2.93-.25m-2.78.94c1.6.43,4,1.22,3-.28m-2.93,1c1.53.44,3.9,1.31,3.33,0m-3.36.6c1.43.5,4.11,1.87,3.55.09m7-.81c1.84,1,4.56,3.31,5.09,2m-15.57-.6c1.46.53,4.33,2.28,3.74.32m-3.77.46c1.43.5,4.52,2.5,4,.53m-4.09.22c1,.37,4.76,2.77,4.16.8m-4.31,0c1.49.66,4.21,2.45,4.12.78"/><path class="cls-23" d="M37.1,32.71c2.65-4.28,1.13-6.84-.19-8.93.28-.09.56-.59.13-.72a.59.59,0,0,0,.34-.71c2.62,3.9,3.87,7.74,2.28,11.26a14.38,14.38,0,0,0-2.56-.9"/><path class="cls-24" d="M37.1,32.71c2.65-4.28,1.13-6.84-.19-8.93.28-.09.56-.59.13-.72a.59.59,0,0,0,.34-.71c2.62,3.9,3.87,7.74,2.28,11.26A14.38,14.38,0,0,0,37.1,32.71Z"/><path class="cls-26" d="M37.13,24c.78-.5,1-.78.38-1.41m-.22,1.78c.9-.31,1.15-.59.68-1m-.34,1.35c1-.19,1-.41.72-.75m-.53,1.12c.81-.12,1.09-.37.75-.75m-.44,1.19c1-.13.84-.38.69-.72M38.28,26c1-.16,1.1-.38.82-.75m-.82,1.31c1.13-.06,1.5-.22.94-.81M38.38,27c.81.09,1.69-.07,1.12-.72m-1,1.22c1,.12,1.53.22,1.27-.57M38.54,28c1.15.32,1.81.54,1.34-.53m-1.34,1.16c1.15.28,1.93.59,1.62-.25m4.62-4.78c.34.19,3.43.78,2.56-.25M43,24.13c.64.29,3.36,1.06,3.11-.1m-4.49-.16a2.08,2.08,0,0,0,3.15.72m-3.25-.86c.35.21,2.69.89,2.69-.07m-1.56-.35c.53.28,6.3.81,3.3-.9m-4.8.62c.22.53,3.71.34,1.71-.59m-2.16-.3c.34.81,3.13.63,1.71-.17m-2.14-.53c.35.81,3,.81,1.78.12m.28.25c.56.82,3.19.41,2-.22m-.81,1.35c.53.18,3.43,0,1.78-1m-6.87,7.4c1.47.4,2.16.81,1.84-.32m-1.93.91c1.4.81,2.15.75,2,0m-2.28.59c1.43.81,2.46,1.1,2.28-.09m-2.56.87c1.4.82,2.6,1.27,2.46.13M37.51,32c1.4.84,2.65,1.31,2.57.43"/><path class="cls-27" d="M46.25,38.48c.73,2.11,6,7.08,7.08,7.64m-7.25-6.79C46.77,41,50.8,45.19,51.74,46m-6.26-6.76c.72,2.13,3.91,5.6,4.78,6.46m-5.52-6.48a30.1,30.1,0,0,0,3.66,6.15M44,39a21.49,21.49,0,0,0,3.08,5.89m6.17-.17c.94.44,2.13,1.63,3.47.73m-6.61-3.31c1.37,1.19,2.37,3.12,5.05,2.69"/><path class="cls-26" d="M45.87,24.56c1.72.84,3.59,2.53,6.68,3.84,3.65-.47,6.86,2.77,8,2.92m-14.39-7.1c1.84.84,3.45,2.6,6.48,3.54,4.31.18,9.17,4,11.2,4.8M46.56,24c1.78.81,3.68,2.87,6.39,3.34,3-.47,11.45,5.25,13,5.29M47.21,23.93c2,.76,3.31,3,6.62,3,3.93.38,11,5.78,11.58,4.15M43.53,35.82c1.09,1,.62,1.45-.78.51m-.31-.19c1.28.69.46,1-1,.72m2.62-1c1.37,2,.06,1.89-.91.86m1.58-.52c1.49,1.71,1.18,2.52-.16,1.21m.09.19c1,1.31.31,1.25-.71.25m-.38-.72c1.22,1.28-.66.67-.94.36m-1-.26c.81-.16,2.25.93.19.93m-2.3-3.78c1.66.53,1.31,1.22-.16,1.1m2.44-.35c1.09.47,1.31,1.69-1.09.25m-.14-.05c1.73.69,1.29,1.22-.55,1m.31,0c1.93.4,1.62,1.11-.13,1.11m.07,0c2.31.41,1.93,1-.13,1.1m-1.5-1c1.28.28.77,1.17-.29,1.11m-.85-1c1.25.28.84,1.08-.26,1M34.7,37.34c1.91.66,1.06,1.8-1.09.64M36,37.45c2.18.81,1.59,1.47-.44,1.06m1.28-1.68c2.18.81,1.07,1.35-.74.6m7.79.65c.55,1.17-.13,1.18-.66-.17m2.78.75c.55,1.12-.71.48-1,0m-.15,0c.32.76-.43.37-.74,0m-12-3.78c.66.5.94,1.15.13,1.19.72.71.31,1.37-.78.84M35.57,36c.5.38-.47.85-1.15.5.22.35.93,1.28-1.06.63,1.68,1.5-.18.83-1.25.11m3.12-2.39c.81.44,0,1.15-.81,1m-.91-.89c1.12.45,1.19,1.29-.18,1.06.48.5,0,.7-.6.58m3.81-4.53c.53-.5,1.46-.31.47.66m.68-4.5c.1-.56.75-.87.6.19m-1.75,3.65c.53-.5,1.46-.31.47.66m-4.18,1.88c1,.32.81,1.24-.13,1.11m.16-2.21c1.06.47.62,1.22-.32,1.06m1.63-3.47c.62.35.4,1-.56,1,.62.47.46,1.13-.54,1.16m3-.78c1.34.78,0,.87-.59.75,1.46.75.19,1-.79.87.57,1-1,.8-1.18.78m-.75-4.15c1.28.09,1,.69-.15.87.78.57.21,1.22-.47,1.19m4.84,0c1.43.34,1.62.76,0,.7,1.27.57.49,1.34-.63.71M34.85,32c.75.38.44.81-.59.78,1.38.63-.09,1.3-.94,1M36,34c.78.47.93,1.15-.81.84m-.06,1.78c1.59.59,1.09,1.06-.41.75m2.68-1.78c1.59.62,1,1.08-.47.77m2.28-2.86c1.81.62,1.35,1.15.07.87M36.07,35.8c1.53.71,1.16,1.21-.37,1m.68-1.87c1.81.56,1,1.15-.44.8m2.6-2c1,.37,1.17,1.19-.83.81,1,.65-.39.81-1.08.44m2,.21c2.18.85,1.75,1.6-.28,1.19m1.19,1.07c1.59,0,1.51,1.07-.17.95m-1-2c1.78.85,1.43,1.53-.25,1.12m.5,4.53c.19.25.06.38.47.56m-1.22.07-.12.59m-1.25-.84-.13.49m3.41-.71,0,1.31m3.47-1.19.13.91m-4.44-3,.22,1.19m-1.22-.35L38,42M36.7,41.1l.09,1m.34-1.81,0,.85m1-1.06.12.81m-1.31-2.06,0,1m.94-1,.19.75m1.31-.5.25.87m3.27.5.22,1M41.72,42l.12.9m-1.62-2.74.13,1.65m1-2.25.15,1.63m1.56-2.85.16,1.5m-1-1.5,0,1M40.6,38.7l.15,1m-.09,3.62a3.65,3.65,0,0,0,1.09,2.37m.75-5.93c.19.53.9,1.84,1.15,1.09M42.5,42.6c.19.53.88,2,1.13,1.28m-1.85-.34a2.49,2.49,0,0,0,.94,1.56m-.5-4.27a1.54,1.54,0,0,0,1.09,1.62,2.12,2.12,0,0,0,.32-1.76M41,41.79a1.9,1.9,0,0,0,1,1.84,2,2,0,0,0,.53-1.78M39.16,43c-.06,1.09.16,1,.69,1.5.59-.69.93-1,.72-1.66M39,41.48c.1.93,0,.84.35,1.37A2.22,2.22,0,0,0,39.76,41m0,0a2.07,2.07,0,0,0,.66,2,1.62,1.62,0,0,0,.5-1.56m-.31-1.16c-.06,1.09.43,1.31,1,1.78a2,2,0,0,0,.54-2m-3.62-1a4.24,4.24,0,0,0,1.21,1.93c.38-.62.56-.78.44-1.43m-2.78,1.74a2.33,2.33,0,0,0,.69,1.53c.65-.49.53-1.24.44-1.87m-2.22.31c-.09.72.19.91.37,1.5.57-.37.53-.84.75-1.47M36.07,40c-.09.59-.34,1,.06,1.53a2,2,0,0,0,.47-.84M36.54,40c.06.84,0,1.13.43,1.65.63-.49.47-.31.69-.9M37.41,40c.1.84.44.84.82,1.37A1.62,1.62,0,0,0,38.72,40m-2.31-1.25a3.54,3.54,0,0,0,.44,1.88,1.73,1.73,0,0,0,.66-1.32m-.19-.53c.06.69.41.91.72,1.31A1.39,1.39,0,0,0,38.51,39m2.93-.5c.25.81.25,1.19.75,1.59.62-.46.56-1.21.62-1.84m-3,.69a3.19,3.19,0,0,0,1.06,1.59,2.9,2.9,0,0,0,.56-1.87"/><path class="cls-23" d="M34.7,31.27c-.41,1.09,1.59,1.28,2.37,1.47,2.46-3.93,1.68-6.65-.16-9,.41-.09.57-.41.22-.62.35-.16.16-.47.16-.69.41-.18.25-.47.12-.53,1.19-.19,1-.69.41-.78.46.22,3.59.65,2.34-.28.66.53,3.31,1.37,1.68,0,.47.09,1.72.84,2.13.78,1.47-.25,3,1.9,3.81,2.09,1.34.9,2.59,1.84,3.8,1.28,3.13,1.62,6.3,3.25,7.53,2.29-5.65-3.4-11.6-6.43-17.87-7.83-2.4-.31-4.37-.16-5.85.89-.84.71-1.41,2.65-.29,3.46,1.22,2.1,2.65,4.18-.4,7.43"/><path class="cls-24" d="M34.7,31.27c-.41,1.09,1.59,1.28,2.37,1.47,2.46-3.93,1.68-6.65-.16-9,.41-.09.57-.41.22-.62.35-.16.16-.47.16-.69.41-.18.25-.47.12-.53,1.19-.19,1-.69.41-.78.46.22,3.59.65,2.34-.28.66.53,3.31,1.37,1.68,0,.47.09,1.72.84,2.13.78,1.47-.25,3,1.9,3.81,2.09,1.34.9,2.59,1.84,3.8,1.28,3.13,1.62,6.3,3.25,7.53,2.29-5.65-3.4-11.6-6.43-17.87-7.83-2.4-.31-4.37-.16-5.85.89-.84.71-1.41,2.65-.29,3.46C36.32,25.94,37.75,28,34.7,31.27Z"/><path class="cls-12" d="M22.46,33.05c-.25-.37.69-1.12,2.69-1.12,1.68-.22,3.8-.32,5.18-1,.37-.16.65.06,1,.18-.38.1-.66.66-.88.94a1.94,1.94,0,0,1,1.44.44c-.44.12-1,.09-1.38.56.53.5,1.1.44,1.62.65a1.63,1.63,0,0,1-1.4.78,6.2,6.2,0,0,1,1.1,1.38c-1-.13-.91-.13-1.47-.22a2.37,2.37,0,0,0,1.21,1.12c-.37-.06-.68,0-1.06-.06a12.14,12.14,0,0,0-2.74-.81c-1.34-.09-2.22-.28-3.31-.41.5-.18.8-.55-.23-1-.56.06-1.15-1-1.74-1.45"/><path class="cls-28" d="M22.46,33.05c-.25-.37.69-1.12,2.69-1.12,1.68-.22,3.8-.32,5.18-1,.37-.16.65.06,1,.18-.38.1-.66.66-.88.94a1.94,1.94,0,0,1,1.44.44c-.44.12-1,.09-1.38.56.53.5,1.1.44,1.62.65a1.63,1.63,0,0,1-1.4.78,6.2,6.2,0,0,1,1.1,1.38c-1-.13-.91-.13-1.47-.22a2.37,2.37,0,0,0,1.21,1.12c-.37-.06-.68,0-1.06-.06a12.14,12.14,0,0,0-2.74-.81c-1.34-.09-2.22-.28-3.31-.41.5-.18.8-.55-.23-1C23.64,34.56,23.05,33.52,22.46,33.05Z"/><path class="cls-3" d="M22.46,33a.82.82,0,0,0-.75.28,1.33,1.33,0,0,0-.59,2.46c0-.81.19-1.09.88-1.06,1.05.38,1.77.13,2.34.47l-.19-.18a27.47,27.47,0,0,1-2.9,0c.24.57,2.34.19,3,.57.75-.22.78-.53.6-.78A5.74,5.74,0,0,1,22.46,33"/><path class="cls-29" d="M22.46,33a.82.82,0,0,0-.75.28,1.33,1.33,0,0,0-.59,2.46c0-.81.19-1.09.88-1.06,1.05.38,1.77.13,2.34.47l-.19-.18a27.47,27.47,0,0,1-2.9,0c.24.57,2.34.19,3,.57.75-.22.78-.53.6-.78A5.74,5.74,0,0,1,22.46,33Z"/><path class="cls-4" d="M21.71,33.24c.06.87,1.56,1.53,2.65,1.37"/><path class="cls-3" d="M22.37,33.65s.12,0,.22.09.09.18.06.22-.16,0-.22-.1-.12-.18-.06-.21"/><path class="cls-10" d="M22.37,33.65s.12,0,.22.09.09.18.06.22-.16,0-.22-.1S22.31,33.68,22.37,33.65Z"/><path class="cls-26" d="M44.58,37.53c1,1.31.38,1.36-.64.36m-1.54-3c1.65.84,1.66,1.81-1.21,0m4.49,2.72c.81,1.05.22,1.47-.55.85m-8.59-6.35c.53-.5,1.46-.31.47.66m-.47-.66c.53-.5,1.46-.31.47.66m5.34-10.9c.56.81,3.12.49,1.94-.14m-8.5,3.7c.41.22.37.85-.34.35m.44.31c.43.15.46.78-.29.37m1.1-.47c-.16-.43.21-.87.49-.06m-.25,3.18c.16-.59,1-.75.61.31m-2-2.27c.41.37,0,.87-.53.25m1.79-2.62c-.06-.56.58-.75.58.09m.47,4c.18-.71,1-.62.62.41m-2.21-2.43c.4.37,0,.9-.53.24m1-1.54c-.22-.53.28-.92.54-.11m-1.76,1.2c.43.26.13.77-.56.33m3-6.52c.75.09.53.9-.87.75m-.31-.38c.56,0,.47.81-.56.66m.74,1.68c.54-.09.6.66-.34.69m.28-1.22c.56,0,.6.69-.43.56m-.16-1c.47,0,.41.81-.47.66m.88-1.28c.46,0,.4.78-.47.65m1.46,7.31c.25-.63,1.13-.22.57.94m-.81-4.46c-.12-.5.62-.73.81.21m-.57,3.31c.25-.63,1.13-.22.57.94M34.94,25c.57.31.62,1.06-.26.47m.33.28c.73.33.69,1.08-.13.55m2.25.09c-.19-.53.35-.92.53,0M37,29.9c.25-.69,1.18-.85.59.31m-2.69-5.83c.41.31.26,1-.46.31M37.32,27c-.06-.49.53-.87.53.13M34.7,25.59c.46.36.37,1.12-.35.44m2.26,4.32c.37-.6,1.28-.47.5.53m-2.41-4.6c.47.34.07,1-.55.37m3.6-.09c-.09-.56.69-.75.63.19m-1,3.71c.37-.66,1.34-.25.53.69m-1.71-3.6c.25.19-.13.79-.66.13M37.88,27c-.06-.35.75-.5.66.46m-4.31-1.35c.36.3-.06,1-.72.2m3.67,4.64c.24-.44,1.21.07.31,1m-3.07-7c.4.34.24,1-.47.31m3.21,2.27c0-.52.56-.91.56.08M34.42,25c.4.34.24,1-.47.31M35.68,31c.38-.59,1.31-.46.5.57M33,24.84c.48.31.45,1-.34.41m3.87,7c.37-.66,1.34-.53.56.5m-3.86-7.22c.53.22.61,1-.26.54m3.56,6.18c.37-.66,1.34-.53.56.5m-1.72-8c.35.22.29.71-.28.31M36,28c.34.27.22.87-.37.3M33.3,24.12c.5.37.24.88-.35.35m1.22,1c.47.34,0,.9-.53.43m4.32,2c-.07-.56.58-1,.58,0m-2.16,3.43c.41-.62,1.37-.53.56.53m-2.8-7.55c.43.34.28,1.09-.5.34m3.77,3.62c-.06-.56.59-1,.59.13M33.58,24.7c.59.46.32,1.1-.27.6m2.42,6.63c.4-.63,1.4-.5.53.59"/><path class="cls-30" d="M23.24,33.05a3.37,3.37,0,0,0,1.28-.31,8.49,8.49,0,0,0,1.31.31c-.47.06-.62.59-1.28.69-.43,0-.72-.22-.78-.56-.49.06-.34-.1-.53-.13"/><path class="cls-31" d="M23.24,33.05a3.37,3.37,0,0,0,1.28-.31,8.49,8.49,0,0,0,1.31.31c-.47.06-.62.59-1.28.69-.43,0-.72-.22-.78-.56C23.28,33.24,23.43,33.08,23.24,33.05Z"/><path class="cls-26" d="M37.23,25.34c-.16-.5.58-.72.77.21m-3.09-1.17c.41.31.2,1-.52.28m0,.25c.48.38.32,1.09-.4.37"/><path class="cls-23" d="M43.72,35.08a12.25,12.25,0,0,0,.67-1.8c2.53,1.41,5.69,7.39,7.88,9.51-.63.12-1.31.09-2.34-.94-.28.1-.69-.06-1.22-.5-1.56-2.09-3.43-4.21-5-6.27"/><path class="cls-24" d="M43.72,35.08a12.25,12.25,0,0,0,.67-1.8c2.53,1.41,5.69,7.39,7.88,9.51-.63.12-1.31.09-2.34-.94-.28.1-.69-.06-1.22-.5C47.15,39.26,45.28,37.14,43.72,35.08Z"/><path class="cls-26" d="M45.7,37.51c.46.35,1.06.51.83-.31M44,34.58l1.43,1.93m1,1.31c.75,1.88,3.4,3,2.12,1.19m.19.92c.81,1.25,2.09,3.68,3.58,2.91m-8.13-9c1.37,1.56,2.62,4.4,3.68,4.25"/><path class="cls-27" d="M26.21,34.86c1,.12,1.4.63,0,.59m3.09-2c1.15.35,1.74.88-.13.88m.63.13c1,.4,1.59,1-.41.74m-.62-.65c1,.19,1.4.59-.07.75M27.92,34c1,.21,1.32.59-.09.75m-.65,0c.93.15,1.28.59-.07.75m.91-.32c.93.13,1.4.47-.13.53m1.31-.34c.91.25,1.47.62-.09.59"/><path class="cls-3" d="M36.29,44.63c-.06.16.43.47.59.47s.41-.13.66,0c.59-.16.31-.88-.19-1-.34-.07-.66.75-1.06.56"/><path class="cls-32" d="M36.29,44.63c-.06.16.43.47.59.47s.41-.13.66,0c.59-.16.31-.88-.19-1C37,44,36.69,44.82,36.29,44.63Z"/><path class="cls-3" d="M36.79,43.66c-.28-.06-.41-.53-.5-.56s-.28.28-.63.37a2.48,2.48,0,0,1-.25,1c-.62,1.18-.49.56-1.62.75-.87-.38-1.12-.66-1.72,0a4.44,4.44,0,0,0,1.66.5c-1.87.22-1.62.54-1.81,1,.47-.32,1.12.24.66.62.78,0,.78-.13,1.15-.56s1.4-.47,2.06-.72c.41,0,.81,0,1.25,0,.37.59.81.37,1.22.4-.53-1.18.37-1.09.59-.72.12-.43-.19-.68-.84-.68-.63.25-1,.31-1.41-.16.13-.49.09-.84.19-1.28"/><path class="cls-29" d="M36.79,43.66c-.28-.06-.41-.53-.5-.56s-.28.28-.63.37a2.48,2.48,0,0,1-.25,1c-.62,1.18-.49.56-1.62.75-.87-.38-1.12-.66-1.72,0a4.44,4.44,0,0,0,1.66.5c-1.87.22-1.62.54-1.81,1,.47-.32,1.12.24.66.62.78,0,.78-.13,1.15-.56s1.4-.47,2.06-.72c.41,0,.81,0,1.25,0,.37.59.81.37,1.22.4-.53-1.18.37-1.09.59-.72.12-.43-.19-.68-.84-.68-.63.25-1,.31-1.41-.16C36.73,44.45,36.69,44.1,36.79,43.66Z"/><path d="M37.57,44.13a.61.61,0,0,1,.28.75c.19-.31.53-.25.59.28.32-.71-.12-1.43-.87-1"/><path d="M38.76,45.69c-.29-.41-1.1-.09-.69.59.5.22.78.38.44,1a.88.88,0,0,0,.25-1.56"/><path d="M31.92,46.72c.44-.19.84,0,.72.66-.5.25-.75.59-.41,1.19a1.1,1.1,0,0,1-.31-1.85"/><path class="cls-23" d="M36.18,38.78a28.88,28.88,0,0,1-.73,4.79c.59,0,.59-.25.9-.53.06.37.34.56.69.87.43-.15.59-.25.71-.65-.09.31.79.5,1.07.68.18-.18.06-.37.37-.59a28.54,28.54,0,0,0-.85-4.59c-.75.34-1.44,0-2.16,0"/><path class="cls-24" d="M36.18,38.78a28.88,28.88,0,0,1-.73,4.79c.59,0,.59-.25.9-.53.06.37.34.56.69.87.43-.15.59-.25.71-.65-.09.31.79.5,1.07.68.18-.18.06-.37.37-.59a28.54,28.54,0,0,0-.85-4.59C37.59,39.1,36.9,38.76,36.18,38.78Z"/><path class="cls-26" d="M38.6,42.07c.11.28.06.37.47.56m-1.22,0-.09.62m-1.28-.85-.13.6M38,41,38,42m-1.34-.82.06,1m.36-1.78,0,.84m1-1.15.12.82m-1.31-2.07,0,1m.94-1,.19.75m-.61,1.7a2.05,2.05,0,0,0,.64,1.6,1.78,1.78,0,0,0,.44-1.87M36.07,40c-.09.59-.28,1,.06,1.53a1.22,1.22,0,0,0,.45-.9m0-.6c.06.84,0,1.13.44,1.65.62-.49.46-.31.68-.9m-.27-.89c.1.84.46.92.84,1.45A1.62,1.62,0,0,0,38.72,40m-2.31-1.25a3.54,3.54,0,0,0,.44,1.88,1.58,1.58,0,0,0,.61-1.28m-.14-.54c.06.69.41.88.72,1.28A1.39,1.39,0,0,0,38.51,39m-2.27,2.35c-.09.71.24.9.43,1.49.56-.37.52-.84.74-1.46"/><path class="cls-3" d="M39.41,45.38c.31.31.28-.44.47-.69.12.25.62.81,1,.75,0,.6,0,.65,0,1.28a1.6,1.6,0,0,0,1.25,1.19c.59.12,1.68-.38,1.74.37-.75,0-.78.75-.37.91-.75.43-1-.31-1.47-.47a4.94,4.94,0,0,0-1.43-.44,4.57,4.57,0,0,0-.69,1.09c.09.66-.09,1.31-.62,1.16-.19-.32-.41-.81-1-.38-.32-.06-.09-1,.4-.9.57-.31.22-.69.6-1a4.09,4.09,0,0,0-1.09.66c-.35.18-.51,1.06-1.1.65-.06-.87-.65-.65-.78-.56,0-.41.19-.85,1.09-1,.44.16,1.86-.87,1.93-1.12a5.13,5.13,0,0,0,0-1.5"/><path class="cls-29" d="M39.41,45.38c.31.31.28-.44.47-.69.12.25.62.81,1,.75,0,.6,0,.65,0,1.28a1.6,1.6,0,0,0,1.25,1.19c.59.12,1.68-.38,1.74.37-.75,0-.78.75-.37.91-.75.43-1-.31-1.47-.47a4.94,4.94,0,0,0-1.43-.44,4.57,4.57,0,0,0-.69,1.09c.09.66-.09,1.31-.62,1.16-.19-.32-.41-.81-1-.38-.32-.06-.09-1,.4-.9.57-.31.22-.69.6-1a4.09,4.09,0,0,0-1.09.66c-.35.18-.51,1.06-1.1.65-.06-.87-.65-.65-.78-.56,0-.41.19-.85,1.09-1,.44.16,1.86-.87,1.93-1.12A5.13,5.13,0,0,0,39.41,45.38Z"/><path class="cls-3" d="M41.06,47.13c-.06.18.53.56.72.56.35-.06.5-.16.78-.06.69-.16.41-1-.21-1.16-.41-.09-.78.88-1.29.66"/><path class="cls-32" d="M41.06,47.13c-.06.18.53.56.72.56.35-.06.5-.16.78-.06.69-.16.41-1-.21-1.16C41.94,46.38,41.57,47.35,41.06,47.13Z"/><path d="M42.66,46.59a.71.71,0,0,1,.28.85c.22-.38.62-.31.71.31.35-.81-.12-1.65-1-1.16"/><path d="M36.48,48.94c.43-.19.68,0,.71.53a.86.86,0,0,0-.4,1.31,1.1,1.1,0,0,1-.31-1.84"/><path d="M38.38,50.12c.44-.18.69-.09.81.38a.94.94,0,0,0-.34,1.4c-.85-.4-1.06-1.22-.47-1.78"/><path d="M43.78,48.32c-.4-.13-.81.49-.25.87a.64.64,0,0,1,.68.93,1.08,1.08,0,0,0-.43-1.8"/><path class="cls-23" d="M39.25,45.66c.41.1.75-1.22.63-1.19,0,.22.22,1.22,1.84,1.19.37.34.41.31,1.09.47a2.32,2.32,0,0,1-.15-1.06,1,1,0,0,0,.74.43,19,19,0,0,0-.13-7c0-.81-3.11.41-5,.27a25.89,25.89,0,0,1,1,6.93"/><path class="cls-24" d="M39.25,45.66c.41.1.75-1.22.63-1.19,0,.22.22,1.22,1.84,1.19.37.34.41.31,1.09.47a2.32,2.32,0,0,1-.15-1.06,1,1,0,0,0,.74.43,19,19,0,0,0-.13-7c0-.81-3.11.41-5,.27A25.89,25.89,0,0,1,39.25,45.66Z"/><path class="cls-26" d="M39.76,42.23l0,1.31m3.47-1.11.06.9m-4.24-3,.21,1.19m.07-2.42.25.87m3.31.49.19,1.06m-1.43.52.13.91m-1.53-2.92.13,1.65m1-2.21.15,1.63m1.56-2.85.16,1.5m-1-1.5,0,1M40.6,38.7l.15,1m-.09,3.62a3.65,3.65,0,0,0,1.09,2.37m.82-5.92c.19.53.83,1.83,1.08,1.08M42.5,42.6c.19.53.88,2,1.13,1.28m-1.74-.26a1.89,1.89,0,0,0,.83,1.48m-.5-4.27a1.54,1.54,0,0,0,1.09,1.62,2.12,2.12,0,0,0,.32-1.76M41,41.79a1.9,1.9,0,0,0,1,1.84,2,2,0,0,0,.53-1.78M39.11,43c-.07,1.09.21,1,.74,1.51.59-.69.94-.91.72-1.6M39,41.48c.1.93,0,.84.35,1.37A2.22,2.22,0,0,0,39.76,41m0,0a2.07,2.07,0,0,0,.66,2,1.55,1.55,0,0,0,.5-1.52m-.31-1.2c-.06,1.09.43,1.31,1,1.78a2,2,0,0,0,.54-2m-3.62-1a4.24,4.24,0,0,0,1.21,1.93c.38-.62.53-.74.41-1.39m1.3-1.25c.25.81.26,1.27.76,1.67.62-.46.56-1.21.62-1.84m-3,.69a3.19,3.19,0,0,0,1.06,1.59,3.52,3.52,0,0,0,.59-2.08"/><path class="cls-3" d="M24,33.15a.33.33,0,0,1,.19,0c.06.44.56.41.62,0h.25c0,.57-1,.78-1.06.07"/></g></svg>