<svg id="Layer_1" data-name="Layer 1" xmlns="http://www.w3.org/2000/svg" xmlns:xlink="http://www.w3.org/1999/xlink" viewBox="0 0 55 210"><defs><style>.cls-1{fill:url(#linear-gradient);}.cls-2{fill:#fff;}</style><linearGradient id="linear-gradient" x1="1.9" y1="104.74" x2="52.29" y2="104.74" gradientUnits="userSpaceOnUse"><stop offset="0" stop-color="#0aa"/><stop offset="0.12" stop-color="#009fa0"/><stop offset="0.35" stop-color="#009093"/><stop offset="0.61" stop-color="#00878b"/><stop offset="1" stop-color="#008488"/></linearGradient></defs><title>FAQ_tab_OFF</title><path class="cls-1" d="M52.29,2c0,1.38-4.59,11.48-12.15,14.61L6.75,29.25A6.75,6.75,0,0,0,1.9,35.46v172H52.29Z"/><path class="cls-2" d="M23.68,88.6a2,2,0,0,0-2.12,2.15,3.62,3.62,0,0,0,1.38,2.73l-1.57,1.7a6.3,6.3,0,0,1-2.3-4.8c0-2.76,1.51-4.75,4.4-4.75,3.36,0,4.56,4.14,8,3.77v2.67C27.57,92.63,26.06,88.6,23.68,88.6Zm11.71,4.08a2,2,0,0,1-2.06-2,2.07,2.07,0,0,1,4.13,0A2,2,0,0,1,35.39,92.68Z"/><path class="cls-2" d="M21.89,153.38h5.86V145h2.06v8.42H36.6v2.4H19.8V143.92h2.09Z"/><path class="cls-2" d="M32.4,130.6v8.93l4.2,1.85v2.47l-16.8-7.6v-2.38l16.8-7.63v2.52Zm-1.92.84-8.23,3.63,8.23,3.62Z"/><path class="cls-2" d="M38.14,106.68a5.41,5.41,0,0,1,2,4.22c0,2.11-.92,3.77-3.34,6.12a8.47,8.47,0,0,1-8.57,8.33c-4.92,0-8.59-3.79-8.59-8.95s3.65-8.91,8.59-8.91a8.34,8.34,0,0,1,8.33,6.6,4.34,4.34,0,0,0,1.68-3.21,4,4,0,0,0-1.44-3.08Zm-3.48,9.72A6.46,6.46,0,1,0,28.2,123,6.33,6.33,0,0,0,34.66,116.4Z"/></svg>