<svg id="Layer_1" data-name="Layer 1" xmlns="http://www.w3.org/2000/svg" xmlns:xlink="http://www.w3.org/1999/xlink" viewBox="0 0 232 273"><defs><style>.cls-1{opacity:0.25;}.cls-2{fill:#404040;fill-rule:evenodd;}</style><symbol id="Thumbprint" data-name="Thumbprint" viewBox="0 0 228.51 269.82"><g class="cls-1"><path class="cls-2" d="M158.69,7.68c-57.4-22.8-123.25,6.87-146.8,66.14a155.81,155.81,0,0,0-7.58,26,4.27,4.27,0,0,0,8.36,1.72A148.08,148.08,0,0,1,19.82,77C41.63,22.08,102.51-5.45,155.54,15.62S234,98.48,212.16,153.38c-5.86,14.76-15.74,30.74-28.57,46.22a4.26,4.26,0,1,0,6.57,5.44c13.39-16.15,23.74-32.93,29.93-48.51,23.55-59.27-4-126-61.4-148.85"/><path class="cls-2" d="M36.46,88.65c.79-2.29,1.59-4.51,2.55-6.65,19-42.44,66.68-62.69,108.47-46.09a81.61,81.61,0,0,1,34.93,26.6,4.27,4.27,0,1,0,6.8-5.15A90.17,90.17,0,0,0,150.63,28c-46-18.29-98.5,3.9-119.41,50.53-1.1,2.44-2,5-2.82,7.34-7.94,22.82-17.8,39-24,39.34a4.27,4.27,0,0,0-1.33,8.23,4.18,4.18,0,0,0,1.81.29C18.28,133,29.45,108.8,36.46,88.65"/><path class="cls-2" d="M193.43,162.88c11.85-18.91,16.79-40.74,13.92-61.47a95.37,95.37,0,0,0-6.27-23.27,4.27,4.27,0,0,0-7.89,3.25,86.94,86.94,0,0,1,5.71,21.19c2.6,18.75-1.92,38.56-12.7,55.77-4.47,7.13-26.26,43.56-16.75,61.12a4.3,4.3,0,0,0,2.18,1.93,4.27,4.27,0,0,0,5.33-6c-5.24-9.66,4.86-34,16.47-52.52"/><path class="cls-2" d="M71.68,102.38c9.69-24.4,36.71-36.65,60.24-27.3s34.79,36.8,25.09,61.2a4.27,4.27,0,0,0,7.93,3.15c11.43-28.78-2-61.2-29.87-72.28s-59.9,3.3-71.32,32.08a4.27,4.27,0,0,0,7.93,3.15"/><path class="cls-2" d="M158.29,227.63c-3.75-4-9.24-19.39,20.76-75.22a76.62,76.62,0,0,0,9.53-36.8c-.31-30.38-18.27-57.06-45.75-68-37.61-14.94-80.74,4.48-96.15,43.28,0,.08,0,.16-.07.24s-.07.16-.09.24c-4.32,16.29-20.3,58.32-42,57.16a4.27,4.27,0,0,0-1.8,8.23,4.35,4.35,0,0,0,1.35.3c32.3,1.71,49.25-58.06,50.65-63.2,13.74-34.31,51.82-51.5,85-38.32,24.26,9.63,40.11,33.24,40.38,60.14a68.09,68.09,0,0,1-8.52,32.68c-24.31,45.25-30.69,73.08-19.48,85.07a4.23,4.23,0,0,0,1.54,1.05,4.26,4.26,0,0,0,4.7-6.87"/><path class="cls-2" d="M65.61,121.19a4.27,4.27,0,0,0-2.4-5.51h0a4.26,4.26,0,0,0-5.52,2.43c-6.39,16.48-24.19,54.55-51.32,52.1a4.27,4.27,0,0,0-2,8.22,4.38,4.38,0,0,0,1.2.28c32.9,3,53-39.23,60-57.51"/><path class="cls-2" d="M81.86,118.38C90,98.1,109.46,86.73,125.34,93s22.28,28.05,14.19,48.42a4.27,4.27,0,1,0,7.93,3.15c9.83-24.75,1.32-51.44-19-59.5s-44.8,5.52-54.63,30.26a1.66,1.66,0,0,0-.06.21c0,.07-.06.14-.08.22-.23.8-23.09,80.74-63.07,78.09a4.27,4.27,0,0,0-.56,8.52c46.1,3.05,70.09-78.14,71.77-84"/><path class="cls-2" d="M92.72,144.34a4.27,4.27,0,0,0-2.41-5.5h0a4.25,4.25,0,0,0-5.51,2.44,243.2,243.2,0,0,1-20.13,39.07c-11,17-28.06,37-46.67,35.5a4.26,4.26,0,1,0-.69,8.5c42.78,3.46,74.14-76.59,75.45-80"/><path class="cls-2" d="M130.09,141.32c6.36-16.31,2.37-32.61-9.16-37.19s-25.78,4.64-32.3,21a4.27,4.27,0,0,0,7.93,3.15c4.59-11.56,14.31-19,21.22-16.26s8.87,14.83,4.28,26.39c0,.06,0,.12,0,.17s-.05.1-.07.16a347.47,347.47,0,0,1-23.51,55.55c-13.27,24.56-34.33,53.83-59.27,53.75a4.27,4.27,0,0,0,0,8.53c54.83.18,89.37-110.11,91-115.29"/><path class="cls-2" d="M95.73,181.87a279.66,279.66,0,0,0,20.63-54.78,4.27,4.27,0,0,0-8.3-2c-.25,1-25.61,103.42-81.43,108.58a4.26,4.26,0,0,0-1.19,8.21,4.21,4.21,0,0,0,2,.28c25.86-2.38,49.49-23.23,68.32-60.28"/><path class="cls-2" d="M141.11,245.88c-14.11-14.21-2.11-66.47,3.7-85.41a4.21,4.21,0,0,0-2.75-5.31,4.27,4.27,0,0,0-5.36,2.67c-33.34,96.73-75,103.4-75.62,103.49a4.26,4.26,0,0,0-1.07,8.2,4.33,4.33,0,0,0,2,.28c1.6-.18,33.72-4.47,65-66.47-2.2,19-1.53,38.92,8,48.56a4.26,4.26,0,0,0,6.05-6"/><path class="cls-2" d="M125.5,254.12c-2.89-2.63-3.29-11.06-2.65-16.21a4.27,4.27,0,0,0-8-2.61c-5.17,9.25-23.2,26.09-23.39,26.25a4.27,4.27,0,0,0-.21,6,4.22,4.22,0,0,0,1.54,1.06,4.27,4.27,0,0,0,4.49-.84c.55-.51,9.86-9.21,17.35-17.94.72,4,2.2,7.94,5.09,10.57a4.27,4.27,0,1,0,5.74-6.31"/></g></symbol></defs><title>finger_print_icon</title><use width="228.51" height="269.82" transform="translate(1.75 1.59)" xlink:href="#Thumbprint"/></svg>