<svg id="Layer_1" data-name="Layer 1" xmlns="http://www.w3.org/2000/svg" viewBox="0 0 25 25"><defs><style>.cls-1{fill:#fff;}</style></defs><title>General_Inquiry_icon</title><path class="cls-1" d="M22.55,18.31a11.65,11.65,0,0,1-4.24,4.24,11.24,11.24,0,0,1-5.81,1.57,11.24,11.24,0,0,1-5.81-1.57,11.65,11.65,0,0,1-4.24-4.24A11.24,11.24,0,0,1,.88,12.5,11.24,11.24,0,0,1,2.45,6.69,11.65,11.65,0,0,1,6.69,2.45,11.24,11.24,0,0,1,12.5.88a11.24,11.24,0,0,1,5.81,1.57,11.65,11.65,0,0,1,4.24,4.24,11.24,11.24,0,0,1,1.57,5.81A11.24,11.24,0,0,1,22.55,18.31ZM9.59,5.52a6.52,6.52,0,0,0-2.25,2.2.48.48,0,0,0-.09.4.59.59,0,0,0,.23.35L9.12,9.69a.45.45,0,0,0,.38.11.49.49,0,0,0,.38-.21,8.61,8.61,0,0,1,1.17-1.21,2.44,2.44,0,0,1,1.5-.47A2.59,2.59,0,0,1,14,8.35a1.29,1.29,0,0,1,.68,1.1,1.15,1.15,0,0,1-.42.89,10,10,0,0,1-1.08.71l-.09,0a6.62,6.62,0,0,0-1.64,1.18,3,3,0,0,0-.85,2.11v.18a.54.54,0,0,0,.17.4.54.54,0,0,0,.4.16h2.62a.54.54,0,0,0,.4-.16.54.54,0,0,0,.17-.4v0a.81.81,0,0,1,.37-.66,7.4,7.4,0,0,1,.89-.56A8.55,8.55,0,0,0,17.38,12a3.56,3.56,0,0,0,.89-2.48,4,4,0,0,0-.8-2.41,5.54,5.54,0,0,0-2.06-1.74,5.77,5.77,0,0,0-2.58-.63A6.23,6.23,0,0,0,9.59,5.52ZM11,17a2.16,2.16,0,0,0,1.52,3.68A2.15,2.15,0,0,0,14,17a2.12,2.12,0,0,0-3,0Z"/></svg>