<svg id="Layer_1" data-name="Layer 1" xmlns="http://www.w3.org/2000/svg" viewBox="0 0 158 230"><defs><style>.cls-1,.cls-2{fill:#bfbfbf;}.cls-2,.cls-3{stroke:#fff;stroke-miterlimit:10;}.cls-3,.cls-4{fill:#00467f;}</style></defs><title>man_on_bench-headache</title><path class="cls-1" d="M94.7,160.23a11.06,11.06,0,0,0-1.06-3.42,3.42,3.42,0,0,0-1.89-1.71,14.42,14.42,0,0,0-3.61-1c-.72-.12-1.53-.23-2.42-.31q-2.62-.26-6.16-.25h-.41q-3.51,0-6.13.25a28.89,28.89,0,0,0-3.22.46,8.58,8.58,0,0,0-3.89,1.54,3.62,3.62,0,0,0-1,1.44,12.72,12.72,0,0,0-.86,3,30.19,30.19,0,0,0-.39,5.12,64.62,64.62,0,0,0,1,10.51H94.11a63.38,63.38,0,0,0,1-10.5A30.5,30.5,0,0,0,94.7,160.23Z"/><path class="cls-1" d="M35.17,153.77H25.28A24.32,24.32,0,0,0,.73,177.89v50H24.4V176.71a.87.87,0,0,1,.88-.85h9.47a89.5,89.5,0,0,1-.7-10.5A57.34,57.34,0,0,1,35.17,153.77Z"/><path class="cls-2" d="M124,175.86h8.72a.86.86,0,0,1,.87.85v51.13h23.68v-50a24.32,24.32,0,0,0-24.55-24.12h-9.15a57.14,57.14,0,0,1,1.12,11.57A92,92,0,0,1,124,175.86Z"/><path class="cls-3" d="M122,175.86a92.33,92.33,0,0,0,.7-10.51,56.21,56.21,0,0,0-1.15-11.58c-.1-.44-.18-.88-.29-1.32A39.22,39.22,0,0,0,119,145.7a32.51,32.51,0,0,0-4.26-6.9,72.27,72.27,0,0,1-7.46,6.44c-1.33,1-2.69,2-4.15,3a9.87,9.87,0,0,1-11-16.37c2-1.32,3.73-2.64,5.34-4a37.82,37.82,0,0,0,7.84-8.46,20.44,20.44,0,0,0,2-4V100.8a20,20,0,0,1,2.83,9.76,15.6,15.6,0,0,1-.14,2,18.63,18.63,0,0,1-2.69,7.32c-.12.2-.22.39-.35.58a38,38,0,0,1-7.26,8.09,65.82,65.82,0,0,1-6.47,4.92A7.89,7.89,0,1,0,102,146.58c1.88-1.26,3.62-2.54,5.26-3.82a70.38,70.38,0,0,0,6.17-5.46,49.19,49.19,0,0,0,6.78-8.31,34.43,34.43,0,0,0,5.6-16.42c0-.67.07-1.34.07-2a34.64,34.64,0,0,0-3.43-14.72,51.7,51.7,0,0,0-10.66-14.63,53,53,0,0,0-6.45-5.48,7.79,7.79,0,0,0-2.86-1.24v0a24,24,0,0,1-1.73,3.29,25.12,25.12,0,0,1-44.43-3.29l-.07-.15a7.88,7.88,0,0,0-5.64,2.55c-1.87,2-3.57,3.82-5.09,5.36a32.1,32.1,0,0,1,5.15-9.5v0a39.62,39.62,0,0,1,3.89-4.33c.24-.24.5-.48.72-.68.41-.38.76-.69,1.06-.93.14-.12.28-.24.39-.32a4.13,4.13,0,0,1,.34-.27l0,0h0a7.89,7.89,0,0,0,1.78-11c-.14-.19-.29-.37-.44-.54a7.8,7.8,0,0,0-1.52-1.36,7.88,7.88,0,0,0-9.06.13h0a51.2,51.2,0,0,0-9.7,9.74,49.7,49.7,0,0,0-5.83,9.6,40.82,40.82,0,0,0-2.84,26.46l0,.09c0,.11.06.22.08.32s.08.27.13.41l.09.26c.06.14.12.29.19.43a1.47,1.47,0,0,0,.1.22c.07.15.15.3.23.44l.12.2c.09.15.18.29.28.43l.12.18c.12.15.24.3.37.44l.1.12a5.78,5.78,0,0,0,.49.5l.2.17c.12.11.23.2.36.3a2.49,2.49,0,0,0,.24.17l.37.25.24.15.47.25.13.07h0l.05,0c.26.12.52.22.78.31a9.69,9.69,0,0,0,3.26.58h0a13.24,13.24,0,0,0,6.3-1.78,40.15,40.15,0,0,0,7.28-5.4v33.82A31,31,0,0,0,40.84,143.6a37.06,37.06,0,0,0-3.36,8.85c-.11.44-.23.87-.32,1.32A54.87,54.87,0,0,0,36,165.35a92.33,92.33,0,0,0,.7,10.51l0,.27c1.49,11.94,5.29,26.26,11.82,44.36a12.82,12.82,0,1,0,24.11-8.74c-5.47-15-8.58-26.8-10-35.62a2.56,2.56,0,0,1-.05-.27,64.73,64.73,0,0,1-.94-10.51,30.23,30.23,0,0,1,.37-5.12,15.24,15.24,0,0,1,1.06-3.86,5.81,5.81,0,0,1,1.51-2.1,6.21,6.21,0,0,1,.69-.5,11.75,11.75,0,0,1,3.43-1.32H90a14.09,14.09,0,0,1,2.68.9l.74.42a5,5,0,0,1,2,2.08,13.72,13.72,0,0,1,1.33,4.38,32.52,32.52,0,0,1,.36,5.12,64.73,64.73,0,0,1-.94,10.51c0,.09,0,.18,0,.27-1.44,8.82-4.55,20.6-10,35.62a12.83,12.83,0,1,0,24.12,8.74h0c6.53-18.1,10.32-32.42,11.81-44.36Z"/><path class="cls-3" d="M58.23,67.8,58,68c-.29.23-.73.6-1.28,1.11,0,.21.08.43.13.64A23.19,23.19,0,0,0,58.21,74c.1.23.21.47.33.7a22.89,22.89,0,0,0,5.74,7.44,23.16,23.16,0,0,0,36.08-7.76l.18-.38A23.17,23.17,0,0,0,59.38,52.81,8.75,8.75,0,0,1,60.44,54,9.88,9.88,0,0,1,58.23,67.8Z"/><polygon class="cls-4" points="46.4 36.79 34.35 14.44 29.01 22.6 18.05 7.27 14.8 9.96 29.34 27.65 33.63 19.98 45.63 37.36 46.4 36.79"/><polygon class="cls-4" points="52.88 34.74 53.69 34.64 54.23 13.16 46.88 16.92 45.28 1.05 41.76 1.66 45 20.76 51.37 16.93 52.88 34.74"/><polygon class="cls-4" points="23.89 40.55 10.15 32.96 8.67 36.15 25.95 44.23 26.42 36.92 41.69 45.68 42.05 44.97 24.98 32.5 23.89 40.55"/></svg>