<svg id="Layer_1" data-name="Layer 1" xmlns="http://www.w3.org/2000/svg" viewBox="0 0 60 60"><defs><style>.cls-1{fill:none;stroke:#fff;stroke-miterlimit:10;stroke-width:8.93px;}.cls-2{fill:#00467f;}.cls-3{fill:#fff;}</style></defs><title>help_btn</title><circle class="cls-1" cx="30" cy="30" r="25"/><circle class="cls-2" cx="30" cy="30" r="25"/><path class="cls-3" d="M32.85,22.88a3.22,3.22,0,0,0-3.5-3.41,6,6,0,0,0-4.41,2.21l-2.76-2.52A10.31,10.31,0,0,1,30,15.44c4.47,0,7.66,2.45,7.66,7.1,0,5.45-6.67,7.39-6.07,12.91H27.21C26.31,29.19,32.85,26.76,32.85,22.88Zm-6.62,19a3.19,3.19,0,1,1,3.19,3.32A3.2,3.2,0,0,1,26.23,41.86Z"/></svg>