<svg id="Layer_1" data-name="Layer 1" xmlns="http://www.w3.org/2000/svg" viewBox="0 0 17 12"><defs><style>.cls-1{fill:#cb4c45;stroke:#fff;stroke-miterlimit:10;stroke-width:0.26px;}</style></defs><title>letter_icon</title><polygon class="cls-1" points="16.56 11 16.56 11 16.68 11.11 16.68 1.86 11.54 6.49 16.56 11"/><path class="cls-1" d="M6,7,.86,11.66H16.22L11,7l-.35.31a3.21,3.21,0,0,1-2.15.85,3.25,3.25,0,0,1-2.16-.85Z"/><path class="cls-1" d="M.34,11.16A.34.34,0,0,1,.44,11l5-4.51L.32,1.86v9.32Z"/><path class="cls-1" d="M16.56,1,10.22,6.7a2.58,2.58,0,0,1-1.72.68A2.62,2.62,0,0,1,6.77,6.7L.44,1A.41.41,0,0,1,.34.59.35.35,0,0,1,.66.34H16.34a.35.35,0,0,1,.32.25A.41.41,0,0,1,16.56,1Z"/></svg>