<svg id="Layer_1" data-name="Layer 1" xmlns="http://www.w3.org/2000/svg" viewBox="0 0 685 55"><defs><style>.cls-1{fill:#bb0e3d;}.cls-2{fill:#616265;}</style></defs><title>NIH_logo</title><path class="cls-1" d="M123.56,12.63h5.94V39.24h-5.94L110.88,22.56V39.24h-5.94V12.63h5.56l13.06,17.13Z"/><path class="cls-1" d="M154.69,39.24l-2.48-5.75H141.05l-2.47,5.75h-6.32l11.5-26.61h5.75L161,39.24Zm-8-18.69-3.35,7.72H150Z"/><path class="cls-1" d="M172.2,17.77V39.24h-5.94V17.77h-7.54V12.63h21v5.14Z"/><path class="cls-1" d="M183.1,12.63H189V39.24H183.1Z"/><path class="cls-1" d="M217.51,35.57a14.51,14.51,0,0,1-19.88,0,13.17,13.17,0,0,1-4-9.81,13.13,13.13,0,0,1,4-9.8,14.51,14.51,0,0,1,19.88,0,13.12,13.12,0,0,1,4,9.8A13.16,13.16,0,0,1,217.51,35.57Zm-2-9.79a8.67,8.67,0,0,0-2.29-6.07,7.52,7.52,0,0,0-11.23,0,8.71,8.71,0,0,0-2.28,6.07,8.64,8.64,0,0,0,2.28,6,7.56,7.56,0,0,0,11.23,0A8.61,8.61,0,0,0,215.49,25.78Z"/><path class="cls-1" d="M244.65,12.63h5.94V39.24h-5.94L232,22.56V39.24H226V12.63h5.56l13.06,17.13V12.63Z"/><path class="cls-1" d="M275.78,39.24l-2.48-5.75H262.14l-2.47,5.75h-6.32l11.5-26.61h5.75l11.5,26.61Zm-8-18.69-3.35,7.72h6.66Z"/><path class="cls-1" d="M284.87,39.24V12.63h5.94V34h11.35v5.29Z"/><path class="cls-1" d="M328.77,34a8.77,8.77,0,0,0,7.16-3.47l3.81,3.92a14.37,14.37,0,0,1-20.81,1.22,13.14,13.14,0,0,1-4-9.8A13.22,13.22,0,0,1,319,16a13.65,13.65,0,0,1,9.91-4,14,14,0,0,1,11,5l-3.69,4.18a8.68,8.68,0,0,0-7-3.5,8.18,8.18,0,0,0-5.73,2.19,7.62,7.62,0,0,0-2.38,5.9,8,8,0,0,0,2.25,6A7.41,7.41,0,0,0,328.77,34Z"/><path class="cls-1" d="M363.12,39.24l-2.48-5.75H349.49L347,39.24h-6.32l11.5-26.61h5.75l11.5,26.61Zm-8-18.69-3.35,7.72h6.67Z"/><path class="cls-1" d="M390.83,12.63h5.94V39.24h-5.94L378.15,22.56V39.24h-5.94V12.63h5.56l13.06,17.13V12.63Z"/><path class="cls-1" d="M415.12,34a8.75,8.75,0,0,0,7.15-3.47l3.81,3.92a14.37,14.37,0,0,1-20.81,1.22,13.14,13.14,0,0,1-4-9.8A13.26,13.26,0,0,1,405.35,16a13.65,13.65,0,0,1,9.92-4,14,14,0,0,1,11,5l-3.69,4.18a8.66,8.66,0,0,0-7-3.5,8.18,8.18,0,0,0-5.73,2.19,7.65,7.65,0,0,0-2.38,5.9,8,8,0,0,0,2.25,6A7.41,7.41,0,0,0,415.12,34Z"/><path class="cls-1" d="M449.1,12.63v5.29H435.85V23.4h11.92v5.06H435.85V34h13.67v5.25H429.91V12.63Z"/><path class="cls-1" d="M476.15,21.46q0,6.39-5.07,8.26l6.74,9.52h-7.31l-5.9-8.49H460.5v8.49h-5.94V12.63h10.09c4.14,0,7.09.69,8.85,2.09S476.15,18.36,476.15,21.46ZM469,24.62a4,4,0,0,0,1.1-3.14A3.36,3.36,0,0,0,469,18.53a7.24,7.24,0,0,0-4-.8H460.5v7.88h4.34C466.87,25.61,468.25,25.28,469,24.62Z"/><path class="cls-1" d="M492.29,12.63h5.94V39.24h-5.94Z"/><path class="cls-1" d="M522.94,12.63h5.94V39.24h-5.94L510.26,22.56V39.24h-5.94V12.63h5.56l13.06,17.13Z"/><path class="cls-1" d="M541.13,17.94a2.3,2.3,0,0,0-.86,1.86,2.11,2.11,0,0,0,1.05,1.85,19,19,0,0,0,4.83,1.62,13.55,13.55,0,0,1,5.89,2.8,6.92,6.92,0,0,1,2.09,5.44,7.19,7.19,0,0,1-2.68,5.81,10.75,10.75,0,0,1-7.07,2.23A16.35,16.35,0,0,1,533,34.86l3.54-4.34q4.31,3.77,8,3.77a4.17,4.17,0,0,0,2.57-.7,2.27,2.27,0,0,0,.93-1.91,2.21,2.21,0,0,0-1-1.9,12.86,12.86,0,0,0-3.92-1.43,17,17,0,0,1-6.8-2.87c-1.43-1.18-2.15-3-2.15-5.56a6.91,6.91,0,0,1,2.72-5.85,11,11,0,0,1,6.8-2.05,16.32,16.32,0,0,1,5.33.91,14.23,14.23,0,0,1,4.65,2.59l-3,4.34a11.74,11.74,0,0,0-7.16-2.63A3.57,3.57,0,0,0,541.13,17.94Z"/><path class="cls-1" d="M570,17.77V39.24h-5.94V17.77h-7.54V12.63h21v5.14Z"/><path class="cls-1" d="M580.89,12.63h5.94V39.24h-5.94Z"/><path class="cls-1" d="M603.66,17.77V39.24h-5.94V17.77h-7.53V12.63h21v5.14Z"/><path class="cls-1" d="M621.81,32.37a5.25,5.25,0,0,0,8,0,8,8,0,0,0,1.46-5V12.63h5.94V27.51q0,5.79-3.2,8.89a12.32,12.32,0,0,1-16.39,0q-3.21-3.12-3.22-8.87V12.62h5.94v14.7A7.91,7.91,0,0,0,621.81,32.37Z"/><path class="cls-1" d="M653.84,17.77V39.24H647.9V17.77h-7.54V12.63h21v5.14Z"/><path class="cls-1" d="M683.93,12.63v5.29H670.68V23.4H682.6v5.06H670.68V34h13.67v5.25H664.74V12.63Z"/><path class="cls-2" d="M60.65,15.49V39.63H56.42V28.74h-11V39.63H41.21V15.49h4.22v9.6h11v-9.6ZM37,39.63H32.76V15.49H37Zm-8.39,0H24.13l-11-17.75H13V39.63H9V15.49h4.46l11,17.78h.07V15.49h4V39.63Zm47-12.15L60.61.5h-55a5,5,0,0,0-5,5V49.53a5,5,0,0,0,5,5H60.56Z"/><path class="cls-1" d="M64.3,54.5l15-27L64.35.5h3.74A7,7,0,0,1,73.6,3.75L86.72,27.48,73.56,51.25A7,7,0,0,1,68,54.5Z"/></svg>