<svg id="Layer_1" data-name="Layer 1" xmlns="http://www.w3.org/2000/svg" viewBox="0 0 356 30"><defs><style>.cls-1{fill:#fff;}</style></defs><title>NIH_logo_white</title><path class="cls-1" d="M64.48,7.29h3.08v13.8H64.48L57.9,12.44v8.65H54.82V7.29h2.89l6.77,8.88Z"/><path class="cls-1" d="M80.61,21.09l-1.28-3H73.55l-1.29,3H69l6-13.8h3l6,13.8Zm-4.16-9.7-1.74,4h3.46Z"/><path class="cls-1" d="M89.7,10V21.09H86.62V10H82.71V7.29h10.9V10Z"/><path class="cls-1" d="M95.35,7.29h3.08v13.8H95.35Z"/><path class="cls-1" d="M113.19,19.18a7.51,7.51,0,0,1-10.31,0,6.82,6.82,0,0,1-2.09-5.08A6.86,6.86,0,0,1,102.88,9a7.53,7.53,0,0,1,10.31,0,6.86,6.86,0,0,1,2.09,5.09A6.82,6.82,0,0,1,113.19,19.18Zm-1-5.07A4.52,4.52,0,0,0,111,11a3.92,3.92,0,0,0-5.83,0A4.52,4.52,0,0,0,104,14.11a4.47,4.47,0,0,0,1.18,3.14,3.94,3.94,0,0,0,5.83,0A4.47,4.47,0,0,0,112.14,14.11Z"/><path class="cls-1" d="M127.26,7.29h3.08v13.8h-3.08l-6.57-8.65v8.65h-3.08V7.29h2.88l6.77,8.88V7.29Z"/><path class="cls-1" d="M143.4,21.09l-1.28-3h-5.79l-1.28,3h-3.28l6-13.8h3l6,13.8Zm-4.16-9.7-1.74,4H141Z"/><path class="cls-1" d="M148.12,21.09V7.29h3.08V18.34h5.88v2.75Z"/><path class="cls-1" d="M170.88,18.36a4.55,4.55,0,0,0,3.71-1.79l2,2a7.44,7.44,0,0,1-10.79.63,6.78,6.78,0,0,1-2.06-5.08A6.88,6.88,0,0,1,165.82,9,7.1,7.1,0,0,1,171,7a7.29,7.29,0,0,1,5.69,2.59l-1.92,2.17a4.48,4.48,0,0,0-3.63-1.82,4.21,4.21,0,0,0-3,1.14,3.94,3.94,0,0,0-1.24,3.06,4.18,4.18,0,0,0,1.17,3.09A3.83,3.83,0,0,0,170.88,18.36Z"/><path class="cls-1" d="M188.69,21.09l-1.28-3h-5.79l-1.28,3h-3.28l6-13.8h3l6,13.8Zm-4.17-9.7-1.73,4h3.45Z"/><path class="cls-1" d="M203.06,7.29h3.08v13.8h-3.08l-6.57-8.65v8.65h-3.08V7.29h2.88l6.77,8.88V7.29Z"/><path class="cls-1" d="M215.65,18.36a4.55,4.55,0,0,0,3.71-1.79l2,2a7.44,7.44,0,0,1-10.79.63,6.78,6.78,0,0,1-2.06-5.08A6.88,6.88,0,0,1,210.59,9a7.1,7.1,0,0,1,5.14-2,7.28,7.28,0,0,1,5.69,2.59l-1.92,2.17a4.48,4.48,0,0,0-3.63-1.82,4.21,4.21,0,0,0-3,1.14,4,4,0,0,0-1.24,3.06,4.18,4.18,0,0,0,1.17,3.09A3.83,3.83,0,0,0,215.65,18.36Z"/><path class="cls-1" d="M233.28,7.29V10H226.4v2.84h6.18V15.5H226.4v2.86h7.09v2.73H223.33V7.29Z"/><path class="cls-1" d="M247.3,11.87q0,3.32-2.63,4.28l3.5,4.94h-3.79l-3.06-4.4h-2.14v4.4h-3.07V7.29h5.23q3.21,0,4.59,1.08A4.22,4.22,0,0,1,247.3,11.87Zm-3.71,1.64a2.11,2.11,0,0,0,.57-1.63,1.74,1.74,0,0,0-.59-1.53,3.78,3.78,0,0,0-2.08-.42h-2.31V14h2.26A3.32,3.32,0,0,0,243.59,13.51Z"/><path class="cls-1" d="M255.67,7.29h3.08v13.8h-3.08Z"/><path class="cls-1" d="M271.56,7.29h3.08v13.8h-3.08L265,12.44v8.65h-3.08V7.29h2.88l6.77,8.88Z"/><path class="cls-1" d="M281,10a1.22,1.22,0,0,0-.44,1,1.1,1.1,0,0,0,.54,1,10.56,10.56,0,0,0,2.51.84,7,7,0,0,1,3,1.45,3.58,3.58,0,0,1,1.08,2.82,3.71,3.71,0,0,1-1.39,3,5.55,5.55,0,0,1-3.66,1.16,8.47,8.47,0,0,1-5.9-2.43l1.83-2.25a6.56,6.56,0,0,0,4.13,1.95,2.17,2.17,0,0,0,1.33-.36,1.2,1.2,0,0,0,.49-1,1.17,1.17,0,0,0-.52-1,6.78,6.78,0,0,0-2-.74A8.89,8.89,0,0,1,278.48,14a3.52,3.52,0,0,1-1.11-2.88,3.57,3.57,0,0,1,1.41-3A5.7,5.7,0,0,1,282.31,7a8.36,8.36,0,0,1,2.76.48,7.35,7.35,0,0,1,2.41,1.34L285.92,11a6.08,6.08,0,0,0-3.71-1.36A1.89,1.89,0,0,0,281,10Z"/><path class="cls-1" d="M296,10V21.09h-3.08V10H289V7.29h10.9V10Z"/><path class="cls-1" d="M301.61,7.29h3.08v13.8h-3.08Z"/><path class="cls-1" d="M313.42,10V21.09h-3.08V10h-3.91V7.29h10.9V10Z"/><path class="cls-1" d="M322.83,17.52a2.51,2.51,0,0,0,2.07,1,2.48,2.48,0,0,0,2.06-1,4.06,4.06,0,0,0,.76-2.61V7.29h3.08V15a6.16,6.16,0,0,1-1.65,4.61,6.4,6.4,0,0,1-8.5,0A6.1,6.1,0,0,1,319,15V7.29h3.08v7.62A4,4,0,0,0,322.83,17.52Z"/><path class="cls-1" d="M339.43,10V21.09h-3.08V10h-3.91V7.29h10.9V10Z"/><path class="cls-1" d="M355,7.29V10h-6.87v2.84h6.18V15.5h-6.18v2.86h7.08v2.73H345.09V7.29Z"/><path class="cls-1" d="M31.85,8.77V21.29H29.66V15.64H24v5.65h-2.2V8.77H24v5h5.69v-5ZM19.58,21.29H17.39V8.77h2.19Zm-4.35,0H12.92l-5.7-9.21h0v9.21H5.08V8.77H7.4L13.11,18h0V8.77h2.08V21.29ZM39.57,15,31.83,1H3.32A2.57,2.57,0,0,0,.75,3.58V26.42A2.58,2.58,0,0,0,3.32,29H31.81Z"/><path class="cls-1" d="M33.75,29l7.76-14L33.78,1h1.93a3.61,3.61,0,0,1,2.86,1.69L45.37,15,38.55,27.31A3.62,3.62,0,0,1,35.69,29Z"/></svg>