<svg id="Layer_1" data-name="Layer 1" xmlns="http://www.w3.org/2000/svg" viewBox="0 0 28 22"><defs><style>.cls-1{fill:#fff;}</style></defs><title>Other_icon</title><path class="cls-1" d="M20,8a6.13,6.13,0,0,1-1.31,3.75,9,9,0,0,1-3.54,2.74,11.8,11.8,0,0,1-4.9,1,11.67,11.67,0,0,1-5.2-1.17A8.23,8.23,0,0,1,.88,15.5a.33.33,0,0,1-.33-.23.37.37,0,0,1,.09-.43,4.68,4.68,0,0,0,.56-.75,7.5,7.5,0,0,0,1.08-1.78,6.07,6.07,0,0,1-.47-8.06A9,9,0,0,1,5.35,1.51a11.8,11.8,0,0,1,4.9-1,11.8,11.8,0,0,1,4.9,1,9,9,0,0,1,3.54,2.74A6.13,6.13,0,0,1,20,8Zm5.72,10.31a8.41,8.41,0,0,0,1.08,1.83,5.87,5.87,0,0,0,.56.7.37.37,0,0,1,.09.43.33.33,0,0,1-.33.23A8.23,8.23,0,0,1,23,20.33a11.67,11.67,0,0,1-5.2,1.17,11.57,11.57,0,0,1-5.44-1.27,8.22,8.22,0,0,1-3.56-3.32,14.24,14.24,0,0,0,1.5.09,13.06,13.06,0,0,0,5.63-1.22A10.65,10.65,0,0,0,20,12.5,7.47,7.47,0,0,0,21.5,8a8.9,8.9,0,0,0-.05-.94A9.54,9.54,0,0,1,25.81,9.8a6.22,6.22,0,0,1,1.69,4.25A6.11,6.11,0,0,1,25.72,18.31Z"/></svg>