<svg id="Layer_1" data-name="Layer 1" xmlns="http://www.w3.org/2000/svg" viewBox="0 0 500 180"><defs><style>.cls-1{fill:#004568;}.cls-2,.cls-4{fill:none;stroke-miterlimit:10;}.cls-2{stroke:#cb4c45;stroke-width:0.5px;}.cls-3{fill:#bfd0d9;}.cls-4{stroke:#fff;stroke-width:0.35px;}.cls-5{fill:#7fa2b3;}.cls-6{fill:#40748e;}</style></defs><title>PERSONAL_crimes</title><path class="cls-1" d="M251.87,33.06c0,2.68-2.14,4.35-5.54,4.35s-5.5-1.67-5.5-4.35a3.76,3.76,0,0,1,2.75-3.73A3.41,3.41,0,0,1,241.34,26c0-2.47,2-4,5-4s5,1.54,5,4a3.42,3.42,0,0,1-2.28,3.33A3.79,3.79,0,0,1,251.87,33.06Zm-1.51,0c0-1.86-1.51-3-4-3s-4,1.17-4,3,1.49,3.06,4,3.06S250.36,34.92,250.36,33Zm-4-4.26c2.22,0,3.54-1.06,3.54-2.71s-1.4-2.75-3.54-2.75-3.52,1-3.52,2.73S244.11,28.77,246.33,28.77Z"/><path class="cls-1" d="M253.9,29.7c0-4.83,2.38-7.71,5.68-7.71s5.7,2.88,5.7,7.71-2.4,7.71-5.7,7.71S253.9,34.53,253.9,29.7Zm9.87,0c0-4.05-1.71-6.28-4.19-6.28s-4.19,2.23-4.19,6.28S257.1,36,259.58,36,263.77,33.75,263.77,29.7Z"/><path class="cls-1" d="M267.4,36.2A1.11,1.11,0,0,1,268.48,35a1.13,1.13,0,0,1,1.1,1.17,1.15,1.15,0,0,1-1.1,1.19A1.14,1.14,0,0,1,267.4,36.2Z"/><path class="cls-1" d="M282.4,32.75a4.56,4.56,0,0,1-4.87,4.66c-3.78,0-5.84-2.79-5.84-7.58,0-5.15,2.65-7.84,6.52-7.84a6.22,6.22,0,0,1,3.37.82L281,24.07a4.72,4.72,0,0,0-2.76-.71c-3.08,0-5.05,2.1-5.05,6.21,0,.35,0,.78.06,1.24a4.51,4.51,0,0,1,4.36-2.6C280.42,28.21,282.4,30,282.4,32.75Zm-1.45,0c0-2-1.38-3.27-3.58-3.27a3.37,3.37,0,0,0-3.66,3.31c0,1.67,1.3,3.25,3.76,3.25A3.2,3.2,0,0,0,281,32.8Z"/><path class="cls-1" d="M308.15,33.23h-7.94l-1.71,4.05h-1.57l6.52-15.16h1.48l6.52,15.16h-1.59Zm-.55-1.3-3.42-8.14-3.42,8.14Z"/><path class="cls-1" d="M312,36l.65-1.21a6.22,6.22,0,0,0,3.8,1.27c2,0,2.87-.73,2.87-1.86,0-3-6.94-.63-6.94-5.13,0-1.86,1.51-3.25,4.24-3.25a6.9,6.9,0,0,1,3.78,1.06l-.63,1.24a5.25,5.25,0,0,0-3.15-1c-1.94,0-2.79.81-2.79,1.89,0,3.07,6.94.76,6.94,5.13,0,2-1.63,3.25-4.42,3.25A6.84,6.84,0,0,1,312,36Z"/><path class="cls-1" d="M322,36l.65-1.21A6.25,6.25,0,0,0,326.43,36c2,0,2.87-.73,2.87-1.86,0-3-6.94-.63-6.94-5.13,0-1.86,1.5-3.25,4.23-3.25a6.93,6.93,0,0,1,3.79,1.06l-.63,1.24a5.3,5.3,0,0,0-3.16-1c-1.93,0-2.79.81-2.79,1.89,0,3.07,6.94.76,6.94,5.13,0,2-1.62,3.25-4.41,3.25A6.89,6.89,0,0,1,322,36Z"/><path class="cls-1" d="M341.49,30.22v7.06h-1.38V35.5a4,4,0,0,1-3.69,1.89c-2.42,0-3.91-1.35-3.91-3.32,0-1.75,1.06-3.22,4.14-3.22h3.4v-.7a2.7,2.7,0,0,0-3-3,5.28,5.28,0,0,0-3.56,1.34l-.65-1.15a6.58,6.58,0,0,1,4.36-1.54C339.92,25.8,341.49,27.28,341.49,30.22Zm-1.44,3.64V32h-3.36c-2.08,0-2.75.86-2.75,2s1,2.14,2.71,2.14A3.42,3.42,0,0,0,340.05,33.86Z"/><path class="cls-1" d="M355.07,25.89V37.28h-1.39V35.2a4.18,4.18,0,0,1-3.84,2.19c-2.73,0-4.52-1.63-4.52-4.9v-6.6h1.44v6.45c0,2.43,1.18,3.66,3.22,3.66,2.24,0,3.64-1.54,3.64-4.13v-6Z"/><path class="cls-1" d="M359.12,21.21h1.44V37.28h-1.44Z"/><path class="cls-1" d="M370.23,36.59a3.31,3.31,0,0,1-2.26.8c-2,0-3.13-1.22-3.13-3.32V27.19h-1.91v-1.3h1.91V23.4h1.45v2.49h3.25v1.3h-3.25V34c0,1.34.65,2.08,1.85,2.08a2.28,2.28,0,0,0,1.58-.59Z"/><path class="cls-1" d="M249.91,55.13V70.28h-1.46V56.51h-3.36V55.13Z"/><path class="cls-1" d="M253.31,62.7c0-4.82,2.38-7.7,5.68-7.7s5.7,2.88,5.7,7.7-2.4,7.71-5.7,7.71S253.31,67.53,253.31,62.7Zm9.87,0c0-4-1.71-6.27-4.19-6.27s-4.19,2.23-4.19,6.27S256.51,69,259,69,263.18,66.75,263.18,62.7Z"/><path class="cls-1" d="M266.81,69.2A1.11,1.11,0,0,1,267.88,68,1.13,1.13,0,0,1,269,69.2a1.14,1.14,0,0,1-1.1,1.19A1.13,1.13,0,0,1,266.81,69.2Z"/><path class="cls-1" d="M282.05,66.06c0,2.69-2.13,4.35-5.53,4.35s-5.5-1.66-5.5-4.35a3.74,3.74,0,0,1,2.75-3.72A3.42,3.42,0,0,1,271.53,59c0-2.47,2-4,5-4s5,1.53,5,4a3.43,3.43,0,0,1-2.28,3.34A3.77,3.77,0,0,1,282.05,66.06Zm-1.5,0c0-1.86-1.51-3-4-3s-4,1.17-4,3,1.48,3,4,3S280.55,67.92,280.55,66Zm-4-4.27c2.21,0,3.54-1.06,3.54-2.7s-1.41-2.75-3.54-2.75-3.53,1-3.53,2.73S274.3,61.77,276.52,61.77Z"/><path class="cls-1" d="M308.94,70.28l-3.25-4.87a10.42,10.42,0,0,1-1.14.07h-3.83v4.8h-1.51V55.13h5.34c3.62,0,5.82,1.94,5.82,5.19a4.69,4.69,0,0,1-3.26,4.77l3.48,5.19Zm-.08-10c0-2.42-1.5-3.81-4.35-3.81h-3.79v7.6h3.79C307.36,64.11,308.86,62.7,308.86,60.32Z"/><path class="cls-1" d="M312.55,64.59A5.44,5.44,0,0,1,318,58.81c3.14,0,5.44,2.4,5.44,5.78s-2.3,5.8-5.44,5.8A5.45,5.45,0,0,1,312.55,64.59Zm9.42,0c0-2.66-1.69-4.44-4-4.44s-4,1.78-4,4.44S315.72,69,318,69,322,67.25,322,64.59Z"/><path class="cls-1" d="M337.24,64.59c0,3.44-2.28,5.8-5.34,5.8A4.57,4.57,0,0,1,327.77,68v2.25h-1.38V54.22h1.44v6.84a4.61,4.61,0,0,1,4.07-2.25C335,58.81,337.24,61.15,337.24,64.59Zm-1.45,0c0-2.66-1.73-4.44-4-4.44s-4,1.78-4,4.44,1.71,4.44,4,4.44S335.79,67.25,335.79,64.59Z"/><path class="cls-1" d="M351,64.59c0,3.44-2.28,5.8-5.33,5.8A4.58,4.58,0,0,1,341.57,68v2.25h-1.38V54.22h1.44v6.84a4.63,4.63,0,0,1,4.08-2.25C348.76,58.81,351,61.15,351,64.59Zm-1.45,0c0-2.66-1.73-4.44-4-4.44s-4,1.78-4,4.44,1.71,4.44,4,4.44S349.59,67.25,349.59,64.59Z"/><path class="cls-1" d="M363.31,65.06h-8.95a4.06,4.06,0,0,0,4.21,4,4.12,4.12,0,0,0,3.28-1.5l.81,1a5.13,5.13,0,0,1-4.13,1.86,5.47,5.47,0,0,1-5.62-5.8c0-3.38,2.22-5.78,5.23-5.78s5.19,2.36,5.19,5.78C363.33,64.72,363.31,64.89,363.31,65.06Zm-8.95-1.14H362a3.8,3.8,0,0,0-7.59,0Z"/><path class="cls-1" d="M371.68,58.81V60.3l-.35,0c-2.24,0-3.6,1.52-3.6,4.2v5.8h-1.44V58.89h1.38v2.23A4,4,0,0,1,371.68,58.81Z"/><path class="cls-1" d="M383.44,58.89l-5.35,12.76c-.9,2.23-2,2.94-3.56,2.94a3.56,3.56,0,0,1-2.61-1l.67-1.15a2.59,2.59,0,0,0,2,.87c.95,0,1.61-.48,2.22-1.9l.47-1.11-4.79-11.37H374l4,9.68,4-9.68Z"/><path class="cls-1" d="M265.67,98.76a4.55,4.55,0,0,1-4.87,4.65c-3.78,0-5.84-2.79-5.84-7.57,0-5.16,2.65-7.84,6.51-7.84a6.23,6.23,0,0,1,3.38.82l-.59,1.26a4.76,4.76,0,0,0-2.77-.72c-3.07,0-5,2.1-5,6.22,0,.34,0,.78.06,1.23a4.5,4.5,0,0,1,4.35-2.6C263.69,94.21,265.67,96,265.67,98.76Zm-1.45,0c0-2-1.38-3.27-3.58-3.27A3.38,3.38,0,0,0,257,98.85c0,1.66,1.31,3.24,3.77,3.24A3.19,3.19,0,0,0,264.22,98.8Z"/><path class="cls-1" d="M267.38,102.2a1.09,1.09,0,1,1,2.17,0,1.09,1.09,0,1,1-2.17,0Z"/><path class="cls-1" d="M282,95.58c0,5.15-2.65,7.83-6.51,7.83a6.17,6.17,0,0,1-3.38-.82l.59-1.25a4.75,4.75,0,0,0,2.77.71c3.07,0,5-2.1,5-6.21a11.47,11.47,0,0,0-.06-1.24,4.5,4.5,0,0,1-4.35,2.6c-2.83,0-4.81-1.78-4.81-4.55A4.56,4.56,0,0,1,276.11,88C279.9,88,282,90.79,282,95.58Zm-2-3c0-1.67-1.31-3.25-3.77-3.25a3.2,3.2,0,0,0-3.48,3.29c0,2,1.38,3.27,3.58,3.27A3.38,3.38,0,0,0,279.94,92.57Z"/><path class="cls-1" d="M309,103.28l-3.26-4.87a8.31,8.31,0,0,1-1.14.07h-3.83v4.8h-1.5V88.13h5.33c3.62,0,5.82,2,5.82,5.19a4.68,4.68,0,0,1-3.26,4.77l3.48,5.19Zm-.09-10c0-2.42-1.5-3.81-4.35-3.81h-3.79v7.6h3.79C307.38,97.11,308.88,95.71,308.88,93.32Z"/><path class="cls-1" d="M321.73,96.23v7h-1.39v-1.77a3.94,3.94,0,0,1-3.68,1.88c-2.42,0-3.91-1.34-3.91-3.31,0-1.75,1.06-3.23,4.13-3.23h3.4v-.69a2.7,2.7,0,0,0-3-3,5.26,5.26,0,0,0-3.56,1.34L313,93.35a6.5,6.5,0,0,1,4.35-1.54C320.16,91.81,321.73,93.28,321.73,96.23Zm-1.45,3.63V98h-3.36c-2.07,0-2.74.87-2.74,2s1,2.14,2.7,2.14A3.42,3.42,0,0,0,320.28,99.86Z"/><path class="cls-1" d="M336.51,97.59c0,3.46-2.28,5.8-5.34,5.8a4.61,4.61,0,0,1-4.07-2.25v6.34h-1.44V91.9H327v2.25a4.59,4.59,0,0,1,4.13-2.34C334.23,91.81,336.51,94.15,336.51,97.59Zm-1.45,0c0-2.64-1.73-4.44-4-4.44s-4,1.8-4,4.44,1.71,4.44,4,4.44S335.06,100.25,335.06,97.59Z"/><path class="cls-1" d="M348.78,98.07h-8.95a4.06,4.06,0,0,0,4.21,4,4.12,4.12,0,0,0,3.28-1.5l.81,1a5.13,5.13,0,0,1-4.13,1.86,5.47,5.47,0,0,1-5.62-5.8c0-3.38,2.22-5.78,5.23-5.78s5.19,2.36,5.19,5.78C348.8,97.72,348.78,97.89,348.78,98.07Zm-8.95-1.15h7.59a3.8,3.8,0,0,0-7.59,0Z"/><path class="cls-1" d="M356,85.05h1.32l-6.72,20.4h-1.32Z"/><path class="cls-1" d="M357.09,102l.65-1.22a6.16,6.16,0,0,0,3.8,1.28c2,0,2.87-.74,2.87-1.86,0-3-6.94-.63-6.94-5.13,0-1.87,1.51-3.25,4.24-3.25a6.9,6.9,0,0,1,3.78,1.06l-.63,1.23a5.26,5.26,0,0,0-3.15-1c-1.94,0-2.79.8-2.79,1.88,0,3.08,6.94.76,6.94,5.13,0,2-1.63,3.25-4.42,3.25A6.84,6.84,0,0,1,357.09,102Z"/><path class="cls-1" d="M377.85,98.07h-9a4.26,4.26,0,0,0,7.49,2.46l.82,1a5.15,5.15,0,0,1-4.13,1.86,5.47,5.47,0,0,1-5.62-5.8c0-3.38,2.22-5.78,5.23-5.78s5.19,2.36,5.19,5.78C377.87,97.72,377.85,97.89,377.85,98.07Zm-9-1.15h7.59a3.8,3.8,0,0,0-7.59,0Z"/><path class="cls-1" d="M387.64,103.28l-3.4-4.76-3.42,4.76h-1.63l4.24-5.84-4-5.54H381l3.22,4.46,3.22-4.46H389l-4,5.54,4.28,5.84Z"/><path class="cls-1" d="M401.34,91.9v11.38H400v-2.07a4.22,4.22,0,0,1-3.85,2.18c-2.73,0-4.52-1.62-4.52-4.89V91.9H393v6.45c0,2.42,1.18,3.66,3.22,3.66,2.24,0,3.64-1.54,3.64-4.14v-6Z"/><path class="cls-1" d="M413.47,96.23v7h-1.38v-1.77a4,4,0,0,1-3.69,1.88c-2.42,0-3.91-1.34-3.91-3.31,0-1.75,1.06-3.23,4.14-3.23H412v-.69a2.71,2.71,0,0,0-3-3,5.28,5.28,0,0,0-3.56,1.34l-.65-1.14a6.52,6.52,0,0,1,4.36-1.54C411.9,91.81,413.47,93.28,413.47,96.23ZM412,99.86V98h-3.36c-2.08,0-2.75.87-2.75,2s1,2.14,2.71,2.14A3.43,3.43,0,0,0,412,99.86Z"/><path class="cls-1" d="M417.4,87.22h1.44v16.06H417.4Z"/><path class="cls-1" d="M436.29,96.23v7h-1.38v-1.77a4,4,0,0,1-3.69,1.88c-2.42,0-3.91-1.34-3.91-3.31,0-1.75,1.06-3.23,4.14-3.23h3.39v-.69a2.7,2.7,0,0,0-3-3,5.26,5.26,0,0,0-3.56,1.34l-.65-1.14A6.5,6.5,0,0,1,432,91.81C434.72,91.81,436.29,93.28,436.29,96.23Zm-1.45,3.63V98h-3.35c-2.08,0-2.75.87-2.75,2s1,2.14,2.71,2.14A3.42,3.42,0,0,0,434.84,99.86Z"/><path class="cls-1" d="M438.73,102l.65-1.22a6.19,6.19,0,0,0,3.81,1.28c2,0,2.87-.74,2.87-1.86,0-3-6.94-.63-6.94-5.13,0-1.87,1.5-3.25,4.23-3.25a6.93,6.93,0,0,1,3.79,1.06l-.63,1.23a5.29,5.29,0,0,0-3.16-1c-1.93,0-2.79.8-2.79,1.88,0,3.08,6.95.76,6.95,5.13,0,2-1.63,3.25-4.42,3.25A6.89,6.89,0,0,1,438.73,102Z"/><path class="cls-1" d="M448.69,102l.65-1.22a6.16,6.16,0,0,0,3.8,1.28c2,0,2.87-.74,2.87-1.86,0-3-6.94-.63-6.94-5.13,0-1.87,1.51-3.25,4.24-3.25a6.9,6.9,0,0,1,3.78,1.06l-.63,1.23a5.24,5.24,0,0,0-3.15-1c-1.94,0-2.79.8-2.79,1.88,0,3.08,6.94.76,6.94,5.13,0,2-1.63,3.25-4.42,3.25A6.84,6.84,0,0,1,448.69,102Z"/><path class="cls-1" d="M468.21,96.23v7h-1.39v-1.77a3.94,3.94,0,0,1-3.68,1.88c-2.42,0-3.91-1.34-3.91-3.31,0-1.75,1.06-3.23,4.13-3.23h3.4v-.69a2.7,2.7,0,0,0-3-3,5.24,5.24,0,0,0-3.56,1.34l-.65-1.14a6.48,6.48,0,0,1,4.35-1.54C466.64,91.81,468.21,93.28,468.21,96.23Zm-1.45,3.63V98H463.4c-2.07,0-2.74.87-2.74,2s1,2.14,2.7,2.14A3.42,3.42,0,0,0,466.76,99.86Z"/><path class="cls-1" d="M481.78,91.9v11.38H480.4v-2.07a4.21,4.21,0,0,1-3.85,2.18c-2.72,0-4.52-1.62-4.52-4.89V91.9h1.45v6.45c0,2.42,1.18,3.66,3.22,3.66,2.23,0,3.64-1.54,3.64-4.14v-6Z"/><path class="cls-1" d="M485.84,87.22h1.44v16.06h-1.44Z"/><path class="cls-1" d="M497,102.59a3.33,3.33,0,0,1-2.26.8c-2,0-3.13-1.21-3.13-3.31V93.19h-1.92V91.9h1.92V89.41H493V91.9h3.26v1.29H493V100c0,1.35.65,2.08,1.85,2.08a2.31,2.31,0,0,0,1.59-.58Z"/><path class="cls-1" d="M263.39,121.13v15.16h-1.47V122.52h-3.36v-1.39Z"/><path class="cls-1" d="M266.81,135.2a1.12,1.12,0,0,1,1.08-1.17,1.13,1.13,0,0,1,1.1,1.17,1.14,1.14,0,0,1-1.1,1.19A1.13,1.13,0,0,1,266.81,135.2Z"/><path class="cls-1" d="M282.05,132.06c0,2.69-2.13,4.36-5.53,4.36s-5.5-1.67-5.5-4.36a3.76,3.76,0,0,1,2.75-3.72,3.41,3.41,0,0,1-2.24-3.34c0-2.46,2-4,5-4s5,1.54,5,4a3.42,3.42,0,0,1-2.28,3.34A3.77,3.77,0,0,1,282.05,132.06Zm-1.5,0c0-1.86-1.51-3-4-3s-4,1.17-4,3,1.48,3.06,4,3.06S280.55,133.93,280.55,132Zm-4-4.26c2.22,0,3.54-1.06,3.54-2.71s-1.41-2.75-3.54-2.75-3.52,1-3.52,2.73S274.3,127.78,276.52,127.78Z"/><path class="cls-1" d="M310.39,126.33c0,3.22-2.2,5.17-5.82,5.17h-3.83v4.79h-1.5V121.13h5.33C308.19,121.13,310.39,123.08,310.39,126.33Zm-1.51,0c0-2.43-1.5-3.81-4.35-3.81h-3.79v7.57h3.79C307.38,130.09,308.88,128.71,308.88,126.33Z"/><path class="cls-1" d="M323.19,124.9v11.39h-1.38v-2.08a4.21,4.21,0,0,1-3.85,2.18c-2.72,0-4.52-1.62-4.52-4.89v-6.6h1.45v6.45c0,2.42,1.18,3.66,3.22,3.66,2.23,0,3.64-1.54,3.64-4.14v-6Z"/><path class="cls-1" d="M332.64,124.81v1.49l-.35,0c-2.24,0-3.6,1.52-3.6,4.2v5.81h-1.44V124.9h1.38v2.23A4,4,0,0,1,332.64,124.81Z"/><path class="cls-1" d="M333.92,135l.65-1.22a6.19,6.19,0,0,0,3.81,1.28c2,0,2.87-.73,2.87-1.86,0-3-6.94-.63-6.94-5.13,0-1.86,1.5-3.25,4.23-3.25a6.93,6.93,0,0,1,3.79,1.06l-.63,1.24a5.23,5.23,0,0,0-3.16-1c-1.93,0-2.79.8-2.79,1.88,0,3.08,6.94.76,6.94,5.14,0,2-1.62,3.24-4.41,3.24A6.89,6.89,0,0,1,333.92,135Z"/><path class="cls-1" d="M354.68,131.07h-8.95a4.06,4.06,0,0,0,4.21,4,4.14,4.14,0,0,0,3.28-1.49l.81,1a5.09,5.09,0,0,1-4.13,1.86,5.47,5.47,0,0,1-5.62-5.8c0-3.38,2.22-5.78,5.23-5.78s5.19,2.36,5.19,5.78C354.7,130.72,354.68,130.89,354.68,131.07Zm-8.95-1.15h7.59a3.8,3.8,0,0,0-7.59,0Z"/><path class="cls-1" d="M361.5,135l.65-1.22a6.19,6.19,0,0,0,3.81,1.28c2,0,2.87-.73,2.87-1.86,0-3-6.94-.63-6.94-5.13,0-1.86,1.51-3.25,4.23-3.25a6.93,6.93,0,0,1,3.79,1.06l-.63,1.24a5.23,5.23,0,0,0-3.16-1c-1.93,0-2.79.8-2.79,1.88,0,3.08,6.95.76,6.95,5.14,0,2-1.63,3.24-4.42,3.24A6.89,6.89,0,0,1,361.5,135Z"/><path class="cls-1" d="M382.79,129.68v6.61h-1.44v-6.46c0-2.4-1.18-3.63-3.22-3.63-2.3,0-3.74,1.51-3.74,4.11v6h-1.45V124.9h1.39V127a4.42,4.42,0,0,1,4.07-2.19C381,124.81,382.79,126.41,382.79,129.68Z"/><path class="cls-1" d="M394.8,129.23v7.06h-1.38v-1.78a3.94,3.94,0,0,1-3.68,1.88c-2.43,0-3.91-1.34-3.91-3.31,0-1.75,1.06-3.22,4.13-3.22h3.4v-.7a2.7,2.7,0,0,0-3-3,5.25,5.25,0,0,0-3.57,1.35l-.65-1.15a6.52,6.52,0,0,1,4.36-1.54C393.24,124.81,394.8,126.28,394.8,129.23Zm-1.44,3.64V131H390c-2.08,0-2.75.87-2.75,2,0,1.32,1,2.14,2.71,2.14A3.42,3.42,0,0,0,393.36,132.87Z"/><path class="cls-1" d="M404.37,135.59a3.31,3.31,0,0,1-2.26.8c-2,0-3.13-1.21-3.13-3.31V126.2h-1.92v-1.3H399v-2.49h1.44v2.49h3.26v1.3h-3.26V133c0,1.34.65,2.07,1.85,2.07a2.28,2.28,0,0,0,1.59-.58Z"/><path class="cls-1" d="M405.92,130.59a5.44,5.44,0,0,1,5.51-5.78,4.61,4.61,0,0,1,4.2,2.25l-1.08.78a3.57,3.57,0,0,0-3.12-1.69c-2.34,0-4.05,1.78-4.05,4.44s1.71,4.44,4.05,4.44a3.55,3.55,0,0,0,3.12-1.67l1.08.78a4.63,4.63,0,0,1-4.2,2.25A5.45,5.45,0,0,1,405.92,130.59Z"/><path class="cls-1" d="M428.31,129.68v6.61h-1.45v-6.46c0-2.4-1.18-3.63-3.21-3.63-2.3,0-3.75,1.51-3.75,4.11v6h-1.44V120.22h1.44v6.67a4.45,4.45,0,0,1,4-2.08C426.52,124.81,428.31,126.41,428.31,129.68Z"/><path class="cls-1" d="M431.91,121.3a1.08,1.08,0,0,1,1.06-1.08,1.06,1.06,0,0,1,1.06,1.06,1.06,1.06,0,1,1-2.12,0Zm.33,3.6h1.44v11.39h-1.44Z"/><path class="cls-1" d="M447.57,129.68v6.61h-1.45v-6.46c0-2.4-1.18-3.63-3.21-3.63-2.31,0-3.75,1.51-3.75,4.11v6h-1.45V124.9h1.39V127a4.42,4.42,0,0,1,4.07-2.19C445.78,124.81,447.57,126.41,447.57,129.68Z"/><path class="cls-1" d="M461.41,124.9v10c0,3.92-1.81,5.69-5.36,5.69a7.15,7.15,0,0,1-5-1.75l.73-1.17a6.11,6.11,0,0,0,4.21,1.56c2.71,0,3.95-1.32,3.95-4.13v-1.46a4.7,4.7,0,0,1-4.17,2.21,5.52,5.52,0,0,1,0-11,4.74,4.74,0,0,1,4.23,2.27V124.9ZM460,130.31a4.06,4.06,0,1,0-4.07,4.18A3.95,3.95,0,0,0,460,130.31Z"/><path class="cls-1" d="M469.65,118.05H471l-6.71,20.4h-1.33Z"/><path class="cls-1" d="M309.76,155.34c0,3.47-2.28,5.81-5.33,5.81a4.61,4.61,0,0,1-4.08-2.26v6.35h-1.44V149.65h1.38v2.25a4.61,4.61,0,0,1,4.14-2.34C307.48,149.56,309.76,151.9,309.76,155.34Zm-1.45,0c0-2.64-1.73-4.43-4-4.43s-4,1.79-4,4.43,1.71,4.44,4,4.44S308.31,158,308.31,155.34Z"/><path class="cls-1" d="M311.63,155.34a5.44,5.44,0,0,1,5.46-5.78c3.13,0,5.43,2.41,5.43,5.78s-2.3,5.81-5.43,5.81A5.46,5.46,0,0,1,311.63,155.34Zm9.43,0c0-2.66-1.69-4.43-4-4.43s-4,1.77-4,4.43,1.71,4.44,4,4.44S321.06,158,321.06,155.34Z"/><path class="cls-1" d="M324.4,155.34a5.44,5.44,0,0,1,5.51-5.78,4.6,4.6,0,0,1,4.19,2.25l-1.07.78a3.6,3.6,0,0,0-3.12-1.68c-2.34,0-4.05,1.77-4.05,4.43s1.71,4.44,4.05,4.44a3.59,3.59,0,0,0,3.12-1.66l1.07.77a4.62,4.62,0,0,1-4.19,2.26A5.46,5.46,0,0,1,324.4,155.34Z"/><path class="cls-1" d="M340.9,155.32l-2.52,2.47V161h-1.45V145h1.45v10.89l6.39-6.21h1.79L342,154.3l5,6.74h-1.77Z"/><path class="cls-1" d="M358.49,155.82h-9a4.26,4.26,0,0,0,7.49,2.47l.82,1a5.11,5.11,0,0,1-4.13,1.87,5.48,5.48,0,0,1-5.62-5.81c0-3.37,2.22-5.78,5.23-5.78s5.19,2.36,5.19,5.78C358.51,155.47,358.49,155.65,358.49,155.82Zm-9-1.15h7.6a3.8,3.8,0,0,0-7.6,0Z"/><path class="cls-1" d="M367.1,160.34a3.27,3.27,0,0,1-2.26.81c-2,0-3.13-1.22-3.13-3.32V151h-1.92v-1.3h1.92v-2.49h1.44v2.49h3.26V151h-3.26v6.8c0,1.34.65,2.08,1.85,2.08a2.32,2.32,0,0,0,1.59-.59Z"/><path class="cls-1" d="M385.91,155.34c0,3.47-2.28,5.81-5.33,5.81a4.61,4.61,0,0,1-4.08-2.26v6.35h-1.44V149.65h1.38v2.25a4.61,4.61,0,0,1,4.14-2.34C383.63,149.56,385.91,151.9,385.91,155.34Zm-1.45,0c0-2.64-1.73-4.43-4-4.43s-4,1.79-4,4.43,1.7,4.44,4,4.44S384.46,158,384.46,155.34Z"/><path class="cls-1" d="M388.54,146.05a1.06,1.06,0,1,1,1,1.11A1.07,1.07,0,0,1,388.54,146.05Zm.32,3.6h1.45V161h-1.45Z"/><path class="cls-1" d="M393.26,155.34a5.44,5.44,0,0,1,5.51-5.78,4.61,4.61,0,0,1,4.2,2.25l-1.08.78a3.58,3.58,0,0,0-3.12-1.68c-2.34,0-4,1.77-4,4.43s1.71,4.44,4,4.44a3.56,3.56,0,0,0,3.12-1.66l1.08.77a4.64,4.64,0,0,1-4.2,2.26A5.46,5.46,0,0,1,393.26,155.34Z"/><path class="cls-1" d="M409.77,155.32l-2.53,2.47V161H405.8V145h1.44v10.89l6.39-6.21h1.79l-4.58,4.65,5,6.74h-1.77Z"/><path class="cls-1" d="M417.71,146.05a1.06,1.06,0,1,1,1.05,1.11A1.07,1.07,0,0,1,417.71,146.05Zm.32,3.6h1.45V161H418Z"/><path class="cls-1" d="M433.36,154.43V161h-1.45v-6.45c0-2.41-1.18-3.64-3.21-3.64-2.3,0-3.75,1.51-3.75,4.11v6h-1.44V149.65h1.38v2.1a4.42,4.42,0,0,1,4.07-2.19C431.57,149.56,433.36,151.17,433.36,154.43Z"/><path class="cls-1" d="M447.2,149.65v10c0,3.92-1.81,5.7-5.35,5.7a7.17,7.17,0,0,1-5-1.76l.73-1.17a6.13,6.13,0,0,0,4.22,1.56c2.7,0,3.94-1.32,3.94-4.13V158.4a4.72,4.72,0,0,1-4.17,2.21,5.53,5.53,0,0,1,0-11.05,4.76,4.76,0,0,1,4.24,2.28v-2.19Zm-1.41,5.41a4.06,4.06,0,1,0-4.07,4.18A3.94,3.94,0,0,0,445.79,155.06Z"/><line class="cls-2" x1="230.35" y1="131.6" x2="129.14" y2="131.6"/><line class="cls-2" x1="230.35" y1="63.35" x2="119.24" y2="63.35"/><polyline class="cls-2" points="230.35 98.64 195.11 98.64 195.11 109.27 153.75 109.27"/><polyline class="cls-2" points="230.35 31.03 195.11 31.03 195.11 22.85 114.14 22.85"/><path class="cls-3" d="M89.6,90l78.7,37.43a89.94,89.94,0,0,1-5.15,9.32Z"/><path class="cls-4" d="M89.6,90l78.7,37.43a89.94,89.94,0,0,1-5.15,9.32Z"/><path class="cls-5" d="M89.6,90l87.15.67a83.46,83.46,0,0,1-8.45,36.76Z"/><path class="cls-4" d="M89.6,90l87.15.67a83.46,83.46,0,0,1-8.45,36.76Z"/><path class="cls-6" d="M89.6,90l69.09-53.13c12.55,16.33,18.22,33.2,18.06,53.8Z"/><path class="cls-4" d="M89.6,90l69.09-53.13c12.55,16.33,18.22,33.2,18.06,53.8Z"/><path class="cls-1" d="M89.6,90l73.55,46.75a87.15,87.15,0,1,1-26.8-120.3,82.4,82.4,0,0,1,22.34,20.42Z"/><path class="cls-4" d="M89.6,90l73.55,46.75a87.15,87.15,0,1,1-26.8-120.3,82.4,82.4,0,0,1,22.34,20.42Z"/></svg>