<svg id="Layer_1" data-name="Layer 1" xmlns="http://www.w3.org/2000/svg" viewBox="0 0 15 16"><defs><style>.cls-1{fill:#cb4c45;}</style></defs><title>phone_icon</title><path class="cls-1" d="M2.55,8.46C1.21,6.65.17,4.64.27,2.83a1.59,1.59,0,0,1,.06-.3A3.47,3.47,0,0,1,1.6,1.09,3.42,3.42,0,0,1,3.68.38a2.07,2.07,0,0,1,.55.11L4.39.6a15,15,0,0,1,.93,1.46c.42.72.85,1.49,1,1.78C6.58,4.52,6,5.43,5.57,6c-.11.17-.24.09-.22.19A17.28,17.28,0,0,0,7.12,8.34c.79.87,1.55,1.69,1.72,1.83L9.17,10A3.43,3.43,0,0,1,11,9.41h.06A17,17,0,0,1,13.5,11c.65.51,1.17,1,1.23,1.38v.07a4.18,4.18,0,0,1-1.11,2,3,3,0,0,1-1.93,1.2,6,6,0,0,1-2.81-1A18.79,18.79,0,0,1,6.56,12.9h0a37.3,37.3,0,0,1-4-4.43Z"/></svg>