<svg id="Layer_1" data-name="Layer 1" xmlns="http://www.w3.org/2000/svg" viewBox="0 0 119 119"><defs><style>.cls-1{fill:#fff;stroke:#fff;stroke-miterlimit:10;stroke-width:6.04px;}.cls-2{fill:#00467f;}.cls-3{fill:#00a99d;}</style></defs><title>PRO-CTCAE_logo</title><circle class="cls-1" cx="59.5" cy="59.4" r="55.25"/><path class="cls-2" d="M91.92,14.64C74.3,42.86,59.33,103.33,56.6,114.78c1,0,1.93.08,2.9.08A55.35,55.35,0,0,0,91.92,14.64Z"/><path class="cls-3" d="M91.53,14.36A55.35,55.35,0,1,0,56.17,114.75c.88-67.19-23.93-80.56-23.93-80.56C57.79,43.27,79.91,26.27,91.53,14.36Zm-34.44-5a9.38,9.38,0,1,1-9.38,9.38A9.38,9.38,0,0,1,57.09,9.34Z"/></svg>