<svg id="Layer_1" data-name="Layer 1" xmlns="http://www.w3.org/2000/svg" viewBox="0 0 124 35"><defs><style>.cls-1{fill:#fff;stroke:#00467f;stroke-linecap:round;stroke-linejoin:round;stroke-width:0.9px;}.cls-2{fill:#00467f;}</style></defs><title>progress_symptom_off</title><polygon class="cls-1" points="1.07 33.65 1.07 33.65 1.07 33.65 11.33 17.5 1.07 1.35 1.07 1.35 1.07 1.35 1.07 1.35 112.67 1.35 122.93 17.5 112.67 33.65 112.67 33.65 112.67 33.65 1.07 33.65 1.07 33.65"/><path class="cls-2" d="M28,21.26l.9-1a4.57,4.57,0,0,0,3.24,1.46c1.55,0,2.47-.77,2.47-1.91s-.86-1.59-2-2.07L30.94,17a3.31,3.31,0,0,1-2.38-3c0-1.8,1.56-3.13,3.7-3.13a4.88,4.88,0,0,1,3.47,1.46l-.79,1a3.8,3.8,0,0,0-2.68-1.1c-1.32,0-2.19.67-2.19,1.72s1,1.56,2,1.95l1.68.72c1.36.59,2.42,1.4,2.42,3.15S34.58,23,32.11,23A5.67,5.67,0,0,1,28,21.26Z"/><path class="cls-2" d="M37.42,26.37l.28-1.17a2.28,2.28,0,0,0,.67.13c1,0,1.6-.79,2-1.87l.2-.65L37,14.07h1.52l1.78,4.83c.28.76.57,1.65.85,2.46h.08c.24-.8.49-1.69.73-2.46l1.55-4.83H45L41.7,23.51c-.61,1.73-1.51,3-3.26,3A2.74,2.74,0,0,1,37.42,26.37Z"/><path class="cls-2" d="M46.67,14.07h1.22L48,15.34h0a3.84,3.84,0,0,1,2.71-1.48,2.3,2.3,0,0,1,2.41,1.66,4.1,4.1,0,0,1,2.87-1.66c1.8,0,2.66,1.18,2.66,3.41v5.52H57.24V17.46c0-1.63-.51-2.32-1.62-2.32a3.19,3.19,0,0,0-2.19,1.34v6.31H52V17.46c0-1.63-.52-2.32-1.63-2.32a3.23,3.23,0,0,0-2.18,1.34v6.31H46.67Z"/><path class="cls-2" d="M61.55,14.07h1.22l.13,1H63a4.51,4.51,0,0,1,2.78-1.22c2.25,0,3.45,1.74,3.45,4.44,0,3-1.78,4.71-3.77,4.71A4,4,0,0,1,63,22l0,1.52v2.95H61.55Zm6.11,4.24c0-1.92-.66-3.21-2.3-3.21A3.56,3.56,0,0,0,63,16.29v4.57a3.44,3.44,0,0,0,2.12.91C66.59,21.77,67.66,20.47,67.66,18.31Z"/><path class="cls-2" d="M71.47,20.1V15.27h-1.3V14.16l1.36-.09.18-2.45h1.23v2.45h2.37v1.2H72.94v4.85c0,1.07.35,1.69,1.35,1.69a2.93,2.93,0,0,0,1-.24l.28,1.12A5.42,5.42,0,0,1,74,23C72.1,23,71.47,21.83,71.47,20.1Z"/><path class="cls-2" d="M76.38,18.44c0-2.91,1.9-4.58,4-4.58s4,1.67,4,4.58-1.9,4.57-4,4.57S76.38,21.33,76.38,18.44Zm6.56,0c0-2-1-3.36-2.52-3.36s-2.52,1.37-2.52,3.36,1,3.34,2.52,3.34S82.94,20.44,82.94,18.44Z"/><path class="cls-2" d="M86.75,14.07H88l.13,1.27h.05a3.84,3.84,0,0,1,2.71-1.48,2.3,2.3,0,0,1,2.41,1.66,4.1,4.1,0,0,1,2.87-1.66c1.8,0,2.66,1.18,2.66,3.41v5.52H97.32V17.46c0-1.63-.51-2.32-1.62-2.32a3.19,3.19,0,0,0-2.19,1.34v6.31H92V17.46c0-1.63-.52-2.32-1.63-2.32a3.23,3.23,0,0,0-2.18,1.34v6.31H86.75Z"/></svg>