<svg id="Layer_1" data-name="Layer 1" xmlns="http://www.w3.org/2000/svg" viewBox="0 0 114 35"><defs><style>.cls-1{fill:#cce6e7;stroke:#cce6e7;stroke-miterlimit:10;stroke-width:0.9px;}.cls-2{fill:#00467f;}</style></defs><title>progress_intro_complete</title><path class="cls-1" d="M102.65,1.35H8.88A7.62,7.62,0,0,0,1.1,8.81V26.19a7.62,7.62,0,0,0,7.78,7.46h93.77L112.9,17.5Z"/><path class="cls-2" d="M40.39,11h1.5V22.79h-1.5Z"/><path class="cls-2" d="M45,14.07H46.2l.12,1.26h0a4.15,4.15,0,0,1,2.93-1.47C51.13,13.86,52,15,52,17.27v5.52H50.48V17.46c0-1.63-.49-2.32-1.64-2.32a3.29,3.29,0,0,0-2.39,1.34v6.31H45Z"/><path class="cls-2" d="M55.05,20.1V15.27h-1.3V14.16l1.37-.09.18-2.45h1.23v2.45h2.36v1.2H56.53v4.85c0,1.07.34,1.69,1.35,1.69a2.82,2.82,0,0,0,1-.24l.29,1.12a5.48,5.48,0,0,1-1.62.32C55.68,23,55.05,21.83,55.05,20.1Z"/><path class="cls-2" d="M60.86,14.07h1.22l.13,1.59h0a3,3,0,0,1,2.48-1.8,2.08,2.08,0,0,1,.94.18l-.28,1.29a2.57,2.57,0,0,0-.85-.14c-.73,0-1.61.53-2.2,2v5.6H60.86Z"/><path class="cls-2" d="M66.26,18.44c0-2.91,1.91-4.58,4-4.58s4,1.67,4,4.58S72.44,23,70.3,23,66.26,21.33,66.26,18.44Zm6.56,0c0-2-1-3.36-2.52-3.36s-2.51,1.37-2.51,3.36,1,3.34,2.51,3.34S72.82,20.44,72.82,18.44Z"/></svg>