<svg id="Layer_1" data-name="Layer 1" xmlns="http://www.w3.org/2000/svg" viewBox="0 0 124 35"><defs><style>.cls-1{fill:#fff;stroke:#00467f;stroke-linecap:round;stroke-linejoin:round;stroke-width:0.9px;}.cls-2{fill:#00467f;}</style></defs><title>progress_wrap_off</title><polygon class="cls-1" points="1.07 33.65 1.07 33.65 1.07 33.65 11.33 17.5 1.07 1.35 1.07 1.35 1.07 1.35 1.07 1.35 112.67 1.35 122.93 17.5 112.67 33.65 112.67 33.65 112.67 33.65 1.07 33.65 1.07 33.65"/><path class="cls-2" d="M32.15,11H33.7l1.24,6.41.69,3.8h.07c.26-1.27.54-2.54.83-3.8L38.16,11h1.36l1.63,6.41c.29,1.24.57,2.52.86,3.8h.07c.22-1.28.44-2.55.66-3.8L44,11h1.45L43,22.79h-1.8L39.4,15.71c-.2-.92-.39-1.77-.56-2.68h-.07c-.19.91-.39,1.76-.59,2.68l-1.75,7.08H34.65Z"/><path class="cls-2" d="M47.33,14.07h1.22l.12,1.59h0a3,3,0,0,1,2.48-1.8,2,2,0,0,1,.93.18l-.27,1.29a2.57,2.57,0,0,0-.85-.14c-.74,0-1.62.53-2.21,2v5.6H47.33Z"/><path class="cls-2" d="M52.59,20.53c0-1.9,1.64-2.85,5.35-3.26,0-1.12-.37-2.2-1.8-2.2a4.77,4.77,0,0,0-2.6.94L53,15a6.41,6.41,0,0,1,3.43-1.14c2.13,0,3,1.41,3,3.58v5.35H58.2l-.13-1h0A4.63,4.63,0,0,1,55.14,23,2.37,2.37,0,0,1,52.59,20.53Zm5.35.14V18.24C55,18.59,54,19.31,54,20.43s.67,1.39,1.53,1.39A3.59,3.59,0,0,0,57.94,20.67Z"/><path class="cls-2" d="M62.17,14.07h1.22l.13,1h0a4.54,4.54,0,0,1,2.78-1.22c2.25,0,3.45,1.74,3.45,4.44C69.8,21.27,68,23,66,23a4,4,0,0,1-2.42-1l0,1.52v2.95H62.17Zm6.11,4.24c0-1.92-.66-3.21-2.3-3.21a3.56,3.56,0,0,0-2.33,1.19v4.57a3.44,3.44,0,0,0,2.12.91C67.21,21.77,68.28,20.47,68.28,18.31Z"/><path class="cls-2" d="M75.74,17.93V11h1.5v7c0,2.83,1.2,3.72,2.73,3.72s2.8-.89,2.8-3.72V11H84.2v6.91C84.2,21.71,82.38,23,80,23S75.74,21.71,75.74,17.93Z"/><path class="cls-2" d="M87.23,14.07h1.22l.12,1h.05a4.56,4.56,0,0,1,2.78-1.22c2.26,0,3.46,1.74,3.46,4.44,0,3-1.78,4.71-3.78,4.71a4,4,0,0,1-2.41-1l0,1.52v2.95H87.23Zm6.11,4.24c0-1.92-.66-3.21-2.3-3.21a3.54,3.54,0,0,0-2.33,1.19v4.57a3.4,3.4,0,0,0,2.12.91C92.27,21.77,93.34,20.47,93.34,18.31Z"/></svg>