<svg id="Layer_1" data-name="Layer 1" xmlns="http://www.w3.org/2000/svg" viewBox="0 0 500 180"><defs><style>.cls-1{fill:#004568;}.cls-2,.cls-4{fill:none;stroke-miterlimit:10;}.cls-2{stroke:#cb4c45;stroke-width:0.5px;}.cls-3{fill:#8da0b2;}.cls-4{stroke:#fff;stroke-width:0.35px;}.cls-5{fill:#486e8c;}</style></defs><title>PROPERTY_crimes</title><path class="cls-1" d="M257.59,50.56v1.1l-6,14H250l5.86-13.77h-7.33v2.84h-1.44V50.56Z"/><path class="cls-1" d="M269.58,50.56v1.1l-6,14H262l5.86-13.77h-7.33v2.84h-1.44V50.56Z"/><path class="cls-1" d="M271.53,64.63a1.12,1.12,0,0,1,1.08-1.17,1.13,1.13,0,0,1,1.1,1.17,1.15,1.15,0,0,1-1.1,1.19A1.14,1.14,0,0,1,271.53,64.63Z"/><path class="cls-1" d="M279.78,50.56V65.71h-1.47V51.94H275V50.56Z"/><path class="cls-1" d="M306.42,51.94h-5V50.56h11.52v1.38h-5V65.71h-1.51Z"/><path class="cls-1" d="M324.89,59.11v6.6h-1.45V59.26c0-2.4-1.18-3.64-3.21-3.64-2.31,0-3.75,1.52-3.75,4.12v6H315V49.65h1.44v6.67a4.44,4.44,0,0,1,4-2.08C323.1,54.24,324.89,55.84,324.89,59.11Z"/><path class="cls-1" d="M338.14,60.5h-9A4.26,4.26,0,0,0,336.67,63l.82,1a5.15,5.15,0,0,1-4.13,1.86,5.47,5.47,0,0,1-5.62-5.8c0-3.38,2.22-5.78,5.23-5.78s5.19,2.36,5.19,5.78C338.16,60.15,338.14,60.32,338.14,60.5Zm-9-1.15h7.59a3.8,3.8,0,0,0-7.59,0Z"/><path class="cls-1" d="M342.76,53v1.34h3.3v1.3H342.8V65.71h-1.44V55.62h-1.92v-1.3h1.92v-1.4a3,3,0,0,1,3.23-3.38,3.29,3.29,0,0,1,2.14.71l-.49,1.15a2.36,2.36,0,0,0-1.59-.56C343.41,50.84,342.76,51.57,342.76,53Z"/><path class="cls-1" d="M353.65,65a3.33,3.33,0,0,1-2.26.8c-2,0-3.13-1.21-3.13-3.31V55.62h-1.92v-1.3h1.92V51.83h1.44v2.49H353v1.3H349.7v6.8c0,1.34.65,2.08,1.85,2.08a2.31,2.31,0,0,0,1.59-.58Z"/><path class="cls-1" d="M254.92,83.56V98.71h-1.46V84.94H250.1V83.56Z"/><path class="cls-1" d="M268.6,91c0,5.15-2.64,7.83-6.51,7.83a6.19,6.19,0,0,1-3.38-.82l.59-1.25a4.75,4.75,0,0,0,2.77.71c3.07,0,5.05-2.1,5.05-6.21,0-.35,0-.78-.06-1.24a4.53,4.53,0,0,1-4.36,2.6c-2.83,0-4.8-1.77-4.8-4.55a4.55,4.55,0,0,1,4.86-4.65C266.55,83.43,268.6,86.22,268.6,91Zm-2-3c0-1.67-1.31-3.25-3.77-3.25A3.2,3.2,0,0,0,259.34,88c0,2,1.38,3.27,3.58,3.27A3.38,3.38,0,0,0,266.59,88Z"/><path class="cls-1" d="M270.74,97.63a1.12,1.12,0,0,1,1.08-1.17,1.13,1.13,0,0,1,1.1,1.17,1.15,1.15,0,0,1-1.1,1.19A1.14,1.14,0,0,1,270.74,97.63Z"/><path class="cls-1" d="M275,91.14c0-4.83,2.38-7.71,5.67-7.71s5.7,2.88,5.7,7.71-2.4,7.7-5.7,7.7S275,96,275,91.14Zm9.87,0c0-4-1.71-6.28-4.2-6.28s-4.19,2.23-4.19,6.28,1.71,6.28,4.19,6.28S284.91,95.19,284.91,91.14Z"/><path class="cls-1" d="M315.56,94.67c0,2.57-1.79,4-5.35,4h-6.55V83.56h6.14c3.18,0,5,1.43,5,3.9a3.51,3.51,0,0,1-2.18,3.44A3.56,3.56,0,0,1,315.56,94.67Zm-10.4-9.79v5.5h4.54c2.28,0,3.6-.93,3.6-2.75s-1.32-2.75-3.6-2.75Zm8.9,9.66c0-2-1.37-2.84-3.87-2.84h-5v5.69h5C312.69,97.39,314.06,96.53,314.06,94.54Z"/><path class="cls-1" d="M328.35,87.33V98.71H327V96.64a4.19,4.19,0,0,1-3.84,2.18c-2.73,0-4.52-1.62-4.52-4.89v-6.6H320v6.45c0,2.42,1.18,3.66,3.22,3.66,2.24,0,3.64-1.54,3.64-4.14v-6Z"/><path class="cls-1" d="M337.79,87.24v1.49l-.34,0c-2.24,0-3.61,1.52-3.61,4.2v5.8H332.4V87.33h1.38v2.23A4,4,0,0,1,337.79,87.24Z"/><path class="cls-1" d="M350.47,87.33v10c0,3.92-1.81,5.69-5.35,5.69a7.18,7.18,0,0,1-5-1.75l.74-1.17a6.09,6.09,0,0,0,4.21,1.56c2.71,0,3.95-1.32,3.95-4.14V96.07a4.74,4.74,0,0,1-4.17,2.21,5.52,5.52,0,0,1,0-11,4.76,4.76,0,0,1,4.23,2.27V87.33Zm-1.4,5.41A4.06,4.06,0,1,0,345,96.92,3.95,3.95,0,0,0,349.07,92.74Z"/><path class="cls-1" d="M354.53,82.65H356V98.71h-1.44Z"/><path class="cls-1" d="M368.08,91.66v7H366.7V96.94A4,4,0,0,1,363,98.82c-2.42,0-3.91-1.34-3.91-3.31,0-1.75,1.06-3.23,4.14-3.23h3.4v-.69a2.71,2.71,0,0,0-3-3A5.28,5.28,0,0,0,360,89.92l-.65-1.14a6.52,6.52,0,0,1,4.36-1.54C366.51,87.24,368.08,88.71,368.08,91.66Zm-1.44,3.63V93.43h-3.36c-2.08,0-2.75.87-2.75,2,0,1.32,1,2.14,2.71,2.14A3.42,3.42,0,0,0,366.64,95.29Z"/><path class="cls-1" d="M377.4,87.24v1.49l-.34,0c-2.24,0-3.6,1.52-3.6,4.2v5.8H372V87.33h1.38v2.23A4,4,0,0,1,377.4,87.24Z"/><path class="cls-1" d="M389.17,87.33l-5.35,12.75c-.9,2.23-2,2.94-3.57,2.94a3.51,3.51,0,0,1-2.6-1l.67-1.14a2.6,2.6,0,0,0,1.95.86c1,0,1.61-.47,2.22-1.9l.47-1.11-4.78-11.36h1.5l4,9.67,4-9.67Z"/><path class="cls-1" d="M269.74,127.36c0,2.54-1.73,4.49-5.17,4.49a7.17,7.17,0,0,1-5.13-1.95l.72-1.24a6,6,0,0,0,4.41,1.76c2.36,0,3.67-1.17,3.67-3.06s-1.2-3-3.85-3h-1v-1.15l3.95-5.26H260v-1.39h9.16v1.1l-4,5.4C268.22,123.23,269.74,124.94,269.74,127.36Z"/><path class="cls-1" d="M271.82,130.63a1.12,1.12,0,0,1,1.08-1.17,1.13,1.13,0,0,1,1.1,1.17,1.15,1.15,0,0,1-1.1,1.2A1.14,1.14,0,0,1,271.82,130.63Z"/><path class="cls-1" d="M286.39,124c0,5.15-2.64,7.84-6.51,7.84a6.19,6.19,0,0,1-3.38-.83l.59-1.25a4.75,4.75,0,0,0,2.77.71c3.07,0,5.05-2.1,5.05-6.21,0-.35,0-.78-.06-1.24a4.53,4.53,0,0,1-4.36,2.6c-2.83,0-4.8-1.77-4.8-4.54a4.55,4.55,0,0,1,4.86-4.66C284.34,116.43,286.39,119.22,286.39,124Zm-2-3c0-1.67-1.3-3.25-3.77-3.25a3.2,3.2,0,0,0-3.48,3.29c0,2,1.39,3.27,3.58,3.27A3.38,3.38,0,0,0,284.38,121Z"/><path class="cls-1" d="M318.46,116.56v15.16H317V119.59l-5.6,10.2h-.71l-5.6-10.13v12.06h-1.44V116.56h1.24l6.19,11.24,6.12-11.24Z"/><path class="cls-1" d="M321.71,126a5.44,5.44,0,0,1,5.46-5.78c3.13,0,5.43,2.4,5.43,5.78s-2.3,5.81-5.43,5.81A5.46,5.46,0,0,1,321.71,126Zm9.43,0c0-2.66-1.69-4.44-4-4.44s-4,1.78-4,4.44,1.71,4.44,4,4.44S331.14,128.69,331.14,126Z"/><path class="cls-1" d="M341.19,131a3.27,3.27,0,0,1-2.26.81c-2,0-3.13-1.22-3.13-3.32v-6.88h-1.92v-1.3h1.92v-2.49h1.44v2.49h3.26v1.3h-3.26v6.8c0,1.34.66,2.07,1.86,2.07a2.27,2.27,0,0,0,1.58-.58Z"/><path class="cls-1" d="M342.74,126a5.44,5.44,0,0,1,5.45-5.78c3.14,0,5.44,2.4,5.44,5.78s-2.3,5.81-5.44,5.81A5.46,5.46,0,0,1,342.74,126Zm9.42,0c0-2.66-1.69-4.44-4-4.44s-4,1.78-4,4.44,1.7,4.44,4,4.44S352.16,128.69,352.16,126Z"/><path class="cls-1" d="M362,120.24v1.5c-.13,0-.25,0-.35,0-2.24,0-3.6,1.52-3.6,4.2v5.81h-1.45V120.33H358v2.23A4,4,0,0,1,362,120.24Z"/><path class="cls-1" d="M379.07,120.33l-4.76,11.39h-1.49l-4.74-11.39h1.51l4,9.7,4-9.7Z"/><path class="cls-1" d="M390.43,126.5h-8.95a4.06,4.06,0,0,0,4.21,4A4.14,4.14,0,0,0,389,129l.81,1a5.11,5.11,0,0,1-4.13,1.87A5.48,5.48,0,0,1,380,126c0-3.38,2.22-5.78,5.23-5.78s5.19,2.36,5.19,5.78C390.45,126.15,390.43,126.33,390.43,126.5Zm-8.95-1.15h7.59a3.8,3.8,0,0,0-7.59,0Z"/><path class="cls-1" d="M403.26,125.11v6.61h-1.45v-6.46c0-2.4-1.18-3.63-3.22-3.63-2.3,0-3.74,1.51-3.74,4.11v6H393.4V115.65h1.45v6.67a4.44,4.44,0,0,1,4-2.08C401.46,120.24,403.26,121.84,403.26,125.11Z"/><path class="cls-1" d="M406.86,116.73a1.08,1.08,0,0,1,1.06-1.08,1.06,1.06,0,0,1,1.06,1.06,1.06,1.06,0,1,1-2.12,0Zm.33,3.6h1.44v11.39h-1.44Z"/><path class="cls-1" d="M411.58,126a5.44,5.44,0,0,1,5.52-5.78,4.6,4.6,0,0,1,4.19,2.25l-1.08.78a3.59,3.59,0,0,0-3.11-1.69c-2.34,0-4.05,1.78-4.05,4.44s1.71,4.44,4.05,4.44a3.55,3.55,0,0,0,3.11-1.67l1.08.78a4.62,4.62,0,0,1-4.19,2.26A5.46,5.46,0,0,1,411.58,126Z"/><path class="cls-1" d="M424.12,115.65h1.45v16.07h-1.45Z"/><path class="cls-1" d="M438.92,126.5h-9a4.26,4.26,0,0,0,7.49,2.47l.82,1a5.11,5.11,0,0,1-4.13,1.87,5.48,5.48,0,0,1-5.62-5.81c0-3.38,2.22-5.78,5.23-5.78s5.19,2.36,5.19,5.78C438.94,126.15,438.92,126.33,438.92,126.5Zm-9-1.15h7.59a3.8,3.8,0,0,0-7.59,0Z"/><path class="cls-1" d="M452.86,131a3.27,3.27,0,0,1-2.26.81c-2,0-3.13-1.22-3.13-3.32v-6.88h-1.92v-1.3h1.92v-2.49h1.44v2.49h3.26v1.3h-3.26v6.8c0,1.34.66,2.07,1.86,2.07a2.27,2.27,0,0,0,1.58-.58Z"/><path class="cls-1" d="M465.34,125.11v6.61h-1.45v-6.46c0-2.4-1.18-3.63-3.21-3.63-2.3,0-3.75,1.51-3.75,4.11v6h-1.44V115.65h1.44v6.67a4.45,4.45,0,0,1,4-2.08C463.55,120.24,465.34,121.84,465.34,125.11Z"/><path class="cls-1" d="M478.59,126.5h-8.95a4.06,4.06,0,0,0,4.21,4,4.14,4.14,0,0,0,3.28-1.49l.81,1a5.11,5.11,0,0,1-4.13,1.87,5.48,5.48,0,0,1-5.62-5.81c0-3.38,2.22-5.78,5.23-5.78s5.19,2.36,5.19,5.78C478.61,126.15,478.59,126.33,478.59,126.5Zm-8.95-1.15h7.59a3.8,3.8,0,0,0-7.59,0Z"/><path class="cls-1" d="M483.21,119v1.34h3.3v1.3h-3.26v10.09h-1.44V121.63h-1.92v-1.3h1.92v-1.41a3,3,0,0,1,3.23-3.38,3.24,3.24,0,0,1,2.14.72l-.49,1.14a2.36,2.36,0,0,0-1.58-.56C483.86,116.84,483.21,117.58,483.21,119Z"/><path class="cls-1" d="M494.1,131a3.27,3.27,0,0,1-2.26.81c-2,0-3.13-1.22-3.13-3.32v-6.88h-1.92v-1.3h1.92v-2.49h1.44v2.49h3.26v1.3h-3.26v6.8c0,1.34.66,2.07,1.86,2.07a2.27,2.27,0,0,0,1.58-.58Z"/><line class="cls-2" x1="234.77" y1="89.1" x2="133.56" y2="89.1"/><polyline class="cls-2" points="234.77 57.48 199.53 57.48 199.53 18.59 118.56 18.59"/><polyline class="cls-2" points="234.77 124.28 199.53 124.28 199.53 134.91 158.18 134.91"/><path class="cls-3" d="M93.05,90l78.3,38.27a88.58,88.58,0,0,1-12.57,19Z"/><path class="cls-4" d="M93.05,90l78.3,38.27a88.58,88.58,0,0,1-12.57,19Z"/><path class="cls-5" d="M93.05,90l64.81-58.27c24.46,27.21,29.55,63.67,13.49,96.54Z"/><path class="cls-4" d="M93.05,90l64.81-58.27c24.46,27.21,29.55,63.67,13.49,96.54Z"/><path class="cls-1" d="M93.05,90l65.73,57.23a87.15,87.15,0,1,1-8.5-123,77.38,77.38,0,0,1,7.58,7.46Z"/><path class="cls-4" d="M93.05,90l65.73,57.23a87.15,87.15,0,1,1-8.5-123,77.38,77.38,0,0,1,7.58,7.46Z"/></svg>