<svg id="Layer_1" data-name="Layer 1" xmlns="http://www.w3.org/2000/svg" viewBox="0 0 139 38"><defs><style>.cls-1{fill:#fff;stroke:#fff;stroke-miterlimit:10;}.cls-2{fill:#008289;}</style></defs><title>Send_button-ON</title><rect class="cls-1" x="1" y="1" width="137" height="36" rx="3.7"/><path class="cls-2" d="M55,12.46a1.67,1.67,0,0,1,1.69,1.69V24.27a1.63,1.63,0,0,1-.49,1.2A1.67,1.67,0,0,1,55,26H40.33a1.67,1.67,0,0,1-1.69-1.69V14.15a1.67,1.67,0,0,1,.49-1.2,1.63,1.63,0,0,1,1.2-.49Zm0,1.69H40.33v1.44c.82.65,2.4,1.9,4.75,3.72l.31.28a9.36,9.36,0,0,0,1.13.85,2.17,2.17,0,0,0,1.12.46,2.2,2.2,0,0,0,1.13-.46,9.42,9.42,0,0,0,1.12-.85l.32-.28q3.51-2.7,4.74-3.72ZM40.33,24.27H55V17.73L50.88,21A10.13,10.13,0,0,1,49.43,22a3.48,3.48,0,0,1-1.79.56A3.69,3.69,0,0,1,45.81,22,14.14,14.14,0,0,1,44.37,21l-4-3.24Z"/><path class="cls-2" d="M65.05,23.23l.9-1a4.59,4.59,0,0,0,3.26,1.47c1.55,0,2.47-.77,2.47-1.92s-.86-1.59-2-2.08L68,18.91a3.33,3.33,0,0,1-2.4-3c0-1.81,1.58-3.14,3.72-3.14a4.88,4.88,0,0,1,3.48,1.47l-.79,1a3.81,3.81,0,0,0-2.69-1.11c-1.32,0-2.2.67-2.2,1.73s1,1.56,2,2l1.68.73c1.37.59,2.44,1.41,2.44,3.16S71.66,25,69.18,25A5.68,5.68,0,0,1,65.05,23.23Z"/><path class="cls-2" d="M74.73,20.4c0-2.85,1.92-4.6,3.93-4.6,2.23,0,3.49,1.6,3.49,4.1a4,4,0,0,1-.07.84H76.19A2.91,2.91,0,0,0,79.1,23.8a3.82,3.82,0,0,0,2.18-.7l.53,1a5.09,5.09,0,0,1-2.89.91C76.58,25,74.73,23.28,74.73,20.4Zm6.11-.72c0-1.75-.78-2.7-2.15-2.7a2.68,2.68,0,0,0-2.51,2.7Z"/><path class="cls-2" d="M84.3,16h1.23l.12,1.26h0a4.19,4.19,0,0,1,2.94-1.47c1.84,0,2.67,1.19,2.67,3.42v5.54H89.83V19.41c0-1.63-.49-2.33-1.65-2.33a3.29,3.29,0,0,0-2.39,1.35v6.33H84.3Z"/><path class="cls-2" d="M93.53,20.4c0-2.84,1.79-4.6,3.78-4.6a3.61,3.61,0,0,1,2.46,1l-.07-1.5V11.94h1.48V24.76H100l-.12-1h0A3.89,3.89,0,0,1,97.13,25C94.94,25,93.53,23.32,93.53,20.4Zm6.17,2.14V18A3.09,3.09,0,0,0,97.57,17c-1.4,0-2.51,1.35-2.51,3.35s.86,3.34,2.4,3.34A3,3,0,0,0,99.7,22.54Z"/></svg>