<svg id="Layer_1" data-name="Layer 1" xmlns="http://www.w3.org/2000/svg" viewBox="0 0 170 138"><defs><style>.cls-1{fill:none;stroke:#008289;stroke-linecap:round;stroke-linejoin:round;stroke-width:13.54px;}.cls-2{fill:#fff;}.cls-3{fill:#008289;fill-rule:evenodd;}</style></defs><title>Sent_Checkmark_icon</title><circle class="cls-1" cx="66.78" cy="72.19" r="57.54"/><circle class="cls-2" cx="66.78" cy="72.19" r="57.54"/><path class="cls-3" d="M65.78,114.76A3,3,0,0,1,63.21,113l-1.2-2.6C49.45,92.54,29.45,81.55,18.62,76.58A3,3,0,0,1,17,74.66a2.93,2.93,0,0,1,.45-2.47l17.82-25a3,3,0,0,1,2-1.22,2.11,2.11,0,0,1,.35,0,2.9,2.9,0,0,1,1.93.72l1,.84c5.83,5,14.37,12.4,22.52,24.62,6.53-9.55,25.25-36.23,51.33-67.24a2.94,2.94,0,0,1,2.26-1.05,3,3,0,0,1,.59,0l45.91,9.31a3,3,0,0,1,.47,5.65c-53.49,20.34-94.78,93.68-95.19,94.42a3,3,0,0,1-2.58,1.52Z"/><path class="cls-2" d="M116.69,6.75l45.92,9.31c-55.15,21-96.72,95.75-96.72,95.75L64.58,109C52,90.88,32.18,79.55,19.85,73.9l17.82-25C44.08,54.42,54,62.58,63,77.48A839.22,839.22,0,0,1,116.69,6.75m0-5.89A5.88,5.88,0,0,0,112.18,3c-23.45,27.88-41,52.28-49.09,64A122.38,122.38,0,0,0,42.51,45.25l-1-.84A5.89,5.89,0,0,0,37.67,43a5.58,5.58,0,0,0-.7,0,5.9,5.9,0,0,0-4.1,2.43L15,70.48a5.9,5.9,0,0,0,2.35,8.78c10.51,4.82,29.88,15.45,42.06,32.66l1.08,2.36a5.89,5.89,0,0,0,5.14,3.42h.22a5.92,5.92,0,0,0,5.16-3c.4-.73,41.2-73.15,93.65-93.1a5.9,5.9,0,0,0-.92-11.3L117.86,1a5.79,5.79,0,0,0-1.17-.11Z"/></svg>