<svg id="Layer_1" data-name="Layer 1" xmlns="http://www.w3.org/2000/svg" viewBox="0 0 131 53"><defs><style>.cls-1{fill:#00467f;}.cls-2{fill:#fff;}</style></defs><title>submit_btn</title><rect class="cls-1" x="0.5" y="0.5" width="130" height="52" rx="9.08"/><path class="cls-2" d="M29.1,32.76l1.23-1.41a6.31,6.31,0,0,0,4.46,2c2.12,0,3.37-1.05,3.37-2.62S37,28.55,35.47,27.89l-2.32-1c-1.5-.64-3.27-1.78-3.27-4.15S32,18.42,35,18.42a6.69,6.69,0,0,1,4.76,2l-1.09,1.32A5.18,5.18,0,0,0,35,20.23c-1.81,0-3,.91-3,2.36s1.41,2.13,2.68,2.67l2.3,1c1.87.81,3.32,1.92,3.32,4.32s-2.11,4.59-5.5,4.59A7.76,7.76,0,0,1,29.1,32.76Z"/><path class="cls-2" d="M43.06,30.48V22.91h2v7.31c0,2.23.68,3.18,2.26,3.18,1.22,0,2.07-.61,3.2-2V22.91h2v12H50.89L50.72,33h-.07a5.05,5.05,0,0,1-3.94,2.17C44.19,35.16,43.06,33.53,43.06,30.48Z"/><path class="cls-2" d="M58.47,33.63H58.4l-.18,1.23H56.6V17.34h2v4.79l-.07,2.15a6,6,0,0,1,3.76-1.67c3.09,0,4.75,2.4,4.75,6.08,0,4.09-2.45,6.47-5.18,6.47A5.34,5.34,0,0,1,58.47,33.63ZM65,28.72c0-2.64-.9-4.41-3.15-4.41a4.86,4.86,0,0,0-3.2,1.63v6.27a4.61,4.61,0,0,0,2.91,1.25C63.51,33.46,65,31.67,65,28.72Z"/><path class="cls-2" d="M70.2,22.91h1.67L72,24.64h.07a5.31,5.31,0,0,1,3.72-2,3.15,3.15,0,0,1,3.3,2.28c1.24-1.34,2.49-2.28,3.94-2.28,2.46,0,3.64,1.63,3.64,4.68v7.57h-2V27.55c0-2.23-.71-3.18-2.23-3.18-.92,0-1.89.6-3,1.83v8.66h-2V27.55c0-2.23-.7-3.18-2.22-3.18-.9,0-1.89.6-3,1.83v8.66h-2Z"/><path class="cls-2" d="M90.22,19.14a1.4,1.4,0,0,1,2.79,0,1.4,1.4,0,0,1-2.79,0Zm.37,3.77h2v12h-2Z"/><path class="cls-2" d="M97,31.17V24.55H95.21V23l1.87-.11.25-3.36H99v3.36h3.24v1.64H99V31.2c0,1.46.47,2.31,1.84,2.31a4,4,0,0,0,1.37-.32l.39,1.53a7.42,7.42,0,0,1-2.22.44C97.85,35.16,97,33.55,97,31.17Z"/></svg>