<svg id="Layer_1" data-name="Layer 1" xmlns="http://www.w3.org/2000/svg" viewBox="0 0 352 286"><defs><style>.cls-1{fill:#bfe0e1;}.cls-2,.cls-4{fill:none;stroke:#fff;stroke-width:8.38px;}.cls-2{stroke-miterlimit:10;}.cls-3{fill:#00467f;}.cls-4{stroke-linecap:round;stroke-linejoin:round;}</style></defs><title>Sunrise_icon</title><path class="cls-1" d="M176,6.12A122.85,122.85,0,0,0,84.12,210.54a124.82,124.82,0,0,0,13.36,13,253.06,253.06,0,0,1,157,0,124.08,124.08,0,0,0,13.37-13A122.85,122.85,0,0,0,176,6.12Z"/><circle class="cls-2" cx="176" cy="35.88" r="15.29"/><circle class="cls-3" cx="176" cy="35.88" r="15.29"/><path class="cls-4" d="M194.3,194.67a9.93,9.93,0,0,0,6.73-9.38V131H179.32v54.32a10,10,0,0,0,5.28,8.76H167.4a10,10,0,0,0,5.28-8.76V131H150.93v54.32a9.93,9.93,0,0,0,6.73,9.38A208.39,208.39,0,0,0,7.35,279.88c43.52-36.76,103-59.36,168.65-59.36s125.13,22.6,168.65,59.36A208.38,208.38,0,0,0,194.3,194.67Z"/><path class="cls-4" d="M86.69,39.39c19.55,18.11,37.81,29.1,59.67,34.73v52.12h59.28V74.12c21.51-5.59,39.69-16.39,59.16-34.3a10.82,10.82,0,0,0-6.68-19.19A10.63,10.63,0,0,0,251.47,23h0c-24.91,22.6-43.72,31.28-74.69,33.86H176C145.15,54.61,126.34,46,101.7,24.11a9.82,9.82,0,0,0-1.17-1.06,10.61,10.61,0,0,0-6.65-2.42,10.87,10.87,0,0,0-7.82,18.45Z"/><path class="cls-3" d="M194.3,194.67a9.93,9.93,0,0,0,6.73-9.38V131H179.32v54.32a10,10,0,0,0,5.28,8.76H167.4a10,10,0,0,0,5.28-8.76V131H150.93v54.32a9.93,9.93,0,0,0,6.73,9.38A208.39,208.39,0,0,0,7.35,279.88c43.52-36.76,103-59.36,168.65-59.36s125.13,22.6,168.65,59.36A208.38,208.38,0,0,0,194.3,194.67Z"/><path class="cls-3" d="M86.69,39.39c19.55,18.11,37.81,29.1,59.67,34.73v52.12h59.28V74.12c21.51-5.59,39.69-16.39,59.16-34.3a10.82,10.82,0,0,0-6.68-19.19A10.63,10.63,0,0,0,251.47,23h0c-24.91,22.6-43.72,31.28-74.69,33.86H176C145.15,54.61,126.34,46,101.7,24.11a9.82,9.82,0,0,0-1.17-1.06,10.61,10.61,0,0,0-6.65-2.42,10.87,10.87,0,0,0-7.82,18.45Z"/></svg>