<svg id="Layer_1" data-name="Layer 1" xmlns="http://www.w3.org/2000/svg" viewBox="0 0 25 25"><defs><style>.cls-1{fill:#fff;}</style></defs><title>Technical_Isue_icon</title><path class="cls-1" d="M24.31,5.62a6.61,6.61,0,0,1,0,3.39,7,7,0,0,1-1.73,3,6.86,6.86,0,0,1-3.26,1.78,6.69,6.69,0,0,1-3.68-.19l-10,10a2.91,2.91,0,0,1-2.13.89,2.87,2.87,0,0,1-2.11-.87,2.87,2.87,0,0,1-.87-2.11,2.91,2.91,0,0,1,.89-2.13l10-10a6.6,6.6,0,0,1-.19-3.66A6.57,6.57,0,0,1,13,2.47,6.84,6.84,0,0,1,19.38.69a.53.53,0,0,1,.4.4.53.53,0,0,1-.16.54L16.15,5.15l.52,3.18,3.18.52,3.52-3.47a.55.55,0,0,1,.94.24Zm-20.82,17a1.13,1.13,0,1,0,0-2.25,1.13,1.13,0,0,0,0,2.25Z"/></svg>