<svg id="Layer_1" data-name="Layer 1" xmlns="http://www.w3.org/2000/svg" viewBox="0 0 56 56"><defs><style>.cls-1{fill:#00467f;}.cls-2,.cls-3{fill:#fff;}.cls-2{stroke:#00467f;stroke-miterlimit:10;stroke-width:0.5px;}</style></defs><title>Abdominal_Pain-01</title><circle class="cls-1" cx="28" cy="28" r="27.76"/><path class="cls-2" d="M22.05,28.33V45.69a2.53,2.53,0,1,0,5.05,0V31A6.65,6.65,0,0,1,22.05,28.33Z"/><path class="cls-2" d="M28.05,31V45.69a2.53,2.53,0,1,0,5.05,0V28.33A6.68,6.68,0,0,1,28.05,31Z"/><circle class="cls-2" cx="27.57" cy="12.63" r="4.6"/><path class="cls-2" d="M29.93,26.15a2.94,2.94,0,0,1-.05.51,2.08,2.08,0,0,1-2,1.62,1.84,1.84,0,0,1-.47-.06,44,44,0,0,1-4.64-1.36c-.47-.16-.95-.35-1.43-.55a6.53,6.53,0,0,0,6.26,4.15,6.35,6.35,0,0,0,6.52-5.26A25.68,25.68,0,0,1,29.93,26.15Z"/><path class="cls-2" d="M20.35,25.37a19.5,19.5,0,0,0,2.54,1.07,42.66,42.66,0,0,0,4.59,1.34,1.5,1.5,0,0,0,.37,0,1.64,1.64,0,0,0,.36-3.23,27.52,27.52,0,0,1-6.88-2.42,2.08,2.08,0,0,1-.43-.32,14.39,14.39,0,0,1,1.15-4.37v3.87a4.32,4.32,0,0,0-.34.53A19.4,19.4,0,0,0,25,23.24a2.14,2.14,0,0,1,1.53-.88,30.54,30.54,0,0,0,6.56-1.21V17.5a13.07,13.07,0,0,1,1,3.67l-.11.06c-1.09.61-4.32,1.31-7.46,1.58a1.64,1.64,0,0,0-1.11.58c.88.27,1.84.54,2.84.77a2.08,2.08,0,0,1,1.56,1.54,19.16,19.16,0,0,0,5.7-1.61,4.23,4.23,0,0,0,1.33-1,2.54,2.54,0,0,0,.56-1.75.91.91,0,0,0,0-.17c-.87-6.18-3.28-7.93-4.83-8.4a5,5,0,0,1-10.09,0,4.79,4.79,0,0,0-1.48.79c-1.8,1.42-3,4.2-3.44,8.26h0C17.43,23.38,18.71,24.51,20.35,25.37Z"/><path class="cls-3" d="M20.29,26.42a.21.21,0,0,0-.28.08,1.42,1.42,0,0,0,.57,2.06.15.15,0,0,0,.09,0,.21.21,0,0,0,.18-.11.2.2,0,0,0-.09-.27,1.29,1.29,0,0,1-.54-.62,1.12,1.12,0,0,1,.15-.88A.2.2,0,0,0,20.29,26.42Z"/><path class="cls-3" d="M19.46,26.07a.22.22,0,0,0-.28.07,2.27,2.27,0,0,0-.35,1.77,2.33,2.33,0,0,0,1,1.3.17.17,0,0,0,.1,0,.18.18,0,0,0,.17-.11.2.2,0,0,0-.07-.28,1.67,1.67,0,0,1-.51-2.49A.23.23,0,0,0,19.46,26.07Z"/><path class="cls-3" d="M34.37,27.8a.2.2,0,0,0-.14.25.19.19,0,0,0,.19.15h0a1.5,1.5,0,0,0,1-.69,1.57,1.57,0,0,0,.13-1.13.2.2,0,0,0-.39.12,1.19,1.19,0,0,1-.09.81A1.13,1.13,0,0,1,34.37,27.8Z"/><path class="cls-3" d="M34.7,28.65a.22.22,0,0,0-.16.25.2.2,0,0,0,.2.16h0a2.21,2.21,0,0,0,1.53-.95,2.28,2.28,0,0,0,.27-1.62.21.21,0,0,0-.25-.15.21.21,0,0,0-.15.25A1.91,1.91,0,0,1,36,27.89,1.85,1.85,0,0,1,34.7,28.65Z"/><path class="cls-3" d="M36.45,5.56c-.69-1.43-3.34.07-3.59,1.88C35.19,6.39,37.1,6.91,36.45,5.56Z"/><path class="cls-3" d="M31.63,4.43c-1.2-.38-1.78,2-.88,3.09C31.42,5.61,32.76,4.79,31.63,4.43Z"/><path class="cls-3" d="M33.35,10.07c1.71-.42,2.95.18,2.68-.82S33.75,8.87,33.35,10.07Z"/></svg>