<svg id="Layer_1" data-name="Layer 1" xmlns="http://www.w3.org/2000/svg" viewBox="0 0 56 56"><defs><style>.cls-1{fill:#00467f;}.cls-2,.cls-3{fill:#fff;}.cls-2{stroke:#00467f;stroke-miterlimit:10;stroke-width:0.5px;}</style></defs><title>Anxiety</title><circle class="cls-1" cx="28" cy="28" r="27.76"/><path class="cls-2" d="M31.51,26.46a3.69,3.69,0,0,0-.52-.1l-1.33-.05-1.66,0-1.66,0L25,26.36a3.69,3.69,0,0,0-.52.1,2,2,0,0,1-1.84,1.41V47.6a2.45,2.45,0,1,0,4.89,0V30.74h.92V47.6a2.45,2.45,0,1,0,4.89,0V27.87A2,2,0,0,1,31.51,26.46Z"/><path class="cls-2" d="M20.4,25l.19.17A3.46,3.46,0,0,1,23,22.68c.25-3.05.77-4.42,1.11-5l.5.06c-.23.33-.82,1.44-1.12,4.56h1.25a19.46,19.46,0,0,1,2.33-.12h1.78a19.46,19.46,0,0,1,2.33.12h1.25c-.3-3.12-.89-4.23-1.12-4.56l.5-.06c.34.59.86,2,1.11,5.06-.82.06-2.18,0-3.16,0a33.63,33.63,0,0,0-5.05.06c-3,.39-3.71,1.84-3.78,3a1.59,1.59,0,0,0,1.49,1.67h.09a1.59,1.59,0,0,0,1.56-1.29c.84-.46,4-.33,5.57-.27,3.22.12,5,.14,5.92-.84a2,2,0,0,0,.58-1.55,21.77,21.77,0,0,0-1.06-6.23,5.49,5.49,0,0,0-1.61-2.46A2.77,2.77,0,0,0,32,14.16h-.84a4.88,4.88,0,0,1-6.32,0H24a2.77,2.77,0,0,0-1.51.62,5.49,5.49,0,0,0-1.61,2.46,21.77,21.77,0,0,0-1.06,6.23A2,2,0,0,0,20.4,25Z"/><path class="cls-2" d="M33.45,27.42h.09A1.57,1.57,0,0,0,35,26a7.74,7.74,0,0,1-3,.42h0A1.58,1.58,0,0,0,33.45,27.42Z"/><path class="cls-2" d="M32.45,10.4A4.45,4.45,0,1,0,28,14.85,4.45,4.45,0,0,0,32.45,10.4Z"/><path class="cls-3" d="M21.23,13.48a1.56,1.56,0,0,0-.54,1,.2.2,0,0,0,.18.21h0a.2.2,0,0,0,.2-.17,1.09,1.09,0,0,1,.38-.69,1.1,1.1,0,0,1,.85-.17.19.19,0,0,0,.22-.16.2.2,0,0,0-.16-.23A1.45,1.45,0,0,0,21.23,13.48Z"/><path class="cls-3" d="M20,14.22h0a.2.2,0,0,0,.2-.16A1.81,1.81,0,0,1,20.93,13a1.77,1.77,0,0,1,1.41-.22.21.21,0,0,0,.24-.16.2.2,0,0,0-.16-.23,2.18,2.18,0,0,0-1.72.29A2.14,2.14,0,0,0,19.86,14,.2.2,0,0,0,20,14.22Z"/><path class="cls-3" d="M19.67,26.64a.19.19,0,0,0-.22.17A1.4,1.4,0,0,0,19.71,28a1.48,1.48,0,0,0,1,.52h0a.2.2,0,0,0,.2-.18.19.19,0,0,0-.18-.21,1.15,1.15,0,0,1-.7-.38,1.08,1.08,0,0,1-.17-.84A.19.19,0,0,0,19.67,26.64Z"/><path class="cls-3" d="M20.24,29.31h0a.2.2,0,0,0,.2-.17.2.2,0,0,0-.17-.23A1.63,1.63,0,0,1,19,26.85a.21.21,0,0,0-.17-.23.19.19,0,0,0-.22.16,2.18,2.18,0,0,0,.31,1.72A2.16,2.16,0,0,0,20.24,29.31Z"/><path class="cls-3" d="M34.77,13.48a1.45,1.45,0,0,0-1.15-.24.2.2,0,0,0-.16.23.19.19,0,0,0,.22.16,1.11,1.11,0,0,1,.85.17,1.09,1.09,0,0,1,.38.69.2.2,0,0,0,.2.18h0a.19.19,0,0,0,.18-.21A1.56,1.56,0,0,0,34.77,13.48Z"/><path class="cls-3" d="M33.66,12.75a1.77,1.77,0,0,1,1.41.22,1.81,1.81,0,0,1,.68,1.09.2.2,0,0,0,.2.16h0a.2.2,0,0,0,.16-.23,2.14,2.14,0,0,0-.84-1.34,2.18,2.18,0,0,0-1.72-.29.2.2,0,0,0-.16.23A.21.21,0,0,0,33.66,12.75Z"/><path class="cls-3" d="M35.29,28.08a.19.19,0,0,0-.18.21.19.19,0,0,0,.19.18h0a1.48,1.48,0,0,0,1-.52,1.4,1.4,0,0,0,.26-1.14.2.2,0,0,0-.39.05,1.08,1.08,0,0,1-.17.84A1.12,1.12,0,0,1,35.29,28.08Z"/><path class="cls-3" d="M35.54,29.15a.19.19,0,0,0,.19.17h0a2.16,2.16,0,0,0,1.36-.81,2.18,2.18,0,0,0,.31-1.72.2.2,0,0,0-.23-.16.21.21,0,0,0-.16.23,1.81,1.81,0,0,1-.24,1.41,1.79,1.79,0,0,1-1.09.66A.2.2,0,0,0,35.54,29.15Z"/><path class="cls-3" d="M31.52,5.47a1.49,1.49,0,0,0-1.09-.06.19.19,0,0,0-.12.25.2.2,0,0,0,.25.12,1.14,1.14,0,0,1,.78,0,1.07,1.07,0,0,1,.51.69.22.22,0,0,0,.14.14h.1a.18.18,0,0,0,.13-.24A1.43,1.43,0,0,0,31.52,5.47Z"/><path class="cls-3" d="M32.8,6.3h.09A.19.19,0,0,0,33,6.06a2.18,2.18,0,0,0-1-1.42,2.18,2.18,0,0,0-1.56-.17.19.19,0,0,0-.14.24.2.2,0,0,0,.25.13A1.83,1.83,0,0,1,31.85,5a1.84,1.84,0,0,1,.8,1.18A.19.19,0,0,0,32.8,6.3Z"/></svg>