<svg id="Layer_1" data-name="Layer 1" xmlns="http://www.w3.org/2000/svg" viewBox="0 0 56 56"><defs><style>.cls-1,.cls-3{fill:#00467f;}.cls-2{fill:#fff;}.cls-3{stroke:#00467f;stroke-miterlimit:10;stroke-width:0.5px;}</style></defs><title>Bloating</title><circle class="cls-1" cx="28" cy="28" r="27.76"/><path class="cls-2" d="M8.13,37.25A11.69,11.69,0,0,1,12.76,36c1.94-.06,5.16-.2,5.7,2.25a9.46,9.46,0,0,0,2.94,5.22c4.76,4.15,13.19,2.27,18.83-4.21a22.12,22.12,0,0,0,3.44-5.42c2.53-5.74,1.52-13.92-5.54-15.7-.63-.16-1.31-.13-1.93-.29a2.28,2.28,0,0,1-.51-.21C34,16.65,32.55,10.49,33.6,8L30.49,6.54c-1.15,2.82,0,7.78.56,9.21,1,2.59,1.83,4.41,1.11,7.28a15.82,15.82,0,0,1-3.42,6.49c-2.23,2.56-5.4,3.39-8.59,4.07-1.57.34-2.93-.29-4.44-.58a16.44,16.44,0,0,0-4.54-.23A13.88,13.88,0,0,0,6.5,34.23Z"/><path class="cls-3" d="M35.14,27.28a1.08,1.08,0,1,1-1.08,1.08A1.08,1.08,0,0,1,35.14,27.28Z"/><circle class="cls-3" cx="28.69" cy="34.81" r="0.57"/><path class="cls-3" d="M29.85,31.59a1.08,1.08,0,1,1,1.08,1.07A1.08,1.08,0,0,1,29.85,31.59Z"/><path class="cls-3" d="M31.4,42.3a.61.61,0,0,1-.61-.61.61.61,0,0,1,.61-.61.62.62,0,0,1,.61.61A.61.61,0,0,1,31.4,42.3Z"/><path class="cls-3" d="M32,36.43a1.08,1.08,0,1,1,1.07-1.08A1.08,1.08,0,0,1,32,36.43Z"/><circle class="cls-3" cx="34.06" cy="40.75" r="0.57"/><path class="cls-3" d="M34.06,38.66a.58.58,0,1,1,.58-.58A.58.58,0,0,1,34.06,38.66Z"/><path class="cls-3" d="M34.57,34.22a.57.57,0,0,1,.57-.57.58.58,0,1,1,0,1.15A.57.57,0,0,1,34.57,34.22Z"/><path class="cls-3" d="M35.14,36.43a1.08,1.08,0,1,1,1.08,1.08A1.08,1.08,0,0,1,35.14,36.43Z"/><path class="cls-3" d="M36.79,40.48a.58.58,0,1,1,.58-.58A.58.58,0,0,1,36.79,40.48Z"/><circle class="cls-3" cx="39.19" cy="32.57" r="1.08"/></svg>