<svg id="Layer_1" data-name="Layer 1" xmlns="http://www.w3.org/2000/svg" viewBox="0 0 56 56"><defs><style>.cls-1{fill:#00467f;}.cls-2,.cls-3{fill:#fff;}.cls-2{fill-rule:evenodd;}</style></defs><title>Blurred_Vision</title><circle class="cls-1" cx="28" cy="28" r="27.76"/><path class="cls-2" d="M27.42,34.75a7.83,7.83,0,0,1-7.06-8.34,7.78,7.78,0,0,1,6.75-7.15,10.56,10.56,0,0,1,2.58.08,8.48,8.48,0,0,1,1.8.61,7.81,7.81,0,0,1,4.16,4.92A6.14,6.14,0,0,1,35.92,27a6.41,6.41,0,0,1-.38,2.45,7.84,7.84,0,0,1-6.26,5.22A9.77,9.77,0,0,1,27.42,34.75Zm1.66-2.58a5.26,5.26,0,0,0,3-1.6A5.38,5.38,0,1,0,22.84,26a5.44,5.44,0,0,0,3,5.79,5,5,0,0,0,1.34.42,6.58,6.58,0,0,0,1.88,0Z"/><path class="cls-3" d="M8.12,27c0-.48,9.25-12.74,20-12.74s20,12.26,20,12.74-9.25,12.74-20,12.75S8.12,27.47,8.12,27m3.41,0c2.07,2.52,8.83,9.92,16.59,9.92S42.64,29.51,44.71,27c-2.08-2.53-8.83-9.93-16.59-9.93S13.6,24.46,11.53,27"/><circle class="cls-3" cx="26.59" cy="31.97" r="0.11"/><circle class="cls-3" cx="27.04" cy="31.97" r="0.11"/><circle class="cls-3" cx="27.49" cy="31.97" r="0.11"/><circle class="cls-3" cx="27.94" cy="31.97" r="0.11"/><circle class="cls-3" cx="28.38" cy="31.97" r="0.11"/><circle class="cls-3" cx="28.83" cy="31.97" r="0.11"/><circle class="cls-3" cx="29.28" cy="31.97" r="0.11"/><circle class="cls-3" cx="29.73" cy="31.97" r="0.11"/><circle class="cls-3" cx="25.7" cy="31.52" r="0.11"/><circle class="cls-3" cx="26.15" cy="31.52" r="0.11"/><circle class="cls-3" cx="26.59" cy="31.52" r="0.11"/><circle class="cls-3" cx="27.04" cy="31.52" r="0.11"/><circle class="cls-3" cx="27.49" cy="31.52" r="0.11"/><circle class="cls-3" cx="27.94" cy="31.52" r="0.11"/><circle class="cls-3" cx="28.38" cy="31.52" r="0.11"/><circle class="cls-3" cx="28.83" cy="31.52" r="0.11"/><circle class="cls-3" cx="29.28" cy="31.52" r="0.11"/><circle class="cls-3" cx="29.73" cy="31.52" r="0.11"/><circle class="cls-3" cx="30.17" cy="31.52" r="0.11"/><circle class="cls-3" cx="30.62" cy="31.52" r="0.11"/><circle class="cls-3" cx="24.81" cy="31.07" r="0.11"/><circle class="cls-3" cx="25.25" cy="31.07" r="0.11"/><circle class="cls-3" cx="25.7" cy="31.07" r="0.11"/><circle class="cls-3" cx="26.15" cy="31.07" r="0.11"/><circle class="cls-3" cx="26.59" cy="31.07" r="0.11"/><circle class="cls-3" cx="27.04" cy="31.07" r="0.11"/><circle class="cls-3" cx="27.49" cy="31.07" r="0.11"/><circle class="cls-3" cx="27.94" cy="31.07" r="0.11"/><circle class="cls-3" cx="28.38" cy="31.07" r="0.11"/><circle class="cls-3" cx="28.83" cy="31.07" r="0.11"/><circle class="cls-3" cx="29.28" cy="31.07" r="0.11"/><circle class="cls-3" cx="29.73" cy="31.07" r="0.11"/><circle class="cls-3" cx="30.17" cy="31.07" r="0.11"/><circle class="cls-3" cx="30.62" cy="31.07" r="0.11"/><circle class="cls-3" cx="31.07" cy="31.07" r="0.11"/><circle class="cls-3" cx="31.52" cy="31.07" r="0.11"/><circle class="cls-3" cx="24.36" cy="30.63" r="0.11"/><circle class="cls-3" cx="24.81" cy="30.63" r="0.11"/><circle class="cls-3" cx="25.25" cy="30.63" r="0.11"/><circle class="cls-3" cx="25.7" cy="30.63" r="0.11"/><circle class="cls-3" cx="26.15" cy="30.63" r="0.11"/><circle class="cls-3" cx="26.59" cy="30.63" r="0.11"/><circle class="cls-3" cx="27.04" cy="30.63" r="0.11"/><circle class="cls-3" cx="27.49" cy="30.63" r="0.11"/><circle class="cls-3" cx="27.94" cy="30.63" r="0.11"/><circle class="cls-3" cx="28.38" cy="30.63" r="0.11"/><circle class="cls-3" cx="28.83" cy="30.63" r="0.11"/><circle class="cls-3" cx="29.28" cy="30.63" r="0.11"/><circle class="cls-3" cx="29.73" cy="30.63" r="0.11"/><circle class="cls-3" cx="30.17" cy="30.63" r="0.11"/><circle class="cls-3" cx="30.62" cy="30.63" r="0.11"/><circle class="cls-3" cx="31.07" cy="30.63" r="0.11"/><circle class="cls-3" cx="31.52" cy="30.63" r="0.11"/><circle class="cls-3" cx="31.96" cy="30.63" r="0.11"/><circle class="cls-3" cx="23.91" cy="30.18" r="0.11"/><circle class="cls-3" cx="24.36" cy="30.18" r="0.11"/><circle class="cls-3" cx="24.81" cy="30.18" r="0.11"/><circle class="cls-3" cx="25.25" cy="30.18" r="0.11"/><circle class="cls-3" cx="25.7" cy="30.18" r="0.11"/><circle class="cls-3" cx="26.15" cy="30.18" r="0.11"/><circle class="cls-3" cx="26.59" cy="30.18" r="0.11"/><circle class="cls-3" cx="27.04" cy="30.18" r="0.11"/><circle class="cls-3" cx="27.49" cy="30.18" r="0.11"/><circle class="cls-3" cx="27.94" cy="30.18" r="0.11"/><circle class="cls-3" cx="28.38" cy="30.18" r="0.11"/><circle class="cls-3" cx="28.83" cy="30.18" r="0.11"/><circle class="cls-3" cx="29.28" cy="30.18" r="0.11"/><circle class="cls-3" cx="29.73" cy="30.18" r="0.11"/><circle class="cls-3" cx="30.17" cy="30.18" r="0.11"/><circle class="cls-3" cx="30.62" cy="30.18" r="0.11"/><circle class="cls-3" cx="31.07" cy="30.18" r="0.11"/><circle class="cls-3" cx="31.52" cy="30.18" r="0.11"/><circle class="cls-3" cx="31.96" cy="30.18" r="0.11"/><circle class="cls-3" cx="32.41" cy="30.18" r="0.11"/><circle class="cls-3" cx="23.91" cy="29.73" r="0.11"/><circle class="cls-3" cx="24.36" cy="29.73" r="0.11"/><circle class="cls-3" cx="24.81" cy="29.73" r="0.11"/><circle class="cls-3" cx="25.25" cy="29.73" r="0.11"/><circle class="cls-3" cx="25.7" cy="29.73" r="0.11"/><circle class="cls-3" cx="26.15" cy="29.73" r="0.11"/><circle class="cls-3" cx="26.59" cy="29.73" r="0.11"/><circle class="cls-3" cx="27.04" cy="29.73" r="0.11"/><circle class="cls-3" cx="27.49" cy="29.73" r="0.11"/><circle class="cls-3" cx="27.94" cy="29.73" r="0.11"/><circle class="cls-3" cx="28.38" cy="29.73" r="0.11"/><circle class="cls-3" cx="28.83" cy="29.73" r="0.11"/><circle class="cls-3" cx="29.28" cy="29.73" r="0.11"/><circle class="cls-3" cx="29.73" cy="29.73" r="0.11"/><circle class="cls-3" cx="30.17" cy="29.73" r="0.11"/><circle class="cls-3" cx="30.62" cy="29.73" r="0.11"/><circle class="cls-3" cx="31.07" cy="29.73" r="0.11"/><circle class="cls-3" cx="31.52" cy="29.73" r="0.11"/><circle class="cls-3" cx="31.96" cy="29.73" r="0.11"/><circle class="cls-3" cx="32.41" cy="29.73" r="0.11"/><circle class="cls-3" cx="23.46" cy="29.29" r="0.11"/><circle class="cls-3" cx="23.91" cy="29.29" r="0.11"/><circle class="cls-3" cx="24.36" cy="29.29" r="0.11"/><circle class="cls-3" cx="24.81" cy="29.29" r="0.11"/><circle class="cls-3" cx="25.25" cy="29.29" r="0.11"/><circle class="cls-3" cx="25.7" cy="29.29" r="0.11"/><circle class="cls-3" cx="26.15" cy="29.29" r="0.11"/><circle class="cls-3" cx="26.59" cy="29.29" r="0.11"/><circle class="cls-3" cx="27.04" cy="29.29" r="0.11"/><circle class="cls-3" cx="27.49" cy="29.29" r="0.11"/><circle class="cls-3" cx="27.94" cy="29.29" r="0.11"/><circle class="cls-3" cx="28.38" cy="29.29" r="0.11"/><circle class="cls-3" cx="28.83" cy="29.29" r="0.11"/><circle class="cls-3" cx="29.28" cy="29.29" r="0.11"/><circle class="cls-3" cx="29.73" cy="29.29" r="0.11"/><circle class="cls-3" cx="30.17" cy="29.29" r="0.11"/><circle class="cls-3" cx="30.62" cy="29.29" r="0.11"/><circle class="cls-3" cx="31.07" cy="29.29" r="0.11"/><circle class="cls-3" cx="31.52" cy="29.29" r="0.11"/><circle class="cls-3" cx="31.96" cy="29.29" r="0.11"/><circle class="cls-3" cx="32.41" cy="29.29" r="0.11"/><circle class="cls-3" cx="32.86" cy="29.29" r="0.11"/><circle class="cls-3" cx="23.46" cy="28.84" r="0.11"/><circle class="cls-3" cx="23.91" cy="28.84" r="0.11"/><circle class="cls-3" cx="24.36" cy="28.84" r="0.11"/><circle class="cls-3" cx="24.81" cy="28.84" r="0.11"/><circle class="cls-3" cx="25.25" cy="28.84" r="0.11"/><circle class="cls-3" cx="25.7" cy="28.84" r="0.11"/><circle class="cls-3" cx="26.15" cy="28.84" r="0.11"/><circle class="cls-3" cx="26.59" cy="28.84" r="0.11"/><circle class="cls-3" cx="27.04" cy="28.84" r="0.11"/><circle class="cls-3" cx="27.49" cy="28.84" r="0.11"/><circle class="cls-3" cx="27.94" cy="28.84" r="0.11"/><circle class="cls-3" cx="28.38" cy="28.84" r="0.11"/><circle class="cls-3" cx="28.83" cy="28.84" r="0.11"/><circle class="cls-3" cx="29.28" cy="28.84" r="0.11"/><circle class="cls-3" cx="29.73" cy="28.84" r="0.11"/><circle class="cls-3" cx="30.17" cy="28.84" r="0.11"/><circle class="cls-3" cx="30.62" cy="28.84" r="0.11"/><circle class="cls-3" cx="31.07" cy="28.84" r="0.11"/><circle class="cls-3" cx="31.52" cy="28.84" r="0.11"/><circle class="cls-3" cx="31.96" cy="28.84" r="0.11"/><circle class="cls-3" cx="32.41" cy="28.84" r="0.11"/><circle class="cls-3" cx="32.86" cy="28.84" r="0.11"/><circle class="cls-3" cx="23.02" cy="28.39" r="0.11"/><circle class="cls-3" cx="23.46" cy="28.39" r="0.11"/><circle class="cls-3" cx="23.91" cy="28.39" r="0.11"/><circle class="cls-3" cx="24.36" cy="28.39" r="0.11"/><circle class="cls-3" cx="24.81" cy="28.39" r="0.11"/><circle class="cls-3" cx="25.25" cy="28.39" r="0.11"/><circle class="cls-3" cx="25.7" cy="28.39" r="0.11"/><circle class="cls-3" cx="26.15" cy="28.39" r="0.11"/><circle class="cls-3" cx="26.59" cy="28.39" r="0.11"/><circle class="cls-3" cx="27.04" cy="28.39" r="0.11"/><circle class="cls-3" cx="27.49" cy="28.39" r="0.11"/><circle class="cls-3" cx="27.94" cy="28.39" r="0.11"/><circle class="cls-3" cx="28.38" cy="28.39" r="0.11"/><circle class="cls-3" cx="28.83" cy="28.39" r="0.11"/><circle class="cls-3" cx="29.28" cy="28.39" r="0.11"/><circle class="cls-3" cx="29.73" cy="28.39" r="0.11"/><circle class="cls-3" cx="30.17" cy="28.39" r="0.11"/><circle class="cls-3" cx="30.62" cy="28.39" r="0.11"/><circle class="cls-3" cx="31.07" cy="28.39" r="0.11"/><circle class="cls-3" cx="31.52" cy="28.39" r="0.11"/><circle class="cls-3" cx="31.96" cy="28.39" r="0.11"/><circle class="cls-3" cx="32.41" cy="28.39" r="0.11"/><circle class="cls-3" cx="32.86" cy="28.39" r="0.11"/><circle class="cls-3" cx="33.3" cy="28.39" r="0.11"/><circle class="cls-3" cx="23.02" cy="27.94" r="0.11"/><circle class="cls-3" cx="23.46" cy="27.94" r="0.11"/><circle class="cls-3" cx="23.91" cy="27.94" r="0.11"/><circle class="cls-3" cx="24.36" cy="27.94" r="0.11"/><circle class="cls-3" cx="24.81" cy="27.94" r="0.11"/><circle class="cls-3" cx="25.25" cy="27.94" r="0.11"/><circle class="cls-3" cx="25.7" cy="27.94" r="0.11"/><circle class="cls-3" cx="26.15" cy="27.94" r="0.11"/><circle class="cls-3" cx="26.59" cy="27.94" r="0.11"/><circle class="cls-3" cx="27.04" cy="27.94" r="0.11"/><circle class="cls-3" cx="27.49" cy="27.94" r="0.11"/><circle class="cls-3" cx="27.94" cy="27.94" r="0.11"/><circle class="cls-3" cx="28.38" cy="27.94" r="0.11"/><circle class="cls-3" cx="28.83" cy="27.94" r="0.11"/><circle class="cls-3" cx="29.28" cy="27.94" r="0.11"/><circle class="cls-3" cx="29.73" cy="27.94" r="0.11"/><circle class="cls-3" cx="30.17" cy="27.94" r="0.11"/><circle class="cls-3" cx="30.62" cy="27.94" r="0.11"/><circle class="cls-3" cx="31.07" cy="27.94" r="0.11"/><circle class="cls-3" cx="31.52" cy="27.94" r="0.11"/><circle class="cls-3" cx="31.96" cy="27.94" r="0.11"/><circle class="cls-3" cx="32.41" cy="27.94" r="0.11"/><circle class="cls-3" cx="32.86" cy="27.94" r="0.11"/><circle class="cls-3" cx="33.3" cy="27.94" r="0.11"/><circle class="cls-3" cx="23.02" cy="27.5" r="0.11"/><circle class="cls-3" cx="23.46" cy="27.5" r="0.11"/><circle class="cls-3" cx="23.91" cy="27.5" r="0.11"/><circle class="cls-3" cx="24.36" cy="27.5" r="0.11"/><circle class="cls-3" cx="24.81" cy="27.5" r="0.11"/><circle class="cls-3" cx="25.25" cy="27.5" r="0.11"/><circle class="cls-3" cx="25.7" cy="27.5" r="0.11"/><circle class="cls-3" cx="26.15" cy="27.5" r="0.11"/><circle class="cls-3" cx="26.59" cy="27.5" r="0.11"/><circle class="cls-3" cx="27.04" cy="27.5" r="0.11"/><circle class="cls-3" cx="27.49" cy="27.5" r="0.11"/><circle class="cls-3" cx="27.94" cy="27.5" r="0.11"/><circle class="cls-3" cx="28.38" cy="27.5" r="0.11"/><circle class="cls-3" cx="28.83" cy="27.5" r="0.11"/><circle class="cls-3" cx="29.28" cy="27.5" r="0.11"/><circle class="cls-3" cx="29.73" cy="27.5" r="0.11"/><circle class="cls-3" cx="30.17" cy="27.5" r="0.11"/><circle class="cls-3" cx="30.62" cy="27.5" r="0.11"/><circle class="cls-3" cx="31.07" cy="27.5" r="0.11"/><circle class="cls-3" cx="31.52" cy="27.5" r="0.11"/><circle class="cls-3" cx="31.96" cy="27.5" r="0.11"/><circle class="cls-3" cx="32.41" cy="27.5" r="0.11"/><circle class="cls-3" cx="32.86" cy="27.5" r="0.11"/><circle class="cls-3" cx="33.3" cy="27.5" r="0.11"/><circle class="cls-3" cx="23.02" cy="27.05" r="0.11"/><circle class="cls-3" cx="23.46" cy="27.05" r="0.11"/><circle class="cls-3" cx="23.91" cy="27.05" r="0.11"/><circle class="cls-3" cx="24.36" cy="27.05" r="0.11"/><circle class="cls-3" cx="24.81" cy="27.05" r="0.11"/><circle class="cls-3" cx="25.25" cy="27.05" r="0.11"/><circle class="cls-3" cx="25.7" cy="27.05" r="0.11"/><circle class="cls-3" cx="26.15" cy="27.05" r="0.11"/><circle class="cls-3" cx="26.59" cy="27.05" r="0.11"/><circle class="cls-3" cx="27.04" cy="27.05" r="0.11"/><circle class="cls-3" cx="27.49" cy="27.05" r="0.11"/><circle class="cls-3" cx="27.94" cy="27.05" r="0.11"/><circle class="cls-3" cx="28.38" cy="27.05" r="0.11"/><circle class="cls-3" cx="28.83" cy="27.05" r="0.11"/><circle class="cls-3" cx="29.28" cy="27.05" r="0.11"/><circle class="cls-3" cx="29.73" cy="27.05" r="0.11"/><circle class="cls-3" cx="30.17" cy="27.05" r="0.11"/><circle class="cls-3" cx="30.62" cy="27.05" r="0.11"/><circle class="cls-3" cx="31.07" cy="27.05" r="0.11"/><circle class="cls-3" cx="31.52" cy="27.05" r="0.11"/><circle class="cls-3" cx="31.96" cy="27.05" r="0.11"/><circle class="cls-3" cx="32.41" cy="27.05" r="0.11"/><circle class="cls-3" cx="32.86" cy="27.05" r="0.11"/><circle class="cls-3" cx="33.3" cy="27.05" r="0.11"/><circle class="cls-3" cx="23.02" cy="26.6" r="0.11"/><circle class="cls-3" cx="23.46" cy="26.6" r="0.11"/><circle class="cls-3" cx="23.91" cy="26.6" r="0.11"/><circle class="cls-3" cx="24.36" cy="26.6" r="0.11"/><circle class="cls-3" cx="24.81" cy="26.6" r="0.11"/><circle class="cls-3" cx="25.25" cy="26.6" r="0.11"/><circle class="cls-3" cx="25.7" cy="26.6" r="0.11"/><circle class="cls-3" cx="26.15" cy="26.6" r="0.11"/><circle class="cls-3" cx="26.59" cy="26.6" r="0.11"/><circle class="cls-3" cx="27.04" cy="26.6" r="0.11"/><circle class="cls-3" cx="27.49" cy="26.6" r="0.11"/><circle class="cls-3" cx="27.94" cy="26.6" r="0.11"/><circle class="cls-3" cx="28.38" cy="26.6" r="0.11"/><circle class="cls-3" cx="28.83" cy="26.6" r="0.11"/><circle class="cls-3" cx="29.28" cy="26.6" r="0.11"/><circle class="cls-3" cx="29.73" cy="26.6" r="0.11"/><circle class="cls-3" cx="30.17" cy="26.6" r="0.11"/><circle class="cls-3" cx="30.62" cy="26.6" r="0.11"/><circle class="cls-3" cx="31.07" cy="26.6" r="0.11"/><circle class="cls-3" cx="31.52" cy="26.6" r="0.11"/><circle class="cls-3" cx="31.96" cy="26.6" r="0.11"/><circle class="cls-3" cx="32.41" cy="26.6" r="0.11"/><circle class="cls-3" cx="32.86" cy="26.6" r="0.11"/><circle class="cls-3" cx="33.3" cy="26.6" r="0.11"/><circle class="cls-3" cx="23.02" cy="26.15" r="0.11"/><circle class="cls-3" cx="23.46" cy="26.15" r="0.11"/><circle class="cls-3" cx="23.91" cy="26.15" r="0.11"/><circle class="cls-3" cx="24.36" cy="26.15" r="0.11"/><circle class="cls-3" cx="24.81" cy="26.15" r="0.11"/><circle class="cls-3" cx="25.25" cy="26.15" r="0.11"/><circle class="cls-3" cx="25.7" cy="26.15" r="0.11"/><circle class="cls-3" cx="26.15" cy="26.15" r="0.11"/><circle class="cls-3" cx="26.59" cy="26.15" r="0.11"/><circle class="cls-3" cx="27.04" cy="26.15" r="0.11"/><circle class="cls-3" cx="27.49" cy="26.15" r="0.11"/><circle class="cls-3" cx="27.94" cy="26.15" r="0.11"/><circle class="cls-3" cx="28.38" cy="26.15" r="0.11"/><circle class="cls-3" cx="28.83" cy="26.15" r="0.11"/><circle class="cls-3" cx="29.28" cy="26.15" r="0.11"/><circle class="cls-3" cx="29.73" cy="26.15" r="0.11"/><circle class="cls-3" cx="30.17" cy="26.15" r="0.11"/><circle class="cls-3" cx="30.62" cy="26.15" r="0.11"/><circle class="cls-3" cx="31.07" cy="26.15" r="0.11"/><circle class="cls-3" cx="31.52" cy="26.15" r="0.11"/><circle class="cls-3" cx="31.96" cy="26.15" r="0.11"/><circle class="cls-3" cx="32.41" cy="26.15" r="0.11"/><circle class="cls-3" cx="32.86" cy="26.15" r="0.11"/><circle class="cls-3" cx="33.3" cy="26.15" r="0.11"/><circle class="cls-3" cx="23.02" cy="25.71" r="0.11"/><circle class="cls-3" cx="23.46" cy="25.71" r="0.11"/><circle class="cls-3" cx="23.91" cy="25.71" r="0.11"/><circle class="cls-3" cx="24.36" cy="25.71" r="0.11"/><circle class="cls-3" cx="24.81" cy="25.71" r="0.11"/><circle class="cls-3" cx="25.25" cy="25.71" r="0.11"/><circle class="cls-3" cx="25.7" cy="25.71" r="0.11"/><circle class="cls-3" cx="26.15" cy="25.71" r="0.11"/><circle class="cls-3" cx="26.59" cy="25.71" r="0.11"/><circle class="cls-3" cx="27.04" cy="25.71" r="0.11"/><circle class="cls-3" cx="27.49" cy="25.71" r="0.11"/><circle class="cls-3" cx="27.94" cy="25.71" r="0.11"/><circle class="cls-3" cx="28.38" cy="25.71" r="0.11"/><circle class="cls-3" cx="28.83" cy="25.71" r="0.11"/><circle class="cls-3" cx="29.28" cy="25.71" r="0.11"/><circle class="cls-3" cx="29.73" cy="25.71" r="0.11"/><circle class="cls-3" cx="30.17" cy="25.71" r="0.11"/><circle class="cls-3" cx="30.62" cy="25.71" r="0.11"/><circle class="cls-3" cx="31.07" cy="25.71" r="0.11"/><circle class="cls-3" cx="31.52" cy="25.71" r="0.11"/><circle class="cls-3" cx="31.96" cy="25.71" r="0.11"/><circle class="cls-3" cx="32.41" cy="25.71" r="0.11"/><circle class="cls-3" cx="32.86" cy="25.71" r="0.11"/><circle class="cls-3" cx="33.3" cy="25.71" r="0.11"/><circle class="cls-3" cx="23.02" cy="25.26" r="0.11"/><circle class="cls-3" cx="23.46" cy="25.26" r="0.11"/><circle class="cls-3" cx="23.91" cy="25.26" r="0.11"/><circle class="cls-3" cx="24.36" cy="25.26" r="0.11"/><circle class="cls-3" cx="24.81" cy="25.26" r="0.11"/><circle class="cls-3" cx="25.25" cy="25.26" r="0.11"/><circle class="cls-3" cx="25.7" cy="25.26" r="0.11"/><circle class="cls-3" cx="26.15" cy="25.26" r="0.11"/><circle class="cls-3" cx="26.59" cy="25.26" r="0.11"/><circle class="cls-3" cx="27.04" cy="25.26" r="0.11"/><circle class="cls-3" cx="27.49" cy="25.26" r="0.11"/><circle class="cls-3" cx="27.94" cy="25.26" r="0.11"/><circle class="cls-3" cx="28.38" cy="25.26" r="0.11"/><circle class="cls-3" cx="28.83" cy="25.26" r="0.11"/><circle class="cls-3" cx="29.28" cy="25.26" r="0.11"/><circle class="cls-3" cx="29.73" cy="25.26" r="0.11"/><circle class="cls-3" cx="30.17" cy="25.26" r="0.11"/><circle class="cls-3" cx="30.62" cy="25.26" r="0.11"/><circle class="cls-3" cx="31.07" cy="25.26" r="0.11"/><circle class="cls-3" cx="31.52" cy="25.26" r="0.11"/><circle class="cls-3" cx="31.96" cy="25.26" r="0.11"/><circle class="cls-3" cx="32.41" cy="25.26" r="0.11"/><circle class="cls-3" cx="32.86" cy="25.26" r="0.11"/><circle class="cls-3" cx="33.3" cy="25.26" r="0.11"/><circle class="cls-3" cx="23.46" cy="24.81" r="0.11"/><circle class="cls-3" cx="23.91" cy="24.81" r="0.11"/><circle class="cls-3" cx="24.36" cy="24.81" r="0.11"/><circle class="cls-3" cx="24.81" cy="24.81" r="0.11"/><circle class="cls-3" cx="25.25" cy="24.81" r="0.11"/><circle class="cls-3" cx="25.7" cy="24.81" r="0.11"/><circle class="cls-3" cx="26.15" cy="24.81" r="0.11"/><circle class="cls-3" cx="26.59" cy="24.81" r="0.11"/><circle class="cls-3" cx="27.04" cy="24.81" r="0.11"/><circle class="cls-3" cx="27.49" cy="24.81" r="0.11"/><circle class="cls-3" cx="27.94" cy="24.81" r="0.11"/><circle class="cls-3" cx="28.38" cy="24.81" r="0.11"/><circle class="cls-3" cx="28.83" cy="24.81" r="0.11"/><circle class="cls-3" cx="29.28" cy="24.81" r="0.11"/><circle class="cls-3" cx="29.73" cy="24.81" r="0.11"/><circle class="cls-3" cx="30.17" cy="24.81" r="0.11"/><circle class="cls-3" cx="30.62" cy="24.81" r="0.11"/><circle class="cls-3" cx="31.07" cy="24.81" r="0.11"/><circle class="cls-3" cx="31.52" cy="24.81" r="0.11"/><circle class="cls-3" cx="31.96" cy="24.81" r="0.11"/><circle class="cls-3" cx="32.41" cy="24.81" r="0.11"/><circle class="cls-3" cx="32.86" cy="24.81" r="0.11"/><circle class="cls-3" cx="23.46" cy="24.36" r="0.11"/><circle class="cls-3" cx="23.91" cy="24.36" r="0.11"/><circle class="cls-3" cx="24.36" cy="24.36" r="0.11"/><circle class="cls-3" cx="24.81" cy="24.36" r="0.11"/><circle class="cls-3" cx="25.25" cy="24.36" r="0.11"/><circle class="cls-3" cx="25.7" cy="24.36" r="0.11"/><circle class="cls-3" cx="26.15" cy="24.36" r="0.11"/><circle class="cls-3" cx="26.59" cy="24.36" r="0.11"/><circle class="cls-3" cx="27.04" cy="24.36" r="0.11"/><circle class="cls-3" cx="27.49" cy="24.36" r="0.11"/><circle class="cls-3" cx="27.94" cy="24.36" r="0.11"/><circle class="cls-3" cx="28.38" cy="24.36" r="0.11"/><circle class="cls-3" cx="28.83" cy="24.36" r="0.11"/><circle class="cls-3" cx="29.28" cy="24.36" r="0.11"/><circle class="cls-3" cx="29.73" cy="24.36" r="0.11"/><circle class="cls-3" cx="30.17" cy="24.36" r="0.11"/><circle class="cls-3" cx="30.62" cy="24.36" r="0.11"/><circle class="cls-3" cx="31.07" cy="24.36" r="0.11"/><circle class="cls-3" cx="31.52" cy="24.36" r="0.11"/><circle class="cls-3" cx="31.96" cy="24.36" r="0.11"/><circle class="cls-3" cx="32.41" cy="24.36" r="0.11"/><circle class="cls-3" cx="32.86" cy="24.36" r="0.11"/><circle class="cls-3" cx="23.91" cy="23.92" r="0.11"/><circle class="cls-3" cx="24.36" cy="23.92" r="0.11"/><circle class="cls-3" cx="24.81" cy="23.92" r="0.11"/><circle class="cls-3" cx="25.25" cy="23.92" r="0.11"/><circle class="cls-3" cx="25.7" cy="23.92" r="0.11"/><circle class="cls-3" cx="26.15" cy="23.92" r="0.11"/><circle class="cls-3" cx="26.59" cy="23.92" r="0.11"/><circle class="cls-3" cx="27.04" cy="23.92" r="0.11"/><circle class="cls-3" cx="27.49" cy="23.92" r="0.11"/><circle class="cls-3" cx="27.94" cy="23.92" r="0.11"/><circle class="cls-3" cx="28.38" cy="23.92" r="0.11"/><circle class="cls-3" cx="28.83" cy="23.92" r="0.11"/><circle class="cls-3" cx="29.28" cy="23.92" r="0.11"/><circle class="cls-3" cx="29.73" cy="23.92" r="0.11"/><circle class="cls-3" cx="30.17" cy="23.92" r="0.11"/><circle class="cls-3" cx="30.62" cy="23.92" r="0.11"/><circle class="cls-3" cx="31.07" cy="23.92" r="0.11"/><circle class="cls-3" cx="31.52" cy="23.92" r="0.11"/><circle class="cls-3" cx="31.96" cy="23.92" r="0.11"/><circle class="cls-3" cx="32.41" cy="23.92" r="0.11"/><circle class="cls-3" cx="23.91" cy="23.47" r="0.11"/><circle class="cls-3" cx="24.36" cy="23.47" r="0.11"/><circle class="cls-3" cx="24.81" cy="23.47" r="0.11"/><circle class="cls-3" cx="25.25" cy="23.47" r="0.11"/><circle class="cls-3" cx="25.7" cy="23.47" r="0.11"/><circle class="cls-3" cx="26.15" cy="23.47" r="0.11"/><circle class="cls-3" cx="26.59" cy="23.47" r="0.11"/><circle class="cls-3" cx="27.04" cy="23.47" r="0.11"/><circle class="cls-3" cx="27.49" cy="23.47" r="0.11"/><circle class="cls-3" cx="27.94" cy="23.47" r="0.11"/><circle class="cls-3" cx="28.38" cy="23.47" r="0.11"/><circle class="cls-3" cx="28.83" cy="23.47" r="0.11"/><circle class="cls-3" cx="29.28" cy="23.47" r="0.11"/><circle class="cls-3" cx="29.73" cy="23.47" r="0.11"/><circle class="cls-3" cx="30.17" cy="23.47" r="0.11"/><circle class="cls-3" cx="30.62" cy="23.47" r="0.11"/><circle class="cls-3" cx="31.07" cy="23.47" r="0.11"/><circle class="cls-3" cx="31.52" cy="23.47" r="0.11"/><circle class="cls-3" cx="31.96" cy="23.47" r="0.11"/><circle class="cls-3" cx="32.41" cy="23.47" r="0.11"/><circle class="cls-3" cx="24.36" cy="23.02" r="0.11"/><circle class="cls-3" cx="24.81" cy="23.02" r="0.11"/><circle class="cls-3" cx="25.25" cy="23.02" r="0.11"/><circle class="cls-3" cx="25.7" cy="23.02" r="0.11"/><circle class="cls-3" cx="26.15" cy="23.02" r="0.11"/><circle class="cls-3" cx="26.59" cy="23.02" r="0.11"/><circle class="cls-3" cx="27.04" cy="23.02" r="0.11"/><circle class="cls-3" cx="27.49" cy="23.02" r="0.11"/><circle class="cls-3" cx="27.94" cy="23.02" r="0.11"/><circle class="cls-3" cx="28.38" cy="23.02" r="0.11"/><circle class="cls-3" cx="28.83" cy="23.02" r="0.11"/><circle class="cls-3" cx="29.28" cy="23.02" r="0.11"/><circle class="cls-3" cx="29.73" cy="23.02" r="0.11"/><circle class="cls-3" cx="30.17" cy="23.02" r="0.11"/><circle class="cls-3" cx="30.62" cy="23.02" r="0.11"/><circle class="cls-3" cx="31.07" cy="23.02" r="0.11"/><circle class="cls-3" cx="31.52" cy="23.02" r="0.11"/><circle class="cls-3" cx="31.96" cy="23.02" r="0.11"/><circle class="cls-3" cx="24.81" cy="22.58" r="0.11"/><circle class="cls-3" cx="25.25" cy="22.58" r="0.11"/><circle class="cls-3" cx="25.7" cy="22.58" r="0.11"/><circle class="cls-3" cx="26.15" cy="22.58" r="0.11"/><circle class="cls-3" cx="26.59" cy="22.58" r="0.11"/><circle class="cls-3" cx="27.04" cy="22.58" r="0.11"/><circle class="cls-3" cx="27.49" cy="22.58" r="0.11"/><circle class="cls-3" cx="27.94" cy="22.58" r="0.11"/><circle class="cls-3" cx="28.38" cy="22.58" r="0.11"/><circle class="cls-3" cx="28.83" cy="22.58" r="0.11"/><circle class="cls-3" cx="29.28" cy="22.58" r="0.11"/><circle class="cls-3" cx="29.73" cy="22.58" r="0.11"/><circle class="cls-3" cx="30.17" cy="22.58" r="0.11"/><circle class="cls-3" cx="30.62" cy="22.58" r="0.11"/><circle class="cls-3" cx="31.07" cy="22.58" r="0.11"/><circle class="cls-3" cx="31.52" cy="22.58" r="0.11"/><circle class="cls-3" cx="25.7" cy="22.13" r="0.11"/><circle class="cls-3" cx="26.15" cy="22.13" r="0.11"/><circle class="cls-3" cx="26.59" cy="22.13" r="0.11"/><circle class="cls-3" cx="27.04" cy="22.13" r="0.11"/><circle class="cls-3" cx="27.49" cy="22.13" r="0.11"/><circle class="cls-3" cx="27.94" cy="22.13" r="0.11"/><circle class="cls-3" cx="28.38" cy="22.13" r="0.11"/><circle class="cls-3" cx="28.83" cy="22.13" r="0.11"/><circle class="cls-3" cx="29.28" cy="22.13" r="0.11"/><circle class="cls-3" cx="29.73" cy="22.13" r="0.11"/><circle class="cls-3" cx="30.17" cy="22.13" r="0.11"/><circle class="cls-3" cx="30.62" cy="22.13" r="0.11"/><circle class="cls-3" cx="26.59" cy="21.68" r="0.11"/><circle class="cls-3" cx="27.04" cy="21.68" r="0.11"/><circle class="cls-3" cx="27.49" cy="21.68" r="0.11"/><circle class="cls-3" cx="27.94" cy="21.68" r="0.11"/><circle class="cls-3" cx="28.38" cy="21.68" r="0.11"/><circle class="cls-3" cx="28.83" cy="21.68" r="0.11"/><circle class="cls-3" cx="29.28" cy="21.68" r="0.11"/><circle class="cls-3" cx="29.73" cy="21.68" r="0.11"/></svg>