<svg id="Layer_1" data-name="Layer 1" xmlns="http://www.w3.org/2000/svg" viewBox="0 0 56 56"><defs><style>.cls-1{fill:#00467f;}.cls-2,.cls-3{fill:#fff;}.cls-2{stroke:#00467f;stroke-miterlimit:10;stroke-width:0.5px;}</style></defs><title>Chills</title><circle class="cls-1" cx="28" cy="28" r="27.76"/><path class="cls-2" d="M32.84,26.79h0c-.51,0-1.06,0-1.63-.07a1.55,1.55,0,0,1-.31,0l-.32,0-.76-.1c-.59,0-1.2-.07-1.81-.07s-1.22,0-1.82.07l-.76.1a1.73,1.73,0,0,1-.32,0,1.63,1.63,0,0,1-.31,0c-.57,0-1.11.07-1.63.07h-.38v2c0,.07,0,.13,0,.2v0h0l.69,9.12-3.24,8.77A2.4,2.4,0,0,0,21.67,50a2.26,2.26,0,0,0,.84.15,2.41,2.41,0,0,0,2.26-1.57l3.42-9.26a2.37,2.37,0,0,0,.15-1l-.6-8h.54l-.08,1,.52,7a2.77,2.77,0,0,1-.16,1.18l-.35.93,3,8.2a2.41,2.41,0,0,0,2.27,1.57,2.21,2.21,0,0,0,.83-.15,2.41,2.41,0,0,0,1.43-3.09l-3.25-8.77L33.21,29v0a1.34,1.34,0,0,0,0-.2v-2h-.38Z"/><path class="cls-2" d="M20.79,16.59a15.38,15.38,0,0,0-1,6.3c0,.35,0,.72,0,1.11a2.37,2.37,0,0,0,.43,1.3,2.58,2.58,0,0,0,1.52,1,5.88,5.88,0,0,0,1.44.15c1.46,0,3.21-.26,5-.25a15.28,15.28,0,0,1,2.45.18,1.54,1.54,0,0,0,.51-3,17.93,17.93,0,0,0-3-.23c-2.06,0-3.94.26-5,.25h-.32c0-.14,0-.28,0-.42a12.27,12.27,0,0,1,.81-5.14,42.34,42.34,0,0,0-.42,5.14v.05c.45,0,1-.05,1.72-.1l.88-.06q.93-.09,2-.09h.39c.71,0,1.36,0,2,.09l.88.06c.68.05,1.27.09,1.72.1v-.05a38.67,38.67,0,0,0-.42-5.14,12.27,12.27,0,0,1,.81,5.14v.42h-.33l-.75,0a1.82,1.82,0,0,1,.38.4A1.93,1.93,0,0,1,32,26.38l.81,0a6,6,0,0,0,1.45-.15,2.59,2.59,0,0,0,1.51-1,2.31,2.31,0,0,0,.44-1.3c0-.39,0-.76,0-1.11a15.52,15.52,0,0,0-1-6.3A4.84,4.84,0,0,0,32.88,14a2.89,2.89,0,0,0-1.15-.27h-.17a1.47,1.47,0,0,0-.29.05,4.72,4.72,0,0,1-6.53,0,1.35,1.35,0,0,0-.29-.05h-.17a2.85,2.85,0,0,0-1.14.27,4.81,4.81,0,0,0-2.35,2.56Z"/><path class="cls-2" d="M28,14.74a4.35,4.35,0,1,0-4.34-4.34A4.35,4.35,0,0,0,28,14.74Z"/><path class="cls-3" d="M21.22,13.74a1.55,1.55,0,0,0-.63.2A1.28,1.28,0,0,0,20,15.12a1.77,1.77,0,0,0,0,.23.19.19,0,0,0,.19.17h0a.19.19,0,0,0,.17-.21,1.37,1.37,0,0,1,0-.19.88.88,0,0,1,.45-.84,1.18,1.18,0,0,1,.33-.13l.13,0a.19.19,0,0,0,.18-.21.18.18,0,0,0-.2-.18Z"/><path class="cls-3" d="M20.8,12.89a2.7,2.7,0,0,0-.87.33,1.9,1.9,0,0,0-.88,1.68,2.45,2.45,0,0,0,0,.46.19.19,0,0,0,.19.17h0a.19.19,0,0,0,.16-.22,2.8,2.8,0,0,1,0-.4,1.48,1.48,0,0,1,.7-1.35,1.55,1.55,0,0,1,.49-.22l.22-.05a.2.2,0,0,0-.05-.39Z"/><path class="cls-3" d="M19,25.87a.19.19,0,1,0-.38,0,1.44,1.44,0,0,0,.21.61,1.25,1.25,0,0,0,1.14.63h0l.26,0a.19.19,0,0,0,.17-.21.19.19,0,0,0-.22-.17H20a.88.88,0,0,1-.83-.43A1.13,1.13,0,0,1,19,26l0-.14Z"/><path class="cls-3" d="M18.22,26.5a1.63,1.63,0,0,1,0-.22.19.19,0,0,0-.22-.16.19.19,0,0,0-.16.22h0a2.36,2.36,0,0,0,.33.85,1.9,1.9,0,0,0,1.65.86h0a3.08,3.08,0,0,0,.51,0,.2.2,0,0,0,.15-.23.18.18,0,0,0-.22-.15l-.44,0A1.46,1.46,0,0,1,18.45,27a1.85,1.85,0,0,1-.23-.48Z"/><path class="cls-3" d="M20,38.58l-.07.05a.2.2,0,0,0-.06.27.2.2,0,0,0,.17.09.14.14,0,0,0,.1,0,1.41,1.41,0,0,0,.63-1.12,1.5,1.5,0,0,0-.33-.9.19.19,0,0,0-.26,0,.19.19,0,0,0-.05.27,1.16,1.16,0,0,1,.25.67,1,1,0,0,1-.22.59c-.06.07-.12.12-.16.16Z"/><path class="cls-3" d="M20.81,39.09l-.1.09a.2.2,0,0,0,0,.27.19.19,0,0,0,.27,0h0a2.13,2.13,0,0,0,.82-1.59,2.22,2.22,0,0,0-.54-1.4.19.19,0,0,0-.27,0,.2.2,0,0,0,0,.28,1.86,1.86,0,0,1,.46,1.16,1.47,1.47,0,0,1-.34.93,1.6,1.6,0,0,1-.23.26Z"/><path class="cls-3" d="M34.59,13.92a.19.19,0,0,0,.18.21h0l.14,0a.94.94,0,0,1,.77,1c0,.06,0,.12,0,.19a.19.19,0,0,0,.17.21h0a.19.19,0,0,0,.19-.18,1.77,1.77,0,0,0,0-.23,1.28,1.28,0,0,0-.64-1.18,1.53,1.53,0,0,0-.62-.2.19.19,0,0,0-.21.18Z"/><path class="cls-3" d="M36.08,13.22a2.54,2.54,0,0,0-.87-.33.2.2,0,0,0-.21.17.19.19,0,0,0,.17.22h0l.21.05a1.54,1.54,0,0,1,1.19,1.57,2.8,2.8,0,0,1,0,.4.19.19,0,0,0,.17.22h0a.19.19,0,0,0,.19-.17,2.45,2.45,0,0,0,0-.46,1.88,1.88,0,0,0-.88-1.68Z"/><path class="cls-3" d="M37,26a.9.9,0,0,1-1,.75H35.8a.2.2,0,0,0-.22.17.2.2,0,0,0,.17.21l.26,0h0a1.28,1.28,0,0,0,1.15-.63,1.87,1.87,0,0,0,.21-.61.2.2,0,0,0-.18-.21.19.19,0,0,0-.21.17h0A.5.5,0,0,1,37,26Z"/><path class="cls-3" d="M36.24,28.05a1.88,1.88,0,0,0,1.65-.86,2.15,2.15,0,0,0,.33-.85.18.18,0,0,0-.16-.22.2.2,0,0,0-.22.16h0a1.63,1.63,0,0,1-.05.22,1.54,1.54,0,0,1-1.56,1.16l-.44,0a.19.19,0,0,0-.22.15.2.2,0,0,0,.16.23,3,3,0,0,0,.5,0Z"/><path class="cls-3" d="M35.85,39A.15.15,0,0,0,36,39a.19.19,0,0,0,.16-.09.2.2,0,0,0-.06-.27h0L36,38.58a1,1,0,0,1-.39-.75,1.16,1.16,0,0,1,.25-.67.19.19,0,0,0-.31-.23,1.56,1.56,0,0,0-.33.9A1.44,1.44,0,0,0,35.85,39Z"/><path class="cls-3" d="M35.06,36.46a.19.19,0,0,0-.27,0,2.28,2.28,0,0,0-.54,1.4,2.17,2.17,0,0,0,.82,1.59.28.28,0,0,0,.12,0,.19.19,0,0,0,.15-.08.18.18,0,0,0,0-.27h0l-.1-.09a1.71,1.71,0,0,1-.57-1.19,2,2,0,0,1,.47-1.16.2.2,0,0,0,0-.28Z"/></svg>