<svg id="Layer_1" data-name="Layer 1" xmlns="http://www.w3.org/2000/svg" viewBox="0 0 56 56"><defs><style>.cls-1,.cls-3{fill:#00467f;}.cls-2{fill:#fff;}.cls-3{stroke:#00467f;stroke-miterlimit:10;stroke-width:0.25px;}.cls-4{fill:#231f20;}</style></defs><title>Concentration</title><circle class="cls-1" cx="28" cy="28" r="27.76"/><path class="cls-2" d="M32.68,10.43A4.38,4.38,0,1,1,28.3,6.05,4.38,4.38,0,0,1,32.68,10.43Z"/><path class="cls-3" d="M28.3,15a4.59,4.59,0,1,1,4.58-4.59A4.6,4.6,0,0,1,28.3,15Zm0-8.76a4.18,4.18,0,1,0,4.17,4.17A4.18,4.18,0,0,0,28.3,6.26Z"/><path class="cls-2" d="M33.79,21.08l.12-4.48S33,15.44,28.5,15.44c-5.08,0-6.65.93-6.65.93L23,21.17a72.55,72.55,0,0,0,.22,8.23h0s1,15.2,1,18.07c0,3.15,3.88,2.9,3.88,0,0-3.2.14-11.75.19-14.44l.39,0c.08,3.34.29,12.11.29,14.42,0,3.15,3.88,2.9,3.88,0,0-3.82,1-18.07,1-18.07h0A79,79,0,0,0,33.79,21.08Z"/><path class="cls-3" d="M30.84,50h0a2.2,2.2,0,0,1-2.08-2.48c0-2.17-.19-10.12-.28-13.93-.06,3.05-.19,10.9-.19,13.93A2.3,2.3,0,0,1,26.08,50,2.2,2.2,0,0,1,24,47.47c0-2.83-1-17.91-1-18.06h0a73.27,73.27,0,0,1-.22-8.22l-1.13-4.93.13-.07c.06,0,1.67-1,6.75-1,4.55,0,5.53,1.19,5.57,1.24l0,.06L34,21.07a79.79,79.79,0,0,1,.06,8.34h0v0c-.11,1.46-1,14.41-1,18a2.55,2.55,0,0,1-.69,1.84A2.17,2.17,0,0,1,30.84,50ZM28.08,32.81l.22,0,.38,0h.19v.2c.08,3.58.29,12.15.29,14.42,0,1.43.84,2.07,1.67,2.07A1.74,1.74,0,0,0,32.07,49a2.17,2.17,0,0,0,.57-1.55c0-3.78,1-17.94,1-18.09a80.23,80.23,0,0,0-.06-8.29h0l.11-4.38c-.23-.21-1.41-1-5.2-1-4.15,0-5.94.63-6.41.83l1.07,4.67v0a71.59,71.59,0,0,0,.22,8.19l0,.34h0c.15,2.22,1,15.15,1,17.76,0,1.43.84,2.07,1.67,2.07a1.88,1.88,0,0,0,1.8-2.07c0-3.21.15-11.87.2-14.44Z"/><path class="cls-4" d="M27.46,24.79a1.64,1.64,0,0,1-.86-.24c-.74-.46-.82-.5-2.79-9.73A1.64,1.64,0,0,1,27,14.14c.46,2.16,1,4.49,1.36,6.15,1.25-1.05,2.89-2.45,4.17-3.55.69-.59,1.32-.38,1.91.3s.91,1.59.22,2.18c-6.24,5.36-6.34,5.39-6.79,5.51A1.54,1.54,0,0,1,27.46,24.79Z"/><path class="cls-2" d="M23.53,20.05S23.22,22,23,23.3l7.33-.08A1.66,1.66,0,0,1,32,24.84a1.64,1.64,0,0,1-1.62,1.65L21,26.6h0A1.63,1.63,0,0,1,19.75,26a1.61,1.61,0,0,1-.36-1.35c.3-1.67.77-4.07,1-5.56.36-2.51,1.11-2.59,2.45-3.09"/><path class="cls-3" d="M21,26.8a1.86,1.86,0,0,1-1.41-.65,1.83,1.83,0,0,1-.4-1.51c.08-.5.19-1.06.3-1.64.25-1.35.53-2.88.68-3.92.35-2.44,1.13-2.73,2.3-3.15l.28-.11a.21.21,0,0,1,.14.39l-.28.1c-1.14.42-1.72.63-2,2.83-.15,1.05-.44,2.58-.69,3.94-.11.58-.21,1.13-.3,1.63A1.43,1.43,0,0,0,21,26.39l9.33-.1a1.43,1.43,0,0,0,0-2.86L23,23.51a.21.21,0,0,1-.2-.25c.26-1.32.57-3.22.57-3.24a.21.21,0,0,1,.41.06s-.28,1.71-.53,3L30.29,23a1.84,1.84,0,0,1,0,3.68Z"/><path class="cls-2" d="M32.59,15.92c2.48.71,2.82,3,1.56,4-5.67,4.87-5.82,4.71-6.26,4.83a1.54,1.54,0,0,1-.43.06,1.64,1.64,0,0,1-.86-.24c-.74-.46-.82-.5-2.79-9.73A1.64,1.64,0,0,1,27,14.14c.46,2.16,1,4.49,1.36,6.15l2.3-1.95"/><path class="cls-3" d="M27.46,25a1.81,1.81,0,0,1-1-.27c-.83-.5-.9-.54-2.89-9.86a1.85,1.85,0,0,1,.26-1.39A1.82,1.82,0,0,1,25,12.68a1.79,1.79,0,0,1,1.39.25,1.88,1.88,0,0,1,.8,1.16c.44,2.1.92,4.24,1.28,5.83l2.05-1.74a.2.2,0,0,1,.28,0,.19.19,0,0,1,0,.28l-2.3,2a.19.19,0,0,1-.19,0,.22.22,0,0,1-.14-.14c-.37-1.61-.88-3.91-1.36-6.16a1.43,1.43,0,0,0-.62-.91,1.46,1.46,0,0,0-1.08-.19,1.39,1.39,0,0,0-.91.62,1.49,1.49,0,0,0-.2,1.07c1.95,9.15,2,9.2,2.7,9.6a1.4,1.4,0,0,0,1.13.16h.07c.36-.09.77-.19,6.11-4.77a1.67,1.67,0,0,0,.61-1.67,2.72,2.72,0,0,0-2.1-2,.21.21,0,0,1-.14-.26.21.21,0,0,1,.25-.14A3.13,3.13,0,0,1,35,18a2.12,2.12,0,0,1-.75,2.07C28.87,24.7,28.45,24.8,28,24.91l-.06,0A2,2,0,0,1,27.46,25Z"/></svg>