<svg id="Layer_1" data-name="Layer 1" xmlns="http://www.w3.org/2000/svg" viewBox="0 0 56 56"><defs><style>.cls-1{fill:#00467f;}.cls-2,.cls-3{fill:#fff;}.cls-2{stroke:#00467f;stroke-miterlimit:10;stroke-width:0.5px;}</style></defs><title>Cough</title><circle class="cls-1" cx="28" cy="28" r="27.76"/><path class="cls-2" d="M30.62,14.76a4.76,4.76,0,0,1-2.22.54,4.89,4.89,0,0,1-4-2.12,8.72,8.72,0,0,0-8.26,11.27h0a11.76,11.76,0,0,0,4.2,5.78,1.59,1.59,0,0,0,2-2.49,8.67,8.67,0,0,1-3.13-4.21h0a5.37,5.37,0,0,1,.41-4.15,22.65,22.65,0,0,0,.33,4.68,13.29,13.29,0,0,0,2.64,3.37A2,2,0,0,1,21.3,31h0a24.1,24.1,0,0,1,.15,2.78,30,30,0,0,1-2.91,12.76A2.49,2.49,0,0,0,23,48.62a35.06,35.06,0,0,0,3.39-14.87q0-.61,0-1.17A23.71,23.71,0,0,1,27.55,35a25.43,25.43,0,0,1,2,9.74,21.76,21.76,0,0,1-.14,2.52A2.48,2.48,0,0,0,31.63,50l.28,0a2.49,2.49,0,0,0,2.47-2.2,27.47,27.47,0,0,0,.18-3.09A30.48,30.48,0,0,0,32,32.83a30.18,30.18,0,0,0-1.44-2.94c-.11-.28-.22-.56-.28-.78-1.45-4.09-1.09-6.45.13-8.87a20.16,20.16,0,0,1,1.73,8.26c0,.54,0,1.09-.06,1.66a1.59,1.59,0,0,0,1.47,1.71h.12a1.59,1.59,0,0,0,1.58-1.47c0-.65.07-1.28.07-1.9A21.45,21.45,0,0,0,31,15.11,1.74,1.74,0,0,0,30.62,14.76Z"/><circle class="cls-2" cx="28.4" cy="10.43" r="4.48"/><path class="cls-3" d="M39.12,12.16c-.45,0-.89.28-1.31.1s-.72-.54-1.13-.72c-.87-.36-1.35.53-1.56,1.2-.08.28.69.18.77-.09s.12-.8.52-.54.51.37.79.53a1.71,1.71,0,0,0,1.4,0c.91-.32.91,1.62.87,2-.09.8-.71.8-1.33,1.05a1.69,1.69,0,0,0-1,1c-.23.64,0,1.47-1,1.31-1.49-.24-2.17-1.76-1-2.83.34-.31-.42-.32-.62-.14-1.45,1.33-.6,3,1.17,3.4A2,2,0,0,0,37.51,18a1.68,1.68,0,0,0,.35-1.15c0-.76.81-.88,1.39-1.08.86-.29,1-.91,1-1.77C40.26,13.34,40,12.17,39.12,12.16Z"/><path class="cls-3" d="M33.22,13.87a6.71,6.71,0,0,1,2.78,1,.54.54,0,0,0,.74-.13.51.51,0,0,0-.28-.79,7.36,7.36,0,0,0-3.24-.21C32.89,13.75,32.89,13.83,33.22,13.87Z"/></svg>