<svg id="Layer_1" data-name="Layer 1" xmlns="http://www.w3.org/2000/svg" viewBox="0 0 56 56"><defs><style>.cls-1{fill:#00467f;}.cls-2{fill:#fff;}</style></defs><title>Decreased_Appetite</title><circle class="cls-1" cx="28" cy="28" r="27.76"/><circle class="cls-2" cx="42.14" cy="14.52" r="4.01"/><path class="cls-2" d="M37,15.33c-2.95-3.14-9.79-.66-9.84,11.33,0,2.41.14,4.54,1.75,5.46V45.76a2.3,2.3,0,0,0,4.6,0l.07-16.71c.09-1.22-.64-8.63,1.78-7.4V32.29a1.38,1.38,0,1,0,2.75,0V18.09A4.25,4.25,0,0,0,37,15.33Z"/><polygon class="cls-2" points="23.9 32.27 24.9 31.02 17.88 31.02 10.87 31.02 11.87 32.27 17.38 32.27 17.38 46.8 15.38 46.8 15.38 48.06 20.39 48.06 20.39 46.8 18.64 46.8 18.64 32.27 23.9 32.27"/><path class="cls-2" d="M11.62,19.75l-.5.25,5.76,6h-4a5,5,0,0,0,10,0h-5Z"/><path class="cls-2" d="M21.64,24.76v-.5c-.25,0-.5-.5-.5-.75a.81.81,0,0,1,.75-.76v-.5c-1,0-1.5.5-1.5,1.26A1.18,1.18,0,0,0,21.64,24.76Z"/><path class="cls-2" d="M19.14,23.51V23a.81.81,0,0,1-.76-.75.67.67,0,0,1,.76-.75V21a1.26,1.26,0,1,0,0,2.51Z"/><path class="cls-2" d="M21.64,19.75a1.18,1.18,0,0,0-1.25-1.25v.75a.8.8,0,0,1,.75.75c0,.5-.5.5-.75.5V21A1.18,1.18,0,0,0,21.64,19.75Z"/></svg>