<svg id="Layer_1" data-name="Layer 1" xmlns="http://www.w3.org/2000/svg" viewBox="0 0 56 56"><defs><style>.cls-1{fill:#00467f;}.cls-2,.cls-3,.cls-4,.cls-5,.cls-6{fill:#fff;}.cls-2,.cls-3,.cls-4{stroke:#00467f;}.cls-2,.cls-3{stroke-miterlimit:10;}.cls-2{stroke-width:0.47px;}.cls-3{stroke-width:0.5px;}.cls-4,.cls-5{stroke-linecap:round;stroke-linejoin:round;}.cls-4{stroke-width:2px;}.cls-5{stroke:#fff;stroke-width:0.25px;}</style></defs><title>Depression</title><circle class="cls-1" cx="28" cy="28" r="27.76"/><circle class="cls-2" cx="38.74" cy="14.81" r="4.6"/><path class="cls-3" d="M35.75,28.43a2.28,2.28,0,0,0-2.24-1.87h-7a22,22,0,0,1,3.63-4,27.7,27.7,0,0,0,2.63-2.47,4.73,4.73,0,0,0,.55-4.41C32.4,13.61,29.14,13,26.45,15a29.87,29.87,0,0,0-8.27,9.24c-1.66,2.89-.68,6.06,1.5,6.69a4.7,4.7,0,0,0,1,.17,2.33,2.33,0,0,0,.53.06H31.62l2.07,11.31a2.26,2.26,0,0,0,2.23,1.86,2.69,2.69,0,0,0,.4,0,2.41,2.41,0,0,0,1.81-2.8Z"/><polygon class="cls-2" points="14.52 32.38 12.58 43.75 27.83 43.75 25.89 32.38 14.52 32.38"/><path class="cls-4" d="M29.3,18.29a24.44,24.44,0,0,0,.91,3.47l.21.56a9.77,9.77,0,0,0,1,2,4.48,4.48,0,0,0,1,1.05,2.79,2.79,0,0,0,1.53.5h0a2.92,2.92,0,0,0,1.71-.6,7.74,7.74,0,0,0,2.12-2.6,28.44,28.44,0,0,0,1.52-3.26c.2-.51.41-1.06.62-1.65a1.18,1.18,0,0,0-.05-.94,1.22,1.22,0,0,0-.7-.64,1.16,1.16,0,0,0-.42-.07,1.23,1.23,0,0,0-1.16.82c-.29.82-.57,1.52-.83,2.14a16.75,16.75,0,0,1-1.69,3.26,3.62,3.62,0,0,1-.85.93l-.29.2-.25-.24a3.6,3.6,0,0,1-.65-.94,12.57,12.57,0,0,1-.71-1.75A19.11,19.11,0,0,1,32,18.6"/><path class="cls-5" d="M29.2,17.57a32.33,32.33,0,0,0,1,4.19l.21.56a9.77,9.77,0,0,0,1,2,4.48,4.48,0,0,0,1,1.05,2.79,2.79,0,0,0,1.53.5h0a2.92,2.92,0,0,0,1.71-.6,7.74,7.74,0,0,0,2.12-2.6,28.44,28.44,0,0,0,1.52-3.26c.2-.51.41-1.06.62-1.65a1.18,1.18,0,0,0-.05-.94,1.22,1.22,0,0,0-.7-.64,1.16,1.16,0,0,0-.42-.07,1.23,1.23,0,0,0-1.16.82c-.29.82-.57,1.52-.83,2.14a16.75,16.75,0,0,1-1.69,3.26,3.62,3.62,0,0,1-.85.93l-.29.2-.25-.24a3.6,3.6,0,0,1-.65-.94,12.57,12.57,0,0,1-.71-1.75c-.15-.47-.47-2.35-.51-2.68"/><polygon class="cls-6" points="29.21 18.2 28.88 16.59 32.06 17.12 32.04 17.59 32.08 18.13 29.21 18.2"/></svg>