<svg id="Layer_1" data-name="Layer 1" xmlns="http://www.w3.org/2000/svg" viewBox="0 0 56 56"><defs><style>.cls-1{fill:#00467f;}.cls-2,.cls-3{fill:#fff;}.cls-2{stroke:#00467f;stroke-miterlimit:10;stroke-width:0.5px;}</style></defs><title>Dizziness</title><circle class="cls-1" cx="28" cy="28" r="27.76"/><path class="cls-2" d="M38.59,22.05a2.53,2.53,0,0,0,.26-1.14,7.9,7.9,0,0,0-.74-2.79,42.41,42.41,0,0,0-2.2-4.33,1.53,1.53,0,0,0-2-.64,4.78,4.78,0,0,1-.72,2.11l0,0c.89,1.58,1.52,2.82,1.92,3.74-.46-.34-.93-.72-1.32-1.05l-.75-.65-.21-.19-.07-.07a.83.83,0,0,0-.16-.12,2.19,2.19,0,0,0-.56-.47A4.73,4.73,0,0,1,25,14.83l-.38-.08-.11,0a1.49,1.49,0,0,0-.47-.07,4.8,4.8,0,0,0-2.57.87A10,10,0,0,0,18.23,19a11.29,11.29,0,0,0-1.5,5.63A13,13,0,0,0,18.6,31.2a1.54,1.54,0,0,0,2.67-1.55,9.82,9.82,0,0,1-1.45-5,8.35,8.35,0,0,1,1.49-4.74,30.1,30.1,0,0,0,1.24,9l0,.16h0a20.65,20.65,0,0,1,.52,4.92,29.09,29.09,0,0,1-2.83,12.37,2.41,2.41,0,0,0,1.16,3.2,2.37,2.37,0,0,0,1,.23,2.4,2.4,0,0,0,2.18-1.39,33.9,33.9,0,0,0,3.28-14.41c0-.4,0-.77,0-1.14.34.64.74,1.43,1.13,2.37a24.64,24.64,0,0,1,2,9.44,22.56,22.56,0,0,1-.13,2.44A2.41,2.41,0,0,0,33,49.84h.28a2.42,2.42,0,0,0,2.4-2.13,28.14,28.14,0,0,0,.17-3,29.74,29.74,0,0,0-2.46-11.56A29.37,29.37,0,0,0,32,30.31a5.93,5.93,0,0,1-.27-.76c-1.49-4.21-1-6.52.35-9l.72.59a19.24,19.24,0,0,0,1.83,1.27,7.35,7.35,0,0,0,1,.49,3.17,3.17,0,0,0,1.19.25,2.12,2.12,0,0,0,.78-.14A2,2,0,0,0,38.59,22.05Z"/><path class="cls-3" d="M33,10.66a4.35,4.35,0,0,0-6.32-1.48c1,.33,2.17.65,3.39.93C31.12,10.34,32.11,10.52,33,10.66Z"/><path class="cls-2" d="M29.21,17.07a4.34,4.34,0,0,0,4.34-4.34,4.26,4.26,0,0,0-.33-1.65c-1-.15-2.08-.34-3.2-.6a37.45,37.45,0,0,1-3.67-1,4.34,4.34,0,0,0,2.86,7.61Z"/><path class="cls-3" d="M26.07,9.24l.07-.2,0-.08h0a16.79,16.79,0,0,1-3-1.33c-.72-.42-1.07-.84-1.05-1v0c0-.12.19-.27.58-.39A6.44,6.44,0,0,1,24.32,6V5.6a7,7,0,0,0-1.71.2c-.43.13-.75.32-.84.67a.59.59,0,0,0,0,.13c0,.5.5.91,1.24,1.36a17,17,0,0,0,3,1.35h0Z"/><path class="cls-3" d="M33.36,11.08l.23,0,.91.1,0-.39h0l-1.12-.12h0Z"/><path class="cls-3" d="M38.51,10.6a3.89,3.89,0,0,1-1.07.22l0,.39A4.47,4.47,0,0,0,38.65,11a.87.87,0,0,0,.6-.58.59.59,0,0,0,0-.13c0-.45-.41-.81-1-1.21a13.17,13.17,0,0,0-2.49-1.21l-.14.36h0a13.39,13.39,0,0,1,2.42,1.17c.57.37.84.73.82.89v.05C38.86,10.39,38.76,10.5,38.51,10.6Z"/><path class="cls-3" d="M27.61,5.86l-.05.38c1,.14,2.13.34,3.29.61.71.16,1.41.34,2.07.52L33,7c-.66-.19-1.36-.37-2.09-.53C29.77,6.2,28.65,6,27.61,5.86Z"/><polygon class="cls-3" points="26.42 5.35 26.17 4.69 25.8 5.29 25.1 5.33 25.56 5.86 25.38 6.54 26.02 6.27 26.61 6.65 26.56 5.95 27.1 5.51 26.42 5.35"/><polygon class="cls-3" points="22.94 10.44 23.41 10.96 23.54 10.27 24.18 9.98 23.56 9.65 23.49 8.95 22.98 9.43 22.29 9.29 22.59 9.92 22.24 10.53 22.94 10.44"/><polygon class="cls-3" points="36.35 10.62 36.02 9.99 35.73 10.63 35.04 10.75 35.55 11.23 35.45 11.92 36.06 11.58 36.69 11.89 36.56 11.2 37.05 10.7 36.35 10.62"/><polygon class="cls-3" points="34.33 7.92 34.84 8.39 34.9 7.69 35.51 7.34 34.86 7.07 34.72 6.38 34.26 6.92 33.56 6.84 33.93 7.44 33.64 8.08 34.33 7.92"/></svg>