<svg id="Layer_1" data-name="Layer 1" xmlns="http://www.w3.org/2000/svg" viewBox="0 0 56 56"><defs><style>.cls-1{fill:#00467f;}.cls-2{fill:#fff;stroke:#00467f;stroke-miterlimit:10;stroke-width:0.48px;}</style></defs><title>Fatigue</title><circle class="cls-1" cx="28" cy="28" r="27.76"/><path class="cls-2" d="M35.92,31.13l-.06.23A2.15,2.15,0,0,1,33.76,33a2.22,2.22,0,0,1-.51-.06,2.18,2.18,0,0,1-1.61-2.61A46.38,46.38,0,0,0,33.16,20,14.08,14.08,0,0,0,33,17.81l.37-.41A13.45,13.45,0,0,1,33.6,20a46.75,46.75,0,0,1-1.53,10.49,1.73,1.73,0,0,0,1.28,2.09,1.92,1.92,0,0,0,.41.05,1.74,1.74,0,0,0,1.68-1.34A50,50,0,0,0,37.07,20a12.62,12.62,0,0,0-1-5.52A1,1,0,0,0,36,14.3,4.67,4.67,0,0,0,33.61,12l-.3-.1a5.32,5.32,0,0,1-10.62,0l-.3.1A4.67,4.67,0,0,0,20,14.3a1,1,0,0,0-.07.15,12.62,12.62,0,0,0-1,5.52,50,50,0,0,0,1.63,11.29,1.74,1.74,0,0,0,1.68,1.34,1.92,1.92,0,0,0,.41-.05,1.73,1.73,0,0,0,1.28-2.09A46.75,46.75,0,0,1,22.4,20a13.45,13.45,0,0,1,.21-2.57l.37.41A13.91,13.91,0,0,0,22.83,20a46.49,46.49,0,0,0,1.53,10.39A2.18,2.18,0,0,1,22.75,33a2.22,2.22,0,0,1-.51.06,2.18,2.18,0,0,1-2.11-1.67c0-.07,0-.15-.05-.23l-1.85,2.48a2.73,2.73,0,0,0-.54,1.81l.76,11.39a2.72,2.72,0,0,0,2.71,2.53h.18a2.72,2.72,0,0,0,2.53-2.88l-.7-10.4,4.59-6.15h.47l4.6,6.15-.7,10.4a2.71,2.71,0,0,0,2.53,2.88h.18a2.72,2.72,0,0,0,2.71-2.53l.75-11.39a2.67,2.67,0,0,0-.53-1.81Z"/><circle class="cls-2" cx="28" cy="11.54" r="4.88"/></svg>