<svg id="Layer_1" data-name="Layer 1" xmlns="http://www.w3.org/2000/svg" viewBox="0 0 56 56"><defs><style>.cls-1{fill:#00467f;}.cls-2,.cls-3{fill:#fff;}.cls-2{stroke:#00467f;stroke-miterlimit:10;stroke-width:0.5px;}</style></defs><title>Fecal_Incontinence</title><circle class="cls-1" cx="28" cy="28" r="27.76"/><path class="cls-2" d="M21.52,24.79a11.75,11.75,0,0,0,.88,1.06V19.34h.49v9.42a2.49,2.49,0,0,0,0,.72h0L23,30l1.61,7.66-3.91,9.09a2.38,2.38,0,0,0,4.37,1.87l4.21-9.78a2.42,2.42,0,0,0,.14-1.43l-1.87-8.87.41-.13,1.88,8.91A3,3,0,0,1,29.71,39l-1.34,3.12,2.79,6.49a2.38,2.38,0,0,0,3.12,1.25,2.38,2.38,0,0,0,1.25-3.12l-3.91-9.09,1.72-8.18a2.49,2.49,0,0,0,0-.72V19.34h.42V27a12.82,12.82,0,0,0,1-1.42,8.77,8.77,0,0,0,1.3-4.49,8.61,8.61,0,0,0-1-4,8.79,8.79,0,0,0-.57-.93,10,10,0,0,0-1.37-1.63,1.48,1.48,0,0,0-1.2-.6H31.3a4.8,4.8,0,0,1-6.33,0h-.58a1.46,1.46,0,0,0-1,.38,8.88,8.88,0,0,0-1.6,1.33,7.47,7.47,0,0,0-1.33,1.87,6,6,0,0,0-.27.63,6.19,6.19,0,0,0-.37,2.07A7.74,7.74,0,0,0,21.52,24.79Z"/><circle class="cls-2" cx="28.14" cy="10.33" r="4.37"/><path class="cls-3" d="M22.22,13.79h.11a.2.2,0,0,0,0-.39h-.14a1.28,1.28,0,0,0-1.22.66,1.47,1.47,0,0,0-.18.66.19.19,0,0,0,.19.2h0a.19.19,0,0,0,.19-.19h0a.86.86,0,0,1,0-.15A.93.93,0,0,1,22.22,13.79Z"/><path class="cls-3" d="M20.14,14.57h0a.2.2,0,0,0,.2-.18h0a.93.93,0,0,1,0-.23A1.53,1.53,0,0,1,22,12.92h.28a.2.2,0,0,0,.22-.17.19.19,0,0,0-.18-.21,1.77,1.77,0,0,0-.32,0,1.89,1.89,0,0,0-1.74.92,2.17,2.17,0,0,0-.3.91A.19.19,0,0,0,20.14,14.57Z"/><path class="cls-3" d="M22.81,36.25a.19.19,0,0,0-.28,0,1.33,1.33,0,0,0,0,2,.18.18,0,0,0,.12,0,.18.18,0,0,0,.15-.07.19.19,0,0,0,0-.27l-.05-.05a1,1,0,0,1,.06-1.42A.2.2,0,0,0,22.81,36.25Z"/><path class="cls-3" d="M21.85,35.72a2,2,0,0,0-.14,3,.18.18,0,0,0,.13.06.2.2,0,0,0,.14-.06.18.18,0,0,0,0-.27l-.07-.08a1.79,1.79,0,0,1-.42-1.08A1.73,1.73,0,0,1,22.12,36a.19.19,0,0,0,0-.28A.19.19,0,0,0,21.85,35.72Z"/><path class="cls-3" d="M34.88,14.43h0l.11,0a.93.93,0,0,1,.6.84,1.71,1.71,0,0,1-.08.45.18.18,0,0,0,.12.24h.06a.21.21,0,0,0,.19-.13,2,2,0,0,0,.09-.57,1.21,1.21,0,0,0-.49-1,1.59,1.59,0,0,0-.49-.26.2.2,0,0,0-.11.38Z"/><path class="cls-3" d="M35.44,13.69a.52.52,0,0,1,.16.07,1.52,1.52,0,0,1,.91,1.38,2.31,2.31,0,0,1-.15.79.19.19,0,0,0,.11.25h.07a.19.19,0,0,0,.18-.13,2.53,2.53,0,0,0,.18-.92,1.84,1.84,0,0,0-.67-1.43,2.11,2.11,0,0,0-.66-.39.2.2,0,0,0-.25.12A.21.21,0,0,0,35.44,13.69Z"/><path class="cls-3" d="M34.43,29.15a.19.19,0,0,0-.11.25.2.2,0,0,0,.18.12h.07a1.33,1.33,0,0,0,1-1.27,1.46,1.46,0,0,0-.11-.57.19.19,0,0,0-.25-.1.2.2,0,0,0-.11.26.39.39,0,0,1,0,.11,1.14,1.14,0,0,1,0,.3C35.14,28.55,35.05,28.9,34.43,29.15Z"/><path class="cls-3" d="M34.89,30.29H35a2,2,0,0,0,1.53-1.91,2.35,2.35,0,0,0-.11-.71.21.21,0,0,0-.25-.12.2.2,0,0,0-.12.25A1.47,1.47,0,0,1,36,28a1.6,1.6,0,0,1-1.21,2,.2.2,0,0,0-.12.25A.18.18,0,0,0,34.89,30.29Z"/><path class="cls-3" d="M21.86,27.72a.2.2,0,0,0-.28,0,1.47,1.47,0,0,0-.39.95,1.45,1.45,0,0,0,.55,1.07.16.16,0,0,0,.12,0,.21.21,0,0,0,.15-.08.19.19,0,0,0,0-.27h0l0-.05a1,1,0,0,1-.34-.71,1.1,1.1,0,0,1,.3-.7A.2.2,0,0,0,21.86,27.72Z"/><path class="cls-3" d="M20.87,27.26a2.15,2.15,0,0,0-.64,1.48,2.09,2.09,0,0,0,.7,1.5.21.21,0,0,0,.13.05.19.19,0,0,0,.12-.34h0l-.08-.09a1.68,1.68,0,0,1-.49-1.12,1.81,1.81,0,0,1,.55-1.22.19.19,0,0,0-.29-.26Z"/><path class="cls-3" d="M33,38.43a.24.24,0,0,0,.14,0,.2.2,0,0,0,.14-.06,1.34,1.34,0,0,0,0-2,.19.19,0,0,0-.27,0,.2.2,0,0,0,0,.28h0l0,0a1.11,1.11,0,0,1,.29.69,1,1,0,0,1-.35.73A.2.2,0,0,0,33,38.43Z"/><path class="cls-3" d="M33.85,39A.2.2,0,0,0,34,39a2.17,2.17,0,0,0,.74-1.54A2.23,2.23,0,0,0,34.12,36a.2.2,0,0,0-.28,0,.19.19,0,0,0,0,.27h0l.07.08a1.79,1.79,0,0,1,.42,1.08,1.75,1.75,0,0,1-.62,1.26.2.2,0,0,0,0,.28A.2.2,0,0,0,33.85,39Z"/></svg>