<svg id="Layer_1" data-name="Layer 1" xmlns="http://www.w3.org/2000/svg" viewBox="0 0 56 56"><defs><style>.cls-1{fill:#00467f;}.cls-2,.cls-3{fill:#fff;}.cls-2{stroke:#00467f;stroke-miterlimit:10;stroke-width:0.48px;}</style></defs><title>General_Pain</title><circle class="cls-1" cx="28" cy="28" r="27.76"/><path class="cls-2" d="M27.14,23.44a20.35,20.35,0,0,1-3,1.38,9.16,9.16,0,0,1-2.52.56H21.3a5,5,0,0,1-1-.09v4.32a113.24,113.24,0,0,0-1,16.81,2.52,2.52,0,0,0,5,0A128.32,128.32,0,0,1,25,33.12H26.2a128.32,128.32,0,0,1,.59,13.31,2.52,2.52,0,0,0,5,0,113.24,113.24,0,0,0-1-16.81V24.4a14.71,14.71,0,0,1-3.36-.81A2.07,2.07,0,0,1,27.14,23.44Z"/><path class="cls-2" d="M20.34,24.9a4.34,4.34,0,0,0,1,.1,7,7,0,0,0,1.09-.1,8.43,8.43,0,0,0,.91-.21,16.81,16.81,0,0,0,3.5-1.5l.36-.2.32-.18A1.57,1.57,0,0,0,28,20.68a1.82,1.82,0,0,0-.36-.42,1.86,1.86,0,0,0-.43-.25,1.56,1.56,0,0,0-1.33.11A10.72,10.72,0,0,1,21.3,21.9h-.12a23.2,23.2,0,0,0,4.54-2.1,1.88,1.88,0,0,1,1-.27,2,2,0,0,1,1.06.32,2,2,0,0,1,.34,0,1.9,1.9,0,0,1,.63.11c.46.15.9.29,1.3.39a2.15,2.15,0,0,0-.16-.87c.05.08.11.15.17.23a11.35,11.35,0,0,1,.8,1.2v0h0a13,13,0,0,1-2.24-.6,1.63,1.63,0,0,0-.43-.08,3,3,0,0,1,.2.29,1.85,1.85,0,0,1,.2,1.47,1.91,1.91,0,0,1-.9,1.18l-.11.07h0a14.38,14.38,0,0,0,3.24.79l.59,0a3.08,3.08,0,0,0,1.93-.58,2.19,2.19,0,0,0,.7-.9,2.4,2.4,0,0,0,.19-1,4.72,4.72,0,0,0-.68-2.2,13.8,13.8,0,0,0-1.15-1.71c-.23-.31-.46-.6-.68-.85-.58-.7-1-1.18-1.06-1.2a1.57,1.57,0,0,0-1.26-.47h-.37l-.16.15c-.17.15-.34.28-.52.41a5.14,5.14,0,0,1-1.66.72,5.35,5.35,0,0,1-1.12.13,4.94,4.94,0,0,1-2.66-.78,4.43,4.43,0,0,1-.65-.49l-.15-.14h-.29a1.34,1.34,0,0,0-.35,0,3.06,3.06,0,0,0-1.73.78,6.35,6.35,0,0,0-1.6,2.3,7.25,7.25,0,0,0-.64,2.86,4,4,0,0,0,.87,2.63,3.26,3.26,0,0,0,1,.82l.24.11A4,4,0,0,0,20.34,24.9Z"/><path class="cls-2" d="M26.62,16.06a4.56,4.56,0,1,0-3.9-.9A4.53,4.53,0,0,0,26.62,16.06Z"/><polygon class="cls-3" points="34.35 15.08 38.86 12.92 37.3 11.8 40.42 9.79 39.93 9.13 36.31 11.81 37.78 12.73 34.24 14.92 34.35 15.08"/><polygon class="cls-3" points="41.3 14.51 37.51 14.96 38.2 16.25 34.69 16.37 34.7 16.53 38.92 16.84 38.25 15.36 41.38 15.2 41.3 14.51"/><polygon class="cls-3" points="32.78 14.14 35.4 10.91 33.83 10.62 35.45 7.99 34.84 7.67 33.08 10.99 34.52 11.15 32.65 14.06 32.78 14.14"/></svg>