<svg id="Layer_1" data-name="Layer 1" xmlns="http://www.w3.org/2000/svg" viewBox="0 0 56 56"><defs><style>.cls-1{fill:#00467f;}.cls-2,.cls-3{fill:#fff;}.cls-2{stroke:#00467f;stroke-miterlimit:10;stroke-width:0.51px;}</style></defs><title>Headache</title><circle class="cls-1" cx="28" cy="28" r="27.76"/><path class="cls-2" d="M35.42,15.53a7.66,7.66,0,0,0-1.09-1.06,1.46,1.46,0,0,0-1.73,0,4.43,4.43,0,0,1-.27,2.1,1.88,1.88,0,0,0,.25.24,3.29,3.29,0,0,1,.43.41,8.11,8.11,0,0,1,.65.78,9.41,9.41,0,0,1,1.15,1.91,2.65,2.65,0,0,1,.24.87.6.6,0,0,1-.18,0l-.21,0a3.47,3.47,0,0,1-1.25-.31,6.37,6.37,0,0,1-.75-.39h0a1.45,1.45,0,0,0-.91-.25c-.09,0-.18,0-.21-.28h-7c-.16.26-.24.27-.33.28a1.49,1.49,0,0,0-.87.25h0a5.84,5.84,0,0,1-.74.39,3.52,3.52,0,0,1-1.25.31l-.22,0a.61.61,0,0,1-.17,0,2.83,2.83,0,0,1,.23-.87A9,9,0,0,1,22.32,18a10,10,0,0,1,.64-.78,4.12,4.12,0,0,1,.43-.41,1.48,1.48,0,0,0,.26-.24,3.89,3.89,0,0,1-.18-.58,4.61,4.61,0,0,1-.1-1.52,1.46,1.46,0,0,0-1.73,0,7.62,7.62,0,0,0-1.08,1.06,13.86,13.86,0,0,0-1.64,2.33,6.26,6.26,0,0,0-.9,2.92,2.85,2.85,0,0,0,.68,1.92,3.2,3.2,0,0,0,1.95,1,3.85,3.85,0,0,0,.67,0A5.5,5.5,0,0,0,23,23.45v25a2.26,2.26,0,0,0,4.51,0V35.12h.84V48.46a2.25,2.25,0,0,0,4.5,0v-25a5.6,5.6,0,0,0,1.78.31,3.85,3.85,0,0,0,.67,0,3.22,3.22,0,0,0,2-1A2.85,2.85,0,0,0,38,20.78a6.49,6.49,0,0,0-.9-2.92A14.46,14.46,0,0,0,35.42,15.53Z"/><path class="cls-2" d="M23.89,16.13a4.27,4.27,0,0,0,8.2,0,3.9,3.9,0,0,0,.17-1.32,3.54,3.54,0,0,0-.11-.85,4.28,4.28,0,0,0-8.44.85,4.53,4.53,0,0,0,.11,1.09A1.55,1.55,0,0,0,23.89,16.13Z"/><polygon class="cls-3" points="33.36 11.48 37.14 8.86 35.56 8.06 38.1 5.78 37.55 5.25 34.66 8.22 36.13 8.84 33.24 11.35 33.36 11.48"/><polygon class="cls-3" points="39.59 9.93 36.22 10.9 37.03 11.97 33.86 12.6 33.9 12.75 37.77 12.41 36.95 11.16 39.77 10.55 39.59 9.93"/><polygon class="cls-3" points="32.71 4.68 31.61 7.95 32.93 7.89 31.66 10.81 31.8 10.86 33.7 7.54 32.23 7.51 33.32 4.88 32.71 4.68"/></svg>