<svg id="Layer_1" data-name="Layer 1" xmlns="http://www.w3.org/2000/svg" viewBox="0 0 56 56"><defs><style>.cls-1{fill:#00467f;}.cls-2{fill:#fff;}.cls-3{fill:none;stroke:#fff;stroke-linecap:round;stroke-linejoin:round;stroke-width:0.95px;}</style></defs><title>Heart_Palpatation</title><circle class="cls-1" cx="28" cy="28" r="27.76"/><path class="cls-2" d="M36.56,17.38c-.48,0-.94-.06-1.37-.06-3.46,0-5.07,1.49-6.82,3.44l-.37.41h0l-.37-.41c-1.75-2-3.36-3.44-6.82-3.44-.43,0-.89,0-1.37.06-2.88.27-6.18,2.72-6.6,7.47v1.63a14.79,14.79,0,0,0,3.61,7.83A51.61,51.61,0,0,0,28,44.13h0a51.35,51.35,0,0,0,11.55-9.82,14.7,14.7,0,0,0,3.6-7.82V24.86C42.74,20.1,39.45,17.65,36.56,17.38Z"/><path class="cls-3" d="M11.57,32.4a23,23,0,0,0,1.86,2.65c.37.45.77.92,1.2,1.38"/><path class="cls-3" d="M9.27,32.84a34.56,34.56,0,0,0,2.83,4c.57.7.93,1,1.58,1.76"/><path class="cls-3" d="M41.37,36.43c.43-.46.83-.93,1.2-1.38a23,23,0,0,0,1.86-2.65"/><path class="cls-3" d="M42.32,38.63c.65-.72,1-1.06,1.58-1.76a34.56,34.56,0,0,0,2.83-4"/><path class="cls-2" d="M14.21,15.64a2.44,2.44,0,0,1,2.42-.36.49.49,0,0,0,.6-.33.49.49,0,0,0-.34-.6,3.41,3.41,0,0,0-3.31.56,3.71,3.71,0,0,0-1.14,1.86.48.48,0,1,0,.94.22h0a1.26,1.26,0,0,1,0-.12A2.85,2.85,0,0,1,14.21,15.64Z"/><path class="cls-2" d="M17.43,13.05a.45.45,0,0,0,.15-.21.5.5,0,0,0-.31-.62,5,5,0,0,0-5.12.75,5.61,5.61,0,0,0-1.61,2.44.49.49,0,0,0,.33.6.48.48,0,0,0,.6-.33h0l.06-.18a4.85,4.85,0,0,1,1.25-1.8c.84-.71,2.08-1.22,4.19-.55A.48.48,0,0,0,17.43,13.05Z"/><path class="cls-2" d="M42.58,16.87a1.26,1.26,0,0,1,0,.12h0a.48.48,0,0,0,.94-.22,3.8,3.8,0,0,0-1.14-1.86,3.41,3.41,0,0,0-3.31-.56.49.49,0,0,0-.34.6.49.49,0,0,0,.6.33,2.44,2.44,0,0,1,2.42.36A2.85,2.85,0,0,1,42.58,16.87Z"/><path class="cls-2" d="M39,13.15c2.11-.67,3.35-.16,4.19.55a4.85,4.85,0,0,1,1.25,1.8l.06.18h0a.48.48,0,0,0,.6.33.49.49,0,0,0,.33-.6A5.61,5.61,0,0,0,43.85,13a5,5,0,0,0-5.12-.75.5.5,0,0,0-.31.62.45.45,0,0,0,.15.21A.48.48,0,0,0,39,13.15Z"/></svg>