<svg id="Layer_1" data-name="Layer 1" xmlns="http://www.w3.org/2000/svg" viewBox="0 0 56 56"><defs><style>.cls-1,.cls-3{fill:#00467f;}.cls-2{fill:#fff;stroke-width:0.5px;}.cls-2,.cls-3{stroke:#00467f;stroke-miterlimit:10;}.cls-3{stroke-width:0.25px;}</style></defs><title>Heartburn</title><circle class="cls-1" cx="28" cy="28" r="27.76"/><path class="cls-2" d="M17.53,23.33v.12s0,.05,0,.08,0,.06,0,.09l0,.1a.13.13,0,0,0,0,.06l0,.13v0h0l.1.21,0,.05.13.18,0,0,.12.14,0,0,.18.14,0,0a1,1,0,0,0,.17.1h0l.21.09h0l.18,0h.45l.13,0h0a1.58,1.58,0,0,0,.31-.09h0l1.95-.76,6.54-2.56a1.7,1.7,0,0,0-1.24-3.16l-5.17,2-.49.19a11.17,11.17,0,0,1,.71-2v1.2L26.92,18a2.16,2.16,0,0,1,2.77,2.88A2.13,2.13,0,0,1,28.5,22L22.14,24.5V47.25a2.62,2.62,0,1,0,5.24,0V31.33h1V47.25a2.63,2.63,0,0,0,5.25,0V18.66c.94,2,1.79,5.94,1.35,13.39a1.69,1.69,0,0,0,1.6,1.79h.1a1.7,1.7,0,0,0,1.69-1.6c.52-9-.6-14.8-3.33-17.37a4.53,4.53,0,0,0-2.87-1.32,5.23,5.23,0,0,1-8.55,0,4.37,4.37,0,0,0-2.49,1C19.24,16,18,18.89,17.54,23.1v0h0a.81.81,0,0,0,0,.16Z"/><circle class="cls-2" cx="27.87" cy="10.54" r="4.77"/><path class="cls-3" d="M30.72,19.13s0,.05,0,.05h0a.23.23,0,0,0,.44.1,1.78,1.78,0,0,0-.09-1,1.57,1.57,0,0,0-1.25-.91.23.23,0,0,0-.26.18.2.2,0,0,0,0,.13.22.22,0,0,0,.16.13,1.13,1.13,0,0,1,.92.65A1.3,1.3,0,0,1,30.72,19.13Z"/><path class="cls-3" d="M30.35,16.68a1.87,1.87,0,0,1,1.6,1.1,2.12,2.12,0,0,1,.14,1,.2.2,0,0,1,0,.08h0a.22.22,0,1,0,.44.08,2.61,2.61,0,0,0-.16-1.33,2.3,2.3,0,0,0-1.94-1.37.23.23,0,0,0-.26.19.25.25,0,0,0,0,.12A.21.21,0,0,0,30.35,16.68Z"/></svg>