<svg id="Layer_1" data-name="Layer 1" xmlns="http://www.w3.org/2000/svg" viewBox="0 0 56 56"><defs><style>.cls-1{fill:#00467f;}.cls-2,.cls-3{fill:#fff;}.cls-3{stroke:#00467f;stroke-miterlimit:10;stroke-width:0.5px;}</style></defs><title>Hiccups</title><circle class="cls-1" cx="28" cy="28" r="27.76"/><path class="cls-2" d="M20.65,13.31a1.18,1.18,0,0,1,1.19-.18.25.25,0,0,0,.22-.05.19.19,0,0,0,.07-.11.24.24,0,0,0-.16-.3,1.7,1.7,0,0,0-1.64.28,1.89,1.89,0,0,0-.56.91.24.24,0,0,0,.18.29.23.23,0,0,0,.28-.18h0a.12.12,0,0,0,0-.05A1.36,1.36,0,0,1,20.65,13.31Z"/><path class="cls-2" d="M22.24,12a.3.3,0,0,0,.07-.11.24.24,0,0,0-.16-.3,2.49,2.49,0,0,0-2.52.37,2.82,2.82,0,0,0-.8,1.2.24.24,0,1,0,.46.14h0l0-.09a2.34,2.34,0,0,1,.62-.89A2,2,0,0,1,22,12.08.28.28,0,0,0,22.24,12Z"/><path class="cls-2" d="M38.25,18.61a1.21,1.21,0,0,1-.34,1.16.22.22,0,0,0,0,.22.26.26,0,0,0,.07.11.24.24,0,0,0,.34,0,1.67,1.67,0,0,0,.44-1.6,1.9,1.9,0,0,0-.6-.9.25.25,0,0,0-.34,0,.24.24,0,0,0,0,.34h0l0,0A1.42,1.42,0,0,1,38.25,18.61Z"/><path class="cls-2" d="M38.74,20.59a.26.26,0,0,0,.07.11.25.25,0,0,0,.34,0,2.47,2.47,0,0,0,.72-2.45A2.78,2.78,0,0,0,39.11,17a.24.24,0,0,0-.34,0,.25.25,0,0,0,0,.34h0l.06.06a2.17,2.17,0,0,1,.55.94,2,2,0,0,1-.61,2A.24.24,0,0,0,38.74,20.59Z"/><path class="cls-3" d="M34.38,16.44l-.1.39c-1.07-.64-2.72-1.71-5.07-3.33A1.54,1.54,0,0,0,27.46,16c2.4,1.65,4.07,2.74,5.24,3.44.29.18.55.33.79.46s.43.24.61.33l.53.23a2.19,2.19,0,0,0,.74.14,1.63,1.63,0,0,0,1-.32,1.49,1.49,0,0,0,.51-.62A1.6,1.6,0,0,0,37,19a1.67,1.67,0,0,0-.2-.79h0a2.83,2.83,0,0,0-.5-.67,16.32,16.32,0,0,0-2.43-2,13.3,13.3,0,0,0-1.43-.89,6.58,6.58,0,0,0-.72-.32,2.74,2.74,0,0,0-.53-.14,1.06,1.06,0,0,0-.31,0C32.53,15.29,33.65,16,34.38,16.44Z"/><path class="cls-3" d="M32.33,47.67v-28c-1.25-.76-3-1.89-5.09-3.35a1.94,1.94,0,0,1-.8-1.24,1.87,1.87,0,0,1,.07-.94H23.35a3.6,3.6,0,0,0-1.6.41,6.51,6.51,0,0,0-2.93,3.63,25.38,25.38,0,0,0-1.32,9.24c0,1.13,0,2.35.11,3.69a1.54,1.54,0,0,0,1.54,1.45h.09A1.53,1.53,0,0,0,20.69,31c-.08-1.28-.11-2.45-.11-3.51,0-4.66.67-7.28,1.34-8.64V47.67a2.38,2.38,0,0,0,4.76,0V30.3h.89V47.67a2.38,2.38,0,0,0,4.76,0Z"/><path class="cls-3" d="M28.34,12.84a2,2,0,0,1,1.09.34l1.37.94A4.33,4.33,0,1,0,26.57,14a2.68,2.68,0,0,1,.18-.33A1.93,1.93,0,0,1,28.34,12.84Z"/></svg>