<svg id="Layer_1" data-name="Layer 1" xmlns="http://www.w3.org/2000/svg" viewBox="0 0 56 56"><defs><style>.cls-1{fill:#00467f;}.cls-2,.cls-3{fill:#fff;}.cls-2{stroke:#00467f;stroke-miterlimit:10;stroke-width:0.5px;}</style></defs><title>Hot_Flashes</title><circle class="cls-1" cx="28" cy="28" r="27.76"/><path class="cls-2" d="M27.9,11.7a1.79,1.79,0,0,1,.34,3.55c-1.28.24-2.39.5-3.32.77a4,4,0,1,0,1.11-4l1.54-.32Z"/><path class="cls-2" d="M24,21.21V48.73a2.21,2.21,0,1,0,4.42,0V33.58h.83V48.73a2.21,2.21,0,1,0,4.42,0V32.59a1.74,1.74,0,0,1-1,.31,1.79,1.79,0,0,1-1.41-.69,1.8,1.8,0,0,1,.31-2.51,5.28,5.28,0,0,0,2.1-2.92V23.71a5.64,5.64,0,0,1,.43,1.52,4.21,4.21,0,0,1,0,.62c0,.1,0,.2,0,.31A5.27,5.27,0,0,1,31.76,30a1.43,1.43,0,1,0,1.77,2.25A8.18,8.18,0,0,0,37,26.37h0c0-.17,0-.34,0-.51s0-.46,0-.68A9.23,9.23,0,0,0,35.41,21a8.9,8.9,0,0,0-1.21-1.48,4.52,4.52,0,0,0-.58-.5,2.87,2.87,0,0,0-.36-.21,1.72,1.72,0,0,0-.65-.16,2,2,0,0,0-.35,0h-1a4.36,4.36,0,0,1-2.47.77,4.41,4.41,0,0,1-2.48-.77H25.18c-.16,0-.42-.12-.69-.22a9.44,9.44,0,0,1-2-1A2.83,2.83,0,0,1,22,17a3.78,3.78,0,0,1,.82-.52q.38-.18.93-.39h0a29.4,29.4,0,0,1,4.46-1.14,1.43,1.43,0,1,0-.54-2.81,30.45,30.45,0,0,0-4.91,1.27h0c-.38.14-.72.28-1,.43a6.52,6.52,0,0,0-1.54,1,3.39,3.39,0,0,0-.8,1A2.58,2.58,0,0,0,19,16.92a2.74,2.74,0,0,0,.38,1.35,4.61,4.61,0,0,0,1.43,1.45A11.65,11.65,0,0,0,23.29,21,6.24,6.24,0,0,0,24,21.21Z"/><path class="cls-3" d="M26.55,9.75c-.12.22.25.46.38.24a2.84,2.84,0,0,0,.44-1.85c-.15-.67-.56-1.06-.47-1.81a4.46,4.46,0,0,1,.28-1c.1-.22-.31-.39-.41-.15a3.27,3.27,0,0,0-.29,1.94c.16.58.54.92.46,1.57A3.13,3.13,0,0,1,26.55,9.75Z"/><path class="cls-3" d="M28.44,9.75c-.12.22.25.46.38.24a2.84,2.84,0,0,0,.44-1.85c-.15-.67-.56-1.06-.47-1.81a4.46,4.46,0,0,1,.28-1c.1-.22-.31-.39-.41-.15a3.27,3.27,0,0,0-.29,1.94c.16.58.54.92.46,1.57A3.13,3.13,0,0,1,28.44,9.75Z"/><path class="cls-3" d="M30.33,9.75c-.12.22.25.46.37.24a2.79,2.79,0,0,0,.45-1.85c-.15-.67-.56-1.06-.47-1.81a4,4,0,0,1,.28-1c.09-.22-.31-.39-.41-.15a3.27,3.27,0,0,0-.29,1.94c.15.58.54.92.46,1.57A3.13,3.13,0,0,1,30.33,9.75Z"/></svg>