<svg id="Layer_1" data-name="Layer 1" xmlns="http://www.w3.org/2000/svg" viewBox="0 0 56 56"><defs><style>.cls-1{fill:#00467f;}.cls-2{fill:#fff;stroke:#00467f;stroke-miterlimit:10;stroke-width:0.5px;}</style></defs><title>Increased_Sweating</title><circle class="cls-1" cx="28" cy="28" r="27.76"/><path class="cls-2" d="M27.89,6.84A2.09,2.09,0,0,1,28.28,11c-1.5.29-2.8.59-3.88.91a4.72,4.72,0,1,0,1.3-4.65c.56-.13,1.16-.25,1.79-.37A1.81,1.81,0,0,1,27.89,6.84Z"/><path class="cls-2" d="M23.28,18V47.46a2.59,2.59,0,0,0,5.18,0v-15h1v15a2.59,2.59,0,1,0,5.18,0V31.29a2.13,2.13,0,0,1-1.18.36,2.07,2.07,0,0,1-1.64-.8,2.11,2.11,0,0,1-.44-1.55,2.08,2.08,0,0,1,.79-1.39,6.28,6.28,0,0,0,2.47-3.42v-3.6a6.94,6.94,0,0,1,.5,1.78,5.81,5.81,0,0,1,0,.72c0,.12,0,.25,0,.37-.11,1.38-.71,2.86-2.74,4.48a1.67,1.67,0,0,0,1,3,1.68,1.68,0,0,0,1-.36,9.51,9.51,0,0,0,4-6.87h0c0-.19,0-.4,0-.6s0-.53,0-.79a10.86,10.86,0,0,0-1.8-4.91A10.37,10.37,0,0,0,35.26,16a5,5,0,0,0-.68-.57,2.44,2.44,0,0,0-.43-.25,1.89,1.89,0,0,0-.75-.19,1.84,1.84,0,0,0-.41,0H31.84a5.11,5.11,0,0,1-5.79,0H24.7c-.19-.05-.49-.14-.81-.26a11.44,11.44,0,0,1-2.33-1.14,3.52,3.52,0,0,1-.63-.52,4,4,0,0,1,1-.6A11.23,11.23,0,0,1,23,11.92h0a34.35,34.35,0,0,1,5.22-1.34,1.67,1.67,0,1,0-.63-3.29,38.22,38.22,0,0,0-5.75,1.49h0c-.44.16-.85.33-1.22.5a8.37,8.37,0,0,0-1.8,1.11,4.07,4.07,0,0,0-.93,1.13A3,3,0,0,0,17.49,13a3.15,3.15,0,0,0,.45,1.58,5.43,5.43,0,0,0,1.67,1.7,14,14,0,0,0,2.88,1.46C22.77,17.8,23,17.89,23.28,18Z"/><path class="cls-1" d="M29.72,13.3a.77.77,0,0,1-.65,1H29a.76.76,0,0,1-.65-1l.7-1.88Z"/><path class="cls-1" d="M31.44,9.06a.5.5,0,0,1-.42.67H31a.49.49,0,0,1-.42-.67L31,7.82Z"/><path class="cls-1" d="M32.19,12.42a.59.59,0,0,1-.5.79h-.08a.59.59,0,0,1-.49-.79L31.65,11Z"/><path class="cls-1" d="M32.28,22.38a.81.81,0,0,1-.69,1.1h-.11a.81.81,0,0,1-.69-1.1l.75-2Z"/><path class="cls-1" d="M35,17.77a.55.55,0,0,1-.47.75h-.08a.55.55,0,0,1-.47-.75l.51-1.39Z"/><path class="cls-1" d="M29.09,24.52a.48.48,0,0,1-.41.65h-.06a.48.48,0,0,1-.41-.65l.44-1.2Z"/><path class="cls-1" d="M27.77,20.18a.66.66,0,0,1-.56.89h-.09a.66.66,0,0,1-.55-.89l.6-1.62Z"/><path class="cls-1" d="M31,27.77a.58.58,0,0,1-.49.78h-.08a.58.58,0,0,1-.49-.78l.53-1.42Z"/><path class="cls-1" d="M25.72,24a.57.57,0,0,1-.48.78h-.08a.58.58,0,0,1-.49-.78l.53-1.42Z"/></svg>