<svg id="Layer_1" data-name="Layer 1" xmlns="http://www.w3.org/2000/svg" viewBox="0 0 56 56"><defs><style>.cls-1{fill:#00467f;}.cls-2{fill:#fff;}</style></defs><title>Insomnia-01</title><circle class="cls-1" cx="28" cy="28" r="27.76"/><circle class="cls-2" cx="16.83" cy="14.67" r="3.69"/><path class="cls-2" d="M22.29,31.32H16.76S11.56,21.09,18,20.26,22.29,31.32,22.29,31.32Z"/><path class="cls-2" d="M42.68,23.9H24.19v7.42h22.2V27.61h0A3.71,3.71,0,0,0,42.68,23.9Z"/><path class="cls-2" d="M13.12,33V19.75a1.72,1.72,0,0,0-1.89-1.44,1.71,1.71,0,0,0-1.88,1.44V42.38h3.76V40.31a1.63,1.63,0,0,1,1.63-1.64H41.06a1.63,1.63,0,0,1,1.63,1.64v2.07h3.76V33Z"/></svg>