<svg id="Layer_1" data-name="Layer 1" xmlns="http://www.w3.org/2000/svg" viewBox="0 0 56 56"><defs><style>.cls-1{fill:#00467f;}.cls-2,.cls-3,.cls-4{fill:#fff;}.cls-2,.cls-4{stroke:#00467f;stroke-miterlimit:10;}.cls-2{stroke-width:0.5px;}</style></defs><title>Joint_Pain</title><circle class="cls-1" cx="28" cy="28" r="27.76"/><path class="cls-2" d="M31.15,23.46a6.63,6.63,0,0,1-3.73,1.12h0a9.94,9.94,0,0,1-4-.94V46.31a2.47,2.47,0,1,0,4.93,0V32.7h.92V46.31a2.47,2.47,0,1,0,4.93,0V19.57c-.05.14-.11.28-.18.43A8,8,0,0,1,31.15,23.46Z"/><path class="cls-2" d="M21,17.94a1.94,1.94,0,0,1,1.16.38c.43.31.84.58,1.23.82s.59.35.86.49a6.92,6.92,0,0,0,3.16,1,3.27,3.27,0,0,0,1.52-.41,6,6,0,0,0,1.52-1.13,2.75,2.75,0,0,1-.17.29,4.07,4.07,0,0,1-1.13,1.17,3,3,0,0,1-1.72.48,7.66,7.66,0,0,1-3.7-1.19l-.34-.2c-.46-.27-1-.59-1.46-1a1.6,1.6,0,0,0-2.23.37.86.86,0,0,0-.1.16A1.58,1.58,0,0,0,20,21.23a19.88,19.88,0,0,0,3.33,2,9.75,9.75,0,0,0,4,1h0a6.25,6.25,0,0,0,3.51-1.05,7.8,7.8,0,0,0,2.66-3.29,10,10,0,0,0,.54-1.53c0-.06,0-.12,0-.17s0-.21,0-.24a1.59,1.59,0,0,0-1.14-1.83,1.43,1.43,0,0,0-.5-.09h-7.7a1.54,1.54,0,0,0-.67.16l-.17.08h0a7.77,7.77,0,0,1-.78.36,3.86,3.86,0,0,1-1.25.28,1.2,1.2,0,0,1-.28,0c-.06,0,0,0-.09-.09a2,2,0,0,1-.17-1,17.07,17.07,0,0,1,1.24-5.35,1.59,1.59,0,1,0-3-1.07,19.59,19.59,0,0,0-1.43,6.42,5.78,5.78,0,0,0,.25,1.81,3.64,3.64,0,0,0,.73,1.34l.07-.1A2,2,0,0,1,21,17.94Z"/><polygon class="cls-3" points="15.05 26 17.85 22.78 17.7 22.66 13.93 26.14 15.79 26.77 13.34 29.69 14.03 30.19 16.76 26.45 15.05 26"/><polygon class="cls-3" points="13.56 22.68 16.97 21.49 16.91 21.34 12.68 22.31 13.78 23.56 10.76 24.67 11.05 25.32 14.63 23.73 13.56 22.68"/><polygon class="cls-3" points="19.52 23.1 17.93 27.07 19.56 26.87 18.76 29.95 19.46 30.07 20.18 26.29 18.73 26.56 19.68 23.13 19.52 23.1"/><path class="cls-4" d="M24.37,10.9a4.49,4.49,0,1,0,5.39-3.35A4.49,4.49,0,0,0,24.37,10.9Z"/></svg>