<svg id="Layer_1" data-name="Layer 1" xmlns="http://www.w3.org/2000/svg" viewBox="0 0 56 56"><defs><style>.cls-1{fill:#00467f;}.cls-2{fill:#fff;stroke:#00467f;stroke-miterlimit:10;stroke-width:0.51px;}</style></defs><title>Memory-01</title><circle class="cls-1" cx="28" cy="28" r="27.76"/><path class="cls-2" d="M31.22,7.7a4.59,4.59,0,1,0,.85,3.93.43.43,0,0,0,0-.05A4.58,4.58,0,0,0,31.22,7.7Z"/><path class="cls-2" d="M19.8,35.74a2,2,0,0,0,.34,0,1.65,1.65,0,0,0,1.26-1.94,40.38,40.38,0,0,1-1.06-8.39,13.53,13.53,0,0,1,.52-4.07,4.21,4.21,0,0,1,1.24-2.06V47.53a2.52,2.52,0,0,0,5,0v-15h.95v15a2.52,2.52,0,1,0,5,0V18.43c.56-.17,1.25-.4,2-.7a9.08,9.08,0,0,0,2.38-1.43,4.49,4.49,0,0,0,1-1.19,3.42,3.42,0,0,0,.45-1.68,3.85,3.85,0,0,0-.53-1.89c-1-1.47-4.78-2.84-6.52-3.62a5,5,0,0,1,.61,3.75c0,.06,0,.11,0,.16,1.11.59,3,1.17,3.12,1.35a.58.58,0,0,1,.1.25l0,.08a2.3,2.3,0,0,1-.76.67,10.3,10.3,0,0,1-2.3,1l-.93.26-.09,0H23.68l-.2,0h-.09a5,5,0,0,0-1.69.3,5.92,5.92,0,0,0-3.19,2.77,13.63,13.63,0,0,0-1.43,6.83,44.26,44.26,0,0,0,1.12,9.07A1.64,1.64,0,0,0,19.8,35.74Z"/></svg>