<svg id="Layer_1" data-name="Layer 1" xmlns="http://www.w3.org/2000/svg" viewBox="0 0 56 56"><defs><style>.cls-1{fill:#00467f;}.cls-2{fill:#fff;stroke:#00467f;stroke-linecap:round;stroke-linejoin:round;stroke-width:0.49px;}</style></defs><title>Mouth_Throat_Soars</title><circle class="cls-1" cx="28" cy="28" r="27.76"/><path class="cls-2" d="M18.63,25.77a2.19,2.19,0,0,0,.86.17,3.68,3.68,0,0,0,1.8-.56h0l.44-.27A23,23,0,0,0,24.37,23c1.27-1.14,2.84-2.67,4.78-4.71a1.75,1.75,0,0,0,.26-2.05,4.93,4.93,0,0,1-1.23.15,5.37,5.37,0,0,1-1.76-.3C24.62,18,23.17,19.4,22,20.41c-.29.27-.57.5-.82.71l-.07-.56.57-.5c1.17-1,2.59-2.45,4.22-4.15a4.94,4.94,0,0,1-.92-.54,1.85,1.85,0,0,0-.66-.13h0a3.29,3.29,0,0,0-1.56.43,7.57,7.57,0,0,0-1.95,1.58,17.81,17.81,0,0,0-2.34,3.16A11.35,11.35,0,0,0,17.72,22a4.46,4.46,0,0,0-.38,1.68,2.25,2.25,0,0,0,.47,1.45A2.18,2.18,0,0,0,18.63,25.77Z"/><path class="cls-2" d="M30.11,17a2.24,2.24,0,0,1-.61,1.59c-1.86,1.95-3.47,3.54-4.81,4.74a24.92,24.92,0,0,1-2.41,1.95V47.5a2.7,2.7,0,1,0,5.4,0V34h1V47.5a2.7,2.7,0,1,0,5.39,0V21a9.45,9.45,0,0,1,.39.92,26.69,26.69,0,0,1,1.13,8.87c0,1.21,0,2.53-.12,4a1.75,1.75,0,0,0,1.64,1.85h.11A1.76,1.76,0,0,0,39,35c.08-1.52.13-2.91.13-4.19,0-6.58-1.07-10.23-2.5-12.42a6.14,6.14,0,0,0-2.33-2.17,4.13,4.13,0,0,0-1.78-.47H30.82a6.07,6.07,0,0,1-.94.41A2.19,2.19,0,0,1,30.11,17Z"/><circle class="cls-2" cx="28.18" cy="11.01" r="4.91"/></svg>