<svg id="Layer_1" data-name="Layer 1" xmlns="http://www.w3.org/2000/svg" viewBox="0 0 56 56"><defs><style>.cls-1{fill:#00467f;}.cls-2,.cls-3,.cls-4{fill:#fff;}.cls-2,.cls-4{stroke:#00467f;stroke-miterlimit:10;}.cls-2{stroke-width:0.52px;}.cls-4{stroke-width:1.03px;}</style></defs><title>Muscle_Pain</title><circle class="cls-1" cx="28" cy="28" r="27.76"/><path class="cls-2" d="M27.44,32.71A26.62,26.62,0,0,1,23.21,29V46.37a2.49,2.49,0,0,0,5,0V33.16a1.81,1.81,0,0,1-.41-.22Z"/><path class="cls-2" d="M29.28,29.05c.28.22.55.43.79.6a2,2,0,0,1,.5,2.8,2.85,2.85,0,0,1-.23.26,2,2,0,0,1-1.23.58V46.37a2.49,2.49,0,0,0,5,0V26.13l-.23.2A17.9,17.9,0,0,1,29.28,29.05Z"/><path class="cls-2" d="M34.85,17.62a7.81,7.81,0,0,0-1.23-1.36,1.87,1.87,0,0,0-1.09-.39H24.77a1.55,1.55,0,0,0-.68.16l-.23.11a7.85,7.85,0,0,0-1.69,1.55,7.06,7.06,0,0,0-1.68,4.51,8.11,8.11,0,0,0,1,3.68,12.64,12.64,0,0,0,.74,1.24q.45.64,1,1.32A26.4,26.4,0,0,0,28,32.61l.16.1h0a1.65,1.65,0,0,0,.74.18h.19a1.59,1.59,0,0,0,.57-.18,1.64,1.64,0,0,0,.56-.49,1.61,1.61,0,0,0-.4-2.24l-.73-.53-.28-.21-.65.25-.73.28a2,2,0,0,1-2.58-1.21A2,2,0,0,1,24.94,27a2.09,2.09,0,0,1,.63-.78c-.28-.33-.52-.65-.73-.95l-.14-.22a7.38,7.38,0,0,1-.45-.79c.18.2.41.44.67.7L26,26l.12-.05c.45-.13.88-.29,1.31-.46a22.07,22.07,0,0,0,4.9-2.78,5.76,5.76,0,0,1-.49.56,13.26,13.26,0,0,1-4.16,2.5c-.42.18-.87.36-1.36.54l-.06,0a1.84,1.84,0,0,0-.37.19,1.61,1.61,0,0,0,.91,2.93,1.52,1.52,0,0,0,.55-.1l.87-.33.28-.11.47-.19.18-.08A17.1,17.1,0,0,0,33.66,26l.39-.36,0,0A7.64,7.64,0,0,0,35,24.49a5.66,5.66,0,0,0,1.09-3.28A6.28,6.28,0,0,0,34.85,17.62Z"/><polygon class="cls-3" points="15.32 31.1 16.92 32.28 13.67 34.33 14.18 35.02 17.95 32.27 16.44 31.31 20.11 29.08 20 28.91 15.32 31.1"/><polygon class="cls-3" points="16.73 29.01 16.03 27.67 19.66 27.57 19.65 27.41 15.3 27.04 15.97 28.58 12.73 28.72 12.81 29.44 16.73 29.01"/><polygon class="cls-3" points="21.62 29.89 18.88 33.22 20.51 33.53 18.8 36.24 19.43 36.57 21.28 33.16 19.8 32.98 21.76 29.98 21.62 29.89"/><path class="cls-4" d="M24.25,11a4.52,4.52,0,1,0,5.42-3.37A4.52,4.52,0,0,0,24.25,11Z"/></svg>