<svg id="Layer_1" data-name="Layer 1" xmlns="http://www.w3.org/2000/svg" viewBox="0 0 56 56"><defs><style>.cls-1{fill:#00467f;}.cls-2,.cls-3{fill:#fff;}.cls-3{stroke:#00467f;stroke-miterlimit:10;stroke-width:0.5px;}</style></defs><title>Nausea</title><circle class="cls-1" cx="28" cy="28" r="27.76"/><rect class="cls-2" x="36.08" y="11.32" width="0.36" height="6.26"/><rect class="cls-2" x="33.95" y="10.02" width="0.36" height="6.26"/><rect class="cls-2" x="35.02" y="6.13" width="0.36" height="8.98"/><rect class="cls-2" x="37.09" y="31.24" width="0.36" height="6.26"/><rect class="cls-2" x="39.22" y="29.94" width="0.36" height="6.26"/><rect class="cls-2" x="38.16" y="26.05" width="0.36" height="14.89"/><rect class="cls-2" x="18.42" y="32.16" width="0.35" height="6.22"/><rect class="cls-2" x="20.54" y="30.86" width="0.35" height="6.22"/><rect class="cls-2" x="19.48" y="26.99" width="0.35" height="14.81"/><path class="cls-3" d="M16.48,23a1.51,1.51,0,0,0,1,.37,3.34,3.34,0,0,0,1.85-.87c.46-.35,1.06-.85,1.79-1.49l.44-.39L23.45,30V47a2.36,2.36,0,0,0,4.71,0V31.27l.88-.18V47a2.35,2.35,0,1,0,4.7,0V29.33a2,2,0,0,0,0-.43,1.15,1.15,0,0,0,0-.26L33,25.17c-.19,0-.38.1-.56.13-.44.09-.9.15-1.39.22s-1,.13-1.48.23c-1.27.26-1.51.57-1.55.69a2,2,0,0,1-2.48,1.24,2,2,0,0,1-1.13-1,2,2,0,0,1-.1-1.5c.76-2.28,2.95-3,4.52-3.3.6-.12,1.18-.2,1.7-.26l.51-.07a13.39,13.39,0,0,0-1.19-2.88l.38-.22a15.27,15.27,0,0,1,1.37,3.45c-.32.06-.71.11-1,.15-2,.26-5,.66-5.87,3.27a1.51,1.51,0,0,0,1.75,2,1.52,1.52,0,0,0,1.14-1c.27-.81,2.07-1,3.38-1.22,1.51-.21,2.82-.38,3.51-1.41a2.14,2.14,0,0,0,.26-1.77A20,20,0,0,0,32.85,17a4.75,4.75,0,0,0-2-2,2.34,2.34,0,0,0-1.49-.19h0l-3.14.64a4.51,4.51,0,0,1-1.54.7c-1.79,2-3,3.4-3.84,4.38l-.35-.26c.85-1,2.1-2.45,4-4.52a1.52,1.52,0,1,0-2.26-2c-1.79,2-3.16,3.55-4.14,4.73a25.05,25.05,0,0,0-1.67,2.16h0C15.47,21.94,16.15,22.73,16.48,23Z"/><path class="cls-3" d="M22.91,12.75a2,2,0,0,1,2.17,2.75,4.28,4.28,0,1,0-5.76-3.13,4.23,4.23,0,0,0,1.33,2.33l1.19-1.34A2,2,0,0,1,22.91,12.75Z"/></svg>