<svg id="Layer_1" data-name="Layer 1" xmlns="http://www.w3.org/2000/svg" viewBox="0 0 56 56"><defs><style>.cls-1{fill:#00467f;}.cls-2,.cls-3{fill:#fff;}.cls-2{stroke:#00467f;stroke-miterlimit:10;stroke-width:2px;}</style></defs><title>Nosebleed</title><circle class="cls-1" cx="28" cy="28" r="27.76"/><path class="cls-2" d="M44.42,30.45a2.58,2.58,0,0,0-.12-2.63L41,22.73a1.3,1.3,0,0,1-.16-.56A14.19,14.19,0,0,0,26.56,9.12,14.34,14.34,0,0,0,12.23,23.44a16.16,16.16,0,0,0,5.69,12.18.68.68,0,0,1,.24.48v7.56a2.22,2.22,0,0,0,2,2.23l11.38,1h.2a2.16,2.16,0,0,0,1.51-.59A2.22,2.22,0,0,0,34,44.65V39.76h3.54a3.29,3.29,0,0,0,3.3-3.3V31.8h1.28A2.56,2.56,0,0,0,44.42,30.45Z"/><path class="cls-3" d="M42.78,33.14c.26,1,1,1.33,1,2.08a1,1,0,0,1-1,1,1,1,0,0,1-1-1C41.77,34.48,42.53,34.18,42.78,33.14Z"/><path class="cls-3" d="M44.05,37.3c.25,1,1,1.33,1,2.08a1,1,0,0,1-1,1,1,1,0,0,1-1-1C43,38.64,43.8,38.34,44.05,37.3Z"/><path class="cls-3" d="M42,40c.25,1,1,1.33,1,2.08a1,1,0,0,1-1,1,1,1,0,0,1-1-1C41,41.37,41.73,41.07,42,40Z"/></svg>