<svg id="Layer_1" data-name="Layer 1" xmlns="http://www.w3.org/2000/svg" viewBox="0 0 56 56"><defs><style>.cls-1{fill:#00467f;}.cls-2,.cls-3,.cls-4{fill:#fff;}.cls-2,.cls-3{stroke:#00467f;stroke-width:0.5px;}.cls-2{stroke-linecap:round;stroke-linejoin:round;}.cls-3{stroke-miterlimit:10;}</style></defs><title>Numbness_Tingling</title><circle class="cls-1" cx="28" cy="28" r="27.76"/><path class="cls-2" d="M29.62,8a5.09,5.09,0,1,0,7.17-.71A5.1,5.1,0,0,0,29.62,8Z"/><path class="cls-2" d="M29,18.6v.11l.06.51a11.46,11.46,0,0,0,.46,1.83,7.69,7.69,0,0,0,.28.72A5.41,5.41,0,0,0,29.47,16c-1.54-2-5.16-1.66-7.42,1.21a32.63,32.63,0,0,0-6,12.18c-.82,3.23.74,6.05,2.91,6.55a3,3,0,0,0,.85.13h8.82L31.73,46a2.83,2.83,0,0,0,2.7,2,2.79,2.79,0,0,0,.85-.13,2.83,2.83,0,0,0,1.85-3.55h0L33.65,33.19A17.29,17.29,0,0,1,39.91,36a2.83,2.83,0,0,0,3.23-4.65,24.34,24.34,0,0,0-3-1.79,2.18,2.18,0,0,1,0,.57,2.26,2.26,0,0,1-2.24,2h0l-.31,0a16.32,16.32,0,0,1-7.37-2.79,13.11,13.11,0,0,1-2.18-2c-.63.08-1.24.17-1.81.29.24-.54.5-1.06.79-1.57a13,13,0,0,1-.79-1.28,14.3,14.3,0,0,1-1.76-6v0"/><polygon class="cls-3" points="29.54 48.72 27.41 37.18 14.96 37.18 12.83 48.72 29.54 48.72"/><path class="cls-2" d="M24.92,18.7h0a13.9,13.9,0,0,0,1.7,5.84c.19.35.41.7.64,1.06a14.21,14.21,0,0,0,1.34,1.67,12.63,12.63,0,0,0,1.88,1.64,15.81,15.81,0,0,0,7.17,2.71l.25,0a1.81,1.81,0,0,0,1.79-1.57,1.67,1.67,0,0,0-.06-.77A1.81,1.81,0,0,0,38.15,28,12.17,12.17,0,0,1,32.59,26a9.38,9.38,0,0,1-3.06-3.71,9.2,9.2,0,0,1-.44-1.06,12.35,12.35,0,0,1-.48-1.92c0-.23-.05-.41-.06-.53s0-.1,0-.13h0"/><polygon class="cls-4" points="41.2 26.75 45.49 22.8 43.38 22.08 46.17 18.77 45.38 18.2 42.27 22.43 44.22 22.95 41.03 26.61 41.2 26.75"/><polygon class="cls-4" points="49.09 24.48 48.75 23.73 44.69 25.53 45.9 26.73 42.02 28.07 42.09 28.25 46.9 27.15 45.65 25.73 49.09 24.48"/><polygon class="cls-4" points="40.04 22.31 38.96 26.2 39.14 26.24 40.95 21.74 39.09 21.95 40.01 18.47 39.21 18.32 38.39 22.62 40.04 22.31"/><rect class="cls-4" x="23.89" y="17.81" width="5.64" height="0.87"/></svg>