<svg id="Layer_1" data-name="Layer 1" xmlns="http://www.w3.org/2000/svg" viewBox="0 0 56 56"><defs><style>.cls-1{fill:#00467f;}.cls-2,.cls-3{fill:#fff;}.cls-2{stroke:#00467f;stroke-miterlimit:10;stroke-width:0.5px;}</style></defs><title>Sadness</title><circle class="cls-1" cx="28" cy="28" r="27.76"/><circle class="cls-2" cx="23.72" cy="10.52" r="4.45" transform="translate(11.95 33.64) rotate(-86.94)"/><path class="cls-2" d="M32,16.38a16.59,16.59,0,0,1,.69,5,19.06,19.06,0,0,1-.88,5.8,20.19,20.19,0,0,1-2.05,4.5,21.11,21.11,0,0,1-1.36,2,2,2,0,0,1-1.27.74c-.05.76-.08,1.58-.08,2.48a52.4,52.4,0,0,0,1.37,11.4,2.47,2.47,0,1,0,4.83-1.08A47.74,47.74,0,0,1,32,36.83a26.12,26.12,0,0,1,.47-5.18l0-.15a3.76,3.76,0,0,0,2.77-3.33,21.81,21.81,0,0,0-1.18-11c-1-2.9-3.47-3.8-5.15-3.37s-2.42,2.79-1.85,4.75a55,55,0,0,1,1.14,6.7,16,16,0,0,0,.51-3.93,13.34,13.34,0,0,0-.48-3.68"/><path class="cls-3" d="M31.44,27a19.21,19.21,0,0,0,.85-5.63,16,16,0,0,0-.67-4.83,1.58,1.58,0,1,0-3,1h0a13.31,13.31,0,0,1,.5,3.81,16,16,0,0,1-.84,5.1,17.16,17.16,0,0,1-2.71,5,1.58,1.58,0,0,0,.28,2.22,1.6,1.6,0,0,0,1,.33,2,2,0,0,0,.34,0,1.6,1.6,0,0,0,.91-.58,21.83,21.83,0,0,0,1.26-1.8A20.08,20.08,0,0,0,31.44,27Z"/></svg>