<svg id="Layer_1" data-name="Layer 1" xmlns="http://www.w3.org/2000/svg" viewBox="0 0 56 56"><defs><style>.cls-1{fill:#00467f;}.cls-2,.cls-3,.cls-4,.cls-5{fill:#fff;}.cls-2,.cls-3,.cls-4{stroke:#00467f;}.cls-2,.cls-4{stroke-linecap:round;stroke-linejoin:round;}.cls-2,.cls-3{stroke-width:0.5px;}.cls-3{stroke-miterlimit:10;}</style></defs><title>Shortness_Of_Breath</title><circle class="cls-1" cx="28" cy="28" r="27.76"/><path class="cls-2" d="M27.61,18.08c1.19-1.58,1.48-3.79.25-4.94s-4.2-1.72-6.68.51a23.83,23.83,0,0,0-6.88,9.86,4.6,4.6,0,0,0,0,3.35,2.86,2.86,0,0,0,.3.54,5.61,5.61,0,0,0,2,1.71l6.05,4.79-4.83,9.22a2.69,2.69,0,0,0,4.77,2.5l5.86-11.2a2.67,2.67,0,0,0,.3-1L24.5,28.52l-3-2.37a32.05,32.05,0,0,1,2.59-3.89"/><circle class="cls-3" cx="34.87" cy="13.79" r="4.84" transform="translate(5.83 37.5) rotate(-60.81)"/><path class="cls-4" d="M23.75,17.55l1.62,14.7a1.73,1.73,0,0,0,1.71,1.52h.2a1.72,1.72,0,0,0,1.51-1.92L27.57,18.48"/><path class="cls-5" d="M45.29,25.59A3.17,3.17,0,0,0,45,23.16a2.39,2.39,0,0,0-2.47-.92,2.06,2.06,0,0,0-1.88-2.84,2.46,2.46,0,0,0-2.64,3c.05.38.37,0,.33-.22-.47-3.13,5-2.7,3.78.29,0,.09-.09.43.11.4,1.73-.27,3.14.69,2.73,2.56A2.38,2.38,0,0,1,43.9,27a1.77,1.77,0,0,1-2-.59c-.17-.17-.31.33-.27.44.46,1.18.22,2.32-1.18,2.43a1.37,1.37,0,0,1-1.56-1.76c.09-.27-.14-.45-.28-.15a1.3,1.3,0,0,1-2.1.54A1.89,1.89,0,0,1,36.55,25a.54.54,0,0,0,.09-.37,3.09,3.09,0,0,0,.54.48c.1.07.49-.32.5-.31a5.72,5.72,0,0,1-2-3.07,4.28,4.28,0,0,0,2.58,1.45c.16,0,.41-.32.47-.32-1.18,0-2.46-1.35-3.24-2.12,0-.05-.51.23-.5.31a6.25,6.25,0,0,0,1.49,3.44l-.07.05A2.69,2.69,0,0,0,36,28.13a1.53,1.53,0,0,0,2.48.08,1.74,1.74,0,0,0,2,1.64c1.39-.11,1.81-1.36,1.66-2.52C43.49,28.21,44.83,27.2,45.29,25.59Z"/><path class="cls-5" d="M38.58,25.8c-.22.08-.44.37-.06.24,1.22-.44,2.19-1.74,1.4-3-.09-.13-.6.15-.53.26A1.67,1.67,0,0,1,38.58,25.8Z"/></svg>