<svg id="Layer_1" data-name="Layer 1" xmlns="http://www.w3.org/2000/svg" viewBox="0 0 56 56"><defs><style>.cls-1{fill:#00467f;}.cls-2,.cls-3{fill:#fff;}.cls-2{stroke:#00467f;stroke-miterlimit:10;stroke-width:0.5px;}.cls-4{fill:none;stroke:#fff;stroke-linecap:round;stroke-linejoin:round;stroke-width:0.61px;}</style></defs><title>Swelling</title><circle class="cls-1" cx="28" cy="28" r="27.76"/><path class="cls-2" d="M20.45,34.15h.1A1.55,1.55,0,0,0,22,32.51c-.07-1.29-.11-2.46-.11-3.53,0-4.69.68-7.33,1.35-8.7v27.2a2.4,2.4,0,1,0,4.79,0V31.85h.9V47.48a2.4,2.4,0,1,0,4.79,0V20.28a6.7,6.7,0,0,1,.35.83,23.59,23.59,0,0,1,1,7.87c0,1.07,0,2.24-.11,3.53a1.55,1.55,0,0,0,1.46,1.64h.09a1.55,1.55,0,0,0,1.55-1.46c.08-1.34.11-2.57.11-3.71,0-5.85-.94-9.09-2.21-11A5.43,5.43,0,0,0,33.89,16a3.55,3.55,0,0,0-1.57-.41H24.65a3.55,3.55,0,0,0-1.57.41,6.54,6.54,0,0,0-2.95,3.65A25.69,25.69,0,0,0,18.79,29c0,1.14,0,2.37.12,3.71A1.54,1.54,0,0,0,20.45,34.15Z"/><circle class="cls-2" cx="28.48" cy="11.14" r="4.36"/><ellipse class="cls-3" cx="31.26" cy="44.23" rx="2.66" ry="4.71"/><path class="cls-4" d="M35.18,42.64a2.64,2.64,0,0,1,0,3"/><path class="cls-4" d="M36.49,41.58a4.48,4.48,0,0,1,0,5.05"/></svg>