<svg id="Layer_1" data-name="Layer 1" xmlns="http://www.w3.org/2000/svg" viewBox="0 0 56 56"><defs><style>.cls-1{fill:#00467f;}.cls-2,.cls-3{fill:#fff;}.cls-3{stroke:#00467f;stroke-miterlimit:10;stroke-width:0.26px;}</style></defs><title>Urinary_Urgency</title><circle class="cls-1" cx="28" cy="28" r="27.76"/><circle class="cls-2" cx="23.76" cy="18.46" r="3.09" transform="translate(-2.55 33.06) rotate(-66.87)"/><path class="cls-3" d="M31.05,21.66a1.11,1.11,0,0,0-1.53.3,6.26,6.26,0,0,1-2,2,3.18,3.18,0,0,1-1.64.46,3.39,3.39,0,0,1-.64-.06h0a2.62,2.62,0,0,0,0-.28,1.88,1.88,0,0,0-1-1.51,2.29,2.29,0,0,0-.66-.18h0a8.09,8.09,0,0,0-1.95-.21,8.23,8.23,0,0,0-4.26,1.12,8,8,0,0,0-3.52,5.1,1.08,1.08,0,0,0,.78,1.34.9.9,0,0,0,.28,0A1.1,1.1,0,0,0,16,29a5.81,5.81,0,0,1,2.54-3.78,5.39,5.39,0,0,1,1.68-.66,15.11,15.11,0,0,0-2,7.12,3.06,3.06,0,0,0,.54,1.85,15.12,15.12,0,0,1-1.15,1.75,17.61,17.61,0,0,1-6.76,5.64,1.72,1.72,0,0,0,1.58,3,21.17,21.17,0,0,0,8.08-6.83A19.67,19.67,0,0,0,22,34.63h.05a9.86,9.86,0,0,1,1.49.7,5.58,5.58,0,0,1,1.61,1.36,2.81,2.81,0,0,1,.6,1.73,6.28,6.28,0,0,1-1.35,3.42,1.72,1.72,0,0,0,2.83,1.94,9.61,9.61,0,0,0,1.95-5.36,6.3,6.3,0,0,0-1.37-3.9,10.33,10.33,0,0,0-4.06-2.91l-.62-.24a26.13,26.13,0,0,1,1.47-4.6c0-.08.07-.17.11-.26a5.19,5.19,0,0,0,1.15.13h0a5.33,5.33,0,0,0,2.72-.76,8.51,8.51,0,0,0,2.71-2.69A1.11,1.11,0,0,0,31.05,21.66Z"/><path class="cls-2" d="M42.62,46.16,32.3,42.35V12.83L42.62,9Z"/></svg>