<svg id="Layer_1" data-name="Layer 1" xmlns="http://www.w3.org/2000/svg" viewBox="0 0 56 56"><defs><style>.cls-1,.cls-4{fill:#00467f;}.cls-2{fill:#fff;stroke:#00467f;stroke-miterlimit:10;stroke-width:0.5px;}.cls-3{fill:none;}.cls-4{opacity:0.5;}</style></defs><title>Urinary_Incontinence</title><circle class="cls-1" cx="28" cy="28" r="27.76"/><path class="cls-2" d="M29.76,30.65h0a1.9,1.9,0,0,1-.38,1.46,1.39,1.39,0,0,1-.58.51l1,5.69a3.39,3.39,0,0,1-.19,1.59l-.83,1.92v6.12a2.36,2.36,0,1,0,4.72,0V28.16c-.25.19-.45.38-.7.57C31.42,29.69,30.08,30.45,29.76,30.65Z"/><path class="cls-2" d="M20.76,46.79A2.37,2.37,0,0,0,22,49.92a2.53,2.53,0,0,0,1,.19,2.36,2.36,0,0,0,2.17-1.4l4-9a2.42,2.42,0,0,0,.19-1.34l-.89-5.55a1.88,1.88,0,0,1-.58.06,1.69,1.69,0,0,1-1.21-.45c-.06-.06-1.72-1.34-3.38-2.93l-.13-.13.64,3.89.83,5.05Z"/><path class="cls-2" d="M33,11.31A4.32,4.32,0,1,0,28,14.94,4.29,4.29,0,0,0,33,11.31Z"/><path class="cls-3" d="M21.33,29.31a.33.33,0,0,0-.25.12,1.74,1.74,0,0,0,.19,1.15,1.66,1.66,0,0,0,.89.58.21.21,0,0,0,.2-.2.18.18,0,0,0-.2-.19,1,1,0,0,1-.63-.38,1.11,1.11,0,0,1-.13-.83C21.53,29.43,21.46,29.37,21.33,29.31Z"/><path class="cls-3" d="M20.5,29.24a.34.34,0,0,0-.25.13A2.4,2.4,0,0,0,20.44,31a2.7,2.7,0,0,0,1.28.89h.06c.06,0,.19-.06.19-.13a.31.31,0,0,0-.13-.25,1.61,1.61,0,0,1-1-.7,1.75,1.75,0,0,1-.19-1.41C20.63,29.37,20.57,29.31,20.5,29.24Z"/><path class="cls-4" d="M32.47,32.88a2.22,2.22,0,0,0-2.31-2.12,1.53,1.53,0,0,0-.3,0,3.56,3.56,0,0,0-2-.6c-1.69,0-3.07,1.08-3.07,2.4a2.36,2.36,0,0,0,1.48,2,.47.47,0,0,0,0,.17c0,.59,1.22,1,2.72,1.07s2.94-.94,2.94-1.53A3.6,3.6,0,0,0,32.47,32.88Z"/><path class="cls-2" d="M23.44,29.24a43.18,43.18,0,0,0,3.38,2.87,1.67,1.67,0,0,0,1,.32A1.57,1.57,0,0,0,29,31.86a1.58,1.58,0,0,0-.25-2.17c-2.87-2.24-5.49-4.92-5.75-5.81a24.28,24.28,0,0,1,.83-4.21l.45.06a22.46,22.46,0,0,0-.83,4.09,16,16,0,0,0,3.64,3.89,1.58,1.58,0,0,1,.57-.51c2.49-1.41,4.41-3.06,4.66-3.64a22.67,22.67,0,0,0-.44-4l.44-.06a24.93,24.93,0,0,1,.45,4.14c-.26.77-2.55,2.62-4.92,4a3.55,3.55,0,0,0-.44.38A15.09,15.09,0,0,0,29,29.24a2,2,0,0,1,.64.83c.45-.25,1.66-1,2.81-1.85,2.43-1.85,3.45-3.26,3.45-4.72A40.64,40.64,0,0,0,35.44,19a7,7,0,0,0-1.91-4.21,2.5,2.5,0,0,0-1.28-.57H31.8a4.87,4.87,0,0,1-3.76,1,4.74,4.74,0,0,1-2.3-1H24.53a1.46,1.46,0,0,0-.71.19A3.86,3.86,0,0,0,22,16a12.11,12.11,0,0,0-1.28,3,25.39,25.39,0,0,0-.83,4.54C19.74,25,20.82,26.75,23.44,29.24Z"/></svg>