<svg id="Layer_1" data-name="Layer 1" xmlns="http://www.w3.org/2000/svg" viewBox="0 0 56 56"><defs><style>.cls-1{fill:#00467f;}.cls-2,.cls-3{fill:#fff;}.cls-2{stroke:#00467f;stroke-miterlimit:10;stroke-width:0.5px;}</style></defs><title>Vomiting</title><circle class="cls-1" cx="28" cy="28" r="27.76"/><path class="cls-2" d="M35.18,30.23A1.67,1.67,0,1,0,35,26.89a19.16,19.16,0,0,1-6-.32c-.18-.23-.23-.46-.32-1.19a12.46,12.46,0,0,0-1.05-3.89c-.14-.32-1-1.55-1.14-1.83a4.11,4.11,0,0,0-4.17-2.15c-3.61.41-10.61,2.47-10.43,9.56a14.14,14.14,0,0,0,1.24,4,8.68,8.68,0,0,1,1,3.29c-.28.65-2.38,2.06-4.67,3a2.19,2.19,0,0,0,.82,4.21,2.66,2.66,0,0,0,.83-.13c2-.83,6.77-3.07,7.32-6.27a7.79,7.79,0,0,0-.32-3.39,20.23,20.23,0,0,1,3.43,1.7,25.69,25.69,0,0,1-1.65,5.21A2.17,2.17,0,0,0,21,41.58a1.77,1.77,0,0,0,.86.18,2.24,2.24,0,0,0,2-1.33,35.25,35.25,0,0,0,1.28-3.52c.78-2.47,1.23-4.94-.32-6.31a20,20,0,0,0-5-2.75,11.94,11.94,0,0,1,5.26-3.52,11.38,11.38,0,0,1,.28,1.55A5.26,5.26,0,0,0,26.62,29c.6.68,2.2,1.41,6,1.41C33.4,30.32,34.26,30.28,35.18,30.23Z"/><circle class="cls-2" cx="31.38" cy="16.91" r="4.67"/><path class="cls-3" d="M30.28,24c-.18.46-.09,1,.28,1.1a.85.85,0,0,0,1-.55,7.63,7.63,0,0,0,.09-1.93A7.56,7.56,0,0,0,30.28,24Z"/><path class="cls-3" d="M32.85,24.6a.71.71,0,1,0,1.32-.36A6.06,6.06,0,0,0,33,22.68,5.47,5.47,0,0,0,32.85,24.6Z"/><path class="cls-3" d="M34,21.86a7.62,7.62,0,0,0,1.09,1.6.84.84,0,0,0,1.15-.09.83.83,0,0,0-.37-1.1A6.4,6.4,0,0,0,34,21.86Z"/><path class="cls-2" d="M46.09,33.53a2.37,2.37,0,0,0,2.38-2.38v-12a2.36,2.36,0,0,0-2.38-2.38H43.6a2.36,2.36,0,0,0-2.38,2.38V31.1h-.73V17.65a.63.63,0,0,0-.64-.64h-.51a.63.63,0,0,0-.64.64V31.1H27.54a.5.5,0,0,0-.5.59c.32,2.8,2.92,5.95,4.85,7.92a6.27,6.27,0,0,0,4.53,1.92h7.8a1.88,1.88,0,0,0,1.87-1.87V33.57h0Z"/></svg>