<svg id="Layer_1" data-name="Layer 1" xmlns="http://www.w3.org/2000/svg" viewBox="0 0 56 56"><defs><style>.cls-1{fill:#00467f;}.cls-2{fill:#fff;}</style></defs><title>Watery_Eyes</title><circle class="cls-1" cx="28" cy="28" r="27.76"/><path class="cls-2" d="M27.72,17.37h-.28a13.11,13.11,0,0,0-1.44.07c-10.69.79-17.52,9-17.82,9.37a1.3,1.3,0,0,0-.25.79,1.21,1.21,0,0,0,.26.87A26.42,26.42,0,0,0,26,36.6c6,.17,13.25-1.86,21.36-8.58l.06-.05,0-.06v-.06c0-.05.06-.05.06-.11s.06,0,.06-.11.06-.06.06-.11,0-.06.06-.12v-.69c0-.05,0-.05-.06-.11s0-.06-.05-.12-.06-.06,0-.11-.06-.06-.06-.12v-.06l0-.06-.06-.06C41.07,20.33,34.44,17.33,27.72,17.37Zm-1.54,2h.12a9.08,9.08,0,0,1,1.38,0A7.29,7.29,0,0,1,27,33.91a7.32,7.32,0,0,1-.85-14.56Zm10.08,7.48A9.91,9.91,0,0,0,34,20.32a34.43,34.43,0,0,1,11.3,6.77,37.75,37.75,0,0,1-12.1,6.6A10.07,10.07,0,0,0,36.26,26.83Zm-16.41-6a9.73,9.73,0,0,0-1.76,5.39,9.88,9.88,0,0,0,3.61,7.94,26.24,26.24,0,0,1-11.55-6.56A29.2,29.2,0,0,1,19.85,20.86Z"/><path class="cls-2" d="M27.1,31.17a4.58,4.58,0,1,0-4.45-4.71A4.52,4.52,0,0,0,27.1,31.17Zm.21-7.33a2.75,2.75,0,1,1-.16,5.5,2.79,2.79,0,0,1-2.67-2.83A2.68,2.68,0,0,1,27.31,23.84Z"/><path class="cls-2" d="M18.46,43.37a5.76,5.76,0,0,0,5.75-5.74c0-2.88-4.45-9-5-9.68a1,1,0,0,0-1.53,0c-.53.67-5,6.8-5,9.68A5.72,5.72,0,0,0,18.46,43.37Zm0-13.21c1.73,2.49,3.83,6,3.83,7.47a3.83,3.83,0,1,1-7.66,0C14.63,36.14,16.74,32.65,18.46,30.16Z"/><path class="cls-1" d="M18.46,30.16c1.73,2.49,3.83,6,3.83,7.47a3.83,3.83,0,1,1-7.66,0C14.63,36.14,16.74,32.65,18.46,30.16Z"/></svg>